<svg width="30" height="30" viewBox="0 0 30 30" fill="none" xmlns="http://www.w3.org/2000/svg">
<g clip-path="url(#clip0_226_7868)">
<path d="M20.3496 29.8016C25.5169 29.8016 29.7142 25.5922 29.7435 20.4532L29.8018 12.8866L29.7142 12.475L29.4659 11.957L29.046 11.6323C28.501 11.2045 25.7379 11.6613 24.994 10.9856C24.4662 10.5035 24.3838 9.63247 24.2241 8.45194C23.9274 6.16563 23.7397 6.04643 23.3815 5.27126C22.0814 2.519 18.5513 0.450686 16.1264 0.164856H9.55757C4.38992 0.164856 0.165039 4.38051 0.165039 9.5294V20.4532C0.165039 25.5922 4.38992 29.8016 9.55757 29.8016H20.3496ZM9.67711 7.81541H14.8849C15.8794 7.81541 16.6845 8.62252 16.6845 9.60349C16.6845 10.5805 15.8794 11.3942 14.8849 11.3942H9.67711C8.68263 11.3942 7.87915 10.5802 7.87915 9.60349C7.87915 8.62252 8.68263 7.81541 9.67711 7.81541ZM7.87915 20.3149C7.87915 19.3342 8.68263 18.533 9.67711 18.533H20.2591C21.247 18.533 22.0491 19.3342 22.0491 20.3149C22.0491 21.2823 21.247 22.0964 20.2591 22.0964H9.67711C8.68263 22.0964 7.87915 21.2827 7.87915 20.3149Z" fill="black" fill-opacity="0.6"/>
</g>
<defs>
<clipPath id="clip0_226_7868">
<rect width="30" height="30" fill="white"/>
</clipPath>
</defs>
</svg>
