<svg width="249" height="127" viewBox="0 0 249 127" fill="none" xmlns="http://www.w3.org/2000/svg">
<g clip-path="url(#clip0_309_4069)">
<path d="M237.948 70.2125L237.168 76.4101L235.232 91.8037H196.342C196.645 88.3535 197.061 83.3874 197.504 78.0264C197.548 77.491 197.594 76.9522 197.637 76.4101C198.75 62.934 199.967 47.6843 199.967 47.6843L205.079 48.6347L214.999 50.4753L219.041 51.2249L229.866 53.2361C235.262 54.2367 238.975 62.0339 237.948 70.2125Z" fill="#F2F2F2"/>
<path d="M208.532 22.7468L213.314 31.0977L204.122 37.5978L200.201 27.333L208.532 22.7468Z" fill="#FFB6B6"/>
<path d="M202.442 30.6472C208.985 30.6472 214.289 25.3542 214.289 18.825C214.289 12.2959 208.985 7.00293 202.442 7.00293C195.898 7.00293 190.594 12.2959 190.594 18.825C190.594 25.3542 195.898 30.6472 202.442 30.6472Z" fill="#FFB6B6"/>
<path d="M201.591 21.468C200.651 20.0393 201.02 19.2921 200.232 18.7671C200.232 18.767 199.915 18.5558 197.647 18.4353C197.139 14.7882 196.505 14.3459 196.505 14.3459C195.775 13.8361 194.69 14.0018 194.016 14.3135C192.589 14.9729 192.755 16.3972 191.794 16.6698C190.467 17.0463 188.053 14.9237 187.815 12.4938C187.621 10.5116 188.901 8.5865 189.408 8.68834C189.911 8.78932 191.116 7.2543 191.767 7.27797C192.211 7.29414 194.027 6.50677 194.515 6.56833C195.049 6.63556 196.807 7.55128 196.88 7.34206C197.39 5.88823 197.24 5.48485 197.672 5.06895C198.438 4.33196 199.69 4.84518 201.655 5.1207C205.698 5.6876 206.404 4.3574 208.476 5.25902C209.523 5.71448 210.398 6.94279 212.107 9.38082C214.497 12.7904 215.692 14.4951 215.7 16.4835C215.707 18.5113 214.723 18.3826 214.291 21.3846C213.81 24.7263 214.832 26.2543 213.715 27.3399C212.852 28.179 211.098 28.3782 210.176 27.6418C208.597 26.381 210.663 23.3387 208.916 21.116C207.844 19.7516 205.688 19.1445 204.7 19.8189C203.584 20.5815 204.199 22.8198 203.413 23.0321C202.741 23.2139 201.755 21.717 201.591 21.468Z" fill="#2F2E41"/>
<path d="M229.19 68.03C228.859 73.6681 227.547 75.4481 227.087 82.1067C226.987 83.5686 226.926 85.2655 226.926 87.2892C226.926 87.8051 226.929 88.3039 226.929 88.7912C226.929 89.8287 226.909 90.8092 226.788 91.8037C226.697 92.5977 226.539 93.3974 226.277 94.2401H200.76C200.757 94.2344 200.757 94.2287 200.754 94.2229C200.605 93.5752 200.51 92.956 200.438 92.3627C200.415 92.1735 200.395 91.9872 200.378 91.8037C200.355 91.5887 200.335 91.3767 200.315 91.1675C200.237 90.3333 200.16 89.545 199.976 88.7912C199.729 87.7506 199.28 86.7703 198.361 85.8245C197.985 85.4375 197.609 85.1366 197.241 84.8729C197.169 84.8241 197.1 84.7753 197.028 84.7266C196.011 84.0301 195.049 83.5284 194.216 82.1067C194.202 82.0867 194.19 82.0638 194.179 82.0438C194.035 81.7943 193.662 81.1407 193.392 80.2695C193.107 79.3637 192.935 78.2256 193.245 77.062C193.983 74.3045 196.718 74.0294 198.953 71.2432C199.194 70.9423 199.433 70.6097 199.66 70.24C200.671 68.6003 200.944 67.1558 201.265 65.4388C201.317 65.1607 201.363 64.8855 201.4 64.619C201.429 64.4183 201.455 64.2206 201.475 64.0256C201.653 62.3889 201.567 60.9787 201.357 59.7175C200.674 55.587 198.657 53.0302 200.082 49.3239C200.53 48.1603 201.165 47.286 201.805 46.5379C203.161 44.9527 204.555 43.9237 204.313 41.8772C204.069 39.8134 202.501 39.5295 202.325 37.7266C202.236 36.8151 202.535 35.8549 203.095 34.9118V34.909C204.888 31.8734 209.363 29.0787 212.207 29.1676C212.733 29.182 213.198 29.2994 213.586 29.5259C214.991 30.3514 214.405 32.1543 216.556 34.6826C218.156 36.56 219.966 37.311 220.653 37.6664C223.373 39.0825 225.585 43.2588 227.087 48.5988C227.099 48.639 227.11 48.679 227.122 48.7221C228.05 52.0671 228.705 55.8651 229.029 59.7175C229.167 61.3484 229.247 62.9881 229.265 64.6103C229.279 65.906 229.25 67.0297 229.19 68.03Z" fill="#6C63FF"/>
<path d="M210.083 87.3465L209.562 88.7912L209.235 89.6969L208.477 91.8037L207.598 94.2401H201.947L202.895 91.8037L203.335 90.6686L204.064 88.7912L205.288 85.6382L210.083 87.3465Z" fill="#FFB6B6"/>
<path d="M227.177 48.1058C227.163 48.2922 227.143 48.4985 227.123 48.7221C226.899 50.998 226.37 55.0711 225.597 59.7175C225.189 62.1682 224.712 64.7796 224.175 67.3736C223.021 72.9716 221.584 78.4838 219.961 82.1068C219.671 82.7604 219.372 83.3509 219.068 83.8725C218.835 84.271 218.591 84.6636 218.335 85.0506C217.508 86.3204 216.58 87.5244 215.618 88.648C215.58 88.6967 215.537 88.7426 215.494 88.7913C215.339 88.9746 215.178 89.1553 215.017 89.3359C214.23 90.2215 213.426 91.047 212.648 91.8038C211.7 92.7268 210.786 93.5438 209.967 94.2402H200.792L200.755 94.223L199.434 93.6382C199.434 93.6382 199.81 93.1968 200.439 92.3628C200.568 92.1936 200.706 92.0073 200.856 91.8038C201.039 91.5544 201.238 91.2792 201.45 90.9811C201.892 90.3563 202.395 89.6225 202.935 88.7913C203.981 87.1831 205.173 85.2054 206.377 82.9152C206.515 82.6486 206.655 82.3791 206.796 82.1068C206.799 82.0982 206.805 82.0896 206.808 82.081C207.046 81.6166 207.282 81.138 207.517 80.6506C209.514 76.5059 210.085 73.0662 210.249 71.9513C210.479 70.3748 210.797 68.1704 210.711 65.7455C210.654 64.1461 210.421 62.4549 209.867 60.7752V60.7724C209.752 60.4199 209.623 60.0673 209.476 59.7175C209.215 59.0898 208.904 58.4706 208.537 57.8601C206.914 55.1715 205.595 55.0597 204.547 52.1302C204.237 51.2617 203.533 49.3012 203.748 47.2316V47.2288C203.774 46.9736 203.817 46.7157 203.875 46.4576V46.4548C203.889 46.3831 203.909 46.3087 203.929 46.237C204.093 45.6036 204.363 44.9757 204.774 44.3795C205.575 43.2216 206.67 42.5335 207.649 42.1237L207.652 42.1208C208.784 41.6508 209.761 41.5505 209.95 41.5332C214.147 41.1607 217.402 44.6805 219.18 46.6038C219.866 47.3462 220.496 47.9683 221.07 48.4755C225.543 52.4599 226.769 49.9145 227.088 48.5988C227.137 48.3953 227.163 48.2205 227.177 48.1058Z" fill="#6C63FF"/>
<path d="M227.192 47.9568C227.192 47.9711 227.189 48.0198 227.178 48.1001C227.183 48.057 227.186 48.014 227.189 47.9739C227.189 47.9653 227.189 47.9596 227.192 47.9568Z" fill="#6C63FF"/>
<path d="M204.378 108.44H50.3918C48.9611 108.44 47.7949 109.601 47.7949 111.029C47.7949 112.459 48.9611 113.62 50.3918 113.62H204.378C205.808 113.62 206.972 112.459 206.972 111.029C206.972 109.601 205.808 108.44 204.378 108.44Z" fill="#E6E6E6"/>
<path d="M170.204 121.821H84.5607C83.1301 121.821 81.9668 122.981 81.9668 124.409C81.9668 125.836 83.1301 127 84.5607 127H170.204C171.635 127 172.801 125.836 172.801 124.409C172.801 122.981 171.635 121.821 170.204 121.821Z" fill="#E6E6E6"/>
<path d="M67.5254 23.2965L77.2301 19.2212L81.3926 27.7359L71.1944 31.8894L67.5254 23.2965Z" fill="#FFB6B6"/>
<path opacity="0.1" d="M67.5254 23.2965L77.2301 19.2212L81.3926 27.7359L71.1944 31.8894L67.5254 23.2965Z" fill="black"/>
<path d="M68.9055 20.0519L78.4794 31.0587C78.4794 31.0587 71.8193 52.034 65.1593 53.9031C58.4992 55.7722 46.2197 64.9099 46.2197 64.9099L30.8184 54.9414L38.3109 43.9346C38.3109 43.9346 56.4179 19.2212 61.2049 19.2212C65.9918 19.2212 68.9055 20.0519 68.9055 20.0519Z" fill="#6C63FF"/>
<path d="M55.9701 91.8037H33.6839L32.2749 89.9242L26.5223 82.2506L25.1986 80.4854C25.1986 80.4854 20.2036 71.3477 21.2442 63.0406C22.2848 54.7336 33.1074 52.8645 33.1074 52.8645H33.5528L46.8021 64.4819L46.0113 75.2935L50.2071 82.2506L55.9701 91.8037Z" fill="#2F2E41"/>
<path d="M38.2486 91.8038H32.2754V82.9775L38.2486 91.8038Z" fill="#2F2E41"/>
<path d="M167.083 78.4046L166.34 82.2507L164.496 91.8038H127.451C127.74 89.6627 128.136 86.5808 128.558 83.2538C128.6 82.9215 128.644 82.5872 128.685 82.2507C129.745 73.8876 130.904 64.4238 130.904 64.4238L135.774 65.0136L145.223 66.1559L149.073 66.6211L159.384 67.8692C164.525 68.4901 168.061 73.329 167.083 78.4046Z" fill="#F2F2F2"/>
<path d="M219.509 91.8039H199.416C199.722 91.4446 199.895 91.2369 199.895 91.2369L205.918 90.2442L218.328 88.2007C218.328 88.2007 218.895 89.6606 219.509 91.8039Z" fill="#2F2E41"/>
<path d="M134.281 27.4502L143.018 39.7808L127.777 40.235L126.141 28.6471L134.281 27.4502Z" fill="#A0616A"/>
<path opacity="0.1" d="M134.281 27.4502L143.018 39.7808L127.777 40.235L126.141 28.6471L134.281 27.4502Z" fill="black"/>
<path d="M91.1896 52.9984C90.0684 49.7711 87.4908 47.7323 85.4326 48.4447C83.3744 49.157 82.6153 52.3502 83.7373 55.5785C84.1678 56.8742 84.9029 58.0482 85.8813 59.0023L90.8048 72.6166L97.1583 70.175L91.63 57.0129C91.8066 55.6588 91.6556 54.2822 91.1896 52.9984Z" fill="#A0616A"/>
<path d="M150.336 46.7154L150.324 59.2818L149.152 63.9234L146.742 73.4703L144.988 82.2508L143.681 88.7926L143.214 91.1289C142.863 91.3636 142.513 91.5879 142.163 91.8039H111.721C109.991 90.7676 109.023 89.9618 109.023 89.9618C109.023 89.9618 109.502 89.5132 110.05 88.7926C110.974 87.5756 112.091 85.5819 111.406 83.6775C111.263 83.2788 111.225 82.7928 111.269 82.2508C111.548 78.6746 115.307 72.6271 115.307 72.6271L114.528 63.6513L114.187 59.718L116.594 40.539L124.438 35.9888L125.792 35.8581L139.16 35.1375L144.685 35.4552L144.937 35.5237L150.336 46.7154Z" fill="#CCCCCC"/>
<path d="M150.93 91.8039H144.27L143.977 88.7926L143.971 88.7324L145.856 88.6036L150.762 88.2693L150.847 90.0719L150.914 91.4551L150.93 91.8039Z" fill="#FFB6B6"/>
<path d="M152.571 49.7536L155.368 66.133L153.085 82.2507L152.729 84.7594L152.101 89.1892L151.907 90.5515L151.913 90.699L151.961 91.8038H144.053L143.761 88.7925L143.736 88.5225L143.141 82.3546L143.131 82.2507L141.867 69.1713L144.344 59.7179L144.527 59.0222V59.0201L145.605 42.8338L144.77 35.478L144.762 35.4094C144.778 35.4198 144.793 35.4302 144.81 35.4406C144.853 35.4676 144.897 35.4946 144.939 35.5237C149.8 38.6014 152.698 44.001 152.571 49.7536Z" fill="#CCCCCC"/>
<path d="M119.428 43.6774L116.387 40.5386C116.387 40.5386 109.876 43.4673 109.551 45.0922C109.227 46.717 97.7317 70.5816 97.7317 70.5816L92.7306 57.2533L86.2207 61.5902C86.2207 61.5902 91.4442 82.2831 96.3293 83.2546C101.214 84.2261 117.587 58.7625 117.587 58.7625L119.428 43.6774Z" fill="#CCCCCC"/>
<path d="M242.919 82.1067H6.07847C2.72617 82.1067 0 84.8298 0 88.1748C0 91.5198 2.72617 94.2401 6.07847 94.2401H242.919C246.271 94.2401 249 91.52 249 88.1748C249 84.8296 246.271 82.1067 242.919 82.1067Z" fill="#E6E6E6"/>
<path d="M148.951 63.6162L148.49 85.0575C148.446 87.133 146.747 88.7924 144.666 88.7924H105.138C103.107 88.7924 101.43 87.208 101.319 85.184L100.144 63.7428C100.025 61.5563 101.769 59.7178 103.964 59.7178H145.127C147.271 59.7178 148.997 61.4768 148.951 63.6162Z" fill="#3F3D56"/>
<path d="M85.1388 28.4722C90.3618 28.4722 94.5959 24.2472 94.5959 19.0355C94.5959 13.8238 90.3618 9.59888 85.1388 9.59888C79.9157 9.59888 75.6816 13.8238 75.6816 19.0355C75.6816 24.2472 79.9157 28.4722 85.1388 28.4722Z" fill="#FFB6B6"/>
<path d="M69.3219 43.7268L70.3626 54.9413L77.4389 83.3929L71.3255 85.531L60.9969 54.526L59.5703 42.0654L69.3219 43.7268Z" fill="#FFB6B6"/>
<path d="M66.5074 63.6162L66.047 85.0575C66.0024 87.133 64.3034 88.7924 62.2228 88.7924H22.6951C20.6638 88.7924 18.9867 87.208 18.8758 85.184L17.7011 63.7428C17.5813 61.5563 19.3259 59.7178 21.5204 59.7178H62.6833C64.8279 59.7178 66.5534 61.4768 66.5074 63.6162Z" fill="#3F3D56"/>
<path d="M78.5664 88.9374C82.6913 88.9374 86.0352 87.4616 86.0352 85.6411C86.0352 83.8205 82.6913 82.3447 78.5664 82.3447C74.4415 82.3447 71.0977 83.8205 71.0977 85.6411C71.0977 87.4616 74.4415 88.9374 78.5664 88.9374Z" fill="#FFB6B6"/>
<path d="M54.6484 45.4413L58.915 22.7515C58.915 22.7515 70.7783 21.0901 71.1945 25.0359C71.6108 28.9818 70.8971 48.2656 70.8971 48.2656L54.6484 45.4413Z" fill="#6C63FF"/>
<path d="M81.3213 20.5191C81.3213 20.5191 87.1714 18.4357 89.6392 17.3148C92.1069 16.1938 97.0094 24.0125 97.1185 19.8832C97.2276 15.7539 95.5335 14.0222 95.5335 14.0222C95.5335 14.0222 95.1105 4.98883 85.9898 6.11822C85.9898 6.11822 87.9959 1.5987 81.4106 0.899843C74.8253 0.200982 64.5803 16.069 65.4978 18.4404C66.4153 20.8118 67.5152 22.7723 64.9121 25.3079C62.309 27.8434 57.4346 42.1533 61.1432 46.004C64.8519 49.8547 65.0952 51.5257 62.5542 53.9213C60.0132 56.3169 54.007 61.5259 60.5011 62.4302C66.9952 63.3345 59.907 62.6591 64.7484 58.4097C69.5899 54.1604 76.6546 54.3339 74.0168 47.5162C71.3789 40.6984 75.9618 30.9287 75.3884 29.4466C74.8149 27.9644 76.6732 18.5529 76.6732 18.5529C76.6732 18.5529 80.9979 17.9189 81.3213 20.5191Z" fill="#2F2E41"/>
<path d="M129.609 31.9133C135.295 31.9133 139.904 27.3142 139.904 21.6409C139.904 15.9675 135.295 11.3684 129.609 11.3684C123.924 11.3684 119.314 15.9675 119.314 21.6409C119.314 27.3142 123.924 31.9133 129.609 31.9133Z" fill="#A0616A"/>
<path d="M130.43 7.83021C130.132 8.00373 129.733 7.7412 129.638 7.41048C129.542 7.07976 129.653 6.72862 129.764 6.40252L130.319 4.7609C130.713 3.59663 131.131 2.39167 131.984 1.50551C133.272 0.167985 135.319 -0.172274 137.161 0.0742317C139.527 0.390795 141.861 1.6691 142.961 3.78294C144.061 5.89679 143.593 8.84636 141.605 10.1652C144.438 13.4052 145.425 17.016 145.27 21.313C145.114 25.61 140.421 29.5646 137.36 32.5916C136.677 32.1782 136.056 30.2409 136.432 29.5371C136.807 28.8334 136.269 28.018 136.734 27.3697C137.2 26.7215 137.589 27.7537 137.119 27.1091C136.822 26.7024 137.981 25.7666 137.539 25.5232C135.404 24.3457 134.694 21.6905 133.354 19.6573C131.736 17.2048 128.968 15.5439 126.039 15.2684C124.426 15.1166 122.721 15.3915 121.399 16.3262C120.076 17.261 119.22 18.9313 119.527 20.5194C118.732 19.7146 118.337 18.5352 118.486 17.4156C118.635 16.2959 119.326 15.2605 120.303 14.6907C119.709 12.7297 120.218 10.474 121.597 8.95647C122.977 7.43897 128.572 7.69743 130.586 8.09681L130.43 7.83021Z" fill="#2F2E41"/>
<path d="M130.742 15.3279C133.409 15.6152 135.335 17.9205 136.961 20.0495C137.899 21.2766 138.88 22.6318 138.857 24.1745C138.833 25.7342 137.788 27.072 137.288 28.5501C136.472 30.9662 137.268 33.8407 139.211 35.4962C137.291 35.8598 135.215 34.4231 134.883 32.501C134.498 30.2635 136.197 28.104 135.996 25.8425C135.819 23.8501 134.245 22.3167 132.908 20.827C131.57 19.3373 130.313 17.3604 130.929 15.4568L130.742 15.3279Z" fill="#2F2E41"/>
<path d="M170.617 83.4052C167.975 84.9046 166.609 87.4802 167.565 89.1577C168.522 90.8352 171.438 90.9792 174.081 89.4789C175.145 88.8941 176.053 88.0635 176.729 87.0567L187.842 80.5627L184.677 75.4238L174.057 82.3713C172.844 82.4368 171.664 82.7913 170.617 83.4052Z" fill="#FFB6B6"/>
<path d="M208.244 35.7841C207.912 35.6528 204.998 34.5516 202.337 36.0055C199.282 37.6755 198.81 41.4878 198.644 42.825C198.262 45.9138 199.388 46.6061 199.626 49.7331C200.071 55.5835 201.244 48.9094 199.371 51.5798C198.722 52.5041 192.098 66.8284 188.445 69.6341C181.34 75.0909 176.828 78.9338 176.828 78.9338L181.979 84.5168C181.979 84.5168 190.118 82.3529 197.312 77.6919C204.691 72.9108 208.381 70.5203 211.235 65.8437C211.481 65.441 217.363 55.4743 214.204 44.4535C213.483 41.9397 212.163 37.3339 208.244 35.7841Z" fill="#6C63FF"/>
<path d="M234.841 63.6162L234.381 85.0575C234.336 87.133 232.637 88.7924 230.557 88.7924H191.029C188.998 88.7924 187.321 87.208 187.21 85.184L186.035 63.7428C185.915 61.5563 187.66 59.7178 189.854 59.7178H231.017C233.162 59.7178 234.887 61.4768 234.841 63.6162Z" fill="#3F3D56"/>
</g>
<defs>
<clipPath id="clip0_309_4069">
<rect width="249" height="127" fill="white"/>
</clipPath>
</defs>
</svg>
