<svg width="20" height="13" viewBox="0 0 20 13" fill="none" xmlns="http://www.w3.org/2000/svg">
<path fill-rule="evenodd" clip-rule="evenodd" d="M19 6.5C19.731 5.81763 19.7309 5.81748 19.7307 5.8173L19 6.5ZM19.7307 5.8173L19.7252 5.81148L19.712 5.79746L19.6639 5.74687C19.6224 5.70345 19.5621 5.64107 19.4848 5.56241C19.3301 5.40517 19.1066 5.18255 18.8269 4.91629C18.2686 4.38488 17.4804 3.67413 16.5639 2.96083C15.6505 2.24991 14.5897 1.52099 13.4866 0.966045C12.3951 0.416934 11.1876 0 10 0C8.8124 0 7.60491 0.416934 6.51338 0.966045C5.41025 1.52099 4.34954 2.24991 3.43607 2.96083C2.51955 3.67413 1.73145 4.38488 1.17315 4.91629C0.893414 5.18255 0.669918 5.40517 0.515247 5.56241C0.437879 5.64107 0.377637 5.70345 0.336091 5.74687L0.287959 5.79746L0.274757 5.81148L0.270935 5.81555L0.269726 5.81684C0.269562 5.81702 0.268989 5.81763 1 6.5L0.268989 5.81763C-0.0896631 6.20185 -0.0896631 6.79815 0.268989 7.18237C0.268825 7.18219 0.268989 7.18237 1 6.5L0.268989 7.18237L0.270935 7.18445L0.274757 7.18852L0.287959 7.20254L0.336091 7.25313C0.377637 7.29655 0.437879 7.35893 0.515247 7.43759C0.669918 7.59483 0.893414 7.81745 1.17315 8.08371C1.73145 8.61512 2.51955 9.32587 3.43607 10.0392C4.34954 10.7501 5.41025 11.479 6.51338 12.034C7.60491 12.5831 8.8124 13 10 13C11.1876 13 12.3951 12.5831 13.4866 12.034C14.5897 11.479 15.6505 10.7501 16.5639 10.0392C17.4804 9.32587 18.2686 8.61512 18.8269 8.08371C19.1066 7.81745 19.3301 7.59483 19.4848 7.43759C19.5621 7.35893 19.6224 7.29655 19.6639 7.25313L19.712 7.20254L19.7252 7.18852L19.7303 7.18316C19.7304 7.18298 19.731 7.18237 19 6.5L19.731 7.18237C20.0897 6.79815 20.0894 6.20152 19.7307 5.8173ZM8.5 6.5C8.5 5.67157 9.17157 5 10 5C10.8284 5 11.5 5.67157 11.5 6.5C11.5 7.32843 10.8284 8 10 8C9.17157 8 8.5 7.32843 8.5 6.5ZM10 3C8.067 3 6.5 4.567 6.5 6.5C6.5 8.433 8.067 10 10 10C11.933 10 13.5 8.433 13.5 6.5C13.5 4.567 11.933 3 10 3Z" fill="black" fill-opacity="0.5"/>
</svg>
