<svg width="31" height="30" viewBox="0 0 31 30" fill="none" xmlns="http://www.w3.org/2000/svg">
    <path
        d="M15.3797 0C6.88683 0 0 6.88562 0 15.3797C0 22.175 4.40675 27.9399 10.5176 29.9736C11.2862 30.1159 11.5685 29.6399 11.5685 29.2337C11.5685 28.867 11.5541 27.6554 11.5476 26.3703C7.26883 27.3006 6.36599 24.5557 6.36599 24.5557C5.66639 22.778 4.65836 22.3054 4.65836 22.3054C3.26303 21.3508 4.76354 21.3703 4.76354 21.3703C6.30797 21.4789 7.12119 22.9553 7.12119 22.9553C8.49289 25.3065 10.7191 24.6267 11.5967 24.2339C11.7347 23.2397 12.1333 22.5613 12.5731 22.1773C9.15715 21.7883 5.56603 20.4695 5.56603 14.5765C5.56603 12.8975 6.16684 11.5254 7.15074 10.4484C6.99104 10.061 6.46466 8.49675 7.29971 6.37829C7.29971 6.37829 8.5912 5.96492 11.5302 7.9548C12.7569 7.61393 14.0727 7.44313 15.3797 7.43734C16.6868 7.44313 18.0035 7.61393 19.2326 7.9548C22.1681 5.96492 23.4578 6.37829 23.4578 6.37829C24.2949 8.49675 23.7683 10.061 23.6086 10.4484C24.5946 11.5254 25.1913 12.8973 25.1913 14.5765C25.1913 20.4835 21.5935 21.7843 18.1688 22.165C18.7204 22.6423 19.2119 23.5783 19.2119 25.0131C19.2119 27.0709 19.1941 28.7271 19.1941 29.2337C19.1941 29.643 19.4709 30.1225 20.2506 29.9715C26.3581 27.9356 30.7593 22.1727 30.7593 15.3797C30.7593 6.88562 23.8734 0 15.3797 0Z"
        fill="black" fill-opacity="0.6" />
</svg>