<svg width="31" height="30" viewBox="0 0 31 30" fill="none" xmlns="http://www.w3.org/2000/svg">
<path d="M15.3797 0C6.88683 0 0 6.88562 0 15.3797C0 22.175 4.40675 27.9399 10.5176 29.9736C11.2862 30.1159 11.5685 29.6399 11.5685 29.2337C11.5685 28.867 11.5541 27.6554 11.5476 26.3703C7.26883 27.3006 6.36599 24.5557 6.36599 24.5557C5.66639 22.778 4.65836 22.3054 4.65836 22.3054C3.26303 21.3508 4.76354 21.3703 4.76354 21.3703C6.30797 21.4789 7.12119 22.9553 7.12119 22.9553C8.49289 25.3065 10.7191 24.6267 11.5967 24.2339C11.7347 23.2397 12.1333 22.5613 12.5731 22.1773C9.15715 21.7883 5.56603 20.4695 5.56603 14.5765C5.56603 12.8975 6.16684 11.5254 7.15074 10.4484C6.99104 10.061 6.46466 8.49675 7.29971 6.37829C7.29971 6.37829 8.5912 5.96492 11.5302 7.9548C12.7569 7.61393 14.0727 7.44313 15.3797 7.43734C16.6868 7.44313 18.0035 7.61393 19.2326 7.9548C22.1681 5.96492 23.4578 6.37829 23.4578 6.37829C24.2949 8.49675 23.7683 10.061 23.6086 10.4484C24.5946 11.5254 25.1913 12.8973 25.1913 14.5765C25.1913 20.4835 21.5935 21.7843 18.1688 22.165C18.7204 22.6423 19.2119 23.5783 19.2119 25.0131C19.2119 27.0709 19.1941 28.7271 19.1941 29.2337C19.1941 29.643 19.4709 30.1225 20.2506 29.9715C26.3581 27.9356 30.7593 22.1727 30.7593 15.3797C30.7593 6.88562 23.8734 0 15.3797 0Z" fill="black" fill-opacity="0.6"/>
<path d="M5.76007 21.9088C5.7263 21.9852 5.60592 22.0081 5.49651 21.9557C5.38494 21.9056 5.32222 21.8013 5.3584 21.7246C5.39157 21.646 5.51195 21.624 5.62329 21.6769C5.7351 21.7269 5.79879 21.8321 5.76007 21.9088ZM6.5166 22.5838C6.44327 22.6518 6.29985 22.6202 6.20251 22.5128C6.10191 22.4055 6.08309 22.2622 6.15752 22.1931C6.23314 22.1252 6.37222 22.1569 6.47306 22.2643C6.57366 22.3727 6.5932 22.5152 6.51648 22.5839L6.5166 22.5838ZM7.03563 23.4474C6.94131 23.5129 6.78716 23.4515 6.69199 23.3148C6.59778 23.1781 6.59778 23.0141 6.69404 22.9483C6.78957 22.8826 6.94131 22.9417 7.03781 23.0774C7.13189 23.2165 7.13189 23.3805 7.03551 23.4476L7.03563 23.4474ZM7.91327 24.4478C7.82896 24.5406 7.64947 24.5158 7.518 24.3889C7.38363 24.2649 7.34611 24.0889 7.43067 23.9959C7.51595 23.9028 7.69652 23.929 7.82896 24.0548C7.96248 24.1785 8.00325 24.3558 7.91339 24.4478H7.91327ZM9.04759 24.7855C9.01056 24.9059 8.83759 24.9606 8.66341 24.9095C8.48948 24.8568 8.37561 24.7156 8.41071 24.5939C8.4469 24.4727 8.62059 24.4157 8.79609 24.4704C8.96979 24.5229 9.08389 24.6629 9.04771 24.7855H9.04759ZM10.3387 24.9287C10.3431 25.0556 10.1953 25.1607 10.0124 25.163C9.82849 25.167 9.67976 25.0644 9.67783 24.9396C9.67783 24.8115 9.82221 24.7073 10.006 24.7043C10.1889 24.7007 10.3387 24.8026 10.3387 24.9287ZM11.6069 24.8801C11.6289 25.0038 11.5017 25.1309 11.3202 25.1647C11.1417 25.1973 10.9764 25.1209 10.9536 24.9983C10.9314 24.8714 11.061 24.7444 11.2391 24.7114C11.421 24.6798 11.5838 24.7542 11.6069 24.8801Z" fill="black" fill-opacity="0.6"/>
</svg>
