<svg width="59" height="54" viewBox="0 0 59 54" fill="none" xmlns="http://www.w3.org/2000/svg">
<g clip-path="url(#clip0_278_2712)">
<path d="M29.2494 54.0099L40.0069 20.8433H18.4917L29.2494 54.0099Z" fill="#E24329"/>
<path d="M29.2493 54.0096L18.4916 20.843H3.41553L29.2493 54.0096Z" fill="#FC6D26"/>
<path d="M3.41562 20.843L0.146624 30.9223C0.00127497 31.3703 0.00125492 31.853 0.146567 32.3011C0.291879 32.7492 0.575064 33.1397 0.955536 33.4167L29.2494 54.0099L3.41539 20.8432L3.41562 20.843Z" fill="#FCA326"/>
<path d="M3.41553 20.8432H18.4916L12.0128 0.867046C11.6794 -0.160874 10.2278 -0.160646 9.89459 0.867046L3.41553 20.8432Z" fill="#E24329"/>
<path d="M29.2492 54.0096L40.0067 20.843H55.0831L29.2492 54.0096Z" fill="#FC6D26"/>
<path d="M55.0833 20.843L58.3523 30.9223C58.4976 31.3704 58.4976 31.8531 58.3523 32.3012C58.2069 32.7493 57.9237 33.1398 57.5432 33.4167L29.2495 54.0099L55.0833 20.8432V20.843Z" fill="#FCA326"/>
<path d="M55.0832 20.8432H40.0068L46.4859 0.867046C46.8193 -0.160874 48.2709 -0.160646 48.6041 0.867046L55.0832 20.8432Z" fill="#E24329"/>
</g>
<defs>
<clipPath id="clip0_278_2712">
<rect width="58.4646" height="54" fill="white"/>
</clipPath>
</defs>
</svg>
