<svg width="1204" height="144" viewBox="0 0 1204 144" fill="none" xmlns="http://www.w3.org/2000/svg">
<g filter="url(#filter0_d_1147_1959)">
<mask id="mask0_1147_1959" style="mask-type:alpha" maskUnits="userSpaceOnUse" x="2" y="0" width="1200" height="140">
<rect x="2" width="1200" height="140" rx="10" fill="#3360FF"/>
</mask>
<g mask="url(#mask0_1147_1959)">
<rect x="2" width="1200" height="140" rx="10" fill="url(#paint0_linear_1147_1959)"/>
<path d="M1145.87 122.382H1013.87C1012.51 122.381 1011.2 122.021 1010.24 121.382C1009.28 120.743 1008.73 119.876 1008.73 118.972V20.9092C1008.73 20.0053 1009.28 19.1388 1010.24 18.4996C1011.2 17.8605 1012.51 17.501 1013.87 17.5H1145.87C1147.23 17.501 1148.53 17.8605 1149.49 18.4996C1150.46 19.1388 1151 20.0053 1151 20.9092V118.972C1151 119.876 1150.46 120.743 1149.49 121.382C1148.53 122.021 1147.23 122.381 1145.87 122.382ZM1013.87 17.9011C1012.67 17.902 1011.51 18.2192 1010.67 18.7831C1009.82 19.347 1009.34 20.1116 1009.34 20.9092V118.972C1009.34 119.77 1009.82 120.535 1010.67 121.098C1011.51 121.662 1012.67 121.98 1013.87 121.98H1145.87C1147.07 121.98 1148.22 121.662 1149.07 121.098C1149.92 120.535 1150.39 119.77 1150.4 118.972V20.9092C1150.39 20.1116 1149.92 19.347 1149.07 18.7831C1148.22 18.2192 1147.07 17.902 1145.87 17.9011H1013.87Z" fill="#3F3D56"/>
<path d="M1150.7 25.8405H1009.03V26.2415H1150.7V25.8405Z" fill="#3F3D56"/>
<path d="M1015.98 23.5162C1017.32 23.5162 1018.4 22.7979 1018.4 21.9119C1018.4 21.0258 1017.32 20.3076 1015.98 20.3076C1014.65 20.3076 1013.57 21.0258 1013.57 21.9119C1013.57 22.7979 1014.65 23.5162 1015.98 23.5162Z" fill="#338BFF"/>
<path d="M1023.53 23.5161C1024.87 23.5161 1025.95 22.7979 1025.95 21.9118C1025.95 21.0258 1024.87 20.3075 1023.53 20.3075C1022.2 20.3075 1021.12 21.0258 1021.12 21.9118C1021.12 22.7979 1022.2 23.5161 1023.53 23.5161Z" fill="#338BFF"/>
<path d="M1031.08 23.5161C1032.42 23.5161 1033.5 22.7979 1033.5 21.9118C1033.5 21.0258 1032.42 20.3075 1031.08 20.3075C1029.75 20.3075 1028.67 21.0258 1028.67 21.9118C1028.67 22.7979 1029.75 23.5161 1031.08 23.5161Z" fill="#338BFF"/>
<path d="M1126.99 40.562H1032.75C1031.7 40.562 1030.71 40.2873 1029.97 39.7984C1029.23 39.3095 1028.82 38.6464 1028.82 37.955C1028.82 37.2635 1029.23 36.6004 1029.97 36.1115C1030.71 35.6226 1031.7 35.348 1032.75 35.348H1126.99C1128.03 35.348 1129.03 35.6226 1129.76 36.1115C1130.5 36.6004 1130.91 37.2635 1130.91 37.955C1130.91 38.6464 1130.5 39.3095 1129.76 39.7984C1129.03 40.2873 1128.03 40.562 1126.99 40.562ZM1032.75 35.749C1031.86 35.749 1031.02 35.9814 1030.4 36.3951C1029.77 36.8088 1029.42 37.3699 1029.42 37.955C1029.42 38.54 1029.77 39.1011 1030.4 39.5148C1031.02 39.9285 1031.86 40.1609 1032.75 40.1609H1126.99C1127.87 40.1609 1128.71 39.9285 1129.34 39.5148C1129.96 39.1011 1130.31 38.54 1130.31 37.955C1130.31 37.3699 1129.96 36.8088 1129.34 36.3951C1128.71 35.9814 1127.87 35.749 1126.99 35.749H1032.75Z" fill="#3F3D56"/>
<path d="M1103.69 61.1352H1060.79C1060.15 61.1352 1059.54 60.9662 1059.08 60.6654C1058.63 60.3645 1058.38 59.9564 1058.38 59.5309C1058.38 59.1055 1058.63 58.6974 1059.08 58.3965C1059.54 58.0957 1060.15 57.9266 1060.79 57.9266H1103.69C1104.33 57.9266 1104.94 58.0957 1105.39 58.3965C1105.85 58.6974 1106.1 59.1055 1106.1 59.5309C1106.1 59.9564 1105.85 60.3645 1105.39 60.6654C1104.94 60.9662 1104.33 61.1352 1103.69 61.1352Z" fill="#CCCCCC"/>
<path d="M1128.45 66.5498H1060.79C1060.15 66.5498 1059.54 66.3808 1059.08 66.0799C1058.63 65.779 1058.38 65.371 1058.38 64.9455C1058.38 64.52 1058.63 64.1119 1059.08 63.8111C1059.54 63.5102 1060.15 63.3412 1060.79 63.3412H1128.45C1129.09 63.3412 1129.71 63.5102 1130.16 63.8111C1130.62 64.1119 1130.87 64.52 1130.87 64.9455C1130.87 65.371 1130.62 65.779 1130.16 66.0799C1129.71 66.3808 1129.09 66.5498 1128.45 66.5498Z" fill="#CCCCCC"/>
<path d="M1044.72 66.8506H1031.73C1030.97 66.85 1030.24 66.6491 1029.7 66.292C1029.17 65.9348 1028.86 65.4506 1028.86 64.9455V59.531C1028.86 59.0259 1029.17 58.5416 1029.7 58.1845C1030.24 57.8273 1030.97 57.6264 1031.73 57.6259H1044.72C1045.48 57.6264 1046.21 57.8273 1046.75 58.1845C1047.29 58.5416 1047.59 59.0259 1047.59 59.531V64.9455C1047.59 65.4506 1047.29 65.9348 1046.75 66.292C1046.21 66.6491 1045.48 66.85 1044.72 66.8506ZM1031.73 58.0269C1031.13 58.0274 1030.56 58.186 1030.13 58.4679C1029.71 58.7499 1029.47 59.1322 1029.47 59.531V64.9455C1029.47 65.3443 1029.71 65.7266 1030.13 66.0085C1030.56 66.2905 1031.13 66.4491 1031.73 66.4495H1044.72C1045.32 66.4491 1045.9 66.2905 1046.32 66.0085C1046.75 65.7266 1046.99 65.3443 1046.99 64.9455V59.531C1046.99 59.1322 1046.75 58.7499 1046.32 58.4679C1045.9 58.186 1045.32 58.0274 1044.72 58.0269H1031.73Z" fill="#CCCCCC"/>
<path d="M1103.69 80.1864H1060.79C1060.15 80.1864 1059.54 80.0174 1059.08 79.7165C1058.63 79.4156 1058.38 79.0076 1058.38 78.5821C1058.38 78.1566 1058.63 77.7485 1059.08 77.4477C1059.54 77.1468 1060.15 76.9778 1060.79 76.9778H1103.69C1104.33 76.9778 1104.94 77.1468 1105.39 77.4477C1105.85 77.7485 1106.1 78.1566 1106.1 78.5821C1106.1 79.0076 1105.85 79.4156 1105.39 79.7165C1104.94 80.0174 1104.33 80.1864 1103.69 80.1864Z" fill="#CCCCCC"/>
<path d="M1128.45 85.601H1060.79C1060.15 85.601 1059.54 85.432 1059.08 85.1311C1058.63 84.8302 1058.38 84.4222 1058.38 83.9967C1058.38 83.5712 1058.63 83.1631 1059.08 82.8623C1059.54 82.5614 1060.15 82.3924 1060.79 82.3924H1128.45C1129.09 82.3924 1129.71 82.5614 1130.16 82.8623C1130.62 83.1631 1130.87 83.5712 1130.87 83.9967C1130.87 84.4222 1130.62 84.8302 1130.16 85.1311C1129.71 85.432 1129.09 85.601 1128.45 85.601Z" fill="#CCCCCC"/>
<path d="M1044.72 85.9018H1031.73C1030.97 85.9012 1030.24 85.7003 1029.7 85.3431C1029.17 84.986 1028.86 84.5017 1028.86 83.9967V78.5821C1028.86 78.077 1029.17 77.5928 1029.7 77.2356C1030.24 76.8785 1030.97 76.6776 1031.73 76.677H1044.72C1045.48 76.6776 1046.21 76.8785 1046.75 77.2356C1047.29 77.5928 1047.59 78.077 1047.59 78.5821V83.9967C1047.59 84.5017 1047.29 84.986 1046.75 85.3431C1046.21 85.7003 1045.48 85.9012 1044.72 85.9018ZM1031.73 77.0781C1031.13 77.0785 1030.56 77.2371 1030.13 77.5191C1029.71 77.8011 1029.47 78.1834 1029.47 78.5821V83.9967C1029.47 84.3954 1029.71 84.7777 1030.13 85.0597C1030.56 85.3416 1031.13 85.5002 1031.73 85.5007H1044.72C1045.32 85.5002 1045.9 85.3416 1046.32 85.0597C1046.75 84.7777 1046.99 84.3954 1046.99 83.9967V78.5821C1046.99 78.1834 1046.75 77.8011 1046.32 77.5191C1045.9 77.2371 1045.32 77.0785 1044.72 77.0781H1031.73Z" fill="#CCCCCC"/>
<path d="M1103.69 99.2375H1060.79C1060.15 99.2375 1059.54 99.0685 1059.08 98.7676C1058.63 98.4667 1058.38 98.0587 1058.38 97.6332C1058.38 97.2077 1058.63 96.7996 1059.08 96.4988C1059.54 96.1979 1060.15 96.0289 1060.79 96.0289H1103.69C1104.33 96.0289 1104.94 96.1979 1105.39 96.4988C1105.85 96.7996 1106.1 97.2077 1106.1 97.6332C1106.1 98.0587 1105.85 98.4667 1105.39 98.7676C1104.94 99.0685 1104.33 99.2375 1103.69 99.2375Z" fill="#F2F2F2"/>
<path d="M1128.45 104.652H1060.79C1060.15 104.652 1059.54 104.483 1059.08 104.182C1058.63 103.881 1058.38 103.473 1058.38 103.048C1058.38 102.622 1058.63 102.214 1059.08 101.913C1059.54 101.613 1060.15 101.444 1060.79 101.444H1128.45C1129.09 101.444 1129.71 101.613 1130.16 101.913C1130.62 102.214 1130.87 102.622 1130.87 103.048C1130.87 103.473 1130.62 103.881 1130.16 104.182C1129.71 104.483 1129.09 104.652 1128.45 104.652Z" fill="#F2F2F2"/>
<path d="M1044.72 104.953H1031.73C1030.97 104.952 1030.24 104.751 1029.7 104.394C1029.17 104.037 1028.86 103.553 1028.86 103.048V97.6333C1028.86 97.1282 1029.17 96.6439 1029.7 96.2868C1030.24 95.9296 1030.97 95.7287 1031.73 95.7281H1044.72C1045.48 95.7287 1046.21 95.9296 1046.75 96.2868C1047.29 96.6439 1047.59 97.1282 1047.59 97.6333V103.048C1047.59 103.553 1047.29 104.037 1046.75 104.394C1046.21 104.751 1045.48 104.952 1044.72 104.953Z" fill="#F2F2F2"/>
<path d="M1038.23 65.1938L1037.53 64.7749C1035.04 63.261 1033.4 62.2783 1033.4 61.0543C1033.4 60.8214 1033.46 60.5901 1033.59 60.374C1033.72 60.1579 1033.92 59.9614 1034.17 59.7962C1034.41 59.631 1034.71 59.5004 1035.03 59.4122C1035.36 59.324 1035.71 59.2799 1036.06 59.2826C1036.47 59.284 1036.88 59.3453 1037.25 59.4621C1037.63 59.5789 1037.96 59.7485 1038.23 59.9591C1038.49 59.7485 1038.83 59.5789 1039.2 59.4621C1039.58 59.3453 1039.98 59.284 1040.4 59.2826C1040.75 59.2799 1041.1 59.324 1041.42 59.4122C1041.75 59.5004 1042.04 59.631 1042.29 59.7962C1042.54 59.9614 1042.73 60.1579 1042.86 60.374C1042.99 60.5901 1043.06 60.8214 1043.05 61.0543C1043.05 62.2784 1041.41 63.261 1038.93 64.7749L1038.23 65.1938Z" fill="#338BFF"/>
<path d="M1038.23 84.245L1037.53 83.8261C1035.04 82.3121 1033.4 81.3295 1033.4 80.1055C1033.4 79.8726 1033.46 79.6412 1033.59 79.4251C1033.72 79.209 1033.92 79.0126 1034.17 78.8474C1034.41 78.6822 1034.71 78.5516 1035.03 78.4634C1035.36 78.3751 1035.71 78.3311 1036.06 78.3337C1036.47 78.3352 1036.88 78.3965 1037.25 78.5133C1037.63 78.6301 1037.96 78.7997 1038.23 79.0102C1038.49 78.7997 1038.83 78.6301 1039.2 78.5133C1039.58 78.3965 1039.98 78.3352 1040.4 78.3337C1040.75 78.3311 1041.1 78.3751 1041.42 78.4634C1041.75 78.5516 1042.04 78.6822 1042.29 78.8474C1042.54 79.0126 1042.73 79.209 1042.86 79.4251C1042.99 79.6412 1043.06 79.8726 1043.05 80.1055C1043.05 81.3295 1041.41 82.3121 1038.93 83.8261L1038.23 84.245Z" fill="#338BFF"/>
<path d="M983.355 81.0401H970.367C969.606 81.0395 968.876 80.8386 968.338 80.4815C967.801 80.1243 967.498 79.6401 967.497 79.135V73.7205C967.498 73.2154 967.801 72.7311 968.338 72.374C968.876 72.0168 969.606 71.8159 970.367 71.8153H983.355C984.116 71.8159 984.845 72.0168 985.383 72.374C985.921 72.7311 986.224 73.2154 986.224 73.7205V79.135C986.224 79.6401 985.921 80.1243 985.383 80.4815C984.845 80.8386 984.116 81.0395 983.355 81.0401ZM970.367 72.2164C969.766 72.2169 969.19 72.3755 968.765 72.6574C968.341 72.9394 968.102 73.3217 968.101 73.7205V79.135C968.102 79.5337 968.341 79.9161 968.765 80.198C969.19 80.48 969.766 80.6386 970.367 80.639H983.355C983.956 80.6386 984.531 80.48 984.956 80.198C985.381 79.9161 985.62 79.5337 985.62 79.135V73.7205C985.62 73.3217 985.381 72.9394 984.956 72.6574C984.531 72.3755 983.956 72.2169 983.355 72.2164H970.367Z" fill="#3F3D56"/>
<path d="M976.861 79.3833L976.162 78.9644C973.678 77.4504 972.038 76.4678 972.038 75.2438C972.032 75.0109 972.097 74.7796 972.228 74.5635C972.358 74.3474 972.553 74.1509 972.801 73.9857C973.048 73.8205 973.343 73.6899 973.667 73.6017C973.992 73.5134 974.34 73.4694 974.691 73.472C975.105 73.4735 975.514 73.5348 975.888 73.6516C976.263 73.7684 976.595 73.938 976.861 74.1485C977.127 73.938 977.459 73.7684 977.834 73.6516C978.209 73.5348 978.617 73.4735 979.032 73.472C979.382 73.4694 979.73 73.5135 980.055 73.6017C980.38 73.6899 980.675 73.8205 980.922 73.9857C981.169 74.1509 981.364 74.3474 981.495 74.5635C981.626 74.7796 981.69 75.0109 981.684 75.2438C981.684 76.4678 980.044 77.4504 977.561 78.9644L976.861 79.3833Z" fill="#338BFF"/>
<path d="M969.35 120.197L972.709 119.666L971.226 110.811L966.268 111.594L969.35 120.197Z" fill="#FFB8B8"/>
<path d="M979.931 120.714L969.373 122.382L968.402 119.673L974.881 118.65C975.417 118.566 975.972 118.552 976.516 118.61C977.06 118.668 977.581 118.796 978.05 118.988C978.519 119.179 978.926 119.431 979.249 119.727C979.572 120.023 979.803 120.359 979.931 120.714Z" fill="#2F2E41"/>
<path d="M966.053 114.495L958.757 97.893L967.874 96.3915L973.223 113.974C973.262 114.103 973.259 114.236 973.212 114.363C973.166 114.491 973.079 114.611 972.956 114.714C972.832 114.817 972.677 114.9 972.5 114.959C972.323 115.018 972.129 115.051 971.931 115.055L967.398 115.144C967.385 115.144 967.371 115.145 967.357 115.145C967.063 115.144 966.777 115.081 966.542 114.964C966.307 114.847 966.135 114.682 966.053 114.495Z" fill="#2F2E41"/>
<path d="M948.546 120.253L951.999 120.252L953.641 111.409L948.545 111.41L948.546 120.253Z" fill="#FFB8B8"/>
<path d="M958.66 122.381L947.807 122.382L947.807 119.598L954.467 119.597C955.579 119.597 956.645 119.89 957.432 120.412C958.218 120.934 958.66 121.643 958.66 122.381Z" fill="#2F2E41"/>
<path d="M947.941 116.817C947.814 116.735 947.713 116.638 947.643 116.53C947.573 116.422 947.536 116.307 947.535 116.189L944.389 99.6278C944.387 99.3889 944.529 99.1594 944.781 98.9895C945.034 98.8195 945.378 98.723 945.738 98.7209L952.76 98.6871H952.77C953.127 98.6877 953.469 98.7811 953.723 98.9473C953.977 99.1134 954.123 99.339 954.129 99.5757L954.503 115.89C954.508 116.129 954.372 116.358 954.123 116.53C953.874 116.701 953.533 116.801 953.175 116.806L948.912 117.075C948.905 117.075 948.899 117.075 948.892 117.075C948.536 117.076 948.194 116.983 947.941 116.817Z" fill="#2F2E41"/>
<path d="M949.445 62.0013C953.542 62.0013 956.864 59.7961 956.864 57.0759C956.864 54.3556 953.542 52.1505 949.445 52.1505C945.348 52.1505 942.026 54.3556 942.026 57.0759C942.026 59.7961 945.348 62.0013 949.445 62.0013Z" fill="#FFB8B8"/>
<path d="M939.672 98.7627C934.845 96.2587 934.896 93.3375 936.543 89.4357C937.007 88.3365 937.508 87.2225 938.038 86.0431C940.501 80.5634 943.293 74.3525 942.233 69.2243C941.943 67.8197 942.683 66.3423 944.263 65.171C945.844 63.9995 947.971 63.3504 950.109 63.387C952.244 63.4248 954.32 64.1493 955.804 65.3749C957.282 66.5945 957.987 70.8828 958.196 71.4975C959.155 74.3184 959.734 76.0211 960.15 78.7374C960.641 81.9487 966.524 91.55 968.398 93.1601C968.896 93.5852 969.252 94.0754 969.444 94.5985C969.635 95.1215 969.657 95.6656 969.509 96.1948C969.371 96.6983 969.071 97.1762 968.631 97.596C968.19 98.0159 967.619 98.368 966.955 98.6284C963.913 99.8631 960.57 100.737 957.076 101.21C955.56 101.405 954.02 101.503 952.477 101.503C947.687 101.503 943.11 100.547 939.672 98.7627Z" fill="#338BFF"/>
<path d="M970.523 80.2063C970.33 79.9628 970.06 79.7502 969.731 79.5835C969.402 79.4168 969.021 79.3001 968.617 79.2415C968.212 79.183 967.793 79.184 967.389 79.2446C966.985 79.3052 966.607 79.4238 966.279 79.5921L960.658 77.4625L957.875 79.4149L965.877 82.3484C966.34 82.6948 966.978 82.9165 967.67 82.9715C968.362 83.0266 969.06 82.9112 969.633 82.6471C970.206 82.3831 970.612 81.9888 970.776 81.5389C970.94 81.0891 970.85 80.6149 970.523 80.2063Z" fill="#FFB8B8"/>
<path d="M961.952 81.65L951.877 79.5484C950.524 79.2642 949.335 78.7114 948.47 77.9645C947.606 77.2176 947.107 76.3126 947.041 75.3716L946.608 68.8719C946.583 68.5063 946.67 68.1412 946.863 67.7984C947.056 67.4555 947.352 67.1421 947.731 66.8768C948.111 66.6115 948.567 66.3998 949.073 66.2543C949.579 66.1088 950.124 66.0326 950.675 66.0301C951.226 66.0276 951.773 66.099 952.282 66.24C952.79 66.3809 953.251 66.5885 953.636 66.8504C954.021 67.1123 954.323 67.4231 954.523 67.7641C954.723 68.1052 954.817 68.4695 954.8 68.8353L954.523 74.8153L965.247 77.7188C965.436 77.7701 965.605 77.8491 965.742 77.9499C965.879 78.0507 965.98 78.1707 966.038 78.301C966.095 78.4313 966.108 78.5685 966.074 78.7025C966.04 78.8364 965.962 78.9636 965.844 79.0745L963.471 81.3091C963.305 81.4657 963.069 81.5832 962.796 81.6445C962.523 81.7058 962.227 81.7077 961.952 81.65Z" fill="#2F2E41"/>
<path d="M937.489 63.205C937.828 61.8551 937.815 60.4561 937.803 59.103C937.8 58.7357 937.796 58.3685 937.8 58.002C937.816 56.2987 937.975 54.4934 939.024 52.8314C940.165 51.0226 942.279 49.7165 944.678 49.3376C947.384 48.9098 950.319 49.8553 951.202 51.4122C951.787 51.1931 952.437 51.0629 953.106 51.0309C953.775 50.9988 954.447 51.0658 955.072 51.227C955.697 51.3882 956.261 51.6395 956.723 51.9629C957.184 52.2863 957.531 52.6736 957.74 53.0969C957.949 53.5203 958.013 53.9691 957.929 54.411C957.844 54.8529 957.613 55.2768 957.252 55.6522C956.891 56.0276 956.409 56.3451 955.841 56.5819C955.272 56.8186 954.632 56.9686 953.966 57.0211L953.853 57.0277L952.969 55.5025C952.964 55.5293 952.959 55.5563 952.954 55.5835C952.898 55.8998 952.839 56.2268 952.446 56.4156C951.955 56.6514 951.344 57.4274 951.522 58.2136C951.634 58.6159 951.8 59.0107 952.018 59.3931C952.261 59.8129 952.438 60.2484 952.545 60.6925C952.657 61.2617 952.433 61.8378 951.919 62.2995C951.766 62.4343 951.574 62.547 951.354 62.6309C951.134 62.7147 950.89 62.7679 950.638 62.7872L940.674 63.4713L940.229 61.2617L937.395 63.5792L937.489 63.205Z" fill="#2F2E41"/>
<path d="M989.296 122.5H931.302C931.222 122.5 931.145 122.479 931.088 122.441C931.032 122.404 931 122.353 931 122.299C931 122.246 931.032 122.195 931.088 122.158C931.145 122.12 931.222 122.099 931.302 122.099H989.296C989.377 122.099 989.453 122.12 989.51 122.158C989.567 122.195 989.599 122.246 989.599 122.299C989.599 122.353 989.567 122.404 989.51 122.441C989.453 122.479 989.377 122.5 989.296 122.5Z" fill="#CCCCCC"/>
<rect width="14.2334" height="386.238" transform="matrix(0.847331 0.531065 -0.78781 0.615919 1084.71 -12.5749)" fill="white" fill-opacity="0.3"/>
<rect width="7.66933" height="440.948" transform="matrix(0.847331 0.531065 -0.78781 0.615919 1273.38 28)" fill="white" fill-opacity="0.3"/>
<rect width="80.3844" height="440.948" transform="matrix(0.847331 0.531065 -0.78781 0.615919 1170.38 -19.6)" fill="white" fill-opacity="0.3"/>
</g>
</g>
<defs>
<filter id="filter0_d_1147_1959" x="0" y="0" width="1204" height="144" filterUnits="userSpaceOnUse" color-interpolation-filters="sRGB">
<feFlood flood-opacity="0" result="BackgroundImageFix"/>
<feColorMatrix in="SourceAlpha" type="matrix" values="0 0 0 0 0 0 0 0 0 0 0 0 0 0 0 0 0 0 127 0" result="hardAlpha"/>
<feOffset dy="2"/>
<feGaussianBlur stdDeviation="1"/>
<feComposite in2="hardAlpha" operator="out"/>
<feColorMatrix type="matrix" values="0 0 0 0 0 0 0 0 0 0 0 0 0 0 0 0 0 0 0.25 0"/>
<feBlend mode="normal" in2="BackgroundImageFix" result="effect1_dropShadow_1147_1959"/>
<feBlend mode="normal" in="SourceGraphic" in2="effect1_dropShadow_1147_1959" result="shape"/>
</filter>
<linearGradient id="paint0_linear_1147_1959" x1="2" y1="140" x2="1202" y2="140" gradientUnits="userSpaceOnUse">
<stop stop-color="#99AFFF"/>
<stop offset="1" stop-color="#99C5FF"/>
</linearGradient>
</defs>
</svg>
