<svg width="31" height="29" viewBox="0 0 31 29" fill="none" xmlns="http://www.w3.org/2000/svg">
<path fill-rule="evenodd" clip-rule="evenodd" d="M28.506 16.18C31.6168 12.4561 31.3842 6.96954 27.8186 3.51097C24.4696 0.262446 19.2989 -0.112924 15.5274 2.37619C11.7559 -0.112923 6.5852 0.262446 3.23617 3.51097C-0.329409 6.96954 -0.562002 12.4561 2.54877 16.18C2.61194 16.2895 2.69045 16.3908 2.78288 16.4804L14.5684 27.9123C15.1027 28.4305 15.9521 28.4305 16.4864 27.9123L28.2719 16.4804C28.3644 16.3908 28.4429 16.2895 28.506 16.18ZM21.0367 7.64123C22.558 7.64123 23.7913 8.87452 23.7913 10.3959H26.5459C26.5459 7.35318 24.0794 4.8866 21.0367 4.8866V7.64123Z" fill="#FF6868"/>
</svg>
