<svg width="18" height="16" viewBox="0 0 18 16" fill="none" xmlns="http://www.w3.org/2000/svg">
<path fill-rule="evenodd" clip-rule="evenodd" d="M16.0674 8.89964C17.7613 6.87186 17.6346 3.88421 15.693 2.00089C13.8694 0.231949 11.0537 0.027546 8.99999 1.38296C6.94627 0.0275465 4.13062 0.231949 2.30695 2.00089C0.365359 3.88421 0.238704 6.87186 1.93263 8.89964C1.96704 8.95928 2.00979 9.01443 2.06012 9.06324L8.4778 15.2883C8.76874 15.5705 9.23125 15.5705 9.52218 15.2883L15.9399 9.06324C15.9902 9.01443 16.033 8.95928 16.0674 8.89964ZM12 4.24998C12.8284 4.24998 13.5 4.92155 13.5 5.74998H15C15 4.09312 13.6569 2.74998 12 2.74998V4.24998Z" fill="#808080"/>
</svg>
