<svg width="16" height="16" viewBox="0 0 16 16" fill="none" xmlns="http://www.w3.org/2000/svg">
<path d="M4.25 14L10.625 8L13.625 11M4.25 14H11.75C12.9926 14 14 12.9926 14 11.75V8M4.25 14C3.00736 14 2 12.9926 2 11.75V4.25C2 3.00736 3.00736 2 4.25 2H9.125M11 3.52661L12.5339 2M12.5339 2L14 3.4576M12.5339 2V5.75M6.5 5.375C6.5 5.99632 5.99632 6.5 5.375 6.5C4.75368 6.5 4.25 5.99632 4.25 5.375C4.25 4.75368 4.75368 4.25 5.375 4.25C5.99632 4.25 6.5 4.75368 6.5 5.375Z" stroke="#616161" stroke-linecap="round" stroke-linejoin="round"/>
</svg>
