<svg width="18" height="18" viewBox="0 0 18 18" fill="none" xmlns="http://www.w3.org/2000/svg">
<path fill-rule="evenodd" clip-rule="evenodd" d="M4.5 5.25C3.25736 5.25 2.25 6.25736 2.25 7.5V15C2.25 16.2426 3.25736 17.25 4.5 17.25H13.5C14.7426 17.25 15.75 16.2426 15.75 15V7.5C15.75 6.25736 14.7426 5.25 13.5 5.25H4.5Z" fill="#404141"/>
<path fill-rule="evenodd" clip-rule="evenodd" d="M6.49805 2.25C6.08383 2.25 5.74805 2.58579 5.74805 3V6.28361H4.24805V3C4.24805 1.75736 5.25541 0.75 6.49805 0.75H11.3258C12.5684 0.75 13.5758 1.75736 13.5758 3V6.28361H12.0758V3C12.0758 2.58579 11.74 2.25 11.3258 2.25H6.49805Z" fill="#404141"/>
</svg>
