<?xml version="1.0" encoding="utf-8"?>
<!-- Generator: Adobe Illustrator 25.4.0, SVG Export Plug-In . SVG Version: 6.00 Build 0)  -->
<svg version="1.1" id="Layer_1" xmlns="http://www.w3.org/2000/svg" xmlns:xlink="http://www.w3.org/1999/xlink" x="0px" y="0px"
	 viewBox="0 0 239.8 43.6" style="enable-background:new 0 0 239.8 43.6;" xml:space="preserve">
<style type="text/css">
	.st0{fill:#1A1D37;}
</style>
<g>
	<path class="st0" d="M5.6,0.5h11.1c2.9,0,5.3,0.3,7.4,0.8c2.1,0.5,3.9,1.5,5.6,3c4.4,3.7,6.5,9.4,6.5,17c0,2.5-0.2,4.8-0.7,6.9
		c-0.4,2.1-1.1,4-2,5.6s-2.1,3.2-3.5,4.5c-1.1,1-2.4,1.8-3.7,2.4c-1.3,0.6-2.8,1-4.3,1.3c-1.5,0.2-3.3,0.4-5.2,0.4H5.8
		c-1.5,0-2.7-0.2-3.5-0.7c-0.8-0.5-1.3-1.1-1.5-2c-0.2-0.8-0.4-1.9-0.4-3.3V5.7c0-1.8,0.4-3.2,1.2-4C2.5,0.9,3.8,0.5,5.6,0.5z
		 M8.9,7.2v28.5h6.4c1.4,0,2.5,0,3.3-0.1c0.8-0.1,1.6-0.3,2.5-0.6s1.6-0.7,2.2-1.3c2.8-2.4,4.3-6.5,4.3-12.4c0-4.1-0.6-7.2-1.9-9.3
		S23,8.6,21.2,8s-4-0.8-6.6-0.8H8.9z"/>
	<path class="st0" d="M65,29.1H49.7c0,1.8,0.4,3.3,1.1,4.7s1.6,2.4,2.8,3.1c1.2,0.7,2.4,1,3.8,1c0.9,0,1.8-0.1,2.6-0.3
		c0.8-0.2,1.5-0.6,2.2-1c0.7-0.5,1.4-1,2-1.5c0.6-0.5,1.4-1.3,2.4-2.2c0.4-0.3,1-0.5,1.7-0.5c0.8,0,1.4,0.2,1.9,0.7s0.7,1.1,0.7,1.9
		c0,0.7-0.3,1.5-0.8,2.5c-0.6,0.9-1.4,1.8-2.5,2.7s-2.5,1.6-4.2,2.2c-1.7,0.6-3.6,0.9-5.8,0.9c-5,0-8.9-1.4-11.7-4.3
		c-2.8-2.9-4.2-6.7-4.2-11.6c0-2.3,0.3-4.4,1-6.4c0.7-2,1.7-3.7,3-5.1s2.9-2.5,4.9-3.2c1.9-0.8,4.1-1.1,6.4-1.1
		c3.1,0,5.7,0.6,7.8,1.9c2.2,1.3,3.8,3,4.9,5c1.1,2,1.6,4.1,1.6,6.2c0,2-0.6,3.2-1.7,3.8C68.6,28.8,67,29.1,65,29.1z M49.7,24.7
		h14.2c-0.2-2.7-0.9-4.7-2.2-6c-1.2-1.3-2.9-2-4.9-2c-1.9,0-3.5,0.7-4.8,2C50.7,20.1,50,22.1,49.7,24.7z"/>
	<path class="st0" d="M82,16.2l6.3,17.7l6.8-18.5c0.5-1.5,1.1-2.5,1.6-3.2s1.3-0.9,2.3-0.9c1,0,1.8,0.3,2.5,1c0.7,0.7,1,1.4,1,2.3
		c0,0.3-0.1,0.7-0.2,1.2c-0.1,0.5-0.3,0.9-0.4,1.3c-0.2,0.4-0.3,0.9-0.6,1.4L94,37.1c-0.2,0.5-0.5,1.2-0.8,2
		c-0.3,0.8-0.7,1.5-1.1,2.1c-0.4,0.6-0.9,1-1.5,1.4c-0.6,0.3-1.3,0.5-2.2,0.5c-1.1,0-2-0.3-2.6-0.8s-1.1-1.1-1.5-1.7
		s-0.8-1.8-1.6-3.6l-7.4-18.4c-0.2-0.5-0.3-0.9-0.5-1.4c-0.2-0.5-0.3-0.9-0.5-1.4c-0.1-0.5-0.2-0.9-0.2-1.2c0-0.5,0.2-1.1,0.5-1.6
		c0.3-0.5,0.8-1,1.3-1.3c0.6-0.3,1.2-0.5,1.9-0.5c1.3,0,2.2,0.4,2.7,1.1C80.9,13.2,81.4,14.5,82,16.2z"/>
	<path class="st0" d="M123,36.1l-6.7-26.7v28.9c0,1.6-0.4,2.8-1.1,3.6s-1.7,1.2-2.8,1.2c-1.1,0-2.1-0.4-2.8-1.2s-1.1-2-1.1-3.6V5.1
		c0-1.8,0.5-3.1,1.4-3.7c1-0.6,2.2-1,3.9-1h2.6c1.6,0,2.7,0.1,3.4,0.4s1.2,0.8,1.6,1.5c0.3,0.7,0.7,2,1.2,3.6l6.1,23l6.1-23
		c0.4-1.7,0.8-2.9,1.2-3.6c0.3-0.7,0.9-1.3,1.6-1.5s1.9-0.4,3.4-0.4h2.6c1.6,0,2.9,0.3,3.9,1c1,0.6,1.4,1.9,1.4,3.7v33.2
		c0,1.6-0.4,2.8-1.1,3.6s-1.7,1.2-2.9,1.2c-1.1,0-2-0.4-2.8-1.2c-0.7-0.8-1.1-2-1.1-3.6V9.4l-6.7,26.7c-0.4,1.7-0.8,3-1.1,3.8
		c-0.3,0.8-0.8,1.5-1.5,2.2c-0.7,0.7-1.8,1-3.1,1c-1,0-1.8-0.2-2.5-0.6c-0.7-0.4-1.2-1-1.6-1.6c-0.4-0.7-0.7-1.4-0.9-2.2
		C123.4,37.8,123.2,36.9,123,36.1z"/>
	<path class="st0" d="M176.8,38.7c-1.9,1.5-3.7,2.6-5.5,3.3c-1.8,0.7-3.7,1.1-5.9,1.1c-2,0-3.8-0.4-5.3-1.2s-2.7-1.9-3.5-3.2
		c-0.8-1.4-1.2-2.8-1.2-4.4c0-2.1,0.7-4,2-5.5c1.4-1.5,3.2-2.5,5.6-3c0.5-0.1,1.7-0.4,3.7-0.8s3.6-0.8,5-1.1
		c1.4-0.3,2.9-0.7,4.6-1.2c-0.1-2.1-0.5-3.6-1.2-4.5c-0.7-1-2.3-1.4-4.6-1.4c-2,0-3.5,0.3-4.5,0.8c-1,0.6-1.9,1.4-2.6,2.5
		s-1.2,1.8-1.5,2.2c-0.3,0.4-0.9,0.5-1.9,0.5c-0.9,0-1.6-0.3-2.3-0.8c-0.6-0.6-1-1.3-1-2.2c0-1.4,0.5-2.7,1.5-4
		c1-1.3,2.5-2.4,4.5-3.2s4.6-1.3,7.7-1.3c3.4,0,6.1,0.4,8.1,1.2c2,0.8,3.3,2.1,4.2,3.8c0.8,1.8,1.2,4.1,1.2,7c0,1.8,0,3.4,0,4.7
		c0,1.3,0,2.7,0,4.3c0,1.5,0.2,3,0.7,4.6c0.5,1.6,0.7,2.6,0.7,3.1c0,0.8-0.4,1.5-1.1,2.2c-0.8,0.7-1.6,1-2.6,1
		c-0.8,0-1.6-0.4-2.4-1.1C178.5,41.2,177.7,40.1,176.8,38.7z M176.3,27.4c-1.1,0.4-2.8,0.9-5,1.3s-3.7,0.8-4.5,1
		c-0.8,0.2-1.6,0.6-2.4,1.3s-1.1,1.5-1.1,2.7c0,1.2,0.4,2.2,1.3,3c0.9,0.8,2.1,1.2,3.5,1.2c1.5,0,3-0.3,4.3-1
		c1.3-0.7,2.3-1.5,2.9-2.6c0.7-1.2,1.1-3.1,1.1-5.8V27.4z"/>
	<path class="st0" d="M190.8,12h0.9V7.3c0-1.3,0-2.2,0.1-3c0.1-0.7,0.3-1.3,0.6-1.8c0.3-0.5,0.7-1,1.3-1.3c0.6-0.3,1.2-0.5,1.9-0.5
		c1,0,1.9,0.4,2.7,1.1c0.5,0.5,0.9,1.1,1,1.8c0.1,0.7,0.2,1.7,0.2,3V12h2.9c1.1,0,1.9,0.3,2.5,0.8c0.6,0.5,0.9,1.2,0.9,2
		c0,1-0.4,1.8-1.2,2.2c-0.8,0.4-2,0.6-3.6,0.6h-1.5V32c0,1.2,0,2.2,0.1,2.8c0.1,0.7,0.3,1.2,0.7,1.6c0.4,0.4,1,0.6,1.8,0.6
		c0.5,0,1.1-0.1,1.9-0.2c0.8-0.2,1.4-0.2,1.8-0.2c0.6,0,1.2,0.3,1.7,0.8c0.5,0.5,0.8,1.1,0.8,1.9c0,1.3-0.7,2.2-2.1,2.9
		c-1.4,0.7-3.3,1-5.9,1c-2.4,0-4.3-0.4-5.5-1.2c-1.3-0.8-2.1-2-2.5-3.4c-0.4-1.4-0.6-3.4-0.6-5.8v-15h-1c-1.1,0-2-0.3-2.6-0.8
		c-0.6-0.5-0.9-1.2-0.9-2c0-0.8,0.3-1.5,0.9-2C188.7,12.3,189.6,12,190.8,12z"/>
	<path class="st0" d="M232.9,29.1h-15.3c0,1.8,0.4,3.3,1.1,4.7c0.7,1.4,1.6,2.4,2.8,3.1s2.4,1,3.8,1c0.9,0,1.8-0.1,2.6-0.3
		c0.8-0.2,1.5-0.6,2.2-1c0.7-0.5,1.4-1,2-1.5c0.6-0.5,1.4-1.3,2.4-2.2c0.4-0.3,1-0.5,1.7-0.5c0.8,0,1.4,0.2,1.9,0.7s0.7,1.1,0.7,1.9
		c0,0.7-0.3,1.5-0.8,2.5s-1.4,1.8-2.5,2.7s-2.5,1.6-4.2,2.2c-1.7,0.6-3.6,0.9-5.8,0.9c-5,0-8.9-1.4-11.7-4.3
		c-2.8-2.9-4.2-6.7-4.2-11.6c0-2.3,0.3-4.4,1-6.4c0.7-2,1.7-3.7,3-5.1s2.9-2.5,4.9-3.2c1.9-0.8,4.1-1.1,6.4-1.1c3,0,5.7,0.6,7.8,1.9
		s3.8,3,4.9,5s1.6,4.1,1.6,6.2c0,2-0.6,3.2-1.7,3.8C236.5,28.8,235,29.1,232.9,29.1z M217.6,24.7h14.2c-0.2-2.7-0.9-4.7-2.2-6
		c-1.2-1.3-2.9-2-4.9-2c-1.9,0-3.5,0.7-4.8,2C218.7,20.1,217.9,22.1,217.6,24.7z"/>
</g>
</svg>
