<svg width="300" height="300" viewBox="0 0 300 300" fill="none" xmlns="http://www.w3.org/2000/svg">
<g clip-path="url(#clip0_281_710)">
<path d="M190.452 67.469H109.615C107.773 67.4713 106.007 68.222 104.705 69.5565C103.402 70.8909 102.669 72.7001 102.667 74.5873V258.643L101.741 258.932L81.9099 265.154C80.9701 265.447 79.955 265.347 79.0874 264.874C78.2198 264.402 77.5707 263.596 77.2825 262.634L18.2955 65.2434C18.0084 64.2805 18.1063 63.2403 18.5675 62.3514C19.0287 61.4624 19.8156 60.7974 20.7552 60.5026L51.3142 50.9166L139.906 23.1363L170.464 13.5503C170.929 13.4037 171.418 13.3524 171.902 13.3995C172.387 13.4466 172.857 13.5911 173.287 13.8247C173.717 14.0583 174.098 14.3765 174.407 14.761C174.717 15.1455 174.95 15.5887 175.092 16.0654L190.17 66.5199L190.452 67.469Z" fill="#F2F2F2"/>
<path d="M208.092 66.5199L189.92 5.71067C189.618 4.69748 189.123 3.75524 188.465 2.93781C187.807 2.12039 186.999 1.44378 186.085 0.94667C185.172 0.449556 184.172 0.141668 183.143 0.0406127C182.113 -0.0604428 181.074 0.0473142 180.086 0.357715L137.122 13.8303L48.5351 41.6154L5.57116 55.0927C3.57529 55.7205 1.90411 57.134 0.924458 59.0228C-0.0551939 60.9117 -0.263286 63.1216 0.345868 65.1674L62.4548 272.988C62.9497 274.64 63.9482 276.085 65.3038 277.113C66.6594 278.14 68.3007 278.696 69.987 278.697C70.7674 278.698 71.5435 278.578 72.289 278.341L101.741 269.107L102.667 268.812V267.821L101.741 268.11L72.0158 277.435C70.2541 277.985 68.3513 277.797 66.7248 276.912C65.0983 276.027 63.8809 274.517 63.3397 272.713L1.23545 64.8875C0.967281 63.9938 0.873819 63.0548 0.960407 62.1241C1.047 61.1934 1.31193 60.2894 1.74005 59.4637C2.16817 58.6381 2.75106 57.9071 3.45535 57.3126C4.15963 56.7181 4.97147 56.2717 5.84438 55.9991L48.8083 42.5218L137.395 14.7414L180.359 1.26412C181.021 1.05712 181.71 0.951575 182.402 0.950914C183.887 0.954331 185.333 1.445 186.527 2.35105C187.72 3.25709 188.599 4.53091 189.035 5.98592L207.124 66.5199L207.411 67.469H208.375L208.092 66.5199Z" fill="#3F3D56"/>
<path d="M56.8286 60.6577C55.9358 60.6571 55.0667 60.3633 54.3488 59.8196C53.6309 59.2758 53.102 58.5107 52.8397 57.6364L46.8732 37.6711C46.7128 37.1348 46.6572 36.5714 46.7094 36.0131C46.7617 35.4547 46.9208 34.9124 47.1776 34.4171C47.4345 33.9218 47.7841 33.4831 48.2064 33.1262C48.6288 32.7693 49.1156 32.5011 49.6392 32.337L131.138 6.77581C132.195 6.44529 133.337 6.55802 134.314 7.08923C135.29 7.62044 136.021 8.52675 136.345 9.60922L142.312 29.5747C142.634 30.6578 142.524 31.8278 142.005 32.8278C141.487 33.8278 140.602 34.5763 139.546 34.9091L58.0466 60.4703C57.652 60.5944 57.2415 60.6575 56.8286 60.6577Z" fill="#99AFFF"/>
<path d="M88.0838 21.3334C93.2004 21.3334 97.3483 17.0841 97.3483 11.8423C97.3483 6.60055 93.2004 2.35126 88.0838 2.35126C82.9672 2.35126 78.8193 6.60055 78.8193 11.8423C78.8193 17.0841 82.9672 21.3334 88.0838 21.3334Z" fill="#99AFFF"/>
<path d="M88.0833 17.8523C91.3233 17.8523 93.9499 15.1616 93.9499 11.8423C93.9499 8.52306 91.3233 5.83228 88.0833 5.83228C84.8433 5.83228 82.2168 8.52306 82.2168 11.8423C82.2168 15.1616 84.8433 17.8523 88.0833 17.8523Z" fill="white"/>
<path d="M279.155 276.272H122.586C121.542 276.271 120.541 275.846 119.803 275.09C119.065 274.333 118.65 273.308 118.648 272.239V80.0447C118.65 78.9753 119.065 77.95 119.803 77.1937C120.541 76.4375 121.542 76.0122 122.586 76.011H279.155C280.199 76.0122 281.2 76.4376 281.938 77.1938C282.676 77.95 283.091 78.9753 283.093 80.0447V272.239C283.091 273.308 282.676 274.333 281.938 275.09C281.2 275.846 280.199 276.271 279.155 276.272Z" fill="#E6E6E6"/>
<path d="M207.123 66.5199H109.615C107.527 66.5229 105.526 67.3739 104.05 68.8861C102.574 70.3984 101.743 72.4486 101.74 74.5873V268.11L102.667 267.821V74.5873C102.669 72.7001 103.402 70.8909 104.704 69.5564C106.007 68.222 107.773 67.4713 109.615 67.469H207.411L207.123 66.5199ZM292.125 66.5199H109.615C107.527 66.5229 105.526 67.3739 104.05 68.8861C102.574 70.3984 101.743 72.4486 101.74 74.5873V291.933C101.743 294.071 102.574 296.121 104.05 297.634C105.526 299.146 107.527 299.997 109.615 300H292.125C294.213 299.997 296.214 299.146 297.69 297.634C299.166 296.121 299.997 294.071 300 291.933V74.5873C299.997 72.4486 299.166 70.3984 297.69 68.8861C296.214 67.3739 294.213 66.5229 292.125 66.5199ZM299.073 291.933C299.071 293.82 298.338 295.629 297.036 296.963C295.733 298.298 293.967 299.049 292.125 299.051H109.615C107.773 299.049 106.007 298.298 104.704 296.963C103.402 295.629 102.669 293.82 102.667 291.933V74.5873C102.669 72.7001 103.402 70.8909 104.704 69.5564C106.007 68.222 107.773 67.4713 109.615 67.469H292.125C293.967 67.4713 295.733 68.222 297.036 69.5564C298.338 70.8909 299.071 72.7001 299.073 74.5873V291.933Z" fill="#3F3D56"/>
<path d="M243.487 87.4003H158.254C157.149 87.399 156.089 86.9486 155.307 86.1479C154.526 85.3472 154.086 84.2616 154.085 83.1293V62.2489C154.086 61.1166 154.526 60.031 155.307 59.2303C156.089 58.4296 157.149 57.9792 158.254 57.978H243.487C244.592 57.9792 245.652 58.4296 246.434 59.2303C247.215 60.031 247.655 61.1166 247.656 62.2489V83.1293C247.655 84.2616 247.215 85.3472 246.434 86.1479C245.652 86.9486 244.592 87.399 243.487 87.4003Z" fill="#99AFFF"/>
<path d="M200.87 59.4016C205.987 59.4016 210.134 55.1523 210.134 49.9106C210.134 44.6688 205.987 40.4195 200.87 40.4195C195.753 40.4195 191.605 44.6688 191.605 49.9106C191.605 55.1523 195.753 59.4016 200.87 59.4016Z" fill="#99AFFF"/>
<path d="M200.87 55.6915C203.987 55.6915 206.513 53.1033 206.513 49.9106C206.513 46.7178 203.987 44.1296 200.87 44.1296C197.754 44.1296 195.228 46.7178 195.228 49.9106C195.228 53.1033 197.754 55.6915 200.87 55.6915Z" fill="white"/>
</g>
<defs>
<clipPath id="clip0_281_710">
<rect width="300" height="300" fill="white"/>
</clipPath>
</defs>
</svg>
