<svg width="33" height="33" viewBox="0 0 33 33" fill="none" xmlns="http://www.w3.org/2000/svg">
<path fill-rule="evenodd" clip-rule="evenodd" d="M14.1681 6.1875C10.8718 6.1875 8.03931 8.52715 7.4168 11.7642L4.83725 25.1778C4.7598 25.5806 4.86619 25.9969 5.1274 26.3132C5.38861 26.6294 5.77735 26.8125 6.18751 26.8125H26.8125C27.2227 26.8125 27.6114 26.6294 27.8726 26.3132C28.1338 25.9969 28.2402 25.5806 28.1628 25.1778L25.5832 11.7642C24.9607 8.52715 22.1283 6.1875 18.8319 6.1875H14.1681Z" fill="#404141"/>
<path fill-rule="evenodd" clip-rule="evenodd" d="M30.25 26.8125H2.75V24.0625H30.25V26.8125Z" fill="#404141"/>
<path fill-rule="evenodd" clip-rule="evenodd" d="M11 25.4375C11 24.6781 11.6156 24.0625 12.375 24.0625H20.625C21.3844 24.0625 22 24.6781 22 25.4375V26.8125C22 29.0907 20.1532 30.9375 17.875 30.9375H15.125C12.8468 30.9375 11 29.0907 11 26.8125V25.4375ZM13.75 26.8125C13.75 27.5719 14.3656 28.1875 15.125 28.1875H17.875C18.6344 28.1875 19.25 27.5719 19.25 26.8125H13.75Z" fill="#404141"/>
<path fill-rule="evenodd" clip-rule="evenodd" d="M13.75 8.9375C12.9906 8.9375 12.375 8.32189 12.375 7.5625V6.1875C12.375 3.90933 14.2218 2.0625 16.5 2.0625C18.7782 2.0625 20.625 3.90933 20.625 6.1875V7.5625C20.625 8.32189 20.0094 8.9375 19.25 8.9375H13.75Z" fill="#404141"/>
<circle cx="25.5" cy="6.5" r="4.5" fill="#FF6868"/>
</svg>
