<svg width="24" height="24" viewBox="0 0 24 24" fill="none" xmlns="http://www.w3.org/2000/svg">
<path d="M20.3309 14.1371C19.7496 16.2691 18.3582 18.0512 16.4129 19.1547C14.4679 20.2581 12.2019 20.5517 10.0324 19.98C5.55388 18.8005 2.88654 14.2605 4.08644 9.85918C5.28633 5.45784 9.90682 2.8373 14.3851 4.01597C15.5283 4.31703 16.5765 4.84743 17.482 5.56504L15.2165 7.79171H22.449V0.683961L20.1822 2.9117C18.7983 1.73703 17.1613 0.882361 15.3685 0.410094C8.8662 -1.30191 2.15961 2.5037 0.417291 8.89331C-1.32475 15.2829 2.54763 21.8741 9.04909 23.5861C10.1008 23.8629 11.168 24 12.2285 24C14.3436 24 16.4311 23.4549 18.312 22.3877C21.1359 20.7856 23.1558 18.1987 24 15.1032L20.3309 14.1371Z" fill="white"/>
</svg>
