<svg width="34" height="34" viewBox="0 0 34 34" fill="none" xmlns="http://www.w3.org/2000/svg">
<path fill-rule="evenodd" clip-rule="evenodd" d="M8.26317 11.0186C5.22049 11.0186 2.75391 13.4851 2.75391 16.5278C2.75391 19.5705 5.22049 22.0371 8.26317 22.0371C11.3058 22.0371 13.7724 19.5705 13.7724 16.5278C13.7724 13.4851 11.3058 11.0186 8.26317 11.0186Z" fill="#7D7D7D"/>
<path fill-rule="evenodd" clip-rule="evenodd" d="M24.7905 2.75464C21.7478 2.75464 19.2812 5.22122 19.2812 8.2639C19.2812 11.3066 21.7478 13.7732 24.7905 13.7732C27.8332 13.7732 30.2998 11.3066 30.2998 8.2639C30.2998 5.22122 27.8332 2.75464 24.7905 2.75464Z" fill="#7D7D7D"/>
<path fill-rule="evenodd" clip-rule="evenodd" d="M24.7905 19.2824C21.7478 19.2824 19.2812 21.749 19.2812 24.7917C19.2812 27.8344 21.7478 30.3009 24.7905 30.3009C27.8332 30.3009 30.2998 27.8344 30.2998 24.7917C30.2998 21.749 27.8332 19.2824 24.7905 19.2824Z" fill="#7D7D7D"/>
<path fill-rule="evenodd" clip-rule="evenodd" d="M21.3112 10.8539L12.3587 15.6745L11.0527 13.2491L20.0053 8.42853L21.3112 10.8539Z" fill="#7D7D7D"/>
<path fill-rule="evenodd" clip-rule="evenodd" d="M20.0053 24.6271L11.0527 19.8065L12.3587 17.3811L21.3112 22.2017L20.0053 24.6271Z" fill="#7D7D7D"/>
</svg>
