<svg width="84" height="101" viewBox="0 0 84 101" fill="none" xmlns="http://www.w3.org/2000/svg">
<path d="M14.6294 79.2881L4.9502 81.4965V18.8118L14.6294 21.0243V79.2881Z" fill="#F68536"/>
<path d="M26.7059 82.988L14.6294 86.4199V13.9741L26.7059 17.4019V82.988ZM42.1976 86.7894L26.7059 92.4588V7.93522L42.1976 13.6021V86.7894ZM83.6197 79.4771L42.1976 100.188V0.18811L83.6197 20.8992V79.4771Z" fill="#F68536"/>
<path d="M33.9405 4.31725L42.1974 0.18811V100.188L33.9405 96.0603V4.31725ZM20.3139 11.1297L26.7058 7.93392V92.4423L20.3139 89.2465V11.1297ZM9.53769 16.5186L14.6293 13.9728V86.4034L9.53769 83.856V16.5186ZM4.95012 18.8118L0.797363 20.8882V79.4894L4.95012 81.5645V18.8118Z" fill="#9D5025"/>
</svg>
