<svg width="89" height="100" viewBox="0 0 89 100" fill="none" xmlns="http://www.w3.org/2000/svg">
<path d="M88.6339 29.1969C88.6332 27.532 88.2771 26.0609 87.5571 24.7986C86.8497 23.5566 85.7905 22.516 84.3696 21.6932C72.6412 14.9305 60.9015 8.18855 49.1769 1.419C46.016 -0.405842 42.9513 -0.33897 39.8139 1.51207C35.1456 4.26483 11.7733 17.6554 4.80865 21.6894C1.94041 23.3502 0.544721 25.8913 0.544032 29.1938C0.539551 42.794 0.544032 56.3941 0.539551 69.9942C0.539551 71.6225 0.881147 73.0655 1.56951 74.3088C2.27718 75.588 3.35126 76.6572 4.80485 77.4986C11.7698 81.5327 35.1452 94.9221 39.8125 97.676C42.9513 99.528 46.016 99.5942 49.1779 97.769C60.9029 90.9991 72.6433 84.2572 84.3734 77.4945C85.827 76.6534 86.9011 75.5835 87.6088 74.3053C88.2961 73.0617 88.6384 71.6191 88.6384 69.9904C88.6384 69.9904 88.6384 42.7974 88.6339 29.1969Z" fill="#A179DC"/>
<path d="M44.7236 49.4614L1.56934 74.3087C2.277 75.5879 3.35108 76.6572 4.80468 77.4986C11.7697 81.5326 35.1451 94.9221 39.8123 97.6759C42.9511 99.5279 46.0158 99.5941 49.1778 97.769C60.9027 90.9991 72.6431 84.2571 84.3732 77.4944C85.8268 76.6534 86.9009 75.5834 87.6086 74.3053L44.7236 49.4614Z" fill="#280068"/>
<path d="M88.6338 29.197C88.6331 27.5321 88.2771 26.0609 87.557 24.7986L44.7236 49.4619L87.6087 74.3054C88.296 73.0618 88.6376 71.6192 88.6383 69.9905C88.6383 69.9905 88.6383 42.7974 88.6338 29.197Z" fill="#390091"/>
<path d="M70.1314 40.1729V44.8173H74.7759V40.1729H77.0981V44.8173H81.7426V47.1396H77.0981V51.7837H81.7426V54.1059H77.0981V58.7504H74.7759V54.1059H70.1314V58.7504H67.8092V54.1059H63.165V51.7837H67.8092V47.1396H63.165V44.8173H67.8092V40.1729H70.1314ZM74.7759 47.1392H70.1314V51.7837H74.7759V47.1392Z" fill="white"/>
<path d="M44.8185 16.8478C56.9326 16.8478 67.509 23.4267 73.1741 33.2058L73.119 33.1117L58.8657 41.3183C56.0578 36.5639 50.91 33.3551 45.0043 33.2889L44.8182 33.2879C35.8129 33.2879 28.5122 40.5886 28.5122 49.5939C28.5092 52.4322 29.2508 55.2217 30.6628 57.684C33.4734 62.5908 38.7573 65.9002 44.8185 65.9002C50.9173 65.9002 56.2311 62.5487 59.0273 57.5895L58.9594 57.7084L73.191 65.953C67.588 75.6494 57.1563 82.208 45.1832 82.3386L44.8185 82.3407C32.6662 82.3407 22.0598 75.7211 16.4088 65.8902C13.6502 61.091 12.0718 55.5272 12.0718 49.5939C12.0718 31.5089 26.7325 16.8474 44.8182 16.8474L44.8185 16.8478Z" fill="white"/>
</svg>
