<svg width="79" height="101" viewBox="0 0 79 101" fill="none" xmlns="http://www.w3.org/2000/svg">
<path d="M35.9364 0.395752H52.2777V75.2937C43.9074 76.877 37.7454 77.4999 31.0783 77.4999C11.1195 77.4791 0.72998 68.5625 0.72998 51.4374C0.72998 34.9375 11.7504 24.229 28.8279 24.229C31.4779 24.229 33.4967 24.4376 35.9364 25.0624V0.395752ZM36.509 38.5598C34.5951 37.9348 33.018 37.7265 30.9988 37.7265C22.7337 37.7265 17.9596 42.768 17.9596 51.6034C17.9596 60.2056 22.5236 64.9554 30.8939 64.9554C32.7023 64.9554 34.1746 64.8536 36.509 64.5411V38.5598Z" fill="#2BA977"/>
<path d="M79.0009 26.2399V63.7402C79.0009 76.6546 78.0335 82.8651 75.1942 88.2195C72.5441 93.3671 69.0531 96.6131 61.8393 100.198L46.6758 93.0527C53.8895 89.7003 57.3806 86.738 59.6101 82.2173C61.9442 77.5944 62.6804 72.24 62.6804 58.1567V26.2402H79.0009V26.2399ZM61.0336 0.395752H77.375V17H61.0336V0.395752Z" fill="#2BA977"/>
</svg>
