<svg width="67" height="100" viewBox="0 0 67 100" fill="none" xmlns="http://www.w3.org/2000/svg">
<path d="M16.7138 100C25.9138 100 33.3805 92.5334 33.3805 83.3334V66.6667H16.7138C7.51379 66.6667 0.0471191 74.1334 0.0471191 83.3334C0.0471191 92.5334 7.51379 100 16.7138 100Z" fill="#0ACF83"/>
<path d="M0.0471191 49.9999C0.0471191 40.7999 7.51379 33.3333 16.7138 33.3333H33.3805V66.6665H16.7138C7.51379 66.6665 0.0471191 59.1999 0.0471191 49.9999Z" fill="#A259FF"/>
<path d="M0.0471191 16.6667C0.0471191 7.46666 7.51379 0 16.7138 0H33.3805V33.3333H16.7138C7.51379 33.3333 0.0471191 25.8667 0.0471191 16.6667Z" fill="#F24E1E"/>
<path d="M33.3804 0H50.0471C59.2471 0 66.7138 7.46666 66.7138 16.6667C66.7138 25.8667 59.2471 33.3333 50.0471 33.3333H33.3804V0Z" fill="#FF7262"/>
<path d="M66.7138 49.9999C66.7138 59.1999 59.2471 66.6665 50.0471 66.6665C40.8471 66.6665 33.3804 59.1999 33.3804 49.9999C33.3804 40.7999 40.8471 33.3333 50.0471 33.3333C59.2471 33.3333 66.7138 40.7999 66.7138 49.9999Z" fill="#1ABCFE"/>
</svg>
