<svg width="73" height="101" viewBox="0 0 73 101" fill="none" xmlns="http://www.w3.org/2000/svg">
<path d="M47.8949 37.0107L37.8941 46.3224L28.6108 27.5896L33.4065 16.8186C34.6186 14.6701 36.6009 14.6417 37.813 16.8186L47.8949 37.0107Z" fill="#FFA000"/>
<path d="M37.8981 46.3184L0.489258 81.1125L28.6148 27.5897L37.8981 46.3184Z" fill="#F57F17"/>
<path d="M58.8604 22.7697C60.6522 21.063 62.4967 21.6387 62.9629 24.0629L72.6881 80.6423L40.4317 100.007C39.3007 100.64 36.3008 100.887 36.3008 100.887C36.3008 100.887 33.5726 100.555 32.5267 99.9791L0.489258 81.1125L58.8604 22.7697Z" fill="#FFCA28"/>
<path d="M28.6148 27.5897L0.489258 81.1124L13.0237 2.88158C13.494 0.457387 14.8682 0.210103 16.1087 2.35863L28.6148 27.5897Z" fill="#FFA000"/>
</svg>
