<svg width="101" height="90" viewBox="0 0 101 90" fill="none" xmlns="http://www.w3.org/2000/svg">
<path d="M30.3006 79.6133C26.4912 76.6168 22.4275 73.7438 19.6508 69.699C13.8075 62.5652 9.30859 54.3061 6.23261 45.6264C4.37395 39.9829 3.73731 33.9319 1.34087 28.506C-1.16595 24.5653 1.77035 20.2574 6.08719 19.005C8.00863 18.6362 11.388 16.8236 7.30921 18.1189C3.65256 20.8025 3.2984 15.6837 7.04764 15.3594C9.6073 15.0193 10.5494 12.9242 9.67373 11.0384C6.92733 9.24665 16.3357 7.27813 11.6015 4.60496C6.66995 -0.715226 18.4999 -1.73951 15.5809 4.30259C14.8825 8.94899 23.8473 3.45095 21.7673 8.81717C23.8808 11.3936 29.6838 9.40307 29.5399 13.0179C32.6196 13.2297 33.6768 15.8213 36.5676 16.0201C39.5641 17.3734 44.9952 18.4395 46.0153 21.8163C43.0423 24.1693 36.1591 16.9544 35.8284 23.4694C36.7261 33.0928 36.4975 43.006 40.0187 52.1701C41.6838 57.7195 45.7207 62.0876 49.3669 66.4096C52.8562 70.6422 57.5816 73.622 62.398 76.1309C66.6227 78.124 71.1776 79.4454 75.7821 80.274C77.6497 78.8459 80.947 73.5351 83.8608 75.7746C83.9989 78.2908 78.0781 81.0346 83.5819 80.7563C86.8138 79.7818 89.0559 83.2558 91.7171 80.1218C94.169 83.0267 101.909 78.2663 100.164 84.2032C97.8047 85.7255 94.3641 84.8053 92.0011 86.8994C88.1054 84.9534 85.0033 88.6404 80.6901 88.1743C75.9004 89.0322 71.0275 89.3785 66.1708 89.3858C58.2041 88.7565 50.0684 88.4913 42.4889 85.7171C38.2202 84.4768 34.053 82.0453 30.3006 79.6133ZM37.029 82.5287C41.1983 84.3314 45.275 86.2319 49.844 86.8047C57.093 87.8133 64.5784 89.3638 71.8535 87.9493C68.5609 86.4626 65.1569 88.5284 61.8769 86.8863C57.943 87.7327 53.7214 86.6708 49.7216 86.1477C45.1735 84.1216 40.2656 82.7285 36.0063 80.0993C30.6845 78.1554 38.759 82.592 40.196 82.9514C43.5231 84.8399 36.5378 81.9836 35.5527 81.1984C32.7666 79.6353 32.4114 79.9617 35.2771 81.5489C35.8541 81.8868 36.4238 82.241 37.029 82.5287ZM29.0958 76.9224C33.1359 78.4185 29.078 74.0818 27.2272 74.3329C26.4069 72.91 24.0937 72.0113 25.7253 71.247C22.7895 72.266 22.6499 67.3717 21.2704 68.0711C18.1646 67.0902 20.062 63.6167 16.3624 61.4833C16.0245 59.2355 12.6869 57.2858 11.6229 53.8954C11.1521 52.1592 7.85116 47.1743 9.87932 51.8134C11.6056 56.2798 14.6429 60.1049 17.1706 63.9248C19.1334 67.5621 21.4514 71.3636 25.0259 73.6329C26.2312 74.789 27.3946 76.5598 29.0958 76.9224ZM17.4578 64.1445C17.5991 63.534 18.1965 65.4649 17.4578 64.1445V64.1445ZM33.9342 78.7161C32.6478 78.2113 34.8287 78.3154 33.9342 78.7161V78.7161ZM36.1271 79.5165C35.1264 80.1338 35.9001 78.4117 36.1271 79.5165V79.5165ZM38.8725 80.6611C36.8585 79.8764 40.1793 79.4166 38.8725 80.6611V80.6611ZM43.5775 83.2836C41.0356 82.8405 44.3716 82.1097 43.5775 83.2836V83.2836ZM34.5431 76.9851C31.9207 76.9673 36.5728 75.6721 34.5431 76.9851V76.9851ZM36.6021 78.012C35.8682 78.3233 36.5446 77.3178 36.6021 78.012V78.012ZM46.8941 84.436C48.5488 85.4807 56.5562 86.7247 51.5421 84.8644C50.703 85.0413 42.2451 82.4722 46.8941 84.436ZM30.5548 71.7105C27.9863 70.9415 30.3942 71.0147 30.5548 71.7105V71.7105ZM35.3466 74.5029C32.7582 73.8323 36.5932 73.6335 35.3466 74.5029V74.5029ZM39.3768 76.9741C36.4734 76.2967 41.1659 76.2993 39.3768 76.9741V76.9741ZM28.6056 69.5876C30.5464 71.0759 36.4353 69.778 31.5786 68.6983C29.3678 67.5202 24.3861 66.7136 27.7817 69.4087L28.6051 69.5871L28.6056 69.5876ZM42.1065 77.8274C38.715 77.0406 42.9152 76.4494 42.1065 77.8274V77.8274ZM38.0036 74.5672C42.7515 75.9101 34.0116 71.5645 36.8323 74.0729L37.4575 74.3554L38.0036 74.5672ZM46.2292 79.3209C42.1682 78.701 50.7255 79.3638 46.2292 79.3209V79.3209ZM26.8751 66.9856C25.7661 67.0562 26.6994 66.1486 26.8751 66.9856V66.9856ZM53.8349 83.5875C52.3676 84.7127 53.9547 82.0746 53.8349 83.5875V83.5875ZM34.5478 71.6843C33.1432 71.6513 34.2758 70.8876 34.5478 71.6843V71.6843ZM27.3015 66.4598C23.7678 65.3226 29.8831 66.305 27.3015 66.4598V66.4598ZM18.717 60.911C15.9083 58.6867 18.3958 59.6739 18.717 60.911V60.911ZM41.2532 75.2133C40.7803 74.674 41.0309 75.331 41.2532 75.2133V75.2133ZM55.2803 83.8208C54.5166 84.1326 55.2353 82.9969 55.2803 83.8208V83.8208ZM40.0119 73.9311C37.8106 73.6099 40.2645 72.8692 40.0119 73.9311V73.9311ZM29.5619 67.3083C26.4859 66.0099 31.4818 67.1028 29.5619 67.3083V67.3083ZM47.2388 78.2924C44.3224 77.7138 50.2311 77.107 47.2388 78.2924V78.2924ZM38.0439 72.051C41.4928 72.4957 33.9405 69.7048 37.2874 71.8009L38.0439 72.051ZM50.0308 79.4213C53.2506 77.4962 52.1892 83.9291 55.4938 79.9654C58.7528 77.5852 52.6788 82.9074 56.6959 80.3891C59.6014 78.4462 63.8925 81.3103 66.6034 82.2446C68.5526 82.1489 70.4484 83.9307 72.4467 82.8467C76.2938 81.811 64.9231 81.3098 67.9039 79.4715C64.3832 80.4958 61.7833 78.25 60.0507 75.9954C56.1022 75.0836 51.5363 73.0648 49.5657 69.5703C48.7622 68.2583 50.7271 69.755 48.872 67.6102C46.4929 65.4941 45.3043 63.092 43.7078 60.5192C41.7994 59.5012 41.5771 56.5053 41.384 60.4188C41.3997 57.9491 39.0802 56.2861 38.5147 56.9777C38.5042 54.5985 40.9959 55.7912 39.2518 54.0309C38.8762 51.5654 37.6405 48.9963 37.2686 46.2128C36.6911 44.871 37.187 41.9969 35.298 45.0347C34.6101 48.2451 35.0699 41.0898 36.1402 43.4496C37.5448 41.0417 35.6354 41.3247 35.5575 41.659C36.4729 39.6277 36.1366 36.7458 35.3184 37.8454C35.8065 35.6922 36.089 29.9211 34.5886 30.9438C35.4983 28.6923 36.3134 20.6414 32.3653 23.7111C30.7656 23.7336 27.9952 24.2917 26.6858 24.943C30.7923 27.2066 26.2725 25.7607 24.6011 25.4008C24.3835 27.4954 22.7278 26.5893 20.6594 26.6097C23.9629 27.0188 19.0508 29.9891 17.1555 28.8351C14.6942 30.0116 19.2794 32.9479 17.2046 33.8555C17.4594 35.2245 13.434 33.3617 13.7499 36.5224C11.3603 35.5175 13.4209 40.2722 14.6162 38.6641C18.6809 39.7642 17.4777 42.2716 17.5808 44.6539C16.919 46.0417 14.3112 41.3911 17.0001 41.6067C14.8794 38.1608 14.6539 40.3611 12.8915 41.9619C12.4813 42.078 17.3872 44.2396 14.3086 45.3083C17.0174 45.7263 17.0943 48.0966 17.6462 49.5964C19.2736 51.2918 18.9409 47.7236 20.8885 49.7617C19.656 47.9464 14.3594 44.6466 18.6234 45.7048C18.6009 43.8776 17.8523 42.4039 19.159 42.44C20.4527 40.0964 17.8042 48.2174 20.7206 45.2387C21.5278 44.8867 21.7276 42.893 23.1793 45.4271C25.2864 47.5007 23.9404 49.0037 20.967 47.1047C21.499 48.9095 24.9443 49.554 24.2967 52.3763C24.9835 54.858 25.9435 53.9441 26.7805 53.8002C27.4375 56.2118 27.81 54.4384 27.8414 53.2912C30.8478 53.9346 30.1436 55.7122 31.0847 56.9536C33.1563 57.889 28.1186 50.6149 31.6759 54.7669C35.4183 58.1453 33.0794 59.5556 29.7209 59.0147C31.8464 58.8421 32.5322 61.8877 35.1907 61.781C37.6154 62.934 39.2565 67.3643 35.0778 65.5198C33.6287 64.213 28.4989 62.6007 32.6886 65.0866C36.5577 66.8783 39.6305 67.9508 43.3625 70.1997C46.0336 72.1065 47.1871 74.2905 48.1993 74.7221C45.9551 75.7945 41.4353 73.8663 44.7911 73.2751C42.6981 72.8938 40.3435 71.8355 42.3481 74.4438C44.0535 75.8667 48.3892 75.7165 49.1666 75.8771C48.5074 77.3293 47.377 77.4444 49.1932 77.5574C47.1667 78.6372 49.843 78.8046 50.0308 79.4213ZM45.8871 67.719C44.6541 66.43 44.3355 64.0147 45.6679 66.1161C46.3516 66.3908 47.8577 70.0626 45.8871 67.719ZM59.3822 76.2915C59.4047 76.8758 60.1512 76.2418 59.3822 76.2915V76.2915ZM43.94 64.5578C43.8929 62.6086 44.3862 66.0612 43.94 64.5578V64.5578ZM42.5993 62.753C41.0482 59.7565 44.5542 63.6015 42.5993 62.753V62.753ZM26.3447 51.5345C26.793 53.0929 27.2555 51.2918 26.3447 51.5345V51.5345ZM39.2805 58.5465C39.8403 56.4451 39.9381 60.3094 39.2805 58.5465V58.5465ZM30.1415 52.1916C29.4976 51.0323 31.4891 53.2792 30.1415 52.1916V52.1916ZM37.9848 54.7063C36.5158 51.4142 39.0247 52.9083 38.3096 55.2451L37.9848 54.7063ZM24.4594 45.686C23.8023 44.6057 22.7158 41.4372 23.0657 40.4704C23.3822 42.0451 26.4158 47.2496 24.554 42.6257C22.4961 38.7499 27.0133 43.8838 27.4783 44.8506C27.6944 45.8126 26.2087 44.588 27.2152 46.8426C25.379 44.2757 26.1313 48.2608 24.4594 45.686ZM20.2796 42.8057C20.4512 40.2947 21.2364 44.5273 20.2796 42.8057V42.8057ZM22.1597 43.4528C23.0569 41.5575 23.6809 46.0946 22.1597 43.4528V43.4528ZM17.6362 39.9536C16.0799 38.4072 14.9542 36.9822 17.7095 38.9942C18.7714 39.0355 15.3502 35.7524 17.9648 37.9516C20.7143 38.4527 19.3223 42.4588 17.6362 39.9536ZM20.0123 39.8919C20.492 40.7733 20.9162 38.9963 20.0123 39.8919V39.8919ZM21.4744 40.3606C20.1038 37.792 23.1369 41.4372 21.4744 40.3606V40.3606ZM18.5679 37.5828C14.0439 33.5568 24.2532 39.6884 19.3071 38.3293L18.5679 37.5828ZM31.531 45.1147C29.5729 43.9409 31.012 36.8504 31.6795 41.6998C33.5827 41.0841 31.5744 44.204 32.9941 44.1752C32.7702 46.1437 32.1352 46.8515 31.5304 45.1147H31.531ZM36.3254 47.9485C36.5174 45.8116 36.7293 49.4091 36.3254 47.9485V47.9485ZM35.4926 47.1256C35.5146 48.2001 35.7081 46.2128 35.4926 47.1256V47.1256ZM19.4557 36.2603C16.5492 32.25 27.9026 40.3166 21.3169 37.2773C20.629 37.0973 19.8009 37.0335 19.4557 36.2603ZM28.6883 41.1552C28.4131 37.7784 29.3024 41.715 28.6883 41.1552V41.1552ZM35.6982 45.652C35.7385 46.9242 36.2407 43.7285 35.6982 45.652V45.652ZM19.9008 34.7291C21.6282 34.3603 27.0598 37.7633 22.0718 35.7022C21.5173 35.088 20.3361 35.3674 19.9008 34.7291ZM34.7346 42.1235C34.9192 38.6709 35.7657 40.0614 34.7409 42.6179L34.7346 42.1235ZM21.1862 33.5286C21.8898 32.4964 19.3176 28.8607 21.5571 32.2244C22.5248 32.9934 24.3584 33.5123 22.7393 33.8356C25.2859 36.0825 22.1184 34.4446 21.1862 33.5286ZM34.0012 41.0448C34.4301 43.3492 34.4877 37.112 34.0012 41.0448V41.0448ZM19.7167 29.8955C20.0008 30.6121 20.2545 29.6653 19.7167 29.8955V29.8955ZM23.0595 31.8849C23.9195 30.0801 24.6461 33.8979 23.0595 31.8849V31.8849ZM32.4878 37.1298C32.4789 36.4366 32.6656 38.1383 32.4878 37.1298V37.1298ZM31.9416 35.9208C30.6328 32.6921 33.1589 37.6304 31.9416 35.9208V35.9208ZM31.1381 33.8043C30.9184 32.4703 31.8846 35.4803 31.1381 33.8043V33.8043ZM32.4459 31.6783C31.5477 30.0958 33.58 24.705 33.8066 28.0478C32.8587 30.6535 33.533 32.1109 34.1942 28.6164C35.4157 25.8663 33.9305 34.0433 32.4459 31.6783ZM33.7898 23.6603C33.8767 24.24 34.1811 23.1801 33.7898 23.6603V23.6603ZM31.5456 67.8827C31.0131 67.4182 31.6126 68.1783 31.5456 67.8827V67.8827ZM36.1685 70.2211C38.7402 70.8813 38.7271 69.8209 36.4028 69.5065C35.1526 68.3431 31.2082 67.1096 34.7393 69.3621C34.9726 69.9543 35.7118 69.9407 36.1685 70.2211ZM27.0378 64.1565C28.455 65.2132 32.3742 67.1509 29.0561 64.5593C30.175 63.2588 26.9149 62.5673 27.9962 61.6978C25.2456 60.0144 25.8263 60.164 27.7535 60.2174C24.4473 58.7396 28.2306 58.8499 28.0527 58.093C26.7778 57.8413 21.7213 55.8451 24.6963 58.2567C21.6721 56.7151 23.9755 58.8311 23.0616 58.6072C19.9688 57.7644 25.8153 60.9628 22.5698 60.1687C24.3443 61.5749 27.346 63.7699 23.3205 61.6565C22.7901 62.4203 26.2008 63.5769 27.0378 64.1565ZM31.8731 66.9343C28.9907 64.62 37.753 68.8291 31.8731 66.9343V66.9343ZM56.6258 81.9297C55.8223 82.9247 56.7017 80.7631 56.6258 81.9297V81.9297ZM59.1698 83.0005C60.5262 81.6859 59.2252 85.0941 61.4176 82.6788C61.4412 80.9494 61.3496 79.9282 58.8983 82.0286C58.2224 82.4031 57.92 83.9971 59.1698 83.0005ZM18.7855 57.6384C15.8654 56.0088 18.3686 56.001 18.7855 57.6384V57.6384ZM21.5021 59.418C17.903 57.9041 20.493 57.7456 21.5021 59.418V59.418ZM36.9568 68.7386C38.4655 70.0788 43.8872 69.7221 38.7893 68.9039C38.0345 67.7875 33.9954 68.0564 36.9568 68.7386ZM58.202 81.8596C55.9525 82.729 60.5247 79.911 58.202 81.8596V81.8596ZM63.032 85.1788C62.0313 85.4524 63.0467 84.5532 63.032 85.1788V85.1788ZM63.0393 84.3031C60.5477 84.4642 65.611 81.5782 63.0393 84.3031V84.3031ZM12.1042 52.0446C9.91228 48.9168 10.7414 47.5112 8.62801 44.9578C8.22782 43.005 5.0017 38.5736 6.95924 43.2681C8.75251 46.014 9.28505 50.2649 12.1042 52.0446ZM62.2332 83.4374C60.2914 82.105 66.9649 80.3792 62.2332 83.4374V83.4374ZM65.8449 84.8519C64.3466 84.4266 68.2146 82.8175 65.8449 84.8519V84.8519ZM17.9804 54.181C16.2295 54.0523 18.6584 53.1725 17.9804 54.181V54.181ZM65.091 83.8857C67.3849 82.4068 64.5627 82.6338 64.6751 84.0217L65.091 83.8857ZM33.9577 64.2622C32.7462 64.3475 33.8793 63.2635 33.9577 64.2622V64.2622ZM35.8818 65.3696C34.9417 65.5637 35.2703 64.1335 35.8818 65.3696V65.3696ZM68.7717 84.8854C71.7112 82.7651 66.9905 84.4794 68.155 85.2871L68.7717 84.8854ZM67.647 84.3413C65.1188 85.2306 70.0408 82.3351 67.647 84.3413V84.3413ZM73.3962 88.1706C71.4439 87.8222 75.0043 87.094 73.3962 88.1706V88.1706ZM19.4541 53.4539C21.6094 53.9367 28.0647 58.7605 24.2564 53.7876C22.3051 53.2101 23.4754 48.4413 21.4859 49.2856C22.8214 51.5168 22.5845 52.4662 19.7805 51.0595C16.2562 49.3395 17.8 51.9122 18.4884 52.6211C17.5504 52.8345 19.7303 53.4361 19.4541 53.4539ZM9.63764 45.7006C10.0232 44.1051 6.08562 36.9226 7.77793 42.1015C8.38894 43.1865 8.32721 45.2424 9.63764 45.7006ZM27.6556 56.8092C26.5461 55.8812 27.6033 56.6779 27.6556 56.8092V56.8092ZM30.3879 57.4448C27.3679 56.7585 30.3864 55.7551 30.3879 57.4448V57.4448ZM54.0651 72.3717C52.2802 72.3445 53.6137 71.2166 54.0651 72.3717V72.3717ZM55.2024 73.2019C54.5464 73.3269 55.035 72.5558 55.2024 73.2019V73.2019ZM64.5873 79.1132C63.461 79.0279 65.4902 78.4467 64.5873 79.1132V79.1132ZM14.5409 46.953C11.7751 46.24 17.1225 45.9533 14.5409 46.953V46.953ZM51.981 70.5407C50.3352 70.9551 51.9522 68.8688 51.981 70.5407V70.5407ZM13.5208 44.5759C11.987 44.2071 15.1791 44.0157 13.5208 44.5759V44.5759ZM18.3346 46.9075C17.8256 47.1157 18.3043 46.3582 18.3346 46.9075V46.9075ZM77.045 82.9106C79.1778 82.4779 84.0371 83.9961 84.8228 82.3456C82.2333 82.2823 75.8627 80.5178 75.5614 82.7662L76.1285 82.8551L77.045 82.9106ZM19.8642 47.293C18.5438 47.2303 19.9014 45.5997 19.8642 47.293V47.293ZM7.20824 38.514C5.0221 38.0254 6.63333 35.2868 7.20824 38.514V38.514ZM10.2267 39.2725C7.46405 38.3403 10.2633 38.2367 10.2267 39.2725V39.2725ZM11.9509 40.1199C11.4524 39.7156 11.5606 40.6295 11.9509 40.1199V40.1199ZM22.8031 47.0812C21.5937 46.7333 23.3142 46.6119 22.8031 47.0812V47.0812ZM10.8026 38.209C7.30659 37.8438 10.5107 35.7717 10.8026 38.209V38.209ZM4.61459 34.1945C4.01142 34.6182 4.52618 33.0698 4.61459 34.1945V34.1945ZM5.53477 33.4993C4.74485 33.6693 5.38463 32.1653 5.53477 33.4993V33.4993ZM10.6195 36.535C12.7701 35.6901 6.70343 34.7877 10.1801 36.3754L10.6195 36.535ZM78.6771 78.5728C76.9283 78.1826 80.0535 77.311 78.6771 78.5728V78.5728ZM86.8991 82.8347C85.5107 83.0492 87.4505 81.2031 86.8991 82.8347V82.8347ZM11.1406 33.8696C9.43519 34.183 11.3666 32.2914 11.1406 33.8696V33.8696ZM3.90471 29.0218C3.51602 26.7939 3.56938 22.883 7.28671 24.2049C2.32434 25.1899 10.721 30.3726 9.66066 26.2807C11.7474 26.3827 13.7426 25.0477 12.6477 27.0742C16.7589 26.6202 19.6089 23.0551 23.58 23.5547C26.6732 23.1451 30.0552 22.8348 33.3886 21.5898C36.1298 21.3921 38.7679 18.4416 37.2655 16.6923C33.5277 16.3763 29.6158 16.844 25.4847 17.6653C20.9073 18.6164 16.7485 20.4248 12.1303 21.2006C7.62831 21.8053 13.0353 22.8667 11.7464 23.1032C9.397 23.9188 14.5477 24.4686 11.4414 25.3275C9.52307 24.9629 7.52683 24.3038 8.34604 22.2819C4.0334 22.8416 0.243875 24.6313 3.65099 29.0197L3.90471 29.0218ZM14.2961 23.7299C15.3073 20.0053 19.713 26.7949 15.9533 24.2243C15.5045 23.8884 14.7658 23.6143 14.2961 23.7299ZM14.4928 21.9236C15.2686 22.5335 15.9523 20.8365 14.4928 21.9236V21.9236ZM16.3457 21.9534C16.4775 20.2391 20.5882 22.8605 17.0236 22.5707L16.3457 21.9534ZM18.8807 20.9338C19.1465 21.8963 19.8067 19.8525 18.8807 20.9338V20.9338ZM19.5294 20.4996C21.0705 18.6477 28.2578 19.3173 22.9967 20.3191C21.5869 19.2572 20.5066 20.9453 19.5294 20.4996ZM28.9091 19.0537C28.6742 13.9951 33.5685 20.8517 28.9091 19.0537V19.0537ZM31.5702 19.0396C32.5432 16.4898 35.3461 18.0163 32.0201 18.5269C32.0928 18.7984 31.9228 19.8431 31.5702 19.0396ZM10.0907 32.5608C7.00422 31.016 12.9982 30.7806 10.0907 32.5608V32.5608ZM12.2407 33.1582C10.0253 32.7188 13.2598 32.0743 12.2407 33.1582V33.1582ZM5.90618 28.6625C3.94028 28.177 7.56711 27.386 5.90618 28.6625V28.6625ZM91.7521 82.3676C90.4825 83.0351 91.8002 80.8871 91.7521 82.3676V82.3676ZM83.029 76.4144C81.908 76.5635 83.277 74.7101 83.029 76.4144V76.4144ZM94.1507 82.942C96.4733 82.9498 101.188 82.22 96.1343 82.2227C95.3418 82.3466 91.5136 82.32 94.1507 82.942ZM14.1313 32.1135C16.0109 31.9843 17.0723 30.0398 13.7677 30.1518C8.64632 29.6213 18.2859 31.9053 13.1107 31.2519C12.4149 31.7123 14.0915 32.2406 14.1313 32.1135ZM15.7865 32.951C15.2058 33.5924 15.5903 31.7442 15.7865 32.951V32.951ZM17.7503 27.7146C16.6219 27.4441 18.5663 26.7028 17.7503 27.7146V27.7146ZM11.4989 17.2651C14.8537 16.1237 19.4415 14.8415 21.025 17.827C19.4133 15.8867 20.3748 13.9768 21.8971 16.8137C24.0503 19.6841 25.1279 15.5079 23.728 14.5454C25.3236 16.528 27.1388 17.465 24.7962 14.6709C27.3418 11.6091 19.6994 15.0717 17.9627 15.0371C17.1267 15.4117 9.33423 17.024 11.4989 17.2656V17.2651ZM13.4653 13.4997C15.3784 12.0558 20.0818 14.3586 17.0639 12.0647C16.7684 11.8042 10.4542 13.8041 13.4653 13.4997ZM20.4402 13.7874C22.6792 13.8449 19.4745 10.7794 22.1424 12.1688C21.7046 10.737 19.0361 10.4687 17.7314 9.8969C16.9938 11.2058 19.2333 13.8052 20.4402 13.7879V13.7874ZM14.6879 7.45652C13.3304 7.98906 15.4626 6.4066 14.6879 7.45652V7.45652ZM17.5389 8.1392C21.1474 7.66054 16.6193 6.58551 16.8118 8.10048L17.5389 8.1392ZM12.2161 3.97355C9.6753 0.656933 16.9944 4.53068 14.4127 1.05817C12.2402 -0.671806 10.1524 3.00524 12.2156 3.97355H12.2161ZM44.8225 21.5359C45.9875 19.4701 40.0113 18.7513 44.0373 20.8035C44.4077 20.928 44.3245 21.6787 44.8225 21.5359Z" fill="black"/>
</svg>
