<svg width="101" height="93" viewBox="0 0 101 93" fill="none" xmlns="http://www.w3.org/2000/svg">
<path d="M50.9321 92.3559L69.345 35.6871H32.5188L50.9317 92.3559H50.9321Z" fill="#E24329"/>
<path d="M50.9323 92.3555L32.5189 35.6866H6.71411L50.9323 92.3555Z" fill="#FC6D26"/>
<path d="M6.71407 35.6866L1.11874 52.9081C0.869958 53.6737 0.869923 54.4984 1.11865 55.264C1.36737 56.0297 1.85208 56.6969 2.50331 57.1701L50.9321 92.3558L6.71368 35.687L6.71407 35.6866Z" fill="#FCA326"/>
<path d="M6.71411 35.6869H32.5189L21.4295 1.55549C20.8588 -0.200821 18.3742 -0.20043 17.8039 1.55549L6.71411 35.6869Z" fill="#E24329"/>
<path d="M50.9323 92.3555L69.3452 35.6866H95.1504L50.9319 92.3555H50.9323Z" fill="#FC6D26"/>
<path d="M95.1502 35.6866L100.745 52.9081C100.994 53.6738 100.994 54.4985 100.745 55.2641C100.497 56.0297 100.012 56.6969 99.3605 57.1701L50.9321 92.3558L95.1502 35.687V35.6866Z" fill="#FCA326"/>
<path d="M95.1504 35.6869H69.3452L80.435 1.55549C81.0057 -0.200821 83.4903 -0.20043 84.0606 1.55549L95.1504 35.6869Z" fill="#E24329"/>
</svg>
