<svg width="98" height="100" viewBox="0 0 98 100" fill="none" xmlns="http://www.w3.org/2000/svg">
<path d="M97.1703 23.004C97.2061 23.1365 97.2244 23.2731 97.2247 23.4103V44.7445C97.2247 45.0183 97.1525 45.2873 97.0152 45.5242C96.878 45.7612 96.6806 45.9577 96.4431 46.0939L78.5369 56.4032V76.8371C78.5369 77.3932 78.2414 77.9065 77.7592 78.1865L40.3817 99.7034C40.2961 99.752 40.2028 99.7831 40.1095 99.8162C40.0745 99.8279 40.0414 99.8493 40.0045 99.859C39.7432 99.9278 39.4686 99.9278 39.2073 99.859C39.1645 99.8473 39.1256 99.824 39.0848 99.8084C38.9992 99.7773 38.9098 99.7501 38.8281 99.7034L1.45841 78.1865C1.22101 78.0501 1.02376 77.8536 0.88653 77.6167C0.749301 77.3798 0.676946 77.1109 0.676758 76.8371V12.8347C0.676758 12.6947 0.696202 12.5586 0.731201 12.4263C0.742868 12.3816 0.77009 12.3408 0.785645 12.2961C0.814811 12.2144 0.842033 12.1308 0.88481 12.055C0.913976 12.0044 0.956753 11.9636 0.991753 11.9169C1.03647 11.8547 1.07731 11.7905 1.12981 11.7361C1.17453 11.6913 1.23286 11.6583 1.28342 11.6194C1.3398 11.5727 1.39036 11.5222 1.45452 11.4852H1.45647L20.1423 0.726784C20.3789 0.590637 20.6471 0.518982 20.9201 0.518982C21.193 0.518982 21.4612 0.590637 21.6978 0.726784L40.3836 11.4852H40.3875C40.4498 11.5241 40.5023 11.5727 40.5586 11.6175C40.6092 11.6564 40.6656 11.6913 40.7103 11.7341C40.7648 11.7905 40.8036 11.8547 40.8503 11.9169C40.8834 11.9636 40.9281 12.0044 40.9553 12.055C41 12.1327 41.0253 12.2144 41.0564 12.2961C41.072 12.3408 41.0992 12.3816 41.1109 12.4283C41.1467 12.5608 41.165 12.6974 41.1653 12.8347V52.8099L56.7362 43.8442V23.4084C56.7362 23.2723 56.7556 23.1342 56.7906 23.004C56.8042 22.9573 56.8295 22.9165 56.8451 22.8717C56.8762 22.7901 56.9034 22.7065 56.9462 22.6306C56.9753 22.5801 57.0181 22.5392 57.0512 22.4926C57.0978 22.4304 57.1367 22.3662 57.1912 22.3118C57.2359 22.267 57.2923 22.234 57.3428 22.1951C57.4012 22.1484 57.4517 22.0979 57.5139 22.0609H57.5159L76.2036 11.3025C76.4402 11.1661 76.7084 11.0944 76.9814 11.0944C77.2544 11.0944 77.5227 11.1661 77.7592 11.3025L96.445 22.0609C96.5111 22.0998 96.5617 22.1484 96.62 22.1931C96.6686 22.232 96.725 22.267 96.7697 22.3098C96.8242 22.3662 96.8631 22.4304 96.9097 22.4926C96.9447 22.5392 96.9875 22.5801 97.0147 22.6306C97.0594 22.7065 97.0847 22.7901 97.1158 22.8717C97.1333 22.9165 97.1586 22.9573 97.1703 23.004ZM94.1098 43.8442V26.1034L87.5707 29.8678L78.5369 35.0691V52.8099L94.1117 43.8442H94.1098ZM75.4239 75.9368V58.1843L66.538 63.2592L41.1634 77.7412V95.661L75.4239 75.9368ZM3.79171 15.5277V75.9368L38.0484 95.659V77.7432L20.152 67.6147L20.1462 67.6108L20.1384 67.6069C20.0781 67.5719 20.0276 67.5214 19.9712 67.4786C19.9226 67.4397 19.8662 67.4086 19.8234 67.3658L19.8195 67.36C19.769 67.3114 19.734 67.2511 19.6912 67.1967C19.6523 67.1442 19.6056 67.0994 19.5745 67.045L19.5726 67.0392C19.5376 66.9808 19.5162 66.9108 19.4909 66.8447C19.4656 66.7864 19.4326 66.7319 19.417 66.6697V66.6678C19.3976 66.5939 19.3937 66.5161 19.3859 66.4403C19.3781 66.382 19.3626 66.3236 19.3626 66.2653V24.4934L10.3308 19.2901L3.79171 15.5296V15.5277ZM20.922 3.87285L5.35307 12.8347L20.9181 21.7965L36.4851 12.8327L20.9181 3.87285H20.922ZM29.0185 59.802L38.0504 54.6027V15.5277L31.5113 19.2921L22.4775 24.4934V63.5684L29.0185 59.802ZM76.9814 14.4485L61.4144 23.4103L76.9814 32.3722L92.5465 23.4084L76.9814 14.4485ZM75.4239 35.0691L66.3902 29.8678L59.8511 26.1034V43.8442L68.8829 49.0436L75.4239 52.8099V35.0691ZM39.6039 75.0482L62.4372 62.0128L73.8509 55.4991L58.2956 46.5431L40.3856 56.8543L24.0622 66.2517L39.6039 75.0482Z" fill="#FF2D20"/>
</svg>
