<svg width="99" height="100" viewBox="0 0 99 100" fill="none" xmlns="http://www.w3.org/2000/svg">
<path d="M92.336 40.9375C93.586 37.5 93.8985 34.0625 93.586 30.625C93.2735 27.1875 92.0235 23.75 90.461 20.625C87.6485 15.9375 83.586 12.1875 78.8985 10C73.8985 7.8125 68.586 7.1875 63.2735 8.4375C60.7735 5.9375 57.961 3.75 54.836 2.1875C51.711 0.625 47.9609 0 44.5234 0C39.2109 0 33.8985 1.5625 29.5235 4.6875C25.1485 7.8125 22.0235 12.1875 20.461 17.1875C16.711 18.125 13.586 19.6875 10.461 21.5625C7.64845 23.75 5.46095 26.5625 3.58595 29.375C0.773451 34.0625 -0.164049 39.375 0.460951 44.6875C1.08595 50 3.27345 55 6.71095 59.0625C5.46095 62.5 5.14845 65.9375 5.46095 69.375C5.77345 72.8125 7.02345 76.25 8.58595 79.375C11.3985 84.0625 15.461 87.8125 20.1485 90C25.1485 92.1875 30.461 92.8125 35.7735 91.5625C38.2735 94.0625 41.086 96.25 44.211 97.8125C47.336 99.375 51.086 100 54.5235 100C59.836 100 65.1485 98.4375 69.5235 95.3125C73.8985 92.1875 77.0235 87.8125 78.586 82.8125C82.0235 82.1875 85.461 80.625 88.2735 78.4375C91.086 76.25 93.586 73.75 95.1485 70.625C97.961 65.9375 98.8985 60.625 98.2735 55.3125C97.6485 50 95.7735 45 92.336 40.9375ZM54.836 93.4375C49.836 93.4375 46.086 91.875 42.6485 89.0625C42.6485 89.0625 42.9609 88.75 43.2734 88.75L63.2735 77.1875C63.8985 76.875 64.211 76.5625 64.5235 75.9375C64.836 75.3125 64.836 75 64.836 74.375V46.25L73.2735 51.25V74.375C73.586 85.3125 64.836 93.4375 54.836 93.4375ZM14.5235 76.25C12.336 72.5 11.3985 68.125 12.336 63.75C12.336 63.75 12.6485 64.0625 12.961 64.0625L32.9609 75.625C33.5859 75.9375 33.8984 75.9375 34.5234 75.9375C35.1484 75.9375 35.7734 75.9375 36.0859 75.625L60.461 61.5625V71.25L40.1484 83.125C35.7734 85.625 30.7735 86.25 26.086 85C21.086 83.75 17.0235 80.625 14.5235 76.25ZM9.21095 32.8125C11.3985 29.0625 14.8359 26.25 18.8985 24.6875V25.3125V48.4375C18.8985 49.0625 18.8985 49.6875 19.211 50C19.5235 50.625 19.836 50.9375 20.461 51.25L44.8359 65.3125L36.3985 70.3125L16.3985 58.75C12.0235 56.25 8.89845 52.1875 7.64845 47.5C6.39845 42.8125 6.71095 37.1875 9.21095 32.8125ZM78.2735 48.75L53.8985 34.6875L62.336 29.6875L82.336 41.25C85.461 43.125 87.961 45.625 89.5235 48.75C91.086 51.875 92.0235 55.3125 91.711 59.0625C91.3985 62.5 90.1485 65.9375 87.961 68.75C85.7735 71.5625 82.961 73.75 79.5235 75V51.25C79.5235 50.625 79.5235 50 79.211 49.6875C79.211 49.6875 78.8985 49.0625 78.2735 48.75ZM86.711 36.25C86.711 36.25 86.3985 35.9375 86.086 35.9375L66.086 24.375C65.461 24.0625 65.1485 24.0625 64.5235 24.0625C63.8985 24.0625 63.2735 24.0625 62.961 24.375L38.5859 38.4375V28.75L58.8985 16.875C62.0235 15 65.461 14.375 69.211 14.375C72.6485 14.375 76.086 15.625 79.211 17.8125C82.0235 20 84.5235 22.8125 85.7735 25.9375C87.0235 29.0625 87.336 32.8125 86.711 36.25ZM34.211 53.75L25.7734 48.75V25.3125C25.7734 21.875 26.711 18.125 28.586 15.3125C30.461 12.1875 33.2735 10 36.3985 8.4375C39.5235 6.875 43.2735 6.25 46.711 6.875C50.1485 7.1875 53.586 8.75 56.3985 10.9375C56.3985 10.9375 56.086 11.25 55.7735 11.25L35.7735 22.8125C35.1485 23.125 34.8359 23.4375 34.5234 24.0625C34.2109 24.6875 34.211 25 34.211 25.625V53.75ZM38.5859 43.75L49.5234 37.5L60.461 43.75V56.25L49.5234 62.5L38.5859 56.25V43.75Z" fill="#193718"/>
</svg>
