<svg width="83" height="100" viewBox="0 0 83 100" fill="none" xmlns="http://www.w3.org/2000/svg">
<path fill-rule="evenodd" clip-rule="evenodd" d="M1.32562 68.6394C0.30828 67.0347 0.29291 64.9908 1.286 63.3706L38.6777 2.37723C40.7574 -1.0152 45.7793 -0.718578 47.4452 2.89506L81.6043 76.9942C82.8716 79.7436 81.4127 82.9784 78.5127 83.8485L25.3757 99.7896C23.2378 100.431 20.9342 99.5715 19.7392 97.6862L1.32562 68.6394ZM42.9919 20.2112C43.3521 18.4169 45.8106 18.1582 46.5368 19.8381L70.0992 74.3604C70.5426 75.387 69.9907 76.5708 68.9191 76.8905L32.2056 87.85C30.8561 88.2528 29.5634 87.0737 29.8407 85.6928L42.9919 20.2112Z" fill="white"/>
</svg>
