<svg width="101" height="62" viewBox="0 0 101 62" fill="none" xmlns="http://www.w3.org/2000/svg">
<path d="M84.1628 19.4402C84.0067 16.0061 84.475 12.9621 82.9141 10.3865C79.1677 3.98648 69.8018 0.240112 51.07 0.240112V0.786458H50.6797H51.07V0.240112C32.3382 0.240112 22.504 3.98648 18.7576 10.4646C17.2747 13.1182 17.4308 16.0841 17.1966 19.5183C17.0405 22.25 15.7917 25.1378 16.3381 28.2598C16.9625 32.3184 17.1966 36.3769 17.821 40.1233C18.2893 43.1672 22.504 45.7429 22.8942 48.6307C23.9869 56.5917 32.2601 60.26 50.9919 60.26V60.8844H50.5236H51.07V60.26C69.8018 60.26 77.7628 56.5917 78.7774 48.6307C79.1677 45.6648 83.0701 43.1672 83.5384 40.1233C84.1628 36.3769 84.397 32.3184 85.0214 28.2598C85.5677 25.1378 84.3189 22.172 84.1628 19.4402Z" fill="#EFCCA3"/>
<path d="M50.7579 22.25C54.114 22.328 56.4555 24.4354 58.6409 26.3866C61.2165 28.65 65.5873 30.211 67.3824 32.1623C69.1775 34.1135 71.519 36.0647 72.3776 39.1087C73.2361 42.1526 73.4702 46.055 73.4702 47.0697C73.4702 48.0843 74.0166 47.8502 75.5776 47.0697C79.2459 45.2745 83.3045 40.4355 83.3045 40.4355C82.8362 43.4794 78.8557 46.2111 78.4654 49.099C77.5288 57.06 69.8019 60.8844 50.6799 60.8844H50.6018H51.0701" fill="#CCAC8D"/>
<path d="M63.0897 16.1622C63.7922 18.5817 66.2897 26.7769 61.4507 24.0452C61.4507 24.0452 63.48 25.2159 64.7287 29.6647C66.0556 34.1135 69.2556 34.6599 69.2556 34.6599C69.2556 34.6599 74.4849 35.6745 78.3874 32.3184C81.6654 29.5086 82.2118 24.5134 80.8069 20.689C79.402 16.9427 76.9044 15.7719 73.2361 14.9914C69.5678 14.1329 62.2312 13.4304 63.0897 16.1622Z" fill="#CCAC8D"/>
<path d="M72.3776 31.9281C76.1709 31.9281 79.2459 28.853 79.2459 25.0598C79.2459 21.2665 76.1709 18.1914 72.3776 18.1914C68.5843 18.1914 65.5093 21.2665 65.5093 25.0598C65.5093 28.853 68.5843 31.9281 72.3776 31.9281Z" fill="black"/>
<path d="M70.5825 23.8109C71.574 23.8109 72.3777 23.0072 72.3777 22.0158C72.3777 21.0244 71.574 20.2207 70.5825 20.2207C69.5911 20.2207 68.7874 21.0244 68.7874 22.0158C68.7874 23.0072 69.5911 23.8109 70.5825 23.8109Z" fill="white"/>
<path d="M61.9189 24.7476C61.9189 24.7476 68.0848 28.9622 71.4409 33.0988C74.797 37.2354 74.719 38.0159 74.719 38.0159L72.2995 39.1086C72.2995 39.1086 68.8653 32.6305 64.6506 30.211C60.3579 27.7915 59.8896 25.7622 59.8896 25.7622L61.9189 24.7476Z" fill="#EFCCA3"/>
<path d="M50.9921 22.25C47.636 22.328 45.1384 24.4354 42.8749 26.3866C40.2993 28.65 35.7725 30.211 33.9773 32.1623C32.1822 34.1135 29.7627 36.0647 28.9041 39.1087C28.0456 42.1526 27.7334 46.055 27.7334 47.0697C27.7334 48.0843 27.8895 48.1624 25.6261 47.0697C21.9577 45.3526 17.8992 40.4355 17.8992 40.4355C18.3675 43.4794 22.348 46.2111 22.7382 49.099C23.8309 57.06 31.5578 60.8844 50.6799 60.8844H51.0701" fill="#CCAC8D"/>
<path d="M69.0996 35.4403C65.3533 30.8354 59.3435 26.5427 50.9922 26.5427H50.9141C42.5628 26.5427 36.553 30.8354 32.8067 35.4403C28.9042 40.2013 29.2164 42.0745 29.2164 46.6014C29.2164 62.9917 34.992 58.3087 38.8165 60.338C42.7189 62.2892 46.7775 61.6649 50.9141 61.6649H50.9922C55.2068 61.6649 59.1874 62.2112 63.0898 60.26C66.9143 58.3087 72.6899 63.1478 72.6899 46.7575C72.768 42.2306 73.0021 40.2013 69.0996 35.4403Z" fill="#56332B"/>
<path d="M50.602 30.6013C50.602 30.6013 50.0556 38.1722 48.9629 39.6552L50.9922 39.1869L50.602 30.6013Z" fill="#442823"/>
<path d="M51.1483 30.6013C51.1483 30.6013 51.6946 38.1722 52.7873 39.6552L50.7581 39.1869L51.1483 30.6013Z" fill="#442823"/>
<path d="M44.592 28.8062C43.8115 27.011 46.6213 24.1232 51.0701 24.0452C55.519 24.0452 58.3287 26.933 57.5483 28.8062C56.7678 30.6793 53.958 31.2257 51.0701 31.3037C48.2604 31.2257 45.3725 30.6793 44.592 28.8062Z" fill="#56332B"/>
<path d="M51.07 30.6013C51.07 30.2891 53.7237 30.2111 55.1286 29.2745C55.1286 29.2745 52.2408 30.2111 51.6164 29.8208C50.992 29.5086 50.8359 28.572 50.8359 28.572C50.8359 28.572 50.6017 29.5086 50.1335 29.8208C49.5871 30.133 46.3091 29.2745 46.3091 29.2745C46.3091 29.2745 50.6798 30.3672 50.6798 30.6013C50.6798 30.8355 50.6017 31.6159 50.6017 32.1623C50.6017 34.1135 50.6018 38.9526 50.9139 39.3428C51.3822 40.0453 51.2261 34.1135 51.2261 32.1623C51.1481 31.5379 51.1481 30.9135 51.07 30.6013Z" fill="black"/>
<path d="M51.2261 41.0599C52.5529 41.0599 54.8944 41.9964 57.0017 43.4793C54.9725 41.216 52.5529 39.655 51.2261 39.655C49.8212 39.655 46.8554 41.3721 44.748 43.8696C46.9334 42.1525 49.7432 41.0599 51.2261 41.0599Z" fill="#7F4A41"/>
<path d="M50.6799 54.8747C47.714 54.8747 44.8262 53.9381 42.1725 53.2356C41.6261 53.0795 41.0798 53.4698 40.5335 53.3137C35.6164 51.7527 31.6358 49.099 29.2163 45.7429V46.5234C29.2163 62.9138 34.992 58.3089 38.8164 60.2601C42.7188 62.2114 46.7774 61.587 50.914 61.587H50.9921C55.2067 61.587 59.1872 62.1333 63.0897 60.1821C66.9141 58.2308 72.6898 62.9919 72.6898 46.6014C72.6898 45.977 72.6898 45.3526 72.7678 44.8063C70.5044 48.4746 66.3678 51.3624 61.2165 53.0795C60.7482 53.2356 59.6555 52.8454 59.1872 52.9234C56.3775 53.86 53.8799 54.8747 50.6799 54.8747Z" fill="#442823"/>
<path d="M43.2652 46.0551C43.2652 46.0551 41.314 51.9088 42.6408 54.4844L40.8457 53.7039C40.8457 53.7039 42.1725 47.7722 43.2652 46.0551ZM58.719 46.0551C58.719 46.0551 60.6702 51.9088 59.3434 54.4844L61.1385 53.7039C61.1385 53.7039 59.7336 47.7722 58.719 46.0551Z" fill="#442823"/>
<path d="M38.27 16.1622C37.5676 18.5817 35.07 26.7769 39.909 24.0452C39.909 24.0452 37.8798 25.2159 36.631 29.6647C35.3822 34.1135 32.1041 34.6599 32.1041 34.6599C32.1041 34.6599 26.8748 35.6745 22.9723 32.3184C19.6943 29.5086 19.1479 24.5134 20.5528 20.689C21.9577 16.8646 24.4553 15.7719 28.1236 14.9914C31.7919 14.1329 39.0505 13.4304 38.27 16.1622Z" fill="#CCAC8D"/>
<path d="M50.992 39.655C53.0993 39.655 59.6555 44.1819 59.7335 49.7233V49.4111C59.7335 43.6355 54.4262 39.0306 50.992 39.0306C47.5578 39.0306 42.2505 43.7136 42.2505 49.4111V49.7233C42.3285 44.1819 48.8847 39.655 50.992 39.655Z" fill="black"/>
<path d="M52.6961 28.8486C53.03 28.7625 53.1698 28.1851 53.0082 27.559C52.8467 26.9329 52.4451 26.4952 52.1112 26.5813C51.7773 26.6675 51.6375 27.2448 51.799 27.8709C51.9605 28.497 52.3622 28.9347 52.6961 28.8486Z" fill="#331712"/>
<path d="M48.6841 28.8369C49.0135 28.9391 49.4358 28.5213 49.6273 27.9038C49.8189 27.2863 49.7072 26.7028 49.3779 26.6006C49.0485 26.4985 48.6262 26.9163 48.4346 27.5338C48.243 28.1513 48.3547 28.7348 48.6841 28.8369Z" fill="#331712"/>
<path d="M29.3725 31.9281C33.1658 31.9281 36.2408 28.853 36.2408 25.0598C36.2408 21.2665 33.1658 18.1914 29.3725 18.1914C25.5792 18.1914 22.5042 21.2665 22.5042 25.0598C22.5042 28.853 25.5792 31.9281 29.3725 31.9281Z" fill="black"/>
<path d="M31.1674 23.8109C32.1589 23.8109 32.9626 23.0072 32.9626 22.0158C32.9626 21.0244 32.1589 20.2207 31.1674 20.2207C30.176 20.2207 29.3723 21.0244 29.3723 22.0158C29.3723 23.0072 30.176 23.8109 31.1674 23.8109Z" fill="white"/>
<path d="M53.0215 25.1377C53.0215 25.0597 51.2263 25.9182 50.758 25.9962C50.2898 25.9182 48.4946 25.0597 48.4946 25.1377H53.0215Z" fill="#7F4A41"/>
<path d="M39.3627 24.7476C39.3627 24.7476 33.1968 28.9622 29.8407 33.0988C26.4846 37.2354 26.5627 38.0159 26.5627 38.0159L28.9822 39.1086C28.9822 39.1086 32.4163 32.6305 36.631 30.211C40.8457 27.7915 41.392 25.7622 41.392 25.7622L39.3627 24.7476Z" fill="#EFCCA3"/>
<path d="M25.8601 12.2597C25.8601 12.2597 23.7528 18.0353 19.0698 20.4549C19.0698 20.4549 26.4065 19.5963 25.8601 12.2597ZM75.1092 12.2597C75.1092 12.2597 77.2166 18.0353 81.8995 20.4549C81.8995 20.4549 74.5629 19.5963 75.1092 12.2597ZM61.7628 23.0305C61.7628 23.0305 57.1579 18.1914 50.992 18.0353H51.07H51.1481C44.9041 18.1914 40.3773 23.0305 40.3773 23.0305C45.7627 19.2841 50.3676 19.3622 51.1481 19.3622C51.07 19.3622 56.3774 19.2841 61.7628 23.0305ZM56.3774 12.8841C56.3774 12.8841 54.0359 9.606 50.9139 9.52795H51.07C48.7286 9.606 45.6846 12.8841 45.6846 12.8841C48.3383 10.3084 51.07 10.3865 51.07 10.3865C51.07 10.3865 53.6457 10.3084 56.3774 12.8841ZM29.3723 36.8452C29.3723 36.8452 25.704 38.6403 23.0503 37.5477H22.9723C20.6308 36.2208 19.4601 32.2403 19.4601 32.2403C19.4601 32.2403 21.8016 39.2647 29.3723 36.8452ZM72.1433 36.8452C72.1433 36.8452 75.8117 38.6403 78.4653 37.5477C81.5873 36.2208 82.0556 32.2403 82.0556 32.2403C82.0556 32.2403 79.7141 39.2647 72.1433 36.8452Z" fill="#CCAC8D"/>
<path d="M33.5872 11.8695C35.6165 11.4792 38.9726 11.4012 41.6263 12.2597C44.9824 13.4305 42.2507 17.7232 42.9531 17.9573C43.6556 18.1915 44.5922 14.9914 50.8361 15.3036C57.1581 15.6158 57.8605 18.4256 58.7191 17.9573C59.5776 17.489 57.8605 10.1524 67.3045 11.8695C67.3045 11.8695 57.3922 9.2158 57.8605 16.3963C57.8605 16.3963 52.1629 12.0256 44.2019 15.928C44.28 15.928 46.3092 9.2158 33.5872 11.8695ZM68.163 11.8695C68.3191 11.8695 68.3972 11.9475 68.4752 11.9475C68.5533 11.9475 68.3972 11.8695 68.163 11.8695ZM30.8555 2.26941C30.8555 2.26941 22.4262 12.8841 21.1774 16.9427C19.9286 21.0793 18.992 38.016 17.8993 40.4355L13.9968 23.733L21.1774 6.32797L30.8555 2.26941ZM70.5045 2.26941C70.5045 2.26941 78.9339 12.8841 80.1826 16.9427C81.4314 21.0793 82.368 38.016 83.4607 40.4355L87.3632 23.733L80.1826 6.32797L70.5045 2.26941Z" fill="#CCAC8D"/>
<path d="M70.1141 2.26936C70.1141 2.26936 79.1678 9.84014 81.8215 18.5817C84.4752 27.3232 83.3825 37.9379 85.4118 39.2647C88.2997 41.1379 91.5778 29.9769 92.6705 28.8061C94.3876 26.9329 100.085 22.1719 100.475 21.3134C100.866 20.4548 88.9241 7.42062 83.6947 4.84499C77.3727 1.87912 69.5677 1.64497 70.1141 2.26936Z" fill="#56332B"/>
<path d="M77.8411 6.95239C77.8411 6.95239 88.5338 20.611 88.3777 37.6257L92.6704 28.8842C92.5924 28.8842 88.846 17.7232 77.8411 6.95239Z" fill="#442823"/>
<path d="M30.8554 2.26936C30.8554 2.26936 21.8017 9.84014 19.148 18.5817C16.4943 27.3232 17.587 37.9379 15.5577 39.2647C12.6699 41.1379 9.39182 29.9769 8.29913 28.8061C6.58205 26.9329 0.884449 22.1719 0.494202 21.3134C0.103956 20.4548 12.0455 7.42062 17.2748 4.84499C23.5968 1.87912 31.4017 1.64497 30.8554 2.26936Z" fill="#56332B"/>
<path d="M23.1285 6.95239C23.1285 6.95239 12.4358 20.611 12.5919 37.6257L8.3772 28.8842C8.3772 28.8842 12.1236 17.7232 23.1285 6.95239Z" fill="#442823"/>
<path d="M17.3528 37.9378C17.3528 37.9378 18.1333 42.1525 19.3821 43.4793C20.6309 44.8062 19.7723 42.4647 19.7723 42.4647C19.7723 42.4647 18.4455 41.7622 18.6796 36.3768C18.9138 30.9914 17.3528 37.9378 17.3528 37.9378ZM83.9288 37.9378C83.9288 37.9378 83.1483 42.1525 81.8996 43.4793C80.6508 44.8062 81.5093 42.4647 81.5093 42.4647C81.5093 42.4647 82.8362 41.7622 82.602 36.3768C82.3679 30.9914 83.9288 37.9378 83.9288 37.9378Z" fill="#CCAC8D"/>
<path d="M42.8749 35.3626C43.2197 35.3626 43.4992 35.083 43.4992 34.7381C43.4992 34.3932 43.2197 34.1136 42.8749 34.1136C42.53 34.1136 42.2505 34.3932 42.2505 34.7381C42.2505 35.083 42.53 35.3626 42.8749 35.3626Z" fill="#442823"/>
<path d="M39.2846 39.1087C39.6294 39.1087 39.909 38.8292 39.909 38.4844C39.909 38.1395 39.6294 37.86 39.2846 37.86C38.9397 37.86 38.6602 38.1395 38.6602 38.4844C38.6602 38.8292 38.9397 39.1087 39.2846 39.1087Z" fill="#442823"/>
<path d="M38.1139 35.3626C38.4588 35.3626 38.7383 35.083 38.7383 34.7381C38.7383 34.3932 38.4588 34.1136 38.1139 34.1136C37.7691 34.1136 37.4895 34.3932 37.4895 34.7381C37.4895 35.083 37.7691 35.3626 38.1139 35.3626Z" fill="#442823"/>
<path d="M58.0947 35.3626C58.4395 35.3626 58.7191 35.083 58.7191 34.7381C58.7191 34.3932 58.4395 34.1136 58.0947 34.1136C57.7498 34.1136 57.4702 34.3932 57.4702 34.7381C57.4702 35.083 57.7498 35.3626 58.0947 35.3626Z" fill="#442823"/>
<path d="M61.6849 39.1087C62.0298 39.1087 62.3093 38.8292 62.3093 38.4844C62.3093 38.1395 62.0298 37.86 61.6849 37.86C61.3401 37.86 61.0605 38.1395 61.0605 38.4844C61.0605 38.8292 61.3401 39.1087 61.6849 39.1087Z" fill="#442823"/>
<path d="M62.8556 35.3626C63.2004 35.3626 63.48 35.083 63.48 34.7381C63.48 34.3932 63.2004 34.1136 62.8556 34.1136C62.5107 34.1136 62.2312 34.3932 62.2312 34.7381C62.2312 35.083 62.5107 35.3626 62.8556 35.3626Z" fill="#442823"/>
</svg>
