<svg width="101" height="100" viewBox="0 0 101 100" fill="none" xmlns="http://www.w3.org/2000/svg">
<path d="M50.0201 0.151123C24.6338 0.151123 26.2189 11.1601 26.2189 11.1601L26.2471 22.5658H50.4728V25.99H16.625C16.625 25.99 0.380371 24.1477 0.380371 49.7622C0.380371 75.3775 14.5591 74.4691 14.5591 74.4691H23.021V62.5826C23.021 62.5826 22.5648 48.4039 36.9734 48.4039H61.0009C61.0009 48.4039 74.5003 48.622 74.5003 35.3572V13.4246C74.5003 13.4246 76.5505 0.151123 50.0201 0.151123ZM36.6621 7.82119C37.2345 7.82068 37.8015 7.93305 38.3305 8.15189C38.8595 8.37072 39.3401 8.69172 39.7449 9.09652C40.1497 9.50132 40.4707 9.98196 40.6896 10.511C40.9084 11.0399 41.0208 11.6069 41.0203 12.1794C41.0208 12.7518 40.9084 13.3188 40.6896 13.8478C40.4707 14.3768 40.1497 14.8574 39.7449 15.2622C39.3401 15.667 38.8595 15.988 38.3305 16.2068C37.8015 16.4257 37.2345 16.538 36.6621 16.5375C36.0896 16.538 35.5227 16.4257 34.9937 16.2068C34.4647 15.988 33.984 15.667 33.5792 15.2622C33.1744 14.8574 32.8534 14.3768 32.6346 13.8478C32.4158 13.3188 32.3034 12.7518 32.3039 12.1794C32.3034 11.6069 32.4158 11.0399 32.6346 10.511C32.8534 9.98196 33.1744 9.50132 33.5792 9.09652C33.984 8.69172 34.4647 8.37072 34.9937 8.15189C35.5227 7.93305 36.0896 7.82068 36.6621 7.82119Z" fill="url(#paint0_linear_4_5782)"/>
<path d="M50.7409 99.6312C76.1272 99.6312 74.5421 88.6222 74.5421 88.6222L74.5139 77.2169H50.2879V73.7926H84.1356C84.1356 73.7926 100.38 75.635 100.38 50.0196C100.38 24.4046 86.2015 25.3131 86.2015 25.3131H77.7397V37.1992C77.7397 37.1992 78.1959 51.378 63.7873 51.378H39.7597C39.7597 51.378 26.2604 51.1599 26.2604 64.4251V86.3581C26.2604 86.3581 24.2105 99.6312 50.7405 99.6312H50.7409ZM64.099 91.9619C63.5265 91.9624 62.9595 91.85 62.4305 91.6312C61.9016 91.4124 61.4209 91.0913 61.0161 90.6866C60.6113 90.2818 60.2903 89.8011 60.0715 89.2721C59.8526 88.7431 59.7403 88.1762 59.7408 87.6037C59.7402 87.0312 59.8525 86.4642 60.0714 85.9352C60.2902 85.4061 60.6112 84.9254 61.016 84.5206C61.4208 84.1158 61.9014 83.7947 62.4304 83.5759C62.9595 83.357 63.5265 83.2446 64.099 83.2451C64.6714 83.2446 65.2384 83.357 65.7674 83.5758C66.2964 83.7947 66.777 84.1157 67.1818 84.5205C67.5866 84.9253 67.9076 85.4059 68.1264 85.9349C68.3453 86.4639 68.4576 87.0308 68.4571 87.6033C68.4576 88.1758 68.3453 88.7427 68.1264 89.2717C67.9076 89.8007 67.5866 90.2814 67.1818 90.6862C66.777 91.091 66.2964 91.412 65.7674 91.6308C65.2384 91.8496 64.6714 91.962 64.099 91.9615V91.9619Z" fill="url(#paint1_linear_4_5782)"/>
<defs>
<linearGradient id="paint0_linear_4_5782" x1="9.99033" y1="9.09874" x2="59.5472" y2="58.1613" gradientUnits="userSpaceOnUse">
<stop stop-color="#387EB8"/>
<stop offset="1" stop-color="#366994"/>
</linearGradient>
<linearGradient id="paint1_linear_4_5782" x1="40.4083" y1="40.6038" x2="93.6268" y2="90.9129" gradientUnits="userSpaceOnUse">
<stop stop-color="#FFE052"/>
<stop offset="1" stop-color="#FFC331"/>
</linearGradient>
</defs>
</svg>
