<svg width="101" height="87" viewBox="0 0 101 87" fill="none" xmlns="http://www.w3.org/2000/svg">
<path d="M96.9473 66.5576C91.6105 69.3392 63.9652 80.706 58.0797 83.7744C52.1941 86.8431 48.9246 86.8134 44.275 84.5908C39.6258 82.3681 10.2063 70.4845 4.90664 67.9513C2.2582 66.6857 0.865234 65.617 0.865234 64.6076V54.4998C0.865234 54.4998 39.166 46.1619 45.3492 43.9435C51.532 41.7252 53.6773 41.6451 58.9391 43.5724C64.2016 45.5006 95.6648 51.1771 100.865 53.0818L100.863 63.0466C100.864 64.0459 99.6637 65.142 96.9473 66.5576Z" fill="#912626"/>
<path d="M96.9452 56.5095C91.6089 59.29 63.9644 70.6571 58.0788 73.7251C52.1937 76.7942 48.9241 76.7642 44.2749 74.5415C39.6253 72.3204 10.2069 60.4349 4.90772 57.9032C-0.391494 55.37 -0.502431 53.6267 4.70304 51.5884C9.90851 49.5493 39.1655 38.0708 45.3495 35.8525C51.5323 33.6349 53.6773 33.5541 58.939 35.4822C64.2011 37.4095 91.6808 48.3474 96.8804 50.2517C102.082 52.1583 102.282 53.7282 96.9452 56.5095Z" fill="#C6302B"/>
<path d="M96.9473 50.2025C91.6105 52.9845 63.9652 64.3509 58.0797 67.4205C52.1941 70.488 48.9246 70.4583 44.275 68.2357C39.6254 66.0142 10.2063 54.1294 4.90664 51.5962C2.2582 50.3306 0.865234 49.2634 0.865234 48.2537V38.1447C0.865234 38.1447 39.166 29.8072 45.3492 27.5888C51.532 25.3705 53.6773 25.29 58.9391 27.2177C64.202 29.1455 95.6652 34.8208 100.865 36.7259L100.863 46.6919C100.864 47.6908 99.6637 48.7869 96.9473 50.2025Z" fill="#912626"/>
<path d="M96.9452 40.1545C91.6089 42.9357 63.9644 54.3021 58.0788 57.3713C52.1937 60.4392 48.9241 60.4092 44.2749 58.1865C39.6253 55.9654 10.2069 44.0803 4.90772 41.5482C-0.391494 39.0158 -0.502431 37.272 4.70304 35.233C9.90851 33.1951 39.1659 21.7158 45.3495 19.4978C51.5323 17.2799 53.6773 17.1994 58.939 19.1271C64.2011 21.0545 91.6808 31.9916 96.8804 33.8967C102.082 35.8029 102.282 37.3732 96.9452 40.1545Z" fill="#C6302B"/>
<path d="M96.9473 33.2412C91.6105 36.0225 63.9652 47.3897 58.0797 50.4592C52.1941 53.5272 48.9246 53.4971 44.275 51.2744C39.6254 49.053 10.2063 37.1678 4.90664 34.6357C2.2582 33.369 0.865234 32.3014 0.865234 31.2928V21.1834C0.865234 21.1834 39.166 12.8463 45.3492 10.6283C51.532 8.40954 53.6773 8.32985 58.9391 10.2572C64.202 12.1849 95.6652 17.8603 100.865 19.7654L100.863 29.7311C100.864 30.7291 99.6637 31.8252 96.9473 33.2412Z" fill="#912626"/>
<path d="M96.9455 23.1931C91.6092 25.9744 63.9647 37.3416 58.0791 40.4096C52.194 43.4775 48.9244 43.4475 44.2752 41.226C39.626 39.0033 10.2072 27.1189 4.90841 24.5865C-0.391201 22.0545 -0.501747 20.3103 4.70333 18.2717C9.9088 16.2334 39.1662 4.75563 45.3498 2.53688C51.5326 0.318522 53.6776 0.238834 58.9393 2.16657C64.2014 4.09431 91.6811 15.0314 96.8807 16.9365C102.082 18.8412 102.282 20.4119 96.9455 23.1931Z" fill="#C6302B"/>
<path d="M63.0854 13.3599L54.4878 14.2525L52.5632 18.8837L49.4546 13.7158L39.5268 12.8236L46.9346 10.1521L44.712 6.05133L51.6475 8.76383L58.1858 6.6232L56.4186 10.8634L63.0854 13.3599ZM52.0499 35.8278L36.0041 29.1728L58.9964 25.6435L52.0499 35.8278ZM29.8037 15.9341C36.5909 15.9341 42.0928 18.0669 42.0928 20.6974C42.0928 23.3286 36.5909 25.4611 29.8037 25.4611C23.0166 25.4611 17.5146 23.3283 17.5146 20.6974C17.5146 18.0669 23.0166 15.9341 29.8037 15.9341Z" fill="white"/>
<path d="M73.2461 14.6259L86.854 20.0033L73.2578 25.3756L73.2461 14.6255" fill="#621B1C"/>
<path d="M58.1914 20.581L73.2461 14.6259L73.2578 25.3756L71.7816 25.9529L58.1914 20.581Z" fill="#9A2928"/>
</svg>
