<svg width="101" height="96" viewBox="0 0 101 96" fill="none" xmlns="http://www.w3.org/2000/svg">
<path d="M69.8784 66.8344C73.5686 66.4524 76.3682 63.2711 76.2409 59.4532C76.1139 55.6356 72.9323 52.5813 69.1147 52.5813H68.8604C64.9151 52.7086 61.8612 56.0172 61.9885 59.9622C62.1159 61.8711 62.8792 63.5254 64.0245 64.6707C59.6979 73.1973 53.0807 79.4329 43.1549 84.6504C36.4104 88.2137 29.4115 89.4864 22.4127 88.5957C16.6861 87.8321 12.2322 85.2872 9.43223 81.0872C5.36035 74.8516 4.97871 68.1067 8.41465 61.3622C10.8326 56.5262 14.6498 52.9629 17.0678 51.1813C16.5588 49.527 15.7951 46.7274 15.4135 44.6915C-3.03848 58.0536 -1.1295 76.1243 4.46973 84.6504C8.66895 91.0137 17.1951 94.9586 26.6119 94.9586C29.1569 94.9586 31.7018 94.7039 34.2471 94.068C50.5358 90.8864 62.8796 81.2145 69.8784 66.8344ZM92.2753 51.0543C82.6038 39.7282 68.3514 33.4926 52.0627 33.4926H50.0268C48.8815 31.202 46.4635 29.6747 43.7913 29.6747H43.5366C39.592 29.802 36.5381 33.1106 36.6651 37.0559C36.7924 40.8735 39.9737 43.9278 43.7913 43.9278H44.0455C46.8452 43.8004 49.2631 42.0188 50.2811 39.6008H52.5717C62.2432 39.6008 71.4053 42.4004 79.6772 47.8727C86.0397 52.0723 90.621 57.5446 93.1659 64.1618C95.3292 69.5067 95.2019 74.7243 92.9112 79.1786C89.3483 85.9231 83.3675 89.6137 75.4776 89.6137C70.3874 89.6137 65.5518 88.0864 63.0065 86.9411C61.6069 88.2137 59.0616 90.2496 57.2799 91.5227C62.7522 94.0676 68.3514 95.4676 73.696 95.4676C85.9124 95.4676 94.9476 88.7227 98.3835 81.9782C102.074 74.5969 101.819 61.8711 92.2753 51.0543ZM27.6299 68.9973C27.7572 72.8153 30.9385 75.8692 34.7561 75.8692H35.0108C38.9557 75.7422 42.0096 72.4332 41.8823 68.4883C41.7553 64.6704 38.5737 61.6165 34.7561 61.6165H34.5018C34.2471 61.6165 33.8651 61.6164 33.6112 61.7434C28.3936 53.0899 26.2303 43.6731 26.994 33.4922C27.5026 25.8567 30.0479 19.2391 34.5018 13.7668C38.192 9.05825 45.3182 6.76763 50.1541 6.64067C63.6428 6.38599 69.369 23.184 69.751 29.929C71.4053 30.3106 74.205 31.2016 76.1139 31.8379C74.5866 11.2223 61.8612 0.532471 49.6452 0.532471C38.192 0.532471 27.6299 8.80435 23.4303 21.0211C17.5768 37.3102 21.3944 52.9629 28.5205 65.3071C27.8846 66.1977 27.5026 67.5977 27.6299 68.9977V68.9973Z" fill="#764ABC"/>
</svg>
