<svg width="101" height="101" viewBox="0 0 101 101" fill="none" xmlns="http://www.w3.org/2000/svg">
<path d="M91.6106 6.23187C90.1739 9.7246 88.316 12.821 86.26 15.5954C77.1938 6.35572 64.5109 0.484955 50.5152 0.484955C23.0192 0.484955 0.551758 22.8286 0.551758 50.4236C0.551758 64.8405 6.71978 77.8206 16.5044 86.9859L18.3622 88.6456C27.0074 95.9531 38.2535 100.387 50.4904 100.387C76.7479 100.387 98.3731 79.9013 100.231 54.0402C101.717 41.4813 97.9025 25.4048 91.6106 6.23187ZM23.7376 87.407C22.3008 89.2649 19.6256 89.463 17.7677 88.0263C15.9099 86.5896 15.7117 83.9143 17.1484 82.0564C18.5852 80.1986 21.2605 80.0004 23.1183 81.4372C24.8771 82.8739 25.1743 85.5492 23.7376 87.407ZM91.3134 72.47C79.0516 88.8437 52.6951 83.295 35.9002 84.1124C35.9002 84.1124 32.9029 84.3106 29.9304 84.7317C29.9304 84.7317 31.0698 84.2115 32.5066 83.6913C44.3472 79.5793 49.9207 78.7371 57.1291 75.0462C70.6294 68.135 84.1049 52.9999 86.805 37.3445C81.6526 52.3806 65.9972 65.3607 51.7786 70.6122C41.9939 74.2287 24.3816 77.7215 24.3816 77.7215L23.6633 77.3004C11.7236 71.4296 11.3024 45.4694 33.1506 37.1215C42.7371 33.4058 51.8033 35.4619 62.2072 33.0095C73.2304 30.4333 86.0123 22.1845 91.14 11.3843C96.8621 28.7984 103.872 55.7742 91.3134 72.47Z" fill="#6CB52D"/>
<path d="M23.7376 87.407C22.3009 89.2648 19.6256 89.463 17.7677 88.0263C15.9099 86.5896 15.7117 83.9143 17.1485 82.0564C18.5852 80.1986 21.2605 80.0004 23.1183 81.4372C24.8771 82.8739 25.1743 85.5492 23.7376 87.407Z" fill="#6CB52D"/>
</svg>
