<svg width="103" height="103" viewBox="0 0 103 103" fill="none" xmlns="http://www.w3.org/2000/svg">
<path d="M51.9607 5.40954L6.1626 51.2692L51.7699 96.9378L97.568 51.0781L51.9607 5.40954Z" fill="#019833" stroke="black" stroke-width="0.267335"/>
<path d="M51.77 5.60062V1.5879L1.9646 51.4603H6.16276L51.77 5.60062Z" fill="#66FE98" stroke="black" stroke-width="0.267335"/>
<path d="M51.6555 5.60062V1.5879L101.461 51.4603H97.2628L51.6555 5.60062Z" fill="#45FE02" stroke="black" stroke-width="0.267335"/>
<path d="M51.77 97.2053V101.218L1.9646 51.3456H6.16276L51.77 97.2053Z" fill="#017D17" stroke="black" stroke-width="0.267335"/>
<path d="M11.2042 6.65279H43.3184L45.275 8.61196V14.6246L43.7232 16.5162H40.215V46.3767L70.4402 16.5162H65.4476L63.6935 14.6246V8.27417L65.3127 6.78791H97.8317L99.4509 8.40929V14.3544L25.912 89.8838H17.5461L15.1245 88.4838V16.246H11.0692L9.58496 14.7597V8.40929L11.2042 6.65279Z" stroke="black" stroke-width="5.3467"/>
<path d="M51.6555 97.2053V101.218L101.461 51.3456H97.2628L51.6555 97.2053Z" fill="#005D04" stroke="black" stroke-width="0.267335"/>
<path d="M51.6356 1.21799L1.64282 51.2779L51.4273 101.129L101.42 51.0694L51.6356 1.21799Z" stroke="black" stroke-width="1.60401"/>
<path d="M43.6599 9.70889L45.4728 8.75348L43.6122 6.89043H11.2196L9.57373 8.53851V14.7726L11.3985 16.5998L12.2691 14.7726L11.1242 13.6261V9.23118L11.9829 8.46685H42.8966L43.6599 9.70889Z" fill="#FEFEFE" stroke="black" stroke-width="0.267335"/>
<path d="M66.5613 8.27442L65.4176 9.41972V13.6247L66.4194 14.6279H71.7124V18.6908L36.6983 54.2284V14.6781H42.5173L43.7112 13.4826V9.22744L42.6092 8.37474H11.9865L10.9846 9.37792V13.725L12.0031 14.7449H17.3296V87.5758L18.3314 88.579H24.3841L97.7601 12.7637V9.41972L96.6163 8.27442H66.5613Z" stroke="black" stroke-width="0.267335"/>
<path d="M17.2763 14.6246V87.5868L18.2208 88.6678L17.4801 90.0813L15.3872 87.9922V16.5162L17.2763 14.6246Z" fill="#FEFEFE" stroke="black" stroke-width="0.267335"/>
<path d="M12.0432 14.6246L11.5034 16.3811H15.4165L17.5754 14.6246H12.0432Z" fill="#808080" stroke="black" stroke-width="0.267335"/>
<path d="M65.7957 16.5974L66.6544 14.8299L65.414 13.6834V9.76621L66.8452 8.3331H96.7094L97.8544 9.86175L99.4764 8.71526L97.8067 7.04329H65.7003L64.1021 8.6436V14.9254L65.7599 16.4899M39.8136 46.6534L36.6948 54.231L71.9021 18.8808V14.677L39.8136 46.6534Z" fill="#FEFEFE"/>
<path d="M65.7957 16.5974L66.6544 14.8299L65.414 13.6834V9.76621L66.8452 8.3331H96.7094L97.8544 9.86175L99.4764 8.71526L97.8067 7.04329H65.7003L64.1021 8.6436V14.9254L65.7599 16.4899M39.8136 46.6534L36.6948 54.231L71.9021 18.8808V14.677L39.8136 46.6534Z" stroke="black" stroke-width="0.267335"/>
<path d="M43.5884 9.49022L45.1402 8.47685V14.6246L43.3523 16.4149H39.8777V46.7145L36.7068 54.2134V14.6246H42.509L43.5884 13.7463V9.49022Z" fill="#808080" stroke="black" stroke-width="0.267335"/>
<path d="M66.5613 8.27442L65.4176 9.41972V13.6247L66.4194 14.6279H71.7124V18.6908L36.6983 54.2284V14.6781H42.5173L43.7112 13.4826V9.22744L42.6092 8.37474H11.9865L10.9846 9.37792V13.725L12.0031 14.7449H17.3296V87.5758L18.3314 88.579H24.3841L97.7601 12.7637V9.41972L96.6163 8.27442H66.5613Z" fill="#CCCCCC" stroke="black" stroke-width="0.267335"/>
<path d="M97.8543 9.51781L99.484 8.57565V14.4859L25.5687 90.1175H17.7212L18.4709 88.6257H24.4819L97.7589 12.8617L97.8543 9.51781Z" fill="#808080" stroke="black" stroke-width="0.267335"/>
<path d="M71.756 14.7259L70.103 16.4486H65.7852L66.7972 14.7259C66.8309 14.7259 71.756 14.7259 71.756 14.7259Z" fill="#808080" stroke="black" stroke-width="0.267335"/>
<path d="M54.1302 57.3671C54.0744 57.3787 54.0227 57.4047 53.9799 57.4423L52.5606 58.6629C52.5182 58.7014 52.4865 58.7504 52.4688 58.805L51.0495 62.7843C51.0286 62.8427 51.0245 62.9058 51.0378 62.9665C51.0511 63.0271 51.0812 63.0827 51.1247 63.127L52.21 64.2138C52.2727 64.2742 52.3568 64.3072 52.4438 64.3057H56.8268C56.9138 64.3072 56.9978 64.2742 57.0605 64.2138L58.2043 63.0601C58.2437 63.0206 58.2724 62.9717 58.2878 62.918L59.5067 58.7297C59.5233 58.6729 59.5243 58.6126 59.5096 58.5553C59.4949 58.4979 59.4651 58.4455 59.4232 58.4037L58.4798 57.459C58.4171 57.3987 58.333 57.3656 58.246 57.3671H54.197C54.1748 57.3648 54.1524 57.3648 54.1302 57.3671ZM46.0988 68.586C46.0386 68.5989 45.9832 68.6285 45.939 68.6713C45.8947 68.7142 45.8633 68.7686 45.8484 68.8284L45.3057 70.9853C45.2936 71.0337 45.2927 71.0842 45.303 71.1331C45.3133 71.1819 45.3345 71.2277 45.365 71.2672C45.3956 71.3066 45.4346 71.3386 45.4793 71.3607C45.524 71.3828 45.5731 71.3945 45.6229 71.3949H48.2027L41.8076 89.6778C41.7911 89.7272 41.7865 89.7797 41.7941 89.8312C41.8017 89.8826 41.8214 89.9315 41.8515 89.9739C41.8817 90.0163 41.9214 90.051 41.9674 90.0751C42.0135 90.0992 42.0646 90.112 42.1165 90.1125H51.4252C51.4952 90.1135 51.5637 90.0922 51.6207 90.0516C51.6777 90.011 51.7204 89.9533 51.7425 89.8868L52.3519 87.9223C52.367 87.8728 52.3703 87.8204 52.3615 87.7694C52.3527 87.7184 52.332 87.6702 52.3011 87.6287C52.2702 87.5872 52.23 87.5535 52.1837 87.5305C52.1374 87.5074 52.0864 87.4956 52.0347 87.4959H49.9308L56.2591 69.0207C56.2756 68.9714 56.2802 68.9188 56.2726 68.8674C56.265 68.8159 56.2453 68.767 56.2152 68.7246C56.185 68.6822 56.1453 68.6475 56.0993 68.6235C56.0532 68.5994 56.0021 68.5865 55.9502 68.586H46.1656C46.1434 68.5837 46.121 68.5837 46.0988 68.586ZM75.7197 68.6529C75.6481 68.6677 75.5835 68.7059 75.536 68.7615L73.5991 70.9518H70.5185L68.4647 68.8201C68.4344 68.7887 68.3981 68.7636 68.3579 68.7464C68.3178 68.7292 68.2746 68.7201 68.231 68.7197H60.8759C60.8083 68.7199 60.7425 68.7408 60.6872 68.7797C60.632 68.8186 60.59 68.8735 60.567 68.9371L59.8907 70.9602C59.8742 71.0095 59.8696 71.062 59.8772 71.1135C59.8848 71.165 59.9045 71.2139 59.9346 71.2563C59.9648 71.2987 60.0045 71.3333 60.0505 71.3574C60.0966 71.3815 60.1477 71.3943 60.1996 71.3949H62.1699L56.042 89.4772C56.0255 89.5265 56.0208 89.5791 56.0285 89.6305C56.0361 89.682 56.0558 89.7309 56.0859 89.7733C56.116 89.8157 56.1558 89.8504 56.2018 89.8744C56.2479 89.8985 56.299 89.9114 56.3509 89.9119H64.1819C64.2494 89.9118 64.3153 89.8908 64.3705 89.8519C64.4258 89.8131 64.4678 89.7581 64.4908 89.6946L65.0919 87.9306C65.1084 87.8813 65.1131 87.8288 65.1054 87.7773C65.0978 87.7258 65.0781 87.6769 65.048 87.6345C65.0179 87.5921 64.9782 87.5575 64.9321 87.5334C64.8861 87.5093 64.835 87.4965 64.783 87.4959H63.4138L67.321 75.1819H74.3923L69.9341 89.4856C69.919 89.5351 69.9157 89.5874 69.9245 89.6384C69.9334 89.6894 69.9541 89.7376 69.9849 89.7792C70.0158 89.8207 70.056 89.8543 70.1023 89.8774C70.1486 89.9004 70.1996 89.9123 70.2513 89.9119H77.8068C77.871 89.9114 77.9336 89.8922 77.987 89.8565C78.0404 89.8209 78.0822 89.7704 78.1074 89.7113L78.7836 88.0895C78.8033 88.0399 78.8106 87.9863 78.805 87.9332C78.7994 87.8802 78.7811 87.8293 78.7515 87.7849C78.722 87.7405 78.6821 87.7039 78.6353 87.6784C78.5886 87.6528 78.5363 87.639 78.4831 87.638H77.1139L81.0878 75.115H87.8168L83.2919 89.4856C83.2767 89.5351 83.2735 89.5874 83.2823 89.6384C83.2911 89.6894 83.3118 89.7376 83.3427 89.7792C83.3736 89.8207 83.4138 89.8543 83.4601 89.8774C83.5064 89.9004 83.5574 89.9123 83.6091 89.9119H91.9076C91.9742 89.9124 92.0393 89.8927 92.0945 89.8554C92.1496 89.8181 92.1922 89.7649 92.2165 89.7029L92.8928 87.939C92.911 87.8892 92.9169 87.8357 92.91 87.7832C92.9032 87.7306 92.8838 87.6804 92.8535 87.637C92.8232 87.5935 92.7828 87.558 92.7359 87.5334C92.689 87.5089 92.6368 87.496 92.5839 87.4959H90.9392L95.94 71.236C95.9565 71.1856 95.9605 71.1318 95.9518 71.0794C95.9431 71.027 95.9219 70.9775 95.8899 70.9351L94.3371 68.8451C94.3054 68.8049 94.2647 68.7726 94.2183 68.7508C94.1719 68.729 94.1211 68.7184 94.0699 68.7197H88.1341C88.089 68.719 88.0443 68.7275 88.0026 68.7448C87.961 68.762 87.9233 68.7876 87.892 68.8201L86.0219 70.8766H82.7492L80.8123 68.7532C80.781 68.7208 80.7433 68.6951 80.7017 68.6779C80.66 68.6606 80.6153 68.6521 80.5702 68.6529H75.7865C75.7643 68.6506 75.7419 68.6506 75.7197 68.6529Z" fill="#CCCCCC" stroke="black" stroke-width="2.13868" stroke-miterlimit="10"/>
<path d="M54.1969 57.6931L52.7776 58.9137L51.3584 62.8929L52.4437 63.9797H56.8267L57.9705 62.8261L59.1894 58.6378L58.246 57.6931H54.1969ZM46.1655 68.912L45.6229 71.0688H48.6618L42.1165 89.7865H51.4252L52.0346 87.8219H49.4716L55.9501 68.912H46.1655ZM75.7864 68.9789L73.7577 71.2778H70.3848L68.2309 69.0458H60.8758L60.1995 71.0688H62.629L56.3508 89.5859H64.1818L64.7829 87.8219H62.9629L67.0788 74.8559H74.843L70.2513 89.5859H77.8068L78.483 87.9641H76.663L80.8457 74.789H88.2676L83.609 89.5859H91.9076L92.5838 87.8219H90.4883L95.6227 71.1357L94.0699 69.0458H88.134L86.1721 71.2026H82.5989L80.5702 68.9789H75.7864Z" fill="#CCCCCC" stroke="black" stroke-width="0.267335" stroke-miterlimit="10"/>
</svg>
