<svg width="226" height="154" viewBox="0 0 226 154" fill="none" xmlns="http://www.w3.org/2000/svg">
<g clip-path="url(#clip0_146_11)">
<path d="M176.2 74.4C166 99 145.4 133.6 110.1 133.6C75 133.6 56.7001 99.3 48.2001 74.8C19.5 82.7 0.800049 95.7 0.800049 110.4C0.800049 134.5 51 154 112.9 154C174.8 154 225 134.4 225 110.4C225 95.5 205.7 82.3 176.2 74.4Z" fill="#535667"/>
<path d="M173.1 40.9C173.1 55.1 144.5 66.6 109.3 66.6C74.0999 66.6 45.3999 55.1 45.3999 40.9C45.3999 34 58.0999 32.4 69.9999 33.4C93.2999 35.4 109.6 47.9 127.8 47.9C163.1 47.9 173.1 26.8 173.1 40.9Z" fill="#3360FF"/>
<path d="M44.1001 27.1C44.1001 12.9 72.7001 1.4 107.9 1.4C143.1 1.4 171.7 12.9 171.7 27.1C171.7 34 159 35.6 147.1 34.6C123.8 32.6 107.5 20.1 89.3001 20.1C54.0001 20.1 44.1001 41.2 44.1001 27.1Z" fill="#338BFF"/>
<path d="M37.439 62.2125C14.439 37.2124 32.9391 37.7125 39.939 37.2125C46.9389 36.7125 26.939 25.7125 18.439 34.2125C9.43892 50.2125 45.939 73.7124 37.439 62.2125Z" fill="#535667"/>
</g>
<defs>
<clipPath id="clip0_146_11">
<rect width="225.8" height="153.4" fill="white"/>
</clipPath>
</defs>
</svg>
