<svg width="30" height="30" viewBox="0 0 30 30" fill="none" xmlns="http://www.w3.org/2000/svg">
<g clip-path="url(#clip0_226_7868)">
<path d="M20.3486 29.8015C25.516 29.8015 29.7132 25.5921 29.7425 20.4531L29.8008 12.8866L29.7132 12.4749L29.4649 11.9569L29.045 11.6323C28.5001 11.2045 25.7369 11.6612 24.993 10.9855C24.4652 10.5034 24.3829 9.63244 24.2232 8.45191C23.9265 6.1656 23.7388 6.0464 23.3805 5.27123C22.0804 2.51897 18.5504 0.450655 16.1254 0.164825H9.5566C4.38894 0.164825 0.164062 4.38048 0.164062 9.52937V20.4531C0.164062 25.5921 4.38894 29.8015 9.5566 29.8015H20.3486ZM9.67613 7.81538H14.884C15.8784 7.81538 16.6836 8.62249 16.6836 9.60346C16.6836 10.5805 15.8784 11.3942 14.884 11.3942H9.67613C8.68166 11.3942 7.87817 10.5802 7.87817 9.60346C7.87817 8.62249 8.68166 7.81538 9.67613 7.81538ZM7.87817 20.3148C7.87817 19.3342 8.68166 18.533 9.67613 18.533H20.2581C21.246 18.533 22.0481 19.3342 22.0481 20.3148C22.0481 21.2823 21.246 22.0963 20.2581 22.0963H9.67613C8.68166 22.0963 7.87817 21.2826 7.87817 20.3148Z" fill="black" fill-opacity="0.6"/>
</g>
<defs>
<clipPath id="clip0_226_7868">
<rect width="30" height="30" fill="white"/>
</clipPath>
</defs>
</svg>
