<svg width="31" height="30" viewBox="0 0 31 30" fill="none" xmlns="http://www.w3.org/2000/svg">
<path d="M15.3797 0C6.88683 0 0 6.88562 0 15.3797C0 22.175 4.40675 27.9399 10.5176 29.9736C11.2862 30.1159 11.5685 29.6399 11.5685 29.2337C11.5685 28.867 11.5541 27.6554 11.5476 26.3703C7.26883 27.3006 6.36599 24.5557 6.36599 24.5557C5.66639 22.778 4.65836 22.3054 4.65836 22.3054C3.26303 21.3508 4.76354 21.3703 4.76354 21.3703C6.30797 21.4789 7.12119 22.9553 7.12119 22.9553C8.49289 25.3065 10.7191 24.6267 11.5967 24.2339C11.7347 23.2397 12.1333 22.5613 12.5731 22.1773C9.15715 21.7883 5.56603 20.4695 5.56603 14.5765C5.56603 12.8975 6.16684 11.5254 7.15074 10.4484C6.99104 10.061 6.46466 8.49675 7.29971 6.37829C7.29971 6.37829 8.5912 5.96492 11.5302 7.9548C12.7569 7.61393 14.0727 7.44313 15.3797 7.43734C16.6868 7.44313 18.0035 7.61393 19.2326 7.9548C22.1681 5.96492 23.4578 6.37829 23.4578 6.37829C24.2949 8.49675 23.7683 10.061 23.6086 10.4484C24.5946 11.5254 25.1913 12.8973 25.1913 14.5765C25.1913 20.4835 21.5935 21.7843 18.1688 22.165C18.7204 22.6423 19.2119 23.5783 19.2119 25.0131C19.2119 27.0709 19.1941 28.7271 19.1941 29.2337C19.1941 29.643 19.4709 30.1225 20.2506 29.9715C26.3581 27.9356 30.7593 22.1727 30.7593 15.3797C30.7593 6.88562 23.8734 0 15.3797 0Z" fill="black" fill-opacity="0.6"/>
<path d="M5.75958 21.9088C5.72581 21.9851 5.60543 22.008 5.49603 21.9557C5.38445 21.9055 5.32173 21.8013 5.35792 21.7246C5.39109 21.6459 5.51147 21.624 5.6228 21.6768C5.73461 21.7269 5.7983 21.8321 5.75958 21.9088ZM6.51612 22.5838C6.44278 22.6518 6.29936 22.6202 6.20202 22.5127C6.10142 22.4055 6.0826 22.2622 6.15703 22.1931C6.23266 22.1252 6.37173 22.1569 6.47257 22.2642C6.57317 22.3727 6.59271 22.5151 6.51599 22.5839L6.51612 22.5838ZM7.03515 23.4474C6.94082 23.5129 6.78667 23.4515 6.6915 23.3147C6.59729 23.1781 6.59729 23.014 6.69355 22.9483C6.78908 22.8825 6.94082 22.9417 7.03732 23.0774C7.1314 23.2164 7.1314 23.3805 7.03503 23.4475L7.03515 23.4474ZM7.91278 24.4477C7.82847 24.5406 7.64898 24.5158 7.51751 24.3889C7.38314 24.2649 7.34562 24.0889 7.43018 23.9959C7.51546 23.9028 7.69603 23.9289 7.82847 24.0547C7.962 24.1785 8.00277 24.3558 7.9129 24.4477H7.91278ZM9.0471 24.7855C9.01007 24.9058 8.8371 24.9606 8.66292 24.9095C8.48899 24.8567 8.37512 24.7156 8.41022 24.5939C8.44641 24.4727 8.6201 24.4156 8.79561 24.4704C8.9693 24.5229 9.08341 24.6629 9.04722 24.7855H9.0471ZM10.3382 24.9286C10.3426 25.0555 10.1948 25.1607 10.0119 25.163C9.828 25.167 9.67927 25.0643 9.67734 24.9396C9.67734 24.8115 9.82173 24.7073 10.0056 24.7043C10.1884 24.7007 10.3382 24.8026 10.3382 24.9286ZM11.6064 24.88C11.6284 25.0038 11.5012 25.1309 11.3197 25.1647C11.1412 25.1973 10.9759 25.1209 10.9531 24.9982C10.931 24.8713 11.0605 24.7443 11.2387 24.7114C11.4206 24.6798 11.5833 24.7542 11.6064 24.88Z" fill="black" fill-opacity="0.6"/>
</svg>
