<svg width="101" height="57" viewBox="0 0 101 57" fill="none" xmlns="http://www.w3.org/2000/svg">
<path d="M73.3256 42.5164C71.0296 42.5164 69.1619 40.6472 69.1619 38.3511C69.1619 36.0551 71.0296 34.1874 73.3256 34.1874C75.6221 34.1874 77.4898 36.0547 77.4898 38.3511C77.4898 40.6476 75.6221 42.5164 73.3256 42.5164ZM27.3004 42.5164C25.0043 42.5164 23.1366 40.6472 23.1366 38.3511C23.1366 36.0551 25.0039 34.1874 27.3004 34.1874C29.5964 34.1874 31.4641 36.0547 31.4641 38.3511C31.4641 40.6476 29.5968 42.5164 27.3004 42.5164ZM74.8191 17.4333L83.1413 3.01986C83.3703 2.62208 83.4323 2.14967 83.3135 1.70629C83.1946 1.26291 82.9048 0.884765 82.5075 0.654833C82.1097 0.425855 81.6373 0.363984 81.194 0.482787C80.7506 0.601591 80.3725 0.89137 80.1425 1.28858L71.7163 15.8842C65.2721 12.9437 58.0353 11.3054 50.313 11.3054C42.5907 11.3054 35.3538 12.9437 28.9101 15.8842L20.4835 1.28858C20.2535 0.89137 19.8753 0.601591 19.432 0.482787C18.9886 0.363984 18.5163 0.425855 18.1185 0.654833C17.721 0.884549 17.4309 1.2627 17.3121 1.70617C17.1932 2.14964 17.2553 2.62215 17.4847 3.01986L25.8069 17.4333C11.5165 25.2056 1.74282 39.6727 0.312988 56.7648H100.313C98.882 39.6731 89.1083 25.2056 74.8191 17.4329" fill="#3DDB85"/>
</svg>
