<svg width="101" height="61" viewBox="0 0 101 61" fill="none" xmlns="http://www.w3.org/2000/svg">
<path d="M29.1131 22.0064C29.1131 23.237 29.2462 24.2347 29.479 24.9664C29.7451 25.6981 30.0776 26.4963 30.5433 27.3611C30.7096 27.6272 30.7761 27.8932 30.7761 28.126C30.7761 28.4586 30.5765 28.7912 30.1442 29.1238L28.0488 30.5207C27.7495 30.7202 27.4502 30.82 27.1841 30.82C26.8515 30.82 26.5189 30.6537 26.1863 30.3544C25.7207 29.8555 25.3216 29.3234 24.989 28.7912C24.6564 28.2258 24.3238 27.5939 23.958 26.8289C21.3638 29.8888 18.1044 31.4187 14.1799 31.4187C11.3861 31.4187 9.15775 30.6205 7.52806 29.024C5.89837 27.4276 5.06689 25.299 5.06689 22.6383C5.06689 19.8113 6.06466 17.5164 8.09346 15.787C10.1223 14.0575 12.8162 13.1928 16.2419 13.1928C17.3727 13.1928 18.5368 13.2925 19.7674 13.4588C20.9979 13.6251 22.2618 13.8912 23.5921 14.1905V11.7626C23.5921 9.23494 23.06 7.47221 22.029 6.44118C20.9647 5.41015 19.1687 4.91127 16.6078 4.91127C15.4437 4.91127 14.2464 5.0443 13.0158 5.34363C11.7852 5.64296 10.5879 6.00881 9.42382 6.47444C8.89168 6.70725 8.49257 6.84029 8.25976 6.90681C8.02694 6.97332 7.86065 7.00658 7.72761 7.00658C7.26199 7.00658 7.02917 6.67399 7.02917 5.97556V4.34586C7.02917 3.81372 7.09569 3.41461 7.26199 3.1818C7.42828 2.94899 7.72761 2.71617 8.19324 2.48336C9.3573 1.8847 10.7542 1.38582 12.3839 0.986708C14.0136 0.554341 15.743 0.354787 17.5723 0.354787C21.5301 0.354787 24.4236 1.25278 26.2861 3.04876C28.1154 4.84475 29.0466 7.57199 29.0466 11.2305V22.0064H29.1131ZM15.61 27.0618C16.7075 27.0618 17.8383 26.8622 19.0357 26.4631C20.233 26.064 21.2973 25.3323 22.1953 24.3345C22.7274 23.7026 23.1265 23.0042 23.3261 22.2059C23.5256 21.4077 23.6587 20.4432 23.6587 19.3124V17.9155C22.6942 17.6827 21.6631 17.4832 20.5988 17.3501C19.5345 17.2171 18.5035 17.1506 17.4725 17.1506C15.2441 17.1506 13.6145 17.5829 12.5169 18.4809C11.4194 19.3789 10.8872 20.6428 10.8872 22.3057C10.8872 23.8689 11.2863 25.033 12.1178 25.8312C12.916 26.6626 14.0801 27.0618 15.61 27.0618ZM42.3169 30.6537C41.7183 30.6537 41.3192 30.5539 41.0531 30.3211C40.787 30.1216 40.5542 29.656 40.3547 29.024L32.5388 3.31484C32.3393 2.64966 32.2395 2.21729 32.2395 1.98448C32.2395 1.45233 32.5055 1.153 33.0377 1.153H36.2971C36.929 1.153 37.3614 1.25278 37.5942 1.48559C37.8602 1.68515 38.0598 2.15077 38.2594 2.78269L43.8469 24.8001L49.0353 2.78269C49.2016 2.11751 49.4011 1.68515 49.6672 1.48559C49.9332 1.28604 50.3989 1.153 50.9975 1.153H53.6583C54.2902 1.153 54.7225 1.25278 54.9886 1.48559C55.2547 1.68515 55.4875 2.15077 55.6205 2.78269L60.8755 25.0662L66.6293 2.78269C66.8288 2.11751 67.0616 1.68515 67.2944 1.48559C67.5605 1.28604 67.9929 1.153 68.5915 1.153H71.6846C72.2168 1.153 72.5161 1.41907 72.5161 1.98448C72.5161 2.15077 72.4828 2.31707 72.4496 2.51662C72.4163 2.71617 72.3498 2.98225 72.2168 3.3481L64.2013 29.0573C64.0018 29.7225 63.769 30.1548 63.5029 30.3544C63.2368 30.5539 62.8045 30.687 62.2391 30.687H59.3788C58.7469 30.687 58.3145 30.5872 58.0484 30.3544C57.7824 30.1216 57.5496 29.6892 57.4165 29.024L52.2614 7.57199L47.1395 28.9908C46.9732 29.656 46.7736 30.0883 46.5076 30.3211C46.2415 30.5539 45.7759 30.6537 45.1772 30.6537H42.3169ZM85.0547 31.5517C83.3253 31.5517 81.5958 31.3522 79.9328 30.9531C78.2699 30.5539 76.9728 30.1216 76.1081 29.6227C75.5759 29.3234 75.2101 28.9908 75.077 28.6914C74.944 28.3921 74.8775 28.0595 74.8775 27.7602V26.064C74.8775 25.3655 75.1436 25.033 75.6424 25.033C75.842 25.033 76.0415 25.0662 76.2411 25.1327C76.4407 25.1992 76.74 25.3323 77.0726 25.4653C78.2034 25.9642 79.434 26.3633 80.7311 26.6294C82.0614 26.8955 83.3585 27.0285 84.6889 27.0285C86.7842 27.0285 88.4139 26.6626 89.5447 25.9309C90.6755 25.1992 91.2741 24.135 91.2741 22.7713C91.2741 21.8401 90.9748 21.0751 90.3762 20.4432C89.7775 19.8113 88.6467 19.2459 87.017 18.7137L82.1945 17.2171C79.7665 16.4521 77.9706 15.3213 76.873 13.8247C75.7755 12.3613 75.2101 10.7316 75.2101 9.00212C75.2101 7.60525 75.5094 6.37466 76.1081 5.31038C76.7067 4.24609 77.5049 3.31484 78.5027 2.58314C79.5005 1.81818 80.6313 1.25278 81.9616 0.853672C83.292 0.454564 84.6889 0.288269 86.1523 0.288269C86.884 0.288269 87.6489 0.321528 88.3806 0.421305C89.1456 0.521082 89.844 0.654118 90.5425 0.787154C91.2076 0.953449 91.8396 1.11974 92.4382 1.3193C93.0369 1.51885 93.5025 1.71841 93.8351 1.91796C94.3007 2.18403 94.6333 2.4501 94.8329 2.74943C95.0324 3.01551 95.1322 3.38135 95.1322 3.84698V5.41015C95.1322 6.10859 94.8661 6.47444 94.3672 6.47444C94.1012 6.47444 93.6688 6.3414 93.1034 6.07533C91.2076 5.2106 89.0791 4.77823 86.7177 4.77823C84.8219 4.77823 83.3253 5.07756 82.2942 5.70948C81.2632 6.3414 80.7311 7.30591 80.7311 8.66953C80.7311 9.60078 81.0637 10.399 81.7288 11.0309C82.394 11.6628 83.6246 12.2948 85.3873 12.8602L90.1101 14.3568C92.5047 15.1218 94.2342 16.1861 95.2652 17.5497C96.2963 18.9133 96.7951 20.4765 96.7951 22.2059C96.7951 23.6361 96.4958 24.9332 95.9304 26.064C95.3317 27.1948 94.5335 28.1926 93.5025 28.9908C92.4715 29.8222 91.2409 30.4209 89.8108 30.8533C88.3141 31.3189 86.7509 31.5517 85.0547 31.5517Z" fill="white"/>
<path fill-rule="evenodd" clip-rule="evenodd" d="M91.3406 47.7155C80.3984 55.7975 64.5006 60.0879 50.8312 60.0879C31.674 60.0879 14.4126 53.0037 1.37514 41.23C0.344117 40.2988 1.27537 39.0349 2.50595 39.7666C16.6077 47.9483 34.0022 52.9039 51.9953 52.9039C64.1348 52.9039 77.4716 50.3763 89.7442 45.1878C91.5734 44.3564 93.1366 46.3852 91.3406 47.7155Z" fill="#FF9900"/>
<path fill-rule="evenodd" clip-rule="evenodd" d="M95.8972 42.5271C94.5004 40.7311 86.6513 41.6623 83.0926 42.0947C82.0283 42.2277 81.862 41.2965 82.8265 40.5981C89.0792 36.2079 99.3561 37.4717 100.553 38.9351C101.751 40.4318 100.221 50.7088 94.3673 55.6311C93.4693 56.3961 92.6046 55.997 93.0037 54.9992C94.3341 51.7066 97.2941 44.2898 95.8972 42.5271Z" fill="#FF9900"/>
</svg>
