<svg width="101" height="61" viewBox="0 0 101 61" fill="none" xmlns="http://www.w3.org/2000/svg">
<path d="M28.8375 22.0064C28.8375 23.237 28.9705 24.2347 29.2033 24.9664C29.4694 25.6981 29.802 26.4963 30.2676 27.3611C30.4339 27.6272 30.5004 27.8932 30.5004 28.126C30.5004 28.4586 30.3009 28.7912 29.8685 29.1238L27.7732 30.5207C27.4739 30.7202 27.1745 30.82 26.9085 30.82C26.5759 30.82 26.2433 30.6537 25.9107 30.3544C25.4451 29.8555 25.046 29.3234 24.7134 28.7912C24.3808 28.2258 24.0482 27.5939 23.6824 26.8289C21.0882 29.8888 17.8288 31.4187 13.9042 31.4187C11.1105 31.4187 8.88211 30.6205 7.25242 29.024C5.62273 27.4276 4.79126 25.299 4.79126 22.6383C4.79126 19.8113 5.78903 17.5164 7.81783 15.787C9.84662 14.0575 12.5406 13.1928 15.9663 13.1928C17.0971 13.1928 18.2611 13.2925 19.4917 13.4588C20.7223 13.6251 21.9862 13.8912 23.3165 14.1905V11.7626C23.3165 9.23494 22.7844 7.47221 21.7533 6.44118C20.689 5.41015 18.8931 4.91127 16.3321 4.91127C15.1681 4.91127 13.9707 5.0443 12.7402 5.34363C11.5096 5.64296 10.3122 6.00881 9.14819 6.47444C8.61604 6.70725 8.21693 6.84029 7.98412 6.90681C7.75131 6.97332 7.58501 7.00658 7.45198 7.00658C6.98635 7.00658 6.75354 6.67399 6.75354 5.97556V4.34586C6.75354 3.81372 6.82006 3.41461 6.98635 3.1818C7.15265 2.94899 7.45198 2.71617 7.9176 2.48336C9.08167 1.8847 10.4785 1.38582 12.1082 0.986708C13.7379 0.554341 15.4674 0.354787 17.2966 0.354787C21.2545 0.354787 24.148 1.25278 26.0105 3.04876C27.8397 4.84475 28.771 7.57199 28.771 11.2305V22.0064H28.8375ZM15.3344 27.0618C16.4319 27.0618 17.5627 26.8622 18.76 26.4631C19.9574 26.064 21.0216 25.3323 21.9196 24.3345C22.4518 23.7026 22.8509 23.0042 23.0504 22.2059C23.25 21.4077 23.383 20.4432 23.383 19.3124V17.9155C22.4185 17.6827 21.3875 17.4832 20.3232 17.3501C19.2589 17.2171 18.2279 17.1506 17.1969 17.1506C14.9685 17.1506 13.3388 17.5829 12.2413 18.4809C11.1437 19.3789 10.6116 20.6428 10.6116 22.3057C10.6116 23.8689 11.0107 25.033 11.8422 25.8312C12.6404 26.6626 13.8044 27.0618 15.3344 27.0618ZM42.0413 30.6537C41.4426 30.6537 41.0435 30.5539 40.7775 30.3211C40.5114 30.1216 40.2786 29.656 40.079 29.024L32.2632 3.31484C32.0636 2.64966 31.9638 2.21729 31.9638 1.98448C31.9638 1.45233 32.2299 1.153 32.7621 1.153H36.0214C36.6534 1.153 37.0857 1.25278 37.3185 1.48559C37.5846 1.68515 37.7842 2.15077 37.9837 2.78269L43.5712 24.8001L48.7596 2.78269C48.9259 2.11751 49.1255 1.68515 49.3915 1.48559C49.6576 1.28604 50.1232 1.153 50.7219 1.153H53.3826C54.0145 1.153 54.4469 1.25278 54.713 1.48559C54.979 1.68515 55.2119 2.15077 55.3449 2.78269L60.5998 25.0662L66.3536 2.78269C66.5532 2.11751 66.786 1.68515 67.0188 1.48559C67.2849 1.28604 67.7172 1.153 68.3159 1.153H71.409C71.9411 1.153 72.2405 1.41907 72.2405 1.98448C72.2405 2.15077 72.2072 2.31707 72.1739 2.51662C72.1407 2.71617 72.0742 2.98225 71.9411 3.3481L63.9257 29.0573C63.7262 29.7225 63.4933 30.1548 63.2273 30.3544C62.9612 30.5539 62.5288 30.687 61.9634 30.687H59.1032C58.4712 30.687 58.0389 30.5872 57.7728 30.3544C57.5067 30.1216 57.2739 29.6892 57.1409 29.024L51.9857 7.57199L46.8639 28.9908C46.6976 29.656 46.498 30.0883 46.2319 30.3211C45.9659 30.5539 45.5002 30.6537 44.9016 30.6537H42.0413ZM84.7791 31.5517C83.0496 31.5517 81.3202 31.3522 79.6572 30.9531C77.9943 30.5539 76.6972 30.1216 75.8324 29.6227C75.3003 29.3234 74.9344 28.9908 74.8014 28.6914C74.6684 28.3921 74.6018 28.0595 74.6018 27.7602V26.064C74.6018 25.3655 74.8679 25.033 75.3668 25.033C75.5664 25.033 75.7659 25.0662 75.9655 25.1327C76.165 25.1992 76.4643 25.3323 76.7969 25.4653C77.9277 25.9642 79.1583 26.3633 80.4554 26.6294C81.7858 26.8955 83.0829 27.0285 84.4132 27.0285C86.5086 27.0285 88.1383 26.6626 89.2691 25.9309C90.3999 25.1992 90.9985 24.135 90.9985 22.7713C90.9985 21.8401 90.6992 21.0751 90.1005 20.4432C89.5019 19.8113 88.3711 19.2459 86.7414 18.7137L81.9188 17.2171C79.4909 16.4521 77.6949 15.3213 76.5974 13.8247C75.4998 12.3613 74.9344 10.7316 74.9344 9.00212C74.9344 7.60525 75.2338 6.37466 75.8324 5.31038C76.4311 4.24609 77.2293 3.31484 78.2271 2.58314C79.2248 1.81818 80.3557 1.25278 81.686 0.853672C83.0164 0.454564 84.4132 0.288269 85.8766 0.288269C86.6083 0.288269 87.3733 0.321528 88.105 0.421305C88.8699 0.521082 89.5684 0.654118 90.2668 0.787154C90.932 0.953449 91.5639 1.11974 92.1626 1.3193C92.7612 1.51885 93.2269 1.71841 93.5595 1.91796C94.0251 2.18403 94.3577 2.4501 94.5572 2.74943C94.7568 3.01551 94.8566 3.38135 94.8566 3.84698V5.41015C94.8566 6.10859 94.5905 6.47444 94.0916 6.47444C93.8255 6.47444 93.3932 6.3414 92.8278 6.07533C90.932 5.2106 88.8034 4.77823 86.442 4.77823C84.5463 4.77823 83.0496 5.07756 82.0186 5.70948C80.9876 6.3414 80.4554 7.30591 80.4554 8.66953C80.4554 9.60078 80.788 10.399 81.4532 11.0309C82.1184 11.6628 83.349 12.2948 85.1117 12.8602L89.8344 14.3568C92.2291 15.1218 93.9586 16.1861 94.9896 17.5497C96.0206 18.9133 96.5195 20.4765 96.5195 22.2059C96.5195 23.6361 96.2202 24.9332 95.6548 26.064C95.0561 27.1948 94.2579 28.1926 93.2269 28.9908C92.1958 29.8222 90.9653 30.4209 89.5351 30.8533C88.0385 31.3189 86.4753 31.5517 84.7791 31.5517Z" fill="#252F3E"/>
<path fill-rule="evenodd" clip-rule="evenodd" d="M91.0649 47.7155C80.1228 55.7975 64.225 60.0879 50.5556 60.0879C31.3984 60.0879 14.137 53.0037 1.09951 41.23C0.0684817 40.2988 0.999732 39.0349 2.23031 39.7666C16.3321 47.9483 33.7265 52.9039 51.7196 52.9039C63.8591 52.9039 77.196 50.3763 89.4685 45.1878C91.2978 44.3564 92.8609 46.3852 91.0649 47.7155Z" fill="#FF9900"/>
<path fill-rule="evenodd" clip-rule="evenodd" d="M95.6215 42.5271C94.2246 40.7311 86.3755 41.6623 82.8169 42.0947C81.7526 42.2277 81.5863 41.2965 82.5508 40.5981C88.8034 36.2079 99.0804 37.4717 100.278 38.9351C101.475 40.4318 99.9451 50.7088 94.0916 55.6311C93.1936 56.3961 92.3289 55.997 92.728 54.9992C94.0583 51.7066 97.0183 44.2898 95.6215 42.5271Z" fill="#FF9900"/>
</svg>
