<svg width="101" height="39" viewBox="0 0 101 39" fill="none" xmlns="http://www.w3.org/2000/svg">
<path d="M68.8951 3.46957L68.8729 3.25531L68.5258 3.285L68.5479 3.49906L68.8951 3.46957ZM71.2289 9.08246L71.2363 9.20062L71.4801 9.17855C71.4727 9.10472 71.5021 8.98656 71.5539 8.8389L71.5316 8.62465C71.4283 8.63207 71.3248 8.78715 71.2289 9.08246ZM62.1225 16.1504C62.1078 15.951 61.4873 15.1756 60.2613 13.8092C60.2393 13.5582 60.6602 13.1815 61.5242 12.6868L63.991 10.5375C64.5449 9.83578 64.8699 8.69847 64.966 7.118L64.9363 6.75609C64.8404 5.66312 64.0502 4.78422 62.551 4.11215C61.6646 3.5139 60.0693 3.18148 57.765 3.1225C55.8596 3.285 53.3707 3.96429 50.3057 5.1682C49.4637 5.77386 48.5037 6.37953 47.4254 6.985L47.44 7.16976C47.5066 7.16234 47.61 7.12543 47.7281 7.04418C47.8537 7.02933 47.9275 7.08851 47.935 7.20668L48.1195 7.11058L48.2082 7.10316L48.2156 7.18441C48.223 7.2805 47.5582 7.80492 46.2141 8.74281L46.3176 8.9348L46.2289 8.94222L46.0072 8.86097C46.0146 8.92738 45.9188 8.97172 45.734 8.98656L45.7414 9.06781L45.9557 9.33363C45.8893 9.34105 45.7857 9.31156 45.6455 9.2598C45.3352 9.28929 45.0324 9.45179 44.7297 9.76195L44.8553 9.21547C45.3057 7.27308 45.6158 5.55219 45.7783 4.06039L45.7563 3.96429C45.4461 3.76488 45.1432 3.48422 44.8625 3.12972C44.8699 2.90082 44.8699 2.76801 44.8625 2.73832L44.8404 2.65707L44.7518 2.67933C43.777 4.14164 41.901 6.63793 39.1166 10.1682C36.9971 12.6793 35.9039 14.0752 35.8375 14.3559C34.9734 15.2494 34.5598 15.7887 34.6041 15.9733C34.3752 16.1209 34.2791 16.2686 34.316 16.4311C34.2496 16.4459 34.2053 16.4239 34.1904 16.3573C33.8213 16.9555 33.2746 17.3395 32.5436 17.5094L31.7754 17.6868C31.6721 17.7088 31.6203 17.7827 31.6277 17.9082L31.6498 18.0043L31.9379 17.9377L31.9602 18.019L31.3102 18.2702L30.158 18.536L29.5523 18.5729C29.4637 18.6616 30.0324 18.5657 29.8109 18.6172L29.0576 18.7946C28.5996 18.8979 28.3486 18.861 28.3043 18.6764L28.2156 18.6985C28.2305 18.7797 28.2377 18.8389 28.223 18.8905L28.1787 18.7059L27.573 18.8461C27.5287 18.5657 26.709 17.5463 25.1211 15.7887C25.0916 15.4489 25.6527 14.9539 26.7977 14.3116L30.0324 11.468C30.7563 10.5375 31.1846 9.04554 31.325 6.99242L31.2807 6.51234C31.1551 5.06488 30.1063 3.89789 28.1344 2.99691C26.9674 2.20668 24.8699 1.78558 21.842 1.71918C19.3309 1.93343 16.0516 2.82699 12.0191 4.38539C10.9113 5.19027 9.64844 5.98793 8.23047 6.77816L8.25254 7.02933C8.34863 7.02191 8.47402 6.97035 8.6291 6.88168C8.7916 6.86683 8.88027 6.94066 8.89512 7.08851L9.14609 6.94808L9.27168 6.94066L9.2791 7.05883C9.28652 7.17699 8.40762 7.8639 6.62773 9.11937L6.76797 9.34105L6.64258 9.34847L6.36914 9.25238C6.37656 9.32621 6.25098 9.37797 5.99258 9.40004L6.00723 9.53304L6.30273 9.85804C6.20684 9.86547 6.07383 9.83578 5.90391 9.77679C5.32793 9.82855 4.7666 10.242 4.2127 11.025L4.35293 11.2465C4.83301 10.8034 5.11367 10.5819 5.19492 10.5745L5.22441 10.9364C5.14316 10.9438 5.01758 10.9953 4.84785 11.084L5.15059 11.542C5.72248 10.9238 6.37019 10.3803 7.07832 9.92445C7.42539 10.0131 7.60996 10.1239 7.61738 10.242L7.8832 10.22C9.78867 8.80922 11.6721 7.79008 13.5406 7.16234L13.5627 7.41332C13.2156 7.93031 12.9793 8.19633 12.8537 8.21097C12.8686 8.38832 12.9275 8.5434 13.0383 8.6764C13.068 8.99398 12.2186 11.1358 10.4977 15.0944C6.59082 24.2967 3.31152 31.1061 0.645508 35.508C0.652734 35.5965 0.704492 35.7147 0.800586 35.8625C1.45781 35.7075 1.87148 35.545 2.04863 35.3897L2.18906 35.375L2.21113 35.6262L2.45488 35.6039L2.70605 35.4637C2.71348 35.5375 2.79473 35.5745 2.96445 35.5596L2.98672 35.8108C3.00879 36.0545 2.86855 36.4237 2.57305 36.9334C2.30723 37.2362 2.01914 37.8713 1.71641 38.8389L1.72363 38.9571L1.96738 38.9348C3.03105 37.7457 3.83594 36.5788 4.38984 35.4414C7.4918 34.533 9.85527 33.6395 11.4947 32.7606C13.1418 32.6202 14.3973 32.1844 15.2541 31.468L15.2393 31.3352L14.6189 31.5198L14.4785 31.5346L14.4637 31.4016C15.675 31.217 16.5096 30.951 16.9748 30.5819C19.3309 28.7649 21.1107 27.4799 22.3146 26.7192C24.7887 24.9024 26.3988 23.1297 27.1299 21.409C27.2682 21.3789 27.4061 21.3468 27.5436 21.3129C27.8906 21.2983 28.0826 21.2909 28.1344 21.276C28.1195 21.2096 28.1492 21.1727 28.2156 21.1578C28.7695 21.0989 28.5037 21.1948 28.8582 21.1135L29.7887 20.8995C29.7297 20.9141 29.7074 20.9438 29.7223 21.0028L29.8625 20.9141C29.833 20.9141 29.8109 20.9069 29.7887 20.8995L29.9438 20.8625L29.8699 20.9069C29.9734 20.9215 30.0842 20.9141 30.2098 20.8846L30.2762 21.1578L26.0443 27.8862L25.1062 29.0604L24.6484 30.5965L24.7371 30.5745L25.1949 30.3825L25.0473 30.9807L25.0916 31.1579L25.217 31.3129C25.158 31.3278 25.1359 31.3647 25.1506 31.4311L25.1728 31.5272L25.3648 31.4829C25.6455 31.2391 25.7637 31.0176 25.7193 30.8182C26.0221 30.8698 26.2215 30.892 26.325 30.8625L26.3471 30.9584C26.1625 31.0028 26.0664 31.1504 26.0516 31.4016L26.0738 31.4977L26.1771 31.4754C27.7135 29.7989 31.4801 24.0604 34.5008 20.1682C34.4047 19.7473 35.9777 19.1637 39.2273 18.4104L39.3309 18.3883C39.449 18.8979 39.1979 20.1313 38.5775 22.0885C38.1787 23.2702 37.9867 23.9202 38.0162 24.0235C37.4992 25.5965 37.2555 26.4459 37.285 26.5789L36.1328 30.3528C35.3869 32.2879 34.8184 34.319 34.4195 36.4608C34.4859 36.4459 34.5893 36.4534 34.7371 36.4903L34.8994 36.3498C34.9143 36.4164 34.9586 36.4385 35.025 36.4237L34.9586 36.1504L35.4607 36.1358C35.6084 36.0989 35.734 35.9141 35.8375 35.5745C35.8152 35.0649 35.9188 34.7916 36.1477 34.7325C36.4578 33.5213 36.6498 32.9157 36.7164 32.8934C37.0043 31.6897 37.2186 31.0028 37.3588 30.8328C37.7947 29.2672 38.1121 28.4621 38.3189 28.4104L38.3633 28.6026L38.0457 29.4223C37.4918 31.8817 36.9305 33.8241 36.3619 35.2495L36.5244 35.9584L36.6277 35.9364C38.0014 32.9821 39.9807 27.1328 42.5582 18.3883C42.6322 17.6202 43.0014 17.0219 43.6588 16.601L43.5109 16.4459L43.4889 16.3647C43.7844 16.2983 43.991 16.1801 44.1092 16.0176C44.0945 15.951 43.8359 15.8551 43.3338 15.7221L44.6189 10.2125C44.8994 9.96136 45.0619 9.82855 45.1137 9.82855L45.1359 10.1092C45.0693 10.1164 44.966 10.1534 44.8479 10.2346L45.0916 10.5819C45.5346 10.1018 46.0146 9.68812 46.5391 9.34105C46.8049 9.41488 46.9379 9.50355 46.9527 9.59222L47.1447 9.57738C48.607 8.50648 50.0398 7.73832 51.4504 7.27308L51.4652 7.45765C51.2068 7.84906 51.0295 8.04847 50.9334 8.0559C50.9482 8.1889 50.9852 8.30707 51.0516 8.41039C51.0738 8.65414 50.4387 10.2789 49.1389 13.2922C46.1697 20.2715 43.6809 25.434 41.6572 28.7871C41.6646 28.8536 41.709 28.9422 41.7902 29.0604C42.285 28.9422 42.6025 28.8166 42.7281 28.6985L42.8168 28.6911L42.8316 28.8758L43.0383 28.861L43.223 28.7649C43.2303 28.8166 43.2969 28.8389 43.4225 28.8315L43.4371 29.0309C43.452 29.208 43.3486 29.4887 43.1195 29.8727C42.9055 30.1018 42.6838 30.5819 42.4475 31.3129L42.4549 31.409L42.6469 31.3942C43.452 30.4932 44.0648 29.6069 44.4859 28.7354C46.8418 28.0412 48.6365 27.3692 49.8773 26.7043C51.1402 26.5936 52.093 26.2686 52.743 25.7221L52.7355 25.6262L52.2555 25.7664L52.1521 25.7739L52.1447 25.6778C53.0605 25.545 53.7031 25.3381 54.0502 25.0649C55.8375 23.6911 57.1891 22.7088 58.1049 22.1328C60.9557 20.0575 62.285 18.0633 62.1225 16.1504ZM61.6352 16.276L61.7016 17.0219C61.6129 17.2067 61.517 17.3026 61.4283 17.31L61.3176 16.0397C61.5242 16.1135 61.6277 16.1873 61.6352 16.276ZM5.71191 10.2643L5.58633 10.2715L5.56426 10.0426L6.07383 9.99828L6.08125 10.1164C6 10.1239 5.87441 10.1682 5.71191 10.2643ZM3.22305 35.1608C2.92754 35.028 2.66172 34.9762 2.43281 34.9983L2.40313 34.6364C2.38848 34.4961 2.46973 34.4 2.64688 34.3631C2.80938 34.3485 2.90547 34.4666 2.92012 34.703C3.34863 34.1786 3.58496 33.9127 3.6293 33.9053L3.90254 34.0161C3.81387 34.7547 3.58496 35.1313 3.22305 35.1608ZM29.8184 7.33949C29.6928 7.35433 29.4416 6.96293 29.0797 6.18734L29.0576 5.95844C29.2939 5.93637 29.5377 6.32035 29.7961 7.11058L29.8184 7.33949ZM29.4637 4.5848L29.3604 4.82855L25.7488 3.32191C28.1564 3.40316 29.3973 3.82406 29.4637 4.5848ZM14.2127 17.6793L13.7031 17.7237L13.6809 17.4946L14.1904 17.4504L14.2127 17.6793ZM13.799 9.81371L13.9246 9.80629L13.9541 10.1682C13.8359 10.1756 13.6809 10.3528 13.4889 10.6926L13.4666 10.4414C13.6957 10.1682 13.8139 9.96136 13.799 9.81371ZM12.7281 12.3395L12.7725 12.8196L12.6469 12.827L12.6025 12.3469L12.7281 12.3395ZM12.1668 13.2407L12.4105 13.2184C12.3885 13.6172 12.2777 13.8315 12.0783 13.8461L11.9527 13.8536C12.1078 13.5877 12.1816 13.3809 12.1668 13.2407ZM11.7459 14.4961L11.8861 14.4813L11.8936 14.5995L11.6646 14.9836L11.4209 15.0057L11.4135 14.8875C11.6572 14.8655 11.768 14.7399 11.7459 14.4961ZM11.3322 15.6262L11.2584 16.2317L11.1328 16.2391L11.0813 15.6409L11.3322 15.6262ZM7.18906 27.4061C7.02656 28.2332 6.84922 28.6541 6.66465 28.669L6.65723 28.5508C6.61289 28.1446 6.79023 27.7606 7.18906 27.4061ZM6.42832 29.053L6.43574 29.1711C6.45039 29.3336 6.37656 29.4297 6.21406 29.437L6.20684 29.3188C6.19199 29.1786 6.26582 29.0899 6.42832 29.053ZM6.20684 32.4725L6.59082 32.4356L6.60547 32.5686C6.50957 32.5758 6.38398 32.6276 6.22891 32.7162L5.98516 32.7383C5.97031 32.6129 6.05156 32.5168 6.20664 32.4725H6.20684ZM17.1373 29.0973C14.9807 30.1608 13.7104 30.8846 13.3338 31.2612C11 32.0737 9.84043 32.5758 9.8625 32.7752C7.7873 33.5952 6.4209 34.2008 5.76367 34.5774C5.60859 34.5922 5.38691 34.533 5.0916 34.4C5.05469 33.9791 5.24668 33.6395 5.65273 33.3662C6.01465 33.3366 6.36172 33.3883 6.69414 33.5286C7.07832 33.3291 7.75039 33.1077 8.70312 32.8713L8.68086 32.6202L7.91289 32.6868C8.00879 32.5537 8.74727 32.2067 10.1357 31.6454L10.5199 31.6084L10.5273 31.7266C9.86992 31.7856 9.50801 31.9778 9.42676 32.3248C9.4416 32.4799 9.53027 32.5463 9.69277 32.5317C10.1875 32.2213 10.4312 32.0368 10.4238 31.985C11.3619 31.8078 13.9541 30.4489 18.2008 27.9157L18.223 28.1446C18.2305 28.2553 17.8686 28.5655 17.1373 29.0973ZM10.6232 31.2391C11.2437 31.1873 11.7754 30.9364 12.2186 30.5006C12.3957 30.4858 12.4918 30.5522 12.4992 30.7073C12.1963 30.737 11.6129 30.9879 10.7637 31.4754L10.6381 31.4829L10.6232 31.2391ZM21.1328 23.1666L17.8758 25.7444C15.4533 27.3323 14.1535 28.1297 13.9689 28.1446C10.1137 30.2643 7.71348 31.3647 6.78281 31.4459L6.64258 31.4606C6.76074 31.025 8.47402 27.5168 11.7977 20.9141C13.26 20.7885 15.5643 20.1092 18.7031 18.8684L19.4711 18.8018C21.059 18.6616 22.248 18.9717 23.0311 19.7104L23.0752 20.1903C22.4844 21.8891 21.8346 22.8787 21.1328 23.1666ZM14.7666 19.5848L15.291 19.5405L15.2982 19.6586L14.774 19.703L14.7666 19.5848ZM22.1299 18.3366L22.5141 18.2996C22.8686 18.4696 23.0531 18.6172 23.068 18.7502L23.0752 18.8684C22.7355 18.8979 22.418 18.7207 22.1299 18.3366ZM23.1713 12.4061C22.8316 12.8121 21.901 13.5065 20.3795 14.4813C19.8773 14.5256 18.0088 15.2494 14.774 16.6674C14.6123 16.5935 14.4341 16.563 14.257 16.5789L14.2348 16.3498C14.1979 15.8846 14.4047 15.3012 14.8625 14.5922C15.1137 13.2627 15.3869 12.502 15.6898 12.3174L18.3855 6.25394C18.3559 5.87718 18.932 5.5891 20.1137 5.38969L20.4977 5.35277L20.5273 5.70004C21.6867 5.52269 22.4105 5.41937 22.6912 5.39711C24.833 5.21254 25.9482 5.64828 26.0369 6.68968L26.2807 6.66742L26.2289 6.05453L26.4947 6.03226C27.1225 6.37953 27.4623 6.80043 27.5066 7.29515C27.5361 7.635 27.3516 8.0559 26.96 8.55824C26.7977 8.57289 26.7016 8.45472 26.6867 8.2184L26.4209 8.24066L26.3619 8.97914C25.2762 10.6039 24.4859 11.4385 23.9984 11.4828C23.5553 12.0959 23.282 12.3987 23.1713 12.4061ZM24.8256 16.6528C24.6041 16.5049 24.4268 16.4385 24.2939 16.4459L24.2643 16.084L24.508 16.0619L25.0473 16.3795C25.0693 16.5493 24.9955 16.6379 24.8256 16.6528ZM26.5391 18.6836C26.7754 18.7797 26.9158 18.883 26.9453 18.9791L26.8271 19.0086L26.8346 19.0161C26.8123 19.0161 26.7828 19.0235 26.7605 19.0309L26.5834 19.1711L26.5391 18.6836ZM26.7016 19.703L26.6795 19.6069L26.9896 19.533L27.0117 19.6291L26.7016 19.703ZM27.4475 20.5375C27.765 20.4858 27.9201 20.4637 28.5109 20.3307L28.5332 20.4268L27.4105 20.6852C27.4254 20.6334 27.44 20.5819 27.4475 20.5375ZM28.5406 21.0028C28.068 21.0471 28.1713 20.9879 27.418 21.1578L27.3957 21.062L28.3338 20.759L28.7844 20.6557L28.8285 20.8328C28.6291 20.8772 28.777 20.8772 28.5406 21.0028ZM29.5377 20.7664C29.4268 20.7959 29.3383 20.7444 29.2865 20.6188L29.5746 20.5522C29.7 20.5227 29.7813 20.5744 29.8109 20.7L29.5377 20.7664ZM32.2406 17.8565L32.2186 17.7606L32.6838 17.6498L32.7281 17.827L32.2406 17.8565ZM35.1285 35.567C35.158 35.434 35.1654 35.3381 35.1506 35.2715L35.2541 35.2495C35.3795 35.22 35.4533 35.2643 35.483 35.3825L35.5051 35.4784L35.1285 35.567ZM37.1521 18.6172L36.9453 18.5803C36.6129 18.7133 36.3322 18.8092 36.1033 18.861L35.9113 18.9053C35.8006 18.9348 35.7119 18.8905 35.6676 18.7723L37.0191 18.4621L37.4623 18.2553L37.61 18.4252C37.3957 18.4696 37.2406 18.536 37.1521 18.6172ZM38.1934 18.2848L38.1713 18.1889C38.2377 18.1741 38.3264 18.1225 38.4225 18.0264L39.3824 17.8049L39.4047 17.9008C38.8951 18.0264 38.4889 18.152 38.1934 18.2848ZM38.3412 16.3424C38.2746 16.3573 38.1861 16.4164 38.0752 16.5049C38.0605 16.4385 37.9275 16.4385 37.6764 16.4977C37.6322 16.3129 38.3412 16.0545 39.8109 15.7147L40.0176 15.6703L40.0619 15.8477C39.0279 16.1504 38.452 16.3203 38.3412 16.3424ZM40.9262 13.5508C40.8227 14.725 40.4092 15.3899 39.6779 15.5596L39.6559 15.4637L39.0059 15.7147L38.7178 15.7813C38.5701 15.8182 38.4371 15.8108 38.3189 15.7739L38.26 15.5153C38.2377 15.4194 39.1758 14.1194 41.0813 11.6231L41.3027 11.6602C41.384 11.9998 41.2584 12.6276 40.9262 13.5508ZM45.4977 9.63636L45.4092 9.64379L45.3943 9.45922L45.7783 9.4223L45.7857 9.5182C45.7193 9.53304 45.6232 9.56996 45.4977 9.63636ZM43.6145 28.5508C43.3928 28.4473 43.1934 28.4032 43.0236 28.4178L43.0014 28.1371C42.9939 28.0412 43.0531 27.9746 43.1787 27.9377C43.3043 27.9231 43.3781 28.0116 43.3928 28.2037C43.7104 27.7975 43.8877 27.5907 43.9246 27.5907L44.124 27.6719C44.0502 28.2332 43.8803 28.5286 43.6145 28.5508ZM63.8064 7.42816C63.7104 7.43558 63.5258 7.14008 63.2377 6.54183L63.223 6.35726C63.4076 6.34242 63.5996 6.6305 63.7916 7.22132L63.8064 7.42816ZM63.5406 5.31586L63.452 5.50785L60.7193 4.36312C62.5436 4.4223 63.4889 4.73988 63.5406 5.31586ZM51.9527 15.2643L51.5686 15.3012L51.5539 15.1164L51.9379 15.087L51.9527 15.2643ZM51.6352 9.28929L51.7385 9.28187L51.7606 9.56254C51.6646 9.56996 51.5465 9.70297 51.4061 9.96136L51.3914 9.77679C51.5613 9.56254 51.6424 9.40004 51.6352 9.28929ZM50.8301 11.2096L50.8596 11.5715L50.7563 11.5789L50.7266 11.217L50.8301 11.2096ZM50.3943 11.8965L50.5863 11.8817C50.5643 12.1918 50.483 12.3543 50.3426 12.3692L50.2393 12.3764C50.35 12.1698 50.4018 12.0073 50.3943 11.8965ZM50.0842 12.8418L50.1729 12.8344L50.1801 12.9303L50.0104 13.2258L49.8182 13.2407L49.8109 13.1446C50.0104 13.1297 50.0988 13.0264 50.0842 12.8418ZM49.774 13.6985L49.7074 14.1711L49.6188 14.1786L49.5818 13.7133L49.774 13.6985ZM46.6203 22.6571C46.4947 23.2776 46.3619 23.5952 46.2215 23.6098L46.2141 23.5286C46.192 23.2184 46.3248 22.9231 46.6203 22.6571ZM46.0369 23.9053L46.0441 23.9866C46.059 24.1194 46 24.1934 45.867 24.2006L45.8596 24.1047C45.8521 24.0086 45.9113 23.9422 46.0369 23.9053ZM45.8744 26.5049L46.1697 26.4828L46.1772 26.5788C46.1107 26.5862 46.0072 26.6231 45.8891 26.6897L45.6971 26.7043C45.6896 26.601 45.7488 26.5346 45.8744 26.5049ZM54.1684 23.9422C52.5436 24.7473 51.576 25.2938 51.2732 25.5744C49.5006 26.1948 48.6219 26.5789 48.6365 26.734C47.0635 27.3618 46.0295 27.8121 45.542 28.1002C45.4238 28.1077 45.2539 28.0633 45.0324 27.96C45.0029 27.6424 45.1506 27.3838 45.4607 27.1918C45.7414 27.1698 46.0072 27.2067 46.251 27.31C46.5465 27.1623 47.0561 26.9998 47.7799 26.8153L47.765 26.6305L47.1594 26.6748C47.2334 26.5715 47.802 26.3055 48.8582 25.8772L49.1535 25.8551L49.1609 25.9364C48.6588 25.9807 48.3781 26.1284 48.3189 26.3942C48.3264 26.5123 48.4002 26.5715 48.5258 26.5567C48.8951 26.3129 49.0723 26.1727 49.0723 26.1284C49.7812 26.0028 51.7459 24.9688 54.9734 23.0338L54.9881 23.2184C54.9955 23.2996 54.7223 23.536 54.1684 23.9422ZM49.2201 25.567C49.7 25.5227 50.1063 25.3381 50.4461 25.0131C50.5715 24.9983 50.6455 25.0575 50.6527 25.1756C50.4313 25.1977 49.9955 25.3825 49.3381 25.7369L49.2348 25.7444L49.2201 25.567ZM57.2111 19.4297L54.7518 21.409C52.9127 22.6127 51.9158 23.2184 51.7606 23.2332C48.8359 24.8432 47.0191 25.6778 46.3027 25.7369L46.1994 25.7444C46.2879 25.412 47.5953 22.7457 50.1211 17.7383C51.2215 17.6424 52.9645 17.118 55.3574 16.1727L55.9557 16.1209C57.1594 16.0176 58.0605 16.2539 58.6514 16.8225L58.6809 17.1844C58.2303 18.4547 57.743 19.2006 57.2111 19.4297ZM52.3811 16.7118L52.765 16.6748L52.7725 16.7709L52.3885 16.8078L52.3811 16.7118ZM57.9719 15.759L58.2674 15.7369C58.5406 15.8698 58.6809 15.9881 58.6883 16.084L58.6957 16.1653C58.4371 16.1873 58.1934 16.0545 57.9719 15.759ZM58.7473 11.2614C58.4889 11.5715 57.7873 12.1032 56.6426 12.8418C56.2584 12.8787 54.8404 13.4252 52.3885 14.4887C52.2703 14.4444 52.1373 14.4297 51.9969 14.4371L51.9822 14.2524C51.9527 13.8979 52.1078 13.4547 52.4475 12.9157C52.6395 11.8965 52.8537 11.3278 53.0752 11.1948L55.1357 6.58617C55.1137 6.31293 55.5494 6.09144 56.4357 5.92152L56.7311 5.89945L56.7533 6.18011C57.6248 6.03969 58.1713 5.95844 58.3928 5.93636C60.0176 5.79594 60.867 6.12093 60.9334 6.91859L61.1254 6.90375L61.0885 6.46058L61.2807 6.44594C61.7533 6.70433 62.0043 7.01468 62.034 7.38383C62.0561 7.64984 61.923 7.97465 61.6424 8.3514C61.517 8.36605 61.4432 8.27758 61.4283 8.08558L61.2363 8.10023L61.1771 8.65414C60.3574 9.90238 59.7592 10.545 59.3824 10.5745C59.0502 11.025 58.8434 11.2539 58.7473 11.2614ZM59.6115 14.3336L59.5893 14.053L59.7812 14.0383L60.1949 14.2893C60.2023 14.4075 60.1432 14.4741 60.0176 14.4887C59.8404 14.378 59.7074 14.3262 59.6115 14.3336ZM25.2318 32.2731L25.0398 32.3174L24.8773 32.4577C24.9068 32.5758 24.9807 32.6202 25.1062 32.5907C25.2318 32.5612 25.2836 32.4873 25.2541 32.3692L25.2318 32.2731ZM24.5008 30.8182L24.5229 30.9141C24.6484 30.8846 24.7 30.8108 24.6705 30.6926L24.6484 30.5965C24.5303 30.6262 24.4785 30.7 24.5008 30.8182ZM29.7 18.4473L29.9217 18.3957L29.8773 18.2037L29.6559 18.2553L29.7 18.4473ZM96.7164 24.0752C94.4711 24.5774 94.1904 24.4887 93.7178 24.5256L93.7326 24.7104L93.9395 24.6955L94.0502 24.6881L94.0207 24.6661L94.2643 24.57C96.4873 24.3262 96.7459 24.4149 96.7236 24.1637L96.7164 24.0752ZM84.6262 25.6778L84.641 25.8625H84.6705L84.6559 25.6778H84.6262ZM83.2377 20.8108L83.0383 20.7444C82.8758 21.1801 82.7945 21.4385 82.8019 21.5123L82.8094 21.5936C82.9645 21.5862 83.1049 21.3203 83.2377 20.8108ZM97.1742 24.0383L97.1891 24.2229L97.5139 24.2819L97.4992 24.0973L97.1742 24.0383ZM81.8936 25.9067L81.3914 25.8477L81.3027 26.0397L81.3102 26.1358L84.3012 25.8846L84.2865 25.7L81.8936 25.9067ZM80.5346 19.3559L80.5273 19.2598L80.4238 19.2672L80.2393 19.3854L80.3426 19.5625C80.483 19.5479 80.5494 19.4813 80.5346 19.3559ZM98.5922 22.6793L98.7326 22.6645C98.8139 22.6571 98.8508 22.5907 98.8434 22.4725L98.7621 22.2952C98.2525 22.3395 98.0162 22.3618 97.6025 22.5907L97.5951 22.4948L96.9822 22.5537C96.9674 22.3692 96.9158 22.2731 96.8346 22.2805L96.517 22.31C96.1477 22.3395 95.9703 22.3248 95.7857 22.4651C95.7783 22.3987 95.7563 22.3692 95.7193 22.3692L95.3648 22.3987L95.158 22.5168C95.1506 22.4504 95.1285 22.4207 95.0914 22.4207L94.966 22.5317L94.9586 22.4356L94.4637 22.3987L94.3455 22.4061L94.3604 22.5907L94.6115 22.6571L94.8479 22.6424C94.9291 22.6942 95.0176 22.7088 95.1211 22.7014L95.3279 22.5981L95.3352 22.6793C94.1758 22.9674 94.183 22.9157 93.3854 23.0487C93.2969 22.9895 93.2303 22.96 93.1859 22.9674L93.1713 22.9821C93.0826 22.9746 93.0309 22.9157 93.0236 22.8196L93.4371 22.768C93.4666 22.768 93.4889 22.7975 93.7178 22.8418C94.0502 22.6793 94.0648 22.6127 94.2422 22.5981L94.2273 22.4133C93.09 22.635 93.5479 22.4873 92.1225 22.6127L92.0561 22.6202L92.0412 22.4356C93.8729 22.2141 93.26 22.3395 93.8877 22.1623C93.8951 22.2287 93.9172 22.2582 93.9541 22.2582C94.0214 22.1895 94.1099 22.1453 94.2053 22.1328L94.3309 22.1254C94.9732 22.0737 95.1875 22.1993 96.4578 21.8448L96.4652 21.926L96.6721 21.8225L96.8641 21.8078C96.8492 21.6231 97.1299 21.5936 97.226 21.5862L97.2111 21.3868C94.9807 21.8373 94.3973 21.7118 93.777 21.8891L93.7695 21.8078C93.1861 21.9112 93.1639 21.8668 93.0162 21.8743C92.9719 21.8817 92.9055 21.9186 92.8314 21.9924C92.8242 21.926 92.802 21.8963 92.7576 21.8963C92.7355 21.8963 92.7281 21.9037 92.7207 21.9037L90.8301 22.2139C90.8227 22.1623 90.8006 22.1328 90.7562 22.1401C89.774 22.3469 90.0398 22.3838 88.7252 22.502C88.666 22.5094 88.585 22.5389 88.4814 22.6055C88.474 22.5537 88.4445 22.5243 88.3781 22.5315L87.573 22.5981L87.034 22.7309C87.0266 22.6793 86.9971 22.6498 86.9305 22.6571C86.6277 22.7383 86.3619 22.7901 86.1477 22.8049H86.1328C86 22.8196 86.1994 22.768 86.0959 22.7237L85.9334 22.8196C85.6971 22.8418 85.8227 22.8049 85.0104 22.8121C83.585 22.9895 83.74 23.0116 83.585 23.019L83.0531 22.9821C83.0605 23.0338 83.0311 23.0707 82.9719 23.0707C82.3662 22.9895 82.0561 22.8934 82.0486 22.7827C82.1299 22.2067 82.2703 21.9112 82.4697 21.8963L82.573 21.8891L82.4844 22.0811L82.5879 22.0737C82.7799 21.9703 82.8686 21.8743 82.8611 21.7856L82.8463 21.5862L82.6543 21.601L82.6395 21.4164C82.6248 21.276 82.6469 21.1504 82.6986 21.0471L83.1344 20.3455L83.1492 20.5301L83.3559 20.5153L83.3412 20.3307L83.223 20.1608C83.3781 20.028 83.4963 19.9539 83.5922 19.9467L83.585 19.8506L83.3043 19.8729L83.282 19.5922C83.8434 18.4252 84.1092 17.7457 84.0945 17.5537L84.2939 17.635C84.4195 17.6276 84.4785 17.5537 84.4711 17.4207L84.2791 17.4356L84.2717 17.3543C84.2582 17.2195 84.2838 17.0836 84.3455 16.9629C84.6484 16.6453 84.7887 16.3278 84.7592 15.9953C84.8184 15.9879 84.8478 16.0176 84.8553 16.084C85.1137 15.9364 85.3131 15.545 85.4607 14.895C85.9187 14.0678 86.5686 12.4135 87.418 9.93929C89.0428 5.56703 88.9764 5.10179 89.2053 4.06781L89.0133 4.08246C89.0279 4.21547 88.9984 4.34105 88.9395 4.45922C88.8064 4.40746 88.7031 4.37797 88.6293 4.38539L88.6219 4.30414C88.5922 3.92738 88.7475 3.47699 89.102 2.94515L89.1904 2.93773L89.3529 3.57289L89.5449 3.55824C89.5377 3.5139 89.5893 3.26273 89.6928 2.7975C89.6853 2.7014 89.6115 2.64242 89.4637 2.635L89.2791 2.75316C89.2645 2.62015 89.2717 2.27308 89.2939 1.71918L89.1979 1.7266C89.0354 1.5641 88.9541 1.43109 88.9467 1.32035L87.8906 1.42367C87.8832 1.34984 87.8463 1.2391 87.7725 1.09886C87.765 1.00277 88.0014 0.906677 88.4889 0.810779L88.7031 0.892029L88.9025 0.773865C88.9098 0.840271 88.9467 0.869763 89.0205 0.862537L89.2199 0.744373C89.2273 0.810779 89.2643 0.840271 89.3383 0.832849L89.4342 0.825623L89.4193 0.611365C89.2717 0.626208 88.8803 0.626208 88.26 0.603943L88.0605 0.736951L88.0531 0.618787C83.0975 1.02484 80.2836 1.25394 79.6115 1.32035C79.5229 1.32777 79.1758 1.32035 78.5627 1.30551C78.5701 1.38676 78.4963 1.43109 78.3486 1.44594L78.1344 1.34984L77.4106 1.53461C77.2406 1.54926 76.9527 1.54183 76.5539 1.49769C76.4432 1.58617 76.3102 1.63793 76.1477 1.65277C76.059 1.66 77.2037 1.59359 78.2672 1.51976C78.1564 1.60844 77.9867 1.66 77.7504 1.68226C77.5879 1.69711 77.4475 1.67484 77.3293 1.60844C77.1668 1.68226 76.6426 1.80043 75.7637 1.97758L75.5494 1.89652L72.093 2.42816C71.96 2.36176 71.8049 2.33949 71.6277 2.35433C71.443 2.36918 71.1328 2.43558 70.7045 2.55375L69.0354 3.24789L69.1609 3.45472C69.2422 3.4473 69.3604 3.40316 69.5006 3.32191L70.0916 3.37347L70.0176 3.92738C69.4711 4.17113 69.1535 4.53304 69.0648 4.99105C68.2451 5.35277 67.8389 5.61136 67.8389 5.76644L67.8463 5.86254L67.9719 5.85511L68.1934 5.73695L68.452 6.04711L68.4889 6.47543C68.5035 6.60844 67.1225 9.51097 64.3604 15.183C61.9674 20.6483 60.7119 23.6395 60.5938 24.1786C59.774 24.4075 59.3012 24.7399 59.1609 25.183C59.1758 25.3233 59.4193 25.4194 59.892 25.4563L59.9143 25.6704L59.7 26.0248L59.7369 26.4534C59.7592 26.6748 60.3574 26.8448 61.5316 26.9629C61.5242 26.8891 61.5613 26.8448 61.6424 26.8373C61.6646 27.1032 61.5908 27.6202 61.4209 28.3883L61.5465 28.3809C62.0338 27.7162 62.2629 27.2582 62.2406 27.0073L62.3441 26.9998C62.4623 26.9924 62.5879 27.1254 62.7355 27.4133C62.5879 27.4725 62.0709 28.6467 61.1846 30.9438L61.3102 31.1504L61.4357 31.1432C62.5213 28.3957 63.2008 26.8743 63.4814 26.5862C64.9068 26.4606 67.3736 26.2096 70.8744 25.8329L71.0959 25.7C71.1033 25.7739 71.1477 25.8108 71.2289 25.8034L71.4578 25.7813L71.6795 25.6483C71.6867 25.7221 71.7311 25.759 71.8123 25.7516L74.4637 25.5227C75.1654 25.4637 75.4977 25.2495 75.4682 24.8875C75.4607 24.7916 75.8744 24.6807 76.709 24.5625C76.7902 24.5551 76.9084 24.5774 77.0709 24.6291C77.0635 24.5625 77.4844 24.4961 78.3264 24.4223C78.3486 23.9791 78.4889 23.7428 78.74 23.7207L78.7178 23.5065C78.4814 23.5286 78.2156 23.5877 77.9055 23.6911C77.3516 23.6616 76.9971 23.6172 76.8492 23.5655C76.7016 23.6467 76.5908 23.6911 76.5096 23.6985L74.6631 23.7577L74.4416 23.8758C74.4342 23.8092 74.3898 23.7797 74.3086 23.7871L74.2053 23.7946L73.9689 23.9127C73.9615 23.8461 73.7695 23.7946 73.3854 23.7428L73.1492 23.883L72.6912 23.92L72.6838 23.8018C75.0619 23.5434 76.2363 23.2184 76.2066 22.8344C76.3619 22.8196 76.4432 22.8934 76.4578 23.0487L77.1521 22.8713L77.1299 22.6571L71.4357 22.8121C71.443 22.8862 71.4061 22.9303 71.325 22.9377L70.6307 22.8787C70.4533 22.8934 70.3057 22.9452 70.1875 23.0338L69.9291 22.9377C69.2127 22.9969 68.6809 23.0856 68.3264 23.1963C67.8389 23.1594 67.2998 23.1666 66.7016 23.2184L65.4238 23.3291L64.833 23.2627C64.8035 22.8862 65.5346 21.0323 67.0412 17.7088C67.4771 16.5862 67.8758 15.8846 68.26 15.6188C68.3412 15.6114 68.4594 15.6409 68.6219 15.7073L69.5303 15.3971L69.9955 15.4709C70.7783 15.4045 71.6867 15.183 72.7281 14.7989C72.9867 14.7768 73.1787 14.7916 73.3189 14.8506L74.0133 14.6881L76.0813 14.511C76.96 14.4371 77.9127 14.245 78.9467 13.9274L78.9246 13.7133C78.5406 13.7502 78.3412 13.6838 78.3264 13.5286C78.3043 13.2407 78.0236 13.1225 77.4844 13.1666L77.4623 12.9526L78.0311 12.7901L79.5229 12.6645L79.5006 12.4504C79.4416 12.4577 79.1389 12.4504 78.5775 12.4282L78.5553 12.1993L79.1314 12.1475C79.2865 12.1328 79.3529 12.0588 79.3383 11.9112C78.5627 11.9334 78.1713 11.8965 78.1639 11.793C72.7576 12.0588 70.0473 12.1106 70.0324 11.9407C69.9512 11.9481 69.8404 11.9998 69.6928 12.0885L69.5523 11.8668C70.9852 8.82406 71.8271 7.28793 72.0709 7.26566C72.0781 7.38383 72.0191 7.57582 71.8861 7.83441L71.8936 7.93031L72.1225 7.90824C72.6912 6.54925 73.1713 5.84769 73.5701 5.8182C75.2687 5.67035 73.3338 5.55961 76.9674 4.99105C77.1152 5.05746 77.2186 5.08695 77.2924 5.07953C78.7178 4.79164 80.7045 4.48871 83.2525 4.17855L83.2377 3.96429L81.8787 4.08988L81.8641 3.87582C82.0266 3.86097 82.1594 3.80922 82.2703 3.72074L82.2775 3.8389C82.3516 3.83148 82.4549 3.77972 82.5879 3.69105C82.8242 3.66898 83.0014 3.69105 83.127 3.75765C83.5996 3.63207 83.9836 3.55824 84.2643 3.52855L85.1137 3.4473C85.3205 3.31449 85.4164 3.19633 85.4092 3.08558L85.4018 2.98949C85.1875 3.01156 84.9437 2.99691 84.6559 2.94515C84.6484 2.82699 84.7074 2.74574 84.8479 2.70883L86.4283 2.56117L87.1521 2.3764C87.1594 2.45765 87.1965 2.48734 87.2555 2.48734C87.3293 2.47992 87.4328 2.42816 87.5656 2.33949C87.6025 2.34691 87.6469 2.34691 87.6838 2.35433C87.5879 2.55375 87.477 2.84183 87.3662 3.2184L87.1594 3.23324C87.1447 3.09281 87.1078 2.96742 87.0412 2.85648L86.9379 2.8639C85.0176 8.21097 84.1609 10.7 82.3885 14.8063C82.0635 15.8551 81.7902 16.4385 81.5539 16.5641C81.5613 16.6823 81.6352 16.7412 81.7607 16.7266C81.8049 17.2436 81.6867 17.7532 81.3988 18.2553C80.5789 20.6188 80.0324 21.9112 79.7518 22.1475L79.9363 23.2627C79.9437 23.3809 79.8848 23.4473 79.7592 23.4621L79.5672 23.477C79.5375 23.1666 79.4268 23.019 79.2273 23.0412L79.124 23.0487C78.8728 23.4401 78.6809 23.8905 78.5553 24.4149L78.7473 24.4C79.0059 24.2303 79.124 24.0309 79.1018 23.8018L79.4859 23.7649L79.7074 23.8461C79.5303 24.1268 79.449 24.3485 79.4637 24.5182L79.5672 24.6955L79.316 25.2864L79.3234 25.3825C79.5449 25.3602 79.7887 25.434 80.0473 25.5891C80.2244 25.5745 80.4164 25.4932 80.6307 25.3528C80.8521 25.3307 81.6793 25.3233 83.1049 25.3233L83.8211 25.0795C84.6928 25.0721 84.833 25.0944 85.5863 25.028L85.8965 24.9983L86.059 24.8875L86.0664 24.9836C86.8566 24.917 86.9084 24.9688 87.5287 25.0426L87.5361 25.1387L87.1004 25.1756L87.115 25.3602C87.248 25.3455 87.3662 25.3084 87.4623 25.2274C87.5731 25.22 87.6395 25.2789 87.6469 25.412C87.4697 25.4268 87.2703 25.4709 87.0486 25.545L86.8566 25.4784C86.5539 25.5596 86.6203 25.5819 86.4135 25.5965L86.1107 25.5375C86.1182 25.5891 86.0885 25.626 86.0369 25.626C86.0441 25.7444 86.1107 25.8034 86.2215 25.7959L86.5316 25.7664L88.149 25.626L88.7621 25.4932C88.7695 25.545 88.7916 25.5744 88.8434 25.567L89.1387 25.4563L89.6928 25.412C90.1211 25.375 90.1137 25.3455 91.0441 25.1977C91.0369 25.1387 91.059 25.1164 91.1033 25.1092L91.1107 25.1903C92.6248 24.9319 92.7207 24.917 92.9645 24.8358L92.9865 24.8801C93.3633 24.7916 93.149 24.8137 93.2525 24.7399C93.26 24.8063 93.282 24.8358 93.3189 24.8358L93.5848 24.8137L93.5701 24.6143L93.0309 24.6069L93.0236 24.5922C93.0014 24.5995 92.9865 24.5994 92.9645 24.6069H92.8906V24.6217C92.5287 24.6955 92.5213 24.6438 92.285 24.6661L90.9334 24.7399L90.926 24.6438L91.6793 24.5405L91.9525 24.5182L92.1078 24.4075L92.115 24.5036C93.1787 24.4149 93.5553 24.6807 98.474 23.6321C98.7398 23.6098 98.7178 23.3883 98.8877 22.9303C98.7976 22.9365 98.7076 22.916 98.6291 22.8713C98.223 23.0264 98.0088 22.9526 97.226 23.0782C97.1594 23.0856 97.1078 23.0264 97.0855 22.9082L97.0781 22.827L97.8314 22.8491C97.9719 22.8344 98.2451 22.8121 98.6514 22.5832C98.6514 22.6498 98.5035 22.6868 98.5922 22.6793ZM62.226 23.2627L61.8787 23.2922C61.8641 23.152 62.0486 22.6202 62.4326 21.7118L62.6617 21.6897C62.6691 21.9037 62.5287 22.4282 62.226 23.2627ZM62.6469 21.5789L62.6395 21.4828C62.632 21.3647 62.7061 21.2834 62.8686 21.2465L62.8758 21.3424C62.8832 21.4828 62.8094 21.5641 62.6469 21.5789ZM67.2629 25.1461L67.2703 25.242L66.6941 25.2938L66.6867 25.1977L67.2629 25.1461ZM66.5686 25.087C66.576 25.2051 66.3988 25.3381 66.0146 25.4709L65.3057 25.4194L65.0768 25.4414L65.0547 25.2274L66.5686 25.087ZM71.2363 3.60258L70.8891 3.63207L70.8818 3.5139C70.8744 3.39574 70.9408 3.31449 71.0885 3.27758L71.2141 3.27015L71.4504 3.36605C71.4578 3.50648 71.3914 3.58773 71.2363 3.60258ZM76.517 2.56859L76.6277 2.56117L76.6424 2.77523L76.3248 2.80492C76.3176 2.68676 76.3766 2.60551 76.517 2.56859ZM75.1875 3.03383L74.6631 2.97465L74.6557 2.87875C75.3426 2.81957 75.5715 2.74574 75.9926 2.62758C76 2.70883 76.0738 2.73832 76.2066 2.72367L76.2215 2.93773L76.0146 2.96C75.8521 2.97465 75.7119 2.95258 75.5938 2.88617C75.4682 2.96742 75.3352 3.01898 75.1875 3.03383ZM75.8449 4.94672L75.8375 4.85062L76.6867 4.76937L76.6941 4.86547L75.8449 4.94672ZM76.7533 4.20804L76.7459 4.08988L77.1594 4.05297L77.1668 4.17113L76.7533 4.20804ZM76.8492 2.76058L76.7385 2.76801L76.8346 2.5389L77.7799 2.45043L77.7873 2.56859C77.5436 2.59066 77.226 2.65707 76.8492 2.76058ZM77.3293 4.79886L77.3145 4.5848L77.7281 4.54789C77.8686 4.53304 77.9424 4.59945 77.9498 4.7473L77.3293 4.79886ZM79.833 1.38676L79.3012 1.53461L79.2053 1.54183C78.9541 1.5641 78.6291 1.55668 78.2451 1.51976C78.932 1.47543 79.5893 1.42367 79.833 1.38676ZM79.2643 3.75023L79.2717 3.84613L78.5406 3.91273L78.5332 3.81664L79.2643 3.75023ZM80.4607 4.31879C80.4533 4.23031 80.3131 4.17113 80.025 4.14164L79.2939 4.34847L78.7326 4.37054C78.607 4.28187 78.5406 4.22289 78.5332 4.17855L79.1832 4.21547L80.6455 3.97914L81.3914 4.00863L81.3988 4.12679C81.0295 4.16371 80.7193 4.23031 80.4607 4.31879ZM87.9867 2.3764C88.0752 2.38383 88.1344 2.38383 88.1564 2.38383C88.415 2.13285 88.7031 1.93343 89.0354 1.79301C88.7695 2.96 88.3559 3.82406 87.7873 4.38539L87.3736 4.13422C87.7207 3.25531 87.9275 2.67191 87.9867 2.3764ZM86.7164 4.55531L86.8197 4.54789C86.6793 4.81371 86.5539 4.95394 86.4504 4.96136L86.4283 4.6807C86.4947 4.6807 86.5908 4.63636 86.7164 4.55531ZM85.8965 6.51234C86.0959 5.71469 86.2879 5.26429 86.4652 5.14613L86.4727 5.24203C86.3691 5.9807 86.2066 6.37211 85.9926 6.4016L86.0295 6.86683C85.8521 7.118 85.7709 7.31 85.7783 7.45765L85.675 7.46508L85.6158 6.8225C85.734 6.80785 85.8301 6.70433 85.8965 6.51234ZM85.5789 7.57582C85.5863 7.68676 85.5125 7.94515 85.3648 8.34398L85.2613 8.3514L85.2393 8.07074C85.3795 7.74574 85.4977 7.58324 85.5789 7.57582ZM79.6189 24.8727L79.6115 24.7916L79.8035 24.7768L79.8256 25.0575C79.7223 25.0649 79.6484 25.0057 79.6189 24.8727ZM88.1344 25.0944C88.127 25.028 88.0975 24.9983 88.0311 25.0057L87.551 25.05L87.5436 24.9539H87.5879L88.7252 24.858L88.7326 24.9539C88.4002 24.9688 88.2008 25.0205 88.1344 25.0944ZM87.5656 24.858C87.61 24.8801 87.5879 24.9024 87.5656 24.917C87.5436 24.9098 87.5141 24.8875 87.5656 24.858ZM87.6248 23.5286L86.9896 23.5803L86.9822 23.4842L87.5582 23.4327L88.0605 23.3071C88.068 23.3661 88.0975 23.3883 88.1639 23.3809C88.7621 23.2776 88.7031 23.2481 88.991 23.2258C89.0871 23.2184 89.1463 23.2776 89.1535 23.3957L87.6248 23.5286ZM89.8479 23.3366C89.4934 23.2996 89.4711 23.2702 89.2201 23.2922L89.2127 23.211L89.7812 23.1594L89.7887 23.2407C89.7297 23.2481 89.9437 23.2627 89.8479 23.3366ZM89.8922 23.2332L89.8848 23.152L90.1949 23.1225L90.2023 23.2037L89.8922 23.2332ZM90.5789 23.1741L90.5717 23.0928C90.6232 23.0856 90.6971 23.0487 90.7932 22.9746C90.9482 22.96 91.0295 23.0633 91.0443 23.1815L90.5789 23.1741ZM91.4578 23.0633L91.4504 22.9674L91.8271 22.9377L91.8346 23.0338L91.4578 23.0633ZM91.9822 23.019C91.9748 22.9082 92.0191 22.8418 92.1152 22.827L92.2406 22.9895C92.2334 22.9377 92.2555 22.9082 92.2998 22.9008L92.3959 23.0782L91.9822 23.019ZM86.4062 25.4268L86.3914 25.242L86.3322 25.2495L86.3471 25.434L86.4062 25.4268ZM99.3826 22.0662C99.4416 22.0293 99.4711 21.9924 99.3309 21.9703C99.2643 22.0442 99.4047 22.0662 99.257 22.0737L99.2643 22.1401C99.2791 22.1254 99.316 22.1032 99.3455 22.0811L99.2643 22.1475V22.1549L99.1092 22.3543L99.4193 22.2436H99.4565L99.4416 22.0588L99.3826 22.0662ZM99.9217 22.4873L99.8625 22.4948L99.8773 22.6793L100.313 22.6424C100.306 22.5243 100.018 22.4873 99.9217 22.4873ZM99.2496 22.1623L99.257 22.1549V22.1475C99.257 22.1475 99.2496 22.1549 99.2496 22.1623Z" fill="black"/>
<path d="M70.8964 8.49164L70.9038 8.6098L71.1476 8.58773C71.1401 8.5139 71.1696 8.39574 71.2214 8.24789L71.1993 8.03383C71.0958 8.04125 70.9925 8.19633 70.8964 8.49164ZM68.5626 2.87875L68.5405 2.66449L68.1933 2.69398L68.2155 2.90824L68.5626 2.87875ZM61.7901 15.5596C61.7753 15.3602 61.155 14.5848 59.929 13.2184C59.9067 12.9674 60.3278 12.5907 61.1919 12.0959L63.6587 9.94672C64.2126 9.24496 64.5374 8.10765 64.6335 6.52718L64.604 6.16527C64.5079 5.07211 63.7177 4.1934 62.2185 3.52133C61.3321 2.92308 59.7368 2.59066 57.4327 2.53148C55.5272 2.69398 53.0382 3.37347 49.9733 4.57738C49.1313 5.18304 48.1712 5.78851 47.0929 6.39418L47.1077 6.57894C47.1741 6.57152 47.2774 6.53461 47.3958 6.45336C47.5212 6.43851 47.5952 6.49769 47.6024 6.61586L47.7872 6.51976L47.8757 6.51234L47.8831 6.59359C47.8905 6.68968 47.2259 7.2139 45.8817 8.15199L45.9851 8.34398L45.8964 8.3514L45.6749 8.27015C45.6823 8.33656 45.5862 8.38089 45.4017 8.39574L45.4091 8.47699L45.6231 8.74281C45.5567 8.75023 45.4534 8.72074 45.313 8.66898C45.0028 8.69847 44.6999 8.86097 44.3972 9.17113L44.5228 8.62465C44.9733 6.68226 45.2835 4.96136 45.446 3.46957L45.4237 3.37347C45.1136 3.17406 44.8108 2.8934 44.5302 2.5389C44.5376 2.31 44.5376 2.17699 44.5302 2.1475L44.5079 2.06625L44.4194 2.08851C43.4444 3.55082 41.5685 6.04711 38.7843 9.57738C36.6646 12.0885 35.5714 13.4842 35.505 13.7649C34.6409 14.6586 34.2272 15.1977 34.2716 15.3825C34.0427 15.5301 33.9466 15.6778 33.9837 15.8403C33.9171 15.8551 33.8728 15.8328 33.8581 15.7664C33.4888 16.3647 32.9423 16.7487 32.211 16.9186L31.4429 17.0957C31.3396 17.118 31.2878 17.1918 31.2952 17.3174L31.3175 17.4133L31.6054 17.3469L31.6276 17.4282L30.9776 17.6793L29.8255 17.9452L29.22 17.9821C29.1313 18.0707 29.6999 17.9746 29.4784 18.0264L28.7251 18.2037C28.2673 18.3071 28.0161 18.2702 27.9718 18.0856L27.8831 18.1077C27.8979 18.1889 27.9054 18.2479 27.8905 18.2996L27.8462 18.1151L27.2405 18.2553C27.1964 17.9746 26.3765 16.9555 24.7886 15.1977C24.7591 14.858 25.3204 14.3631 26.4651 13.7207L29.6999 10.8772C30.4237 9.94672 30.852 8.45472 30.9925 6.4016L30.9481 5.92152C30.8226 4.47406 29.7739 3.30707 27.8019 2.40609C26.6351 1.61586 24.5376 1.19476 21.5095 1.12836C18.9983 1.34242 15.7192 2.23617 11.6866 3.79457C10.5788 4.59945 9.31592 5.39711 7.89795 6.18734L7.92002 6.43851C8.01611 6.43109 8.1417 6.37953 8.29678 6.29086C8.45928 6.27601 8.54795 6.34984 8.5626 6.49769L8.81377 6.35726L8.93936 6.34984L8.94658 6.468C8.954 6.58617 8.0751 7.27308 6.29521 8.52855L6.43564 8.75023L6.31006 8.75765L6.03682 8.66156C6.04424 8.73539 5.91865 8.78715 5.66006 8.80922L5.6749 8.94222L5.97021 9.26722C5.87432 9.27465 5.74131 9.24496 5.57158 9.18597C4.99541 9.23754 4.43408 9.65121 3.88018 10.434L4.02061 10.6557C4.50068 10.2125 4.78115 9.99105 4.8624 9.98363L4.89209 10.3455C4.81084 10.3528 4.68525 10.4045 4.51533 10.4932L4.81826 10.951C5.39019 10.333 6.03782 9.78954 6.7458 9.33363C7.09287 9.4223 7.27764 9.53304 7.28486 9.65121L7.55088 9.62914C9.45635 8.2184 11.3396 7.19925 13.2081 6.57152L13.2304 6.8225C12.8831 7.33949 12.6468 7.6055 12.5212 7.62015C12.536 7.7975 12.5952 7.95258 12.706 8.08558C12.7354 8.40316 11.886 10.545 10.1653 14.5036C6.2583 23.7059 2.9792 30.5153 0.312988 34.917C0.32041 35.0057 0.372168 35.1239 0.468066 35.2715C1.12549 35.1164 1.53896 34.9541 1.71631 34.7989L1.85654 34.7842L1.87881 35.0352L2.12236 35.0131L2.37354 34.8729C2.38096 34.9467 2.46221 34.9836 2.63213 34.9688L2.6542 35.22C2.67627 35.4637 2.53604 35.8328 2.24053 36.3424C1.97471 36.6453 1.68662 37.2805 1.38389 38.2481L1.39131 38.3661L1.63506 38.344C2.69854 37.1549 3.50361 35.9879 4.05752 34.8506C7.15947 33.9422 9.52275 33.0485 11.1624 32.1698C12.8093 32.0293 14.0647 31.5936 14.9216 30.8772L14.9067 30.7444L14.2864 30.9289L14.146 30.9438L14.1313 30.8108C15.3425 30.6262 16.1771 30.3602 16.6425 29.9911C18.9983 28.1741 20.7782 26.8891 21.9821 26.1284C24.4563 24.3116 26.0663 22.5389 26.7976 20.8182C26.9304 20.7885 27.0634 20.759 27.211 20.7221C27.5581 20.7075 27.7503 20.7 27.8019 20.6852C27.7872 20.6188 27.8167 20.5819 27.8831 20.567C28.437 20.508 28.1712 20.6039 28.5257 20.5227L29.4563 20.3086L29.6114 20.2715L29.5376 20.3159C29.6409 20.3307 29.7517 20.3233 29.8772 20.2938L29.9437 20.567L25.7118 27.2952L24.7739 28.4696L24.3159 30.0057L24.4046 29.9836L24.8624 29.7916L24.7147 30.3899L24.7591 30.567L24.8847 30.7221C24.8255 30.7369 24.8034 30.7739 24.8181 30.8403L24.8403 30.9364L25.0323 30.892C25.313 30.6483 25.4312 30.4268 25.3868 30.2274C25.6896 30.2789 25.889 30.3012 25.9925 30.2717L26.0145 30.3676C25.83 30.4119 25.7339 30.5596 25.7192 30.8108L25.7413 30.9067L25.8448 30.8846C27.381 29.208 31.1476 23.4696 34.1683 19.5774C34.0722 19.1565 35.6454 18.5729 38.895 17.8196L38.9983 17.7975C39.1165 18.3071 38.8655 19.5405 38.245 21.4977C37.8462 22.6793 37.6542 23.3291 37.6837 23.4327C37.1667 25.0057 36.923 25.8551 36.9526 25.9879L35.8005 29.7619C35.0544 31.6971 34.4858 33.728 34.087 35.8698C34.1534 35.8551 34.2569 35.8625 34.4046 35.8994L34.5671 35.759C34.5817 35.8256 34.6261 35.8477 34.6927 35.8328L34.6261 35.5596L35.1284 35.545C35.2761 35.508 35.4017 35.3233 35.505 34.9836C35.4829 34.4741 35.5862 34.2008 35.8151 34.1416C36.1253 32.9305 36.3175 32.3248 36.3839 32.3026C36.672 31.0989 36.886 30.4119 37.0265 30.242C37.4622 28.6764 37.7798 27.8713 37.9866 27.8196L38.031 28.0116L37.7134 28.8315C37.1593 31.2909 36.5981 33.2332 36.0294 34.6586L36.1919 35.3676L36.2952 35.3455C37.669 32.3912 39.6483 26.5418 42.2259 17.7975C42.2997 17.0293 42.669 16.4311 43.3263 16.0102L43.1786 15.8551L43.1563 15.7739C43.4519 15.7073 43.6587 15.5893 43.7769 15.4268C43.762 15.3602 43.5036 15.2643 43.0013 15.1313L44.2864 9.62172C44.5671 9.37054 44.7296 9.23773 44.7812 9.23773L44.8034 9.5182C44.737 9.52562 44.6335 9.56254 44.5153 9.64379L44.7591 9.99105C45.2022 9.51097 45.6823 9.0973 46.2065 8.75023C46.4726 8.82406 46.6054 8.91273 46.6202 9.00121L46.8122 8.98656C48.2745 7.91566 49.7073 7.1475 51.1181 6.68226L51.1327 6.86683C50.8743 7.25824 50.697 7.45765 50.6011 7.46508C50.6157 7.59808 50.6526 7.71625 50.7192 7.81957C50.7413 8.06332 50.1062 9.68812 48.8063 12.7014C45.8374 19.6807 43.3483 24.8432 41.3247 28.1963C41.3321 28.2627 41.3765 28.3514 41.4577 28.4696C41.9526 28.3514 42.2702 28.2258 42.3958 28.1077L42.4843 28.1002L42.4991 28.2848L42.706 28.2702L42.8905 28.1741C42.8979 28.2258 42.9644 28.2479 43.0899 28.2407L43.1048 28.4401C43.1194 28.6172 43.0161 28.8979 42.7872 29.2819C42.5729 29.511 42.3515 29.991 42.1151 30.7221L42.1224 30.8182L42.3146 30.8034C43.1194 29.9024 43.7325 29.0161 44.1534 28.1446C46.5095 27.4504 48.3042 26.7782 49.5448 26.1135C50.8079 26.0028 51.7605 25.6778 52.4105 25.1313L52.403 25.0352L51.923 25.1756L51.8196 25.183L51.8122 25.087C52.728 24.9539 53.3706 24.7473 53.7177 24.4741C55.505 23.1002 56.8565 22.118 57.7724 21.5418C60.6231 19.4666 61.9526 17.4725 61.7901 15.5596ZM61.3026 15.6852L61.369 16.4311C61.2806 16.6159 61.1845 16.7118 61.0958 16.7192L60.9851 15.4489C61.1919 15.5227 61.2952 15.5965 61.3026 15.6852ZM5.37939 9.67347L5.254 9.6807L5.23174 9.45179L5.74131 9.40746L5.74873 9.52562C5.66748 9.53304 5.54189 9.57738 5.37939 9.67347ZM2.89053 34.57C2.59521 34.4369 2.3292 34.3854 2.10029 34.4075L2.0708 34.0455C2.05596 33.9053 2.13721 33.8092 2.31455 33.7723C2.47686 33.7577 2.57295 33.8758 2.58779 34.1121C3.01611 33.5877 3.25244 33.3219 3.29678 33.3145L3.57002 33.4252C3.48135 34.1637 3.25244 34.5405 2.89053 34.57ZM29.4858 6.74867C29.3603 6.76351 29.1091 6.37211 28.7474 5.59652L28.7251 5.36761C28.9614 5.34554 29.2052 5.72953 29.4636 6.51976L29.4858 6.74867ZM29.1313 3.99398L29.0278 4.23773L25.4163 2.7309C27.8241 2.81215 29.0649 3.23324 29.1313 3.99398ZM13.8802 17.0885L13.3706 17.1328L13.3485 16.9037L13.8581 16.8594L13.8802 17.0885ZM13.4665 9.22289L13.5921 9.21547L13.6218 9.57738C13.5036 9.5848 13.3485 9.76195 13.1563 10.1018L13.1343 9.85062C13.3632 9.57738 13.4813 9.37054 13.4665 9.22289ZM12.3956 11.7487L12.4399 12.2287L12.3146 12.2362L12.2702 11.7561L12.3956 11.7487ZM11.8345 12.6498L12.0782 12.6276C12.056 13.0264 11.9452 13.2407 11.7458 13.2553L11.6202 13.2627C11.7753 12.9969 11.8491 12.7901 11.8345 12.6498ZM11.4134 13.9053L11.5538 13.8905L11.561 14.0086L11.3321 14.3928L11.0884 14.4149L11.0812 14.2967C11.3249 14.2746 11.4356 14.1491 11.4134 13.9053ZM10.9999 15.0354L10.9261 15.6409L10.8005 15.6483L10.7487 15.05L10.9999 15.0354ZM6.85654 26.8153C6.69404 27.6424 6.51689 28.0633 6.33213 28.0782L6.3249 27.96C6.28057 27.5537 6.45771 27.1698 6.85654 26.8153ZM6.0958 28.4621L6.10322 28.5803C6.11807 28.7428 6.04424 28.8389 5.88174 28.8461L5.87432 28.728C5.85947 28.5877 5.9333 28.4991 6.0958 28.4621ZM5.87432 31.8817L6.2583 31.8448L6.27314 31.9778C6.17705 31.985 6.05147 32.0368 5.89639 32.1254L5.65264 32.1475C5.63799 32.0219 5.71924 31.926 5.87432 31.8817ZM16.8048 28.5065C14.6483 29.57 13.378 30.2938 13.0013 30.6703C10.6675 31.4828 9.50791 31.985 9.53018 32.1844C7.45479 33.0043 6.08838 33.6098 5.43115 33.9866C5.27607 34.0012 5.05459 33.9422 4.75908 33.8092C4.72217 33.3883 4.91416 33.0485 5.32041 32.7752C5.68232 32.7457 6.02939 32.7975 6.36182 32.9377C6.7458 32.7383 7.41787 32.5168 8.37061 32.2805L8.34853 32.0293L7.58037 32.0957C7.67627 31.9629 8.41494 31.6159 9.80342 31.0545L10.1874 31.0176L10.1948 31.1358C9.5376 31.1948 9.17568 31.3868 9.09443 31.734C9.10908 31.8891 9.19775 31.9555 9.36025 31.9407C9.85518 31.6305 10.0987 31.4459 10.0915 31.3942C11.0294 31.217 13.6218 29.858 17.8685 27.3248L17.8905 27.5537C17.8979 27.6645 17.536 27.9746 16.8048 28.5065ZM10.2909 30.6483C10.9112 30.5965 11.4431 30.3455 11.886 29.9098C12.0634 29.895 12.1595 29.9614 12.1667 30.1164C11.864 30.1461 11.2806 30.3971 10.4312 30.8846L10.3056 30.892L10.2909 30.6483ZM20.8005 22.5758L17.5435 25.1608C15.121 26.7487 13.8212 27.5463 13.629 27.5612C9.77393 29.6807 7.37354 30.7813 6.44307 30.8625L6.30264 30.8772C6.4208 30.4414 8.13428 26.9334 11.4577 20.3307C12.92 20.2051 15.2243 19.5256 18.3632 18.285L19.1313 18.2184C20.7192 18.0782 21.9083 18.3883 22.6911 19.1268L22.7354 19.6069C22.1521 21.2983 21.5021 22.2879 20.8005 22.5758ZM14.4341 18.994L14.9585 18.9496L14.9659 19.0678L14.4415 19.1121L14.4341 18.994ZM21.7976 17.7457L22.1815 17.7088C22.536 17.8787 22.7206 18.0264 22.7354 18.1594L22.7429 18.2776C22.403 18.3071 22.0854 18.1297 21.7976 17.7457ZM22.8388 11.8153C22.4991 12.2213 21.5685 12.9157 20.0472 13.8905C19.5448 13.9348 17.6763 14.6586 14.4415 16.0766C14.2798 16.0027 14.1016 15.9722 13.9245 15.9879L13.9024 15.759C13.8655 15.2938 14.0722 14.7104 14.5302 14.0014C14.7812 12.6719 15.0546 11.9112 15.3573 11.7266L18.053 5.66312C18.0235 5.28636 18.5995 4.99828 19.7812 4.79886L20.1653 4.76195L20.1948 5.10922C21.3544 4.93187 22.078 4.82855 22.3587 4.80629C24.5007 4.62172 25.6157 5.05746 25.7044 6.09886L25.9481 6.0766L25.8964 5.46371L26.1624 5.44144C26.7901 5.78851 27.1298 6.20961 27.1741 6.70433C27.2036 7.04418 27.019 7.46508 26.6276 7.96742C26.4651 7.98207 26.369 7.8639 26.3544 7.62757L26.0884 7.64984L26.0294 8.38832C24.9437 10.0131 24.1534 10.8477 23.6661 10.892C23.2229 11.5049 22.9497 11.8078 22.8388 11.8153ZM24.4933 16.0619C24.2716 15.9141 24.0944 15.8477 23.9614 15.8551L23.9319 15.4932L24.1757 15.4709L24.7147 15.7887C24.737 15.9584 24.663 16.0471 24.4933 16.0619ZM26.2067 18.0928C26.4431 18.1889 26.5833 18.2922 26.6128 18.3883L26.4946 18.4178L26.5021 18.4252C26.48 18.4252 26.4503 18.4327 26.4282 18.4401L26.2509 18.5803L26.2067 18.0928ZM26.369 19.1121L26.347 19.0161L26.6571 18.9422L26.6794 19.0383L26.369 19.1121ZM27.1151 19.9467C27.4327 19.895 27.5878 19.8729 28.1786 19.7399L28.2007 19.8358L27.0782 20.0944C27.0929 20.0426 27.1077 19.9911 27.1151 19.9467ZM28.2081 20.4119C27.7354 20.4563 27.8388 20.3971 27.0854 20.567L27.0634 20.4709L28.0087 20.1682L28.4593 20.0649L28.5036 20.242C28.2968 20.2864 28.4444 20.2864 28.2081 20.4119ZM29.2052 20.1756C29.0944 20.2051 29.0058 20.1536 28.954 20.028L29.2421 19.9614C29.3677 19.9319 29.4489 19.9836 29.4784 20.1092L29.2052 20.1756ZM31.9083 17.2657L31.886 17.1698L32.3515 17.0588L32.3958 17.2362L31.9083 17.2657ZM34.796 34.9762C34.8255 34.8432 34.8329 34.7473 34.8181 34.6807L34.9216 34.6586C35.0472 34.6291 35.121 34.6735 35.1505 34.7916L35.1728 34.8875L34.796 34.9762ZM36.8196 18.0264L36.6128 17.9895C36.2806 18.1225 35.9999 18.2184 35.7708 18.2702L35.5788 18.3145C35.4681 18.344 35.3794 18.2996 35.3351 18.1815L36.6866 17.8713L37.1298 17.6645L37.2776 17.8344C37.0634 17.8787 36.9083 17.9452 36.8196 18.0264ZM37.861 17.694L37.8388 17.5981C37.9054 17.5832 37.9938 17.5317 38.0899 17.4356L39.0501 17.2139L39.0722 17.31C38.5626 17.4356 38.1563 17.5612 37.861 17.694ZM38.0087 15.7516C37.9423 15.7664 37.8536 15.8254 37.7429 15.9141C37.728 15.8477 37.5952 15.8477 37.344 15.9067C37.2997 15.7221 38.0087 15.4637 39.4784 15.1239L39.6853 15.0795L39.7296 15.2569C38.6956 15.5596 38.1194 15.7295 38.0087 15.7516ZM40.5937 12.96C40.4903 14.1342 40.0767 14.7989 39.3454 14.9688L39.3233 14.8729L38.6733 15.1239L38.3854 15.1905C38.2376 15.2274 38.1048 15.22 37.9866 15.183L37.9274 14.9244C37.9054 14.8286 38.8433 13.5286 40.7487 11.0323L40.9702 11.0692C41.0515 11.409 40.9261 12.0368 40.5937 12.96ZM45.1653 9.04554L45.0767 9.05297L45.0618 8.8684L45.446 8.83148L45.4532 8.92738C45.3868 8.94222 45.2909 8.97914 45.1653 9.04554ZM43.2819 27.96C43.0605 27.8565 42.861 27.8121 42.6911 27.827L42.669 27.5463C42.6616 27.4504 42.7206 27.3838 42.8462 27.3469C42.9718 27.3323 43.0456 27.4207 43.0605 27.6127C43.378 27.2067 43.5552 26.9998 43.5921 26.9998L43.7915 27.0811C43.7177 27.6424 43.548 27.9377 43.2819 27.96ZM63.4739 6.83734C63.378 6.84476 63.1933 6.54925 62.9054 5.95101L62.8905 5.76644C63.0751 5.7516 63.2673 6.03968 63.4593 6.63051L63.4739 6.83734ZM63.2081 4.72504L63.1194 4.91703L60.3868 3.7723C62.211 3.83148 63.1563 4.14906 63.2081 4.72504ZM51.6202 14.6735L51.2362 14.7104L51.2214 14.5256L51.6054 14.4887L51.6202 14.6735ZM51.3026 8.69847L51.406 8.69105L51.4282 8.97172C51.3321 8.97914 51.214 9.11215 51.0737 9.37054L51.0589 9.18597C51.2288 8.97172 51.3101 8.80922 51.3026 8.69847ZM50.4976 10.6188L50.5272 10.9807L50.4237 10.9881L50.3942 10.6262L50.4976 10.6188ZM50.0618 11.3055L50.2538 11.2909C50.2317 11.601 50.1505 11.7635 50.0103 11.7782L49.9067 11.7856C50.0175 11.5789 50.0692 11.4164 50.0618 11.3055ZM49.7517 12.251L49.8403 12.2436L49.8478 12.3395L49.6778 12.635L49.4858 12.6498L49.4784 12.5537C49.6778 12.5389 49.7665 12.4356 49.7517 12.251ZM49.4415 13.1077L49.3751 13.5803L49.2864 13.5877L49.2495 13.1225L49.4415 13.1077ZM46.2878 22.0662C46.1624 22.6868 46.0294 23.0043 45.889 23.019L45.8817 22.9377C45.8595 22.6276 45.9925 22.3321 46.2878 22.0662ZM45.7044 23.3145L45.7118 23.3957C45.7267 23.5286 45.6675 23.6024 45.5345 23.6098L45.5272 23.5139C45.5198 23.4178 45.5788 23.3514 45.7044 23.3145ZM45.5419 25.9141L45.8374 25.892L45.8446 25.9879C45.7782 25.9953 45.6749 26.0323 45.5567 26.0989L45.3647 26.1135C45.3573 26.0102 45.4163 25.9438 45.5419 25.9141ZM53.8358 23.3514C52.211 24.1565 51.2435 24.703 50.9407 24.9836C49.1683 25.6039 48.2894 25.9879 48.3042 26.143C46.731 26.7709 45.697 27.2213 45.2097 27.5094C45.0915 27.5168 44.9216 27.4725 44.6999 27.3692C44.6704 27.0516 44.8181 26.793 45.1284 26.601C45.4091 26.5789 45.6749 26.6159 45.9187 26.7192C46.214 26.5715 46.7235 26.409 47.4474 26.2243L47.4327 26.0397L46.8345 26.0914C46.9083 25.9879 47.4769 25.7221 48.5331 25.2938L48.8284 25.2715L48.8358 25.3528C48.3337 25.3971 48.053 25.545 47.9939 25.8108C48.0013 25.9289 48.0751 25.9879 48.2007 25.9733C48.57 25.7295 48.7472 25.5891 48.7472 25.545C49.4563 25.4194 51.4208 24.3854 54.6483 22.4504L54.663 22.635C54.663 22.7088 54.3897 22.9452 53.8358 23.3514ZM48.8876 24.9762C49.3677 24.9319 49.7739 24.7473 50.1136 24.4223C50.2392 24.4149 50.313 24.4666 50.3204 24.5848C50.0987 24.6069 49.663 24.7916 49.0058 25.1461L48.9024 25.1534L48.8876 24.9762ZM56.8788 18.8389L54.4194 20.8182C52.5804 22.0219 51.5833 22.6276 51.4282 22.6424C48.5036 24.2524 46.6866 25.0869 45.9702 25.1461L45.8669 25.1534C45.9556 24.8211 47.2628 22.1549 49.7886 17.1475C50.889 17.0516 52.6321 16.5272 55.0249 15.5819L55.6231 15.5301C56.827 15.4268 57.728 15.6631 58.3188 16.2317L58.3485 16.5936C57.8979 17.8639 57.4104 18.6098 56.8788 18.8389ZM52.0485 16.1209L52.4327 16.084L52.4399 16.1801L52.056 16.217L52.0485 16.1209ZM57.6394 15.1682L57.9349 15.1461C58.2081 15.2789 58.3485 15.3971 58.3558 15.4932L58.3632 15.5745C58.1048 15.5965 57.861 15.4637 57.6394 15.1682ZM58.4149 10.6703C58.1563 10.9807 57.4548 11.5123 56.3101 12.251C55.9261 12.2879 54.5079 12.8344 52.056 13.8979C51.9378 13.8536 51.8048 13.8389 51.6646 13.8461L51.6497 13.6616C51.6202 13.3071 51.7753 12.8639 52.1151 12.3248C52.3071 11.3055 52.5212 10.7369 52.7429 10.6039L54.8034 5.99535C54.7812 5.72211 55.2169 5.50062 56.1032 5.3307L56.3987 5.30863L56.4208 5.5891C57.2923 5.44886 57.8388 5.36761 58.0604 5.34554C59.6853 5.20511 60.5345 5.53011 60.6011 6.32777L60.7931 6.31293L60.7561 5.86976L60.9481 5.85511C61.4208 6.11351 61.672 6.42367 61.7015 6.793C61.7235 7.05883 61.5907 7.38383 61.3101 7.76058C61.1845 7.77523 61.1106 7.68675 61.0958 7.49457L60.9038 7.50941L60.8448 8.06332C60.0249 9.31156 59.4267 9.95394 59.0501 9.98363C58.7177 10.434 58.5108 10.6631 58.4149 10.6703ZM59.279 13.7428L59.2569 13.4621L59.4489 13.4475L59.8624 13.6985C59.8698 13.8166 59.8108 13.8832 59.6853 13.8979C59.5079 13.7871 59.3751 13.7354 59.279 13.7428ZM24.8993 31.6823L24.7073 31.7266L24.5448 31.8668C24.5745 31.985 24.6483 32.0293 24.7739 31.9998C24.8993 31.9703 24.9511 31.8965 24.9216 31.7784L24.8993 31.6823ZM24.1683 30.2274L24.1903 30.3233C24.3159 30.2938 24.3677 30.22 24.3382 30.1018L24.3159 30.0057C24.1978 30.0352 24.146 30.1092 24.1683 30.2274ZM29.3972 20.4045L29.5376 20.3159C29.5079 20.3159 29.4858 20.3084 29.4636 20.3012C29.412 20.3159 29.3897 20.3528 29.3972 20.4045ZM29.3677 17.8565L29.5892 17.8049L29.5448 17.6127L29.3233 17.6645L29.3677 17.8565ZM81.5612 25.3159L81.0589 25.2569L80.9702 25.4489L80.9776 25.545L83.9688 25.2938L83.954 25.1092L81.5612 25.3159ZM84.2938 25.087L84.3085 25.2715H84.338L84.3233 25.087H84.2938ZM96.8417 23.4473L96.8565 23.6321L97.1815 23.6911L97.1667 23.5065L96.8417 23.4473ZM96.3839 23.4842C94.1388 23.9866 93.8581 23.8979 93.3855 23.9348L93.4001 24.1194L93.6069 24.1047L93.7177 24.0973L93.6882 24.0752L93.9319 23.9791C96.155 23.7354 96.4134 23.8241 96.3913 23.5729L96.3839 23.4842ZM82.9054 20.22L82.706 20.1536C82.5435 20.5891 82.4622 20.8477 82.4696 20.9215L82.4769 21.0028C82.6321 20.9953 82.7724 20.7295 82.9054 20.22ZM80.2022 18.7651L80.1948 18.669L80.0915 18.6764L79.9067 18.7946L80.0103 18.9717C80.1505 18.9571 80.2169 18.8905 80.2022 18.7651ZM86.0737 24.8358L86.0589 24.6512L85.9999 24.6586L86.0145 24.8432L86.0737 24.8358ZM98.2599 22.0885L98.4001 22.0737C98.4813 22.0662 98.5183 21.9998 98.5108 21.8817L98.4296 21.7043C97.92 21.7487 97.6837 21.7709 97.2702 21.9998L97.2628 21.9037L96.6497 21.9629C96.6351 21.7782 96.5833 21.6823 96.5021 21.6897L96.1845 21.7192C95.8151 21.7487 95.638 21.734 95.4532 21.8743C95.446 21.8078 95.4237 21.7782 95.3868 21.7782L95.0323 21.8078L94.8255 21.926C94.8181 21.8594 94.796 21.8299 94.7591 21.8299L94.6335 21.9407L94.6261 21.8448L94.1313 21.8078L94.0132 21.8153L94.0278 21.9998L94.279 22.0662L94.5153 22.0516C94.5966 22.1032 94.6853 22.118 94.7886 22.1106L94.9954 22.0073L95.0028 22.0885C93.8433 22.3764 93.8507 22.3248 93.053 22.4577C92.9644 22.3987 92.8979 22.3692 92.8536 22.3764L92.8388 22.3912C92.7503 22.3838 92.6985 22.3248 92.6911 22.2287L93.1048 22.177C93.1343 22.177 93.1563 22.2067 93.3853 22.251C93.7177 22.0885 93.7325 22.0219 93.9097 22.0073L93.895 21.8225C92.7575 22.0442 93.2155 21.8963 91.7901 22.0219L91.7235 22.0293L91.7089 21.8448C93.5405 21.6231 92.9274 21.7487 93.5552 21.5715C93.5626 21.6379 93.5849 21.6674 93.6218 21.6674C93.6891 21.5987 93.7774 21.5545 93.8728 21.5418L93.9983 21.5346C94.6409 21.4828 94.8552 21.6084 96.1255 21.2539L96.1327 21.3352L96.3396 21.2317L96.5315 21.217C96.5169 21.0323 96.7976 21.0028 96.8935 20.9953L96.8788 20.7959C94.6483 21.2465 94.0648 21.1209 93.4444 21.2983L93.437 21.217C92.8536 21.3203 92.8315 21.276 92.6837 21.2834C92.6394 21.2909 92.573 21.3278 92.4991 21.4016C92.4917 21.3352 92.4696 21.3055 92.4253 21.3055C92.403 21.3055 92.3958 21.3129 92.3884 21.3129L90.4976 21.6231C90.4903 21.5715 90.4681 21.5418 90.4237 21.5493C89.4415 21.7561 89.7073 21.793 88.3927 21.9112C88.3337 21.9186 88.2524 21.9481 88.1491 22.0145C88.1417 21.9629 88.112 21.9334 88.0456 21.9407L87.2405 22.0073L86.7015 22.1401C86.694 22.0885 86.6646 22.0588 86.5981 22.0662C86.2952 22.1475 86.0294 22.1993 85.8151 22.2139H85.8005C85.6675 22.2287 85.8669 22.177 85.7636 22.1328L85.6011 22.2287C85.3647 22.251 85.4903 22.2139 84.6778 22.2213C83.2524 22.3987 83.4075 22.4207 83.2524 22.4282L82.7206 22.3912C82.728 22.443 82.6985 22.4799 82.6394 22.4799C82.0339 22.3987 81.7237 22.3026 81.7163 22.1918C81.7976 21.6159 81.9378 21.3203 82.1372 21.3055L82.2407 21.2983L82.152 21.4903L82.2554 21.4828C82.4474 21.3793 82.536 21.2834 82.5286 21.1948L82.514 20.9953L82.3218 21.0102L82.3071 20.8254C82.2923 20.6852 82.3146 20.5596 82.3661 20.4563L82.8018 19.7545L82.8167 19.9393L83.0235 19.9244L83.0087 19.7399L82.8905 19.57C83.0456 19.4369 83.1638 19.3631 83.2599 19.3557L83.2524 19.2598L82.9718 19.2819L82.9497 19.0012C83.511 17.8344 83.7769 17.1549 83.762 16.9629L83.9614 17.0442C84.087 17.0368 84.146 16.9629 84.1388 16.8299L83.9466 16.8448L83.9394 16.7635C83.9257 16.6287 83.9513 16.4927 84.0132 16.3721C84.3159 16.0545 84.4563 15.7369 84.4267 15.4045C84.4858 15.3971 84.5153 15.4268 84.5228 15.4932C84.7813 15.3455 84.9808 14.9539 85.1284 14.3041C85.5862 13.477 86.2362 11.8225 87.0854 9.34847C88.7104 4.97621 88.6438 4.51097 88.8727 3.47699L88.6808 3.49164C88.6956 3.62465 88.6661 3.75023 88.6069 3.8684C88.4739 3.81664 88.3706 3.78715 88.2968 3.79457L88.2894 3.71332C88.2599 3.33656 88.4149 2.88617 88.7694 2.35433L88.8581 2.34691L89.0206 2.98207L89.2126 2.96742C89.2052 2.92308 89.2569 2.67191 89.3603 2.20668C89.3528 2.11058 89.279 2.0516 89.1313 2.04418L88.9468 2.16234C88.9319 2.02933 88.9394 1.68226 88.9614 1.12836L88.8653 1.13578C88.703 0.973279 88.6218 0.840271 88.6144 0.729529L87.5581 0.832849C87.5509 0.759021 87.514 0.648279 87.4399 0.507849C87.4327 0.411951 87.669 0.315857 88.1563 0.219958L88.3706 0.301208L88.57 0.183044C88.5774 0.249451 88.6143 0.278943 88.6882 0.271521L88.8876 0.153357C88.895 0.219958 88.9319 0.249451 89.0058 0.242029L89.1019 0.234607L89.087 0.0205444C88.9394 0.0351929 88.548 0.0351929 87.9274 0.0131226L87.728 0.14613L87.7206 0.0279663C82.7649 0.434021 79.9511 0.663123 79.279 0.729529C79.1903 0.736951 78.8433 0.729529 78.2304 0.714685C78.2376 0.795935 78.1638 0.840271 78.0161 0.855115L77.8019 0.759021L77.0782 0.943787C76.9083 0.958435 76.6202 0.951013 76.2214 0.906677C76.1106 0.995349 75.9776 1.04711 75.8151 1.06195C75.7267 1.06918 76.8714 1.00277 77.9349 0.928943C77.8241 1.01761 77.6542 1.06918 77.4179 1.09144C77.2554 1.10609 77.1151 1.08402 76.997 1.01761C76.8345 1.09144 76.3101 1.20961 75.4312 1.38676L75.2171 1.30551L71.7607 1.83734C71.6276 1.77093 71.4726 1.74867 71.2952 1.76351C71.1106 1.77816 70.8005 1.84476 70.3722 1.96293L68.703 2.65707L68.8284 2.8639C68.9097 2.85648 69.0278 2.81215 69.1683 2.7309L69.7591 2.78265L69.6853 3.33656C69.1388 3.58031 68.8212 3.94222 68.7325 4.40004C67.9128 4.76195 67.5065 5.02054 67.5065 5.17562L67.514 5.27152L67.6394 5.26429L67.861 5.14613L68.1194 5.45629L68.1563 5.88461C68.1712 6.01761 66.7901 8.91996 64.0278 14.5922C61.6351 20.0575 60.3794 23.0487 60.2612 23.5877C59.4415 23.8166 58.9688 24.1491 58.8284 24.5922C58.8433 24.7325 59.087 24.8286 59.5597 24.8655L59.5817 25.0795L59.3677 25.434L59.4046 25.8625C59.4267 26.084 60.0249 26.2539 61.1993 26.3721C61.1919 26.2983 61.2288 26.2539 61.3101 26.2465C61.3321 26.5123 61.2583 27.0293 61.0884 27.7975L61.214 27.7901C61.7015 27.1254 61.9304 26.6674 61.9083 26.4164L62.0116 26.409C62.1298 26.4016 62.2554 26.5346 62.403 26.8225C62.2554 26.8817 61.7384 28.0559 60.8521 30.3528L60.9776 30.5596L61.1032 30.5522C62.189 27.8049 62.8685 26.2834 63.1489 25.9953C64.5745 25.8698 67.0411 25.6188 70.5419 25.242L70.7636 25.109C70.7708 25.183 70.8151 25.22 70.8964 25.2125L71.1255 25.1903L71.347 25.0575C71.3544 25.1313 71.3987 25.1682 71.48 25.1608L74.1313 24.9319C74.8329 24.8727 75.1653 24.6586 75.1356 24.2967C75.1284 24.2006 75.5419 24.0899 76.3765 23.9717C76.4577 23.9643 76.5759 23.9866 76.7384 24.0381C76.731 23.9717 77.152 23.9053 77.994 23.8315C78.0161 23.3883 78.1563 23.152 78.4075 23.1297L78.3854 22.9157C78.1491 22.9377 77.8831 22.9969 77.573 23.1002C77.019 23.0707 76.6646 23.0264 76.5169 22.9746C76.369 23.0559 76.2583 23.1002 76.1771 23.1077L74.3308 23.1666L74.1091 23.2848C74.1017 23.2184 74.0575 23.1889 73.9763 23.1963L73.8728 23.2036L73.6364 23.3219C73.629 23.2553 73.437 23.2036 73.053 23.152L72.8167 23.2922L72.3589 23.3291L72.3515 23.211C74.7296 22.9526 75.9038 22.6276 75.8743 22.2436C76.0294 22.2287 76.1106 22.3026 76.1253 22.4577L76.8196 22.2805L76.7976 22.0662L71.1032 22.2213C71.1106 22.2952 71.0737 22.3395 70.9925 22.3469L70.2981 22.2879C70.121 22.3026 69.9733 22.3543 69.8552 22.443L69.5966 22.3469C68.8802 22.4061 68.3483 22.4946 67.9939 22.6055C67.5065 22.5686 66.9673 22.5758 66.369 22.6276L65.0915 22.7383L64.5007 22.6719C64.471 22.2952 65.2022 20.4414 66.7089 17.118C67.1446 15.9953 67.5435 15.2938 67.9274 15.028C68.0087 15.0205 68.1269 15.05 68.2894 15.1164L69.1978 14.8063L69.663 14.8801C70.446 14.8137 71.3544 14.5922 72.3958 14.208C72.6542 14.186 72.8462 14.2008 72.9866 14.2598L73.6808 14.0973L75.7487 13.92C76.6276 13.8461 77.5804 13.6541 78.6144 13.3366L78.5921 13.1225C78.2081 13.1594 78.0087 13.0928 77.994 12.9377C77.9718 12.6498 77.6911 12.5315 77.152 12.5758L77.1298 12.3618L77.6985 12.1993L79.1903 12.0737L79.1683 11.8596C79.1091 11.8668 78.8063 11.8596 78.245 11.8373L78.2229 11.6084L78.7989 11.5567C78.954 11.542 79.0206 11.468 79.0058 11.3203C78.2304 11.3424 77.8388 11.3055 77.8315 11.2022C72.4253 11.468 69.7147 11.5198 69.7001 11.3498C69.6188 11.3573 69.5079 11.409 69.3603 11.4977L69.22 11.276C70.6526 8.23324 71.4946 6.69691 71.7384 6.67484C71.7458 6.793 71.6866 6.985 71.561 7.24359L71.5685 7.33949L71.7976 7.31742C72.3661 5.95843 72.8462 5.25687 73.245 5.22738C74.9436 5.07953 73.0087 4.96879 76.6425 4.40004C76.7901 4.46664 76.8935 4.49613 76.9673 4.48871C78.3927 4.20062 80.3794 3.89789 82.9274 3.58773L82.9126 3.37347L81.5538 3.49906L81.539 3.2848C81.7015 3.27015 81.8345 3.2184 81.9452 3.12972L81.9526 3.24789C82.0265 3.24066 82.1298 3.1889 82.2628 3.10023C82.4991 3.07816 82.6763 3.10023 82.8018 3.16664C83.2745 3.04125 83.6587 2.96722 83.9394 2.93773L84.7886 2.85648C84.9954 2.72367 85.0915 2.60551 85.0841 2.49457L85.0767 2.39867C84.8624 2.42074 84.6188 2.40609 84.3308 2.35433C84.3233 2.23617 84.3823 2.15492 84.5228 2.11801L86.1032 1.97035L86.827 1.78558C86.8345 1.86683 86.8714 1.89633 86.9304 1.89633C87.0042 1.8891 87.1077 1.83734 87.2405 1.74867C87.2776 1.75609 87.3218 1.75609 87.3587 1.76351C87.2628 1.96293 87.1521 2.25101 87.0411 2.62758L86.8345 2.64242C86.8196 2.50199 86.7827 2.3764 86.7163 2.26566L86.6128 2.27308C84.6927 7.62015 83.8358 10.1092 82.0634 14.2155C81.7384 15.2643 81.4651 15.8477 81.2288 15.9733C81.2362 16.0914 81.3101 16.1504 81.4356 16.1358C81.48 16.6528 81.3618 17.1623 81.0737 17.6645C80.2538 20.028 79.7073 21.3203 79.4267 21.5567L79.6114 22.6719C79.6187 22.7901 79.5597 22.8565 79.4341 22.8713L79.2421 22.8862C79.2126 22.5758 79.1017 22.4282 78.9024 22.4504L78.7989 22.4577C78.5478 22.8491 78.3558 23.2996 78.2304 23.8241L78.4224 23.8092C78.6808 23.6395 78.7989 23.4401 78.7769 23.211L79.1608 23.1741L79.3823 23.2553C79.2052 23.536 79.1239 23.7577 79.1388 23.9274L79.2421 24.1047L78.9909 24.6955L78.9983 24.7916C79.22 24.7694 79.4636 24.8432 79.7222 24.9983C79.8993 24.9836 80.0915 24.9024 80.3056 24.7619C80.5272 24.7399 81.3544 24.7325 82.7798 24.7325L83.4962 24.4887C84.3677 24.4813 84.5079 24.5036 85.2612 24.4369L85.5714 24.4075L85.7339 24.2967L85.7413 24.3928C86.5315 24.3262 86.5833 24.378 87.2036 24.4518L87.211 24.5479L86.7753 24.5848L86.7901 24.7694C86.923 24.7545 87.0411 24.7176 87.1372 24.6364C87.2479 24.6291 87.3144 24.6881 87.3218 24.8211C87.1446 24.8358 86.9452 24.8801 86.7235 24.9539L86.5315 24.8875C86.2288 24.9688 86.2952 24.9909 86.0884 25.0057L85.7856 24.9467C85.7931 24.9983 85.7636 25.0352 85.7118 25.0352C85.7192 25.1534 85.7856 25.2125 85.8964 25.2051L86.2065 25.1756L87.8241 25.0352L88.437 24.9024C88.4444 24.9539 88.4665 24.9836 88.5183 24.9762L88.8138 24.8655L89.3677 24.8211C89.796 24.7842 89.7886 24.7545 90.7192 24.6069C90.7118 24.5479 90.7339 24.5256 90.7782 24.5182L90.7856 24.5994C92.2997 24.3411 92.3956 24.3262 92.6394 24.245L92.6616 24.2893C93.0382 24.2006 92.8241 24.2229 92.9274 24.1491C92.9349 24.2155 92.9569 24.245 92.9939 24.245L93.2599 24.2229L93.245 24.0235L92.706 24.0161L92.6985 24.0012C92.6763 24.0086 92.6616 24.0086 92.6394 24.0161H92.5655V24.0309C92.2036 24.1047 92.1962 24.053 91.9599 24.0752L90.6083 24.1491L90.6011 24.053L91.3544 23.9496L91.6276 23.9274L91.7827 23.8166L91.7901 23.9127C92.8536 23.8241 93.2302 24.0899 98.1489 23.0412C98.4149 23.019 98.3927 22.7975 98.5626 22.3395C98.4725 22.3457 98.3827 22.3252 98.3042 22.2805C97.8979 22.4356 97.6837 22.3618 96.9009 22.4873C96.8345 22.4948 96.7827 22.4356 96.7605 22.3174L96.753 22.2362L97.5063 22.2582C97.6468 22.2436 97.92 22.2213 98.3263 21.9924C98.3263 22.0588 98.1712 22.0957 98.2597 22.0885H98.2599ZM61.8935 22.6719L61.5464 22.7014C61.5315 22.5612 61.7163 22.0293 62.1003 21.1209L62.3292 21.0989C62.3366 21.3129 62.1962 21.8373 61.8935 22.6719ZM62.3146 20.9879L62.3071 20.892C62.2997 20.7739 62.3735 20.6926 62.536 20.6557L62.5435 20.7516C62.5509 20.892 62.4769 20.9733 62.3146 20.9879ZM66.9304 24.5551L66.9378 24.6512L66.3618 24.703L66.3544 24.6069L66.9304 24.5551ZM66.2362 24.4961C66.2437 24.6143 66.0663 24.7473 65.6823 24.8801L64.9731 24.8286L64.7442 24.8506L64.7222 24.6364L66.2362 24.4961ZM70.9038 3.01156L70.5567 3.04125L70.5493 2.92308C70.5419 2.80492 70.6085 2.72367 70.7562 2.68676L70.8817 2.67933L71.1181 2.77523C71.1253 2.91566 71.0589 2.99691 70.9038 3.01156ZM76.1845 1.97758L76.2952 1.97035L76.3101 2.18441L75.9925 2.2139C75.9851 2.09574 76.044 2.01468 76.1845 1.97758ZM74.855 2.44301L74.3308 2.38383L74.3233 2.28793C75.0103 2.22875 75.2392 2.15492 75.6601 2.03676C75.6675 2.11801 75.7413 2.1475 75.8743 2.13285L75.889 2.34691L75.6823 2.36918C75.5198 2.38383 75.3794 2.36176 75.2612 2.29515C75.1356 2.3764 75.0028 2.42816 74.855 2.44301ZM75.5124 4.3559L75.505 4.2598L76.3544 4.17855L76.3618 4.27465L75.5124 4.3559ZM76.4208 3.61722L76.4134 3.49906L76.8271 3.46215L76.8345 3.58031L76.4208 3.61722ZM76.5169 2.16976L76.406 2.17699L76.5021 1.94808L77.4474 1.85941L77.4548 1.97758C77.211 1.99984 76.8935 2.06625 76.5169 2.16976ZM76.997 4.20804L76.9821 3.99398L77.3958 3.95707C77.536 3.94222 77.6099 4.00863 77.6173 4.15648L76.997 4.20804ZM79.5005 0.795935L78.9688 0.943787L78.8728 0.951013C78.6218 0.973279 78.2968 0.965857 77.9126 0.928943C78.5995 0.884607 79.2569 0.832849 79.5005 0.795935ZM78.9319 3.15941L78.9394 3.25531L78.2081 3.32191L78.2007 3.22582L78.9319 3.15941ZM80.1284 3.72797C80.121 3.63949 79.9806 3.58031 79.6927 3.55082L78.9614 3.75765L78.4001 3.77972C78.2745 3.69105 78.2081 3.63207 78.2007 3.58773L78.8507 3.62465L80.313 3.38832L81.0589 3.41781L81.0663 3.53597C80.697 3.57289 80.3868 3.63949 80.1284 3.72797ZM87.6542 1.78558C87.7429 1.79301 87.8019 1.79301 87.8241 1.79301C88.0825 1.54183 88.3706 1.34242 88.703 1.20218C88.437 2.36918 88.0235 3.23324 87.4548 3.79457L87.0411 3.5434C87.3884 2.66449 87.5952 2.08109 87.6542 1.78558ZM86.3839 3.96429L86.4872 3.95707C86.347 4.22289 86.2214 4.36312 86.1181 4.37054L86.0958 4.08988C86.1624 4.08988 86.2583 4.04554 86.3839 3.96429ZM85.5642 5.92152C85.7636 5.12386 85.9556 4.67347 86.1327 4.55531L86.1401 4.65121C86.0368 5.38968 85.8743 5.78129 85.6601 5.81078L85.697 6.27601C85.5198 6.52718 85.4386 6.71918 85.4458 6.86683L85.3425 6.87426L85.2835 6.23168C85.4017 6.21703 85.4976 6.11351 85.5642 5.92152ZM85.2466 6.985C85.2538 7.09574 85.18 7.35433 85.0323 7.75316L84.929 7.76058L84.9067 7.47992C85.0472 7.15492 85.1653 6.99242 85.2464 6.985H85.2466ZM79.2864 24.2819L79.279 24.2006L79.471 24.186L79.4933 24.4666C79.3897 24.4741 79.3159 24.4149 79.2864 24.2819ZM87.8019 24.5035C87.7944 24.4369 87.7649 24.4075 87.6985 24.4149L87.2185 24.4592L87.211 24.3631H87.2554L88.3927 24.2672L88.4001 24.3631C88.0679 24.378 87.8685 24.4297 87.8019 24.5035ZM87.2333 24.2672C87.2776 24.2893 87.2554 24.3116 87.2333 24.3262C87.211 24.3188 87.1815 24.2967 87.2333 24.2672ZM87.2923 22.9377L86.6571 22.9895L86.6497 22.8934L87.2259 22.8418L87.728 22.7162C87.7355 22.7752 87.7649 22.7975 87.8315 22.7901C88.4298 22.6868 88.3706 22.6571 88.6587 22.635C88.7546 22.6276 88.8138 22.6868 88.8212 22.8049L87.2923 22.9377ZM89.5153 22.7457C89.1608 22.7088 89.1388 22.6793 88.8876 22.7014L88.8802 22.6202L89.4489 22.5686L89.4563 22.6498C89.3972 22.6571 89.6114 22.6719 89.5153 22.7457ZM89.5597 22.6424L89.5522 22.5612L89.8624 22.5315L89.8698 22.6127L89.5597 22.6424ZM90.2466 22.5832L90.2392 22.502C90.2909 22.4948 90.3647 22.4577 90.4606 22.3838C90.6157 22.3692 90.697 22.4725 90.7118 22.5907L90.2466 22.5832ZM91.1255 22.4725L91.1181 22.3764L91.4946 22.3469L91.5021 22.443L91.1255 22.4725ZM91.6497 22.4282C91.6425 22.3174 91.6866 22.251 91.7827 22.2362L91.9083 22.3987C91.9009 22.3469 91.923 22.3174 91.9673 22.31L92.0634 22.4873L91.6497 22.4282ZM98.9171 21.5715L98.9245 21.5641V21.5567C98.9245 21.5567 98.9171 21.5641 98.9171 21.5715ZM99.0501 21.4754C99.1091 21.4385 99.1388 21.4016 98.9983 21.3795C98.9319 21.4534 99.0722 21.4754 98.9245 21.4828L98.9319 21.5493C98.9466 21.5346 98.9837 21.5123 99.0132 21.4903L98.9319 21.5567V21.5641L98.7769 21.7635L99.087 21.6528H99.1239L99.1091 21.468L99.0501 21.4754ZM99.5892 21.8965L99.5302 21.9037L99.5448 22.0885L99.9806 22.0516C99.9733 21.9334 99.6853 21.8965 99.5892 21.8965Z" fill="#F9DC3E"/>
</svg>
