<svg width="101" height="81" viewBox="0 0 101 81" fill="none" xmlns="http://www.w3.org/2000/svg">
<path fill-rule="evenodd" clip-rule="evenodd" d="M20.9788 0.763794C15.2729 0.763794 11.0509 5.75793 11.2399 11.174C11.4214 16.3773 11.1856 23.1163 9.48916 28.612C7.78662 34.1232 4.90928 37.6156 0.208496 38.0638V43.1247C4.90928 43.574 7.78662 47.0646 9.48897 52.5765C11.1856 58.0722 11.4212 64.8113 11.2397 70.0146C11.0507 75.4298 15.2728 80.4247 20.9796 80.4247H79.4458C85.1517 80.4247 89.3729 75.4306 89.1839 70.0146C89.0024 64.8113 89.2382 58.0722 90.9347 52.5765C92.6372 47.0646 95.5075 43.5726 100.208 43.1247V38.0638C95.5077 37.6146 92.6374 34.1239 90.9347 28.612C89.238 23.1171 89.0024 16.3773 89.1839 11.174C89.3729 5.75872 85.1517 0.763794 79.4458 0.763794H20.978H20.9788ZM68.0052 49.8003C68.0052 57.2579 62.4425 61.7808 53.211 61.7808H37.4966C37.0471 61.7808 36.616 61.6022 36.2981 61.2844C35.9802 60.9665 35.8017 60.5354 35.8017 60.0859V21.1029C35.8017 20.6533 35.9802 20.2222 36.2981 19.9044C36.616 19.5865 37.0471 19.4079 37.4966 19.4079H53.1216C60.819 19.4079 65.8708 23.5775 65.8708 29.979C65.8708 34.4722 62.4724 38.4947 58.1429 39.1993V39.4337C64.0366 40.0802 68.0052 44.1622 68.0052 49.8003ZM51.4976 24.7808H42.5374V37.437H50.0841C55.9181 37.437 59.1349 35.0878 59.1349 30.8888C59.1343 26.9536 56.3687 24.7808 51.4976 24.7808ZM42.5374 42.4587V56.4062H51.8272C57.9015 56.4062 61.1188 53.9689 61.1188 49.3884C61.1188 44.8079 57.8112 42.4579 51.4366 42.4579H42.5374V42.4587Z" fill="#7952B3"/>
</svg>
