<svg width="90" height="101" viewBox="0 0 90 101" fill="none" xmlns="http://www.w3.org/2000/svg">
<path d="M89.431 30.0079C89.4304 28.331 89.0717 26.8492 88.3464 25.5775C87.634 24.3269 86.5671 23.2787 85.136 22.45C73.3229 15.6385 61.4984 8.8479 49.6892 2.02949C46.5055 0.191481 43.4186 0.258488 40.2585 2.12288C35.5566 4.89587 12.0155 18.383 5.0006 22.4462C2.11165 24.1186 0.705891 26.678 0.705197 30.0048C0.700684 43.7031 0.705197 57.401 0.700684 71.0996C0.701378 72.7397 1.04475 74.1927 1.73808 75.4453C2.45086 76.7337 3.53269 77.8107 4.99678 78.6582C12.0121 82.7213 35.5562 96.2075 40.2571 98.9811C43.4186 100.847 46.5055 100.913 49.6902 99.0745C61.4998 92.2558 73.325 85.4655 85.1398 78.654C86.6039 77.8069 87.6857 76.7292 88.3985 75.4419C89.0908 74.1892 89.4349 72.7362 89.4356 71.0958C89.4356 71.0958 89.4356 43.7065 89.431 30.0079Z" fill="#5C8DBC"/>
<path d="M45.2041 50.4187L1.73828 75.4454C2.45106 76.7338 3.5329 77.8108 4.99699 78.6582C12.0123 82.7214 35.5565 96.2075 40.2574 98.9812C43.4189 100.847 46.5057 100.913 49.6905 99.0746C61.5001 92.2558 73.3253 85.4655 85.1401 78.6541C86.6042 77.8069 87.686 76.7293 88.3988 75.4419L45.2041 50.4187Z" fill="#1A4674"/>
<path d="M32.3296 57.8318C34.8589 62.2473 39.6136 65.2254 45.0679 65.2254C50.5559 65.2254 55.3377 62.2094 57.8541 57.7467L45.2037 50.4187L32.3296 57.8318Z" fill="#1A4674"/>
<path d="M89.4313 30.008C89.4306 28.3311 89.0719 26.8493 88.3467 25.5775L45.2041 50.4188L88.3987 75.442C89.091 74.1894 89.4351 72.7364 89.4358 71.0959C89.4358 71.0959 89.4358 43.7066 89.4313 30.008Z" fill="#1B598E"/>
<path d="M87.0559 52.2074H83.6806V55.5834H80.3045V52.2074H76.9295V48.8324H80.3045V45.457H83.6806V48.8324H87.0559V52.2074ZM74.7395 52.2074H71.3645V55.5834H67.9891V52.2074H64.6138V48.8324H67.9891V45.457H71.3645V48.8324H74.7395V52.2074Z" fill="white"/>
<path d="M57.8544 57.7469C55.338 62.2097 50.5561 65.2257 45.0681 65.2257C39.6138 65.2257 34.8591 62.2475 32.3298 57.832C31.0592 55.6164 30.392 53.1062 30.3946 50.5522C30.3946 42.4485 36.9644 35.879 45.0681 35.879C50.4874 35.879 55.2171 38.82 57.7589 43.1904L70.5844 35.805C65.4866 27.0052 55.9691 21.085 45.0681 21.085C28.7934 21.085 15.6006 34.2781 15.6006 50.5522C15.6006 55.8912 17.0209 60.898 19.5033 65.2167C24.5882 74.063 34.1328 80.0197 45.0681 80.0197C56.0236 80.0197 65.5831 74.039 70.6607 65.1667L57.8544 57.7469Z" fill="white"/>
</svg>
