<svg width="89" height="100" viewBox="0 0 89 100" fill="none" xmlns="http://www.w3.org/2000/svg">
<path d="M88.7438 0L80.7108 89.9895L44.6023 100L8.5933 90.0036L0.568848 0H88.7438Z" fill="#264DE4"/>
<path d="M73.8337 84.2593L80.6983 7.35913H44.6562V92.3484L73.8337 84.2593Z" fill="#2965F1"/>
<path d="M18.9648 40.7402L19.9542 51.7787H44.6564V40.7402H18.9648Z" fill="#EBEBEB"/>
<path d="M44.6563 18.3977H44.6182H16.9768L17.9803 29.4364H44.6563V18.3977Z" fill="#EBEBEB"/>
<path d="M44.6563 80.8931V69.4083L44.6079 69.4212L32.3142 66.1016L31.5283 57.2979H25.5545H20.4473L21.9938 74.63L44.6055 80.9072L44.6563 80.8931Z" fill="#EBEBEB"/>
<path d="M58.2109 51.7785L56.9296 66.0947L44.6182 69.4177V80.9019L67.2479 74.6301L67.4139 72.7652L70.0078 43.7042L70.2772 40.7401L72.27 18.3977H44.6182V29.4364H60.1726L59.1682 40.7401H44.6182V51.7785H58.2109Z" fill="white"/>
</svg>
