<svg width="101" height="73" viewBox="0 0 101 73" fill="none" xmlns="http://www.w3.org/2000/svg">
<path d="M99.1178 27.6944C98.8465 27.479 96.3147 25.5673 90.9753 25.5673C89.5655 25.5735 88.1586 25.6944 86.7683 25.9289C85.7349 18.8458 79.8789 15.3924 79.6163 15.2375L78.1825 14.4106L77.2395 15.7714C76.0586 17.5993 75.1965 19.6143 74.6905 21.7307C73.7345 25.774 74.3158 29.5717 76.3697 32.8184C73.8895 34.2006 69.9109 34.5408 69.1058 34.5709H3.23427C1.51372 34.5732 0.117581 35.9636 0.108205 37.684C0.0313722 43.4547 1.00906 49.191 2.99313 54.6104C5.26228 60.5612 8.63816 64.9446 13.0302 67.6272C17.9518 70.6413 25.9479 72.3636 35.0117 72.3636C39.1064 72.3765 43.1933 72.0059 47.219 71.2571C52.815 70.2295 58.1999 68.2736 63.1508 65.4699C67.2302 63.1075 70.9016 60.1022 74.0232 56.5696C79.2419 50.6619 82.3509 44.0824 84.663 38.2352H85.5845C91.2984 38.2352 94.8121 35.9487 96.7497 34.0326C98.0374 32.8106 99.0426 31.3219 99.6949 29.6708L100.104 28.4738L99.1178 27.6944Z" fill="#2496ED"/>
<path d="M9.34004 32.6419H18.1671C18.5928 32.6419 18.9378 32.2968 18.9378 31.8712V24.0086C18.9402 23.5828 18.597 23.2359 18.1714 23.2335C18.17 23.2335 18.1685 23.2335 18.1671 23.2335H9.34004C8.91431 23.2335 8.56934 23.5786 8.56934 24.0042V24.0086V31.8711C8.56934 32.2968 8.91431 32.6419 9.34004 32.6419Z" fill="#2496ED"/>
<path d="M21.5042 32.6419H30.3313C30.757 32.6419 31.102 32.2968 31.102 31.8712V24.0086C31.1043 23.5828 30.7612 23.2359 30.3355 23.2335C30.3341 23.2335 30.3325 23.2335 30.3311 23.2335H21.504C21.0759 23.2335 20.729 23.5805 20.729 24.0086V31.8711C20.7315 32.2975 21.0778 32.6419 21.5042 32.6419Z" fill="#2496ED"/>
<path d="M33.8534 32.6419H42.6804C43.1062 32.6419 43.4511 32.2968 43.4511 31.8712V24.0086C43.4535 23.5828 43.1104 23.2359 42.6846 23.2335C42.6832 23.2335 42.6817 23.2335 42.6803 23.2335H33.8532C33.4275 23.2335 33.0825 23.5786 33.0825 24.0042V24.0086V31.8711C33.0827 32.2968 33.4278 32.6419 33.8534 32.6419Z" fill="#2496ED"/>
<path d="M46.0563 32.6419H54.8834C55.3098 32.6419 55.6561 32.2977 55.6585 31.8712V24.0086C55.6585 23.5805 55.3115 23.2335 54.8834 23.2335H46.0563C45.6306 23.2335 45.2856 23.5786 45.2856 24.0042V24.0086V31.8711C45.2856 32.2968 45.6308 32.6419 46.0563 32.6419Z" fill="#2496ED"/>
<path d="M21.504 21.3304H30.3311C30.7574 21.328 31.1018 20.9816 31.1018 20.5554V12.6928C31.1018 12.2671 30.7567 11.9221 30.3311 11.9221H21.504C21.0778 11.9221 20.7314 12.2664 20.729 12.6928V20.5554C20.7314 20.9825 21.0769 21.328 21.504 21.3304Z" fill="#2496ED"/>
<path d="M33.8532 21.3304H42.6803C43.1066 21.328 43.451 20.9816 43.451 20.5554V12.6928C43.451 12.2671 43.1059 11.9221 42.6803 11.9221H33.8532C33.4275 11.9221 33.0825 12.2672 33.0825 12.6928V20.5554C33.0825 20.9816 33.4269 21.328 33.8532 21.3304Z" fill="#2496ED"/>
<path d="M46.0563 21.3304H54.8834C55.3105 21.328 55.6561 20.9825 55.6585 20.5554V12.6928C55.6561 12.2664 55.3098 11.9221 54.8834 11.9221H46.0563C45.6306 11.9221 45.2856 12.2672 45.2856 12.6928V20.5554C45.2856 20.9816 45.6301 21.328 46.0563 21.3304Z" fill="#2496ED"/>
<path d="M46.0563 10.0146H54.8834C55.3098 10.0146 55.6561 9.6702 55.6585 9.24391V1.37691C55.6561 0.950478 55.3098 0.606201 54.8834 0.606201H46.0563C45.6306 0.606201 45.2856 0.951178 45.2856 1.37691V9.24377C45.2856 9.6695 45.6308 10.0146 46.0563 10.0146Z" fill="#2496ED"/>
<path d="M58.3669 32.6419H67.194C67.6204 32.6419 67.9666 32.2977 67.969 31.8712V24.0086C67.969 23.5805 67.6221 23.2335 67.194 23.2335H58.3669C57.9413 23.2335 57.5962 23.5786 57.5962 24.0042V24.0086V31.8711C57.5962 32.2968 57.9413 32.6419 58.3669 32.6419Z" fill="#2496ED"/>
</svg>
