<svg width="94" height="101" viewBox="0 0 94 101" fill="none" xmlns="http://www.w3.org/2000/svg">
<path d="M33.3535 22.2757C20.2853 19.8956 9.95262 22.3874 5.83462 29.5192C2.76167 34.8412 3.63891 41.8984 7.96361 49.4419C8.05111 49.5947 8.16786 49.7287 8.3072 49.8364C8.44653 49.944 8.60572 50.0232 8.77566 50.0693C8.9456 50.1154 9.12296 50.1275 9.2976 50.1051C9.47224 50.0826 9.64074 50.0259 9.79346 49.9383C10.1019 49.7613 10.3274 49.4691 10.4205 49.126C10.5136 48.7828 10.4666 48.4167 10.2899 48.1081C6.39379 41.3138 5.63448 35.2233 8.15587 30.8592C11.5763 24.9345 20.7917 22.712 32.8723 24.9127C33.0907 24.9558 33.3164 24.9439 33.529 24.8781C33.7417 24.8122 33.9345 24.6944 34.0903 24.5354C34.246 24.3763 34.3597 24.181 34.4211 23.967C34.4825 23.7531 34.4896 23.5272 34.4419 23.3098C34.3842 23.0484 34.2496 22.8102 34.0554 22.626C33.8612 22.4417 33.6163 22.3198 33.3522 22.276L33.3535 22.2757ZM14.7593 58.61C20.0429 64.4171 26.9079 69.8635 34.7371 74.3842C53.693 85.3286 73.8735 88.2539 83.8188 81.4722C84.1053 81.269 84.3006 80.9616 84.3627 80.616C84.4249 80.2704 84.3489 79.9142 84.1511 79.624C83.9533 79.3338 83.6496 79.1329 83.3052 79.0643C82.9608 78.9958 82.6032 79.0652 82.3094 79.2575C73.4079 85.3273 54.2379 82.5482 36.0774 72.0629C28.4814 67.677 21.8344 62.4036 16.742 56.8069C16.5649 56.606 16.3317 56.4627 16.0725 56.3955C15.8133 56.3282 15.5399 56.3401 15.2875 56.4295C15.0776 56.5041 14.8897 56.6297 14.7406 56.7951C14.5916 56.9605 14.486 57.1605 14.4336 57.3769C14.3812 57.5933 14.3835 57.8194 14.4404 58.0347C14.4972 58.25 14.6068 58.4477 14.7593 58.61Z" fill="#2DD0ED"/>
<path d="M80.6475 56.98C89.204 46.8718 92.1921 36.7046 88.083 29.5869C85.0592 24.3498 78.6661 21.5847 70.1711 21.4744C69.8158 21.4698 69.4731 21.6065 69.2185 21.8544C68.9638 22.1023 68.818 22.4412 68.813 22.7965C68.8091 23.0617 68.8841 23.322 69.0285 23.5444C69.1728 23.7668 69.38 23.9413 69.6238 24.0457C69.7855 24.1153 69.9594 24.1523 70.1354 24.1547C77.776 24.2534 83.2842 26.6361 85.762 30.9272C89.1745 36.8393 86.5108 45.9061 78.602 55.2489C78.4843 55.3826 78.3944 55.5384 78.3376 55.7073C78.2808 55.8761 78.2583 56.0546 78.2714 56.2323C78.2845 56.41 78.3329 56.5833 78.4138 56.742C78.4947 56.9007 78.6065 57.0417 78.7426 57.1567C78.8786 57.2715 79.0362 57.3581 79.2061 57.4115C79.376 57.4648 79.5548 57.4838 79.7321 57.4673C79.9094 57.4509 80.0816 57.3993 80.2388 57.3157C80.3959 57.232 80.5349 57.1179 80.6475 56.98ZM58.6573 22.7222C50.9203 24.3803 42.6859 27.621 34.7782 32.1866C15.2083 43.485 2.44268 60.1438 4.21632 72.2244C4.23838 72.4015 4.29559 72.5724 4.38459 72.727C4.4736 72.8817 4.5926 73.0171 4.73462 73.1251C4.87665 73.2332 5.03882 73.3118 5.21164 73.3563C5.38445 73.4009 5.56443 73.4105 5.74099 73.3845C5.91755 73.3585 6.08715 73.2976 6.23983 73.2052C6.39251 73.1128 6.5252 72.9908 6.63011 72.8464C6.73501 72.7021 6.81002 72.5382 6.85074 72.3644C6.89145 72.1907 6.89704 72.0106 6.86719 71.8346C5.29369 61.1095 17.3935 45.3175 36.1171 34.5078C43.7887 30.0783 51.7629 26.9413 59.2191 25.3421C59.5561 25.2574 59.847 25.0452 60.0305 24.7503C60.2141 24.4553 60.276 24.1006 60.2031 23.7609C60.1303 23.4212 59.9284 23.1231 59.6401 22.9293C59.3517 22.7355 58.9994 22.6613 58.6573 22.7222Z" fill="#2DD0ED"/>
<path d="M26.954 80.599C31.4297 93.0901 38.7475 100.782 46.9783 100.782C52.98 100.782 58.5331 96.6912 62.8638 89.4877C62.9609 89.3368 63.0267 89.1679 63.0574 88.9911C63.0881 88.8143 63.083 88.6332 63.0424 88.4584C62.9917 88.2394 62.8866 88.0367 62.737 87.869C62.5873 87.7012 62.3978 87.5739 62.186 87.4986C61.9742 87.4233 61.7469 87.4026 61.5249 87.4383C61.303 87.4739 61.0936 87.5649 60.916 87.7027C60.7742 87.8128 60.656 87.9499 60.5683 88.1064C56.6759 94.5804 51.895 98.1032 46.9783 98.1032C40.1427 98.1032 33.6139 91.2421 29.478 79.695C29.4212 79.5258 29.3314 79.3697 29.2136 79.2357C29.0959 79.1017 28.9526 78.9924 28.7922 78.9144C28.6317 78.8366 28.4574 78.7915 28.2793 78.7817C28.1012 78.7724 27.923 78.7986 27.7552 78.8588C27.5873 78.9191 27.4332 79.0122 27.3017 79.1328C27.1703 79.2533 27.0642 79.3988 26.9897 79.5608C26.9151 79.7228 26.8736 79.8981 26.8676 80.0763C26.8617 80.2546 26.8916 80.4323 26.9553 80.599H26.954ZM67.8204 78.1545C70.1364 70.755 71.3793 62.2165 71.3793 53.3188C71.3793 31.1195 63.6102 11.9817 52.5427 7.0673C52.2192 6.93123 51.8553 6.92744 51.5291 7.05673C51.2029 7.18602 50.9404 7.43809 50.798 7.7588C50.6556 8.0795 50.6446 8.44327 50.7675 8.77196C50.8904 9.10065 51.1372 9.36805 51.4551 9.51673C61.326 13.9003 68.7003 32.0622 68.7003 53.3188C68.7003 61.9496 67.4948 70.219 65.2633 77.3545C65.2056 77.5237 65.1823 77.7028 65.195 77.8811C65.2076 78.0594 65.2558 78.2334 65.3369 78.3928C65.4588 78.6329 65.6502 78.8307 65.8862 78.9604C66.1222 79.0901 66.3918 79.1457 66.6598 79.12C66.9279 79.0943 67.182 78.9885 67.389 78.8162C67.596 78.644 67.7464 78.4134 67.8204 78.1545ZM93.0577 76.8426C93.0631 75.997 92.9012 75.1586 92.5813 74.3757C92.2614 73.5929 91.7898 72.881 91.1937 72.2811C90.5977 71.6812 89.8888 71.2051 89.108 70.8803C88.3272 70.5554 87.4899 70.3882 86.6442 70.3882C85.7985 70.3882 84.9612 70.5555 84.1804 70.8804C83.3996 71.2053 82.6908 71.6814 82.0947 72.2813C81.4986 72.8812 81.0271 73.5931 80.7072 74.376C80.3874 75.1588 80.2255 75.9972 80.2309 76.8429C80.2418 78.5367 80.9223 80.1575 82.1239 81.3514C83.3255 82.5452 84.9506 83.2153 86.6444 83.2153C88.3383 83.2152 89.9634 82.5451 91.1649 81.3512C92.3665 80.1572 93.0469 78.5365 93.0577 76.8426ZM90.3774 76.8426C90.3772 77.8327 89.9838 78.7821 89.2837 79.4822C88.5837 80.1823 87.6342 80.5757 86.6442 80.5759C85.9059 80.5758 85.1842 80.3568 84.5704 79.9466C83.9565 79.5364 83.4781 78.9534 83.1956 78.2713C82.9131 77.5892 82.8392 76.8387 82.9832 76.1146C83.1273 75.3905 83.4828 74.7253 84.0048 74.2033C84.5269 73.6812 85.192 73.3257 85.9161 73.1817C86.6402 73.0376 87.3908 73.1115 88.0729 73.394C88.755 73.6765 89.338 74.155 89.7482 74.7688C90.1584 75.3827 90.3774 76.1043 90.3774 76.8426ZM7.21992 83.2562C8.06218 83.2563 8.89622 83.0904 9.67439 82.7682C10.4526 82.4459 11.1596 81.9735 11.7552 81.3779C12.3508 80.7823 12.8232 80.0753 13.1454 79.2971C13.4677 78.5189 13.6335 77.6849 13.6334 76.8426C13.6335 76.0004 13.4677 75.1663 13.1454 74.3881C12.823 73.61 12.3506 72.9029 11.755 72.3073C11.1594 71.7118 10.4523 71.2394 9.67416 70.9171C8.89598 70.5948 8.06193 70.429 7.21965 70.4291C6.37742 70.4291 5.54343 70.5949 4.7653 70.9172C3.98718 71.2395 3.28016 71.712 2.68463 72.3075C2.08909 72.9031 1.6167 73.6101 1.29443 74.3883C0.972162 75.1664 0.806328 76.0004 0.806397 76.8426C0.806328 77.6849 0.972171 78.5189 1.29446 79.2971C1.61674 80.0752 2.08915 80.7823 2.68472 81.3778C3.28028 81.9734 3.98733 82.4458 4.76549 82.7681C5.54364 83.0904 6.37766 83.2562 7.21992 83.2562ZM7.21992 80.5759C6.22959 80.5759 5.27983 80.1825 4.57957 79.4822C3.8793 78.7819 3.4859 77.8322 3.4859 76.8419C3.4859 75.8515 3.8793 74.9018 4.57957 74.2015C5.27983 73.5012 6.22959 73.1078 7.21992 73.1078C8.21024 73.1078 9.16 73.5012 9.86027 74.2015C10.5605 74.9018 10.9539 75.8515 10.9539 76.8419C10.9539 77.8322 10.5605 78.7819 9.86027 79.4822C9.16 80.1825 8.21024 80.5759 7.21992 80.5759Z" fill="#2DD0ED"/>
<path d="M46.9783 13.6092C48.2468 13.6094 49.4869 13.2332 50.5416 12.5285C51.5963 11.8237 52.4183 10.8219 52.9036 9.64989C53.3069 8.67547 53.4638 7.61662 53.3603 6.5671C53.2568 5.51758 52.8962 4.50977 52.3103 3.6329C51.7243 2.75603 50.9313 2.03715 50.0012 1.53992C49.0712 1.04269 48.0329 0.782443 46.9783 0.782227C45.7098 0.782011 44.4696 1.15802 43.4148 1.86269C42.36 2.56736 41.5379 3.56903 41.0524 4.74101C40.5669 5.91298 40.44 7.20261 40.6875 8.44676C40.9351 9.69091 41.5461 10.8337 42.4432 11.7306C43.0388 12.3261 43.7458 12.7985 44.5239 13.1208C45.3021 13.4431 46.1361 13.609 46.9783 13.609V13.6092ZM46.9783 10.9287C46.24 10.9286 45.5182 10.7096 44.9043 10.2995C44.2904 9.88929 43.8119 9.30633 43.5292 8.62426C43.3414 8.17137 43.2448 7.68589 43.2448 7.19561C43.2448 6.70532 43.3414 6.21984 43.5292 5.76695C43.7168 5.314 43.9917 4.90245 44.3384 4.5558C44.685 4.20916 45.0966 3.93422 45.5495 3.74669C46.0596 3.53543 46.6101 3.43991 47.1616 3.46701C47.713 3.49411 48.2515 3.64316 48.7384 3.90342C49.2253 4.16367 49.6484 4.52867 49.9773 4.97211C50.3062 5.41555 50.5326 5.9264 50.6403 6.46788C50.748 7.00935 50.7343 7.56797 50.6001 8.10351C50.466 8.63904 50.2147 9.13817 49.8645 9.56493C49.5143 9.9917 49.0737 10.3355 48.5747 10.5715C48.0756 10.8076 47.5304 10.93 46.9783 10.93V10.9287ZM47.958 57.8559C46.7548 58.1156 45.4978 57.8868 44.4632 57.22C43.6916 56.7227 43.0847 56.0077 42.7195 55.1654C42.3543 54.3232 42.247 53.3915 42.4114 52.4883C42.5757 51.5851 43.0042 50.7509 43.6427 50.0913C44.2812 49.4317 45.101 48.9762 45.9984 48.7826C47.1933 48.5438 48.4341 48.7845 49.4532 49.4526C50.4722 50.1207 51.1876 51.1627 51.4451 52.3537C51.7021 53.5448 51.4806 54.7892 50.8282 55.8184C50.1758 56.8475 49.1449 57.5788 47.958 57.8546V57.8559Z" fill="#2DD0ED"/>
</svg>
