<svg width="101" height="88" viewBox="0 0 101 88" fill="none" xmlns="http://www.w3.org/2000/svg">
<path d="M30.4917 31.5503L49.4644 20.5964C49.6978 20.4616 49.9625 20.3906 50.232 20.3906C50.5015 20.3906 50.7662 20.4616 50.9996 20.5964L69.9722 31.5503C70.2055 31.685 70.3993 31.8788 70.534 32.1122C70.6687 32.3455 70.7397 32.6101 70.7398 32.8796V54.7874C70.7398 55.3354 70.4469 55.8421 69.9722 56.1167L50.9996 67.0706C50.7662 67.2054 50.5015 67.2763 50.232 67.2763C49.9625 67.2763 49.6978 67.2054 49.4644 67.0706L30.4917 56.1167C30.2584 55.9819 30.0646 55.7882 29.9299 55.5548C29.7952 55.3215 29.7242 55.0568 29.7241 54.7874V32.8792C29.7245 32.3307 30.0171 31.8245 30.4917 31.5499" fill="#8080F2"/>
<path d="M99.4183 42.0382L76.7253 2.55884C75.901 1.1315 74.3784 0.0783691 72.7299 0.0783691H27.3435C25.6951 0.0783691 24.1716 1.1315 23.3474 2.55884L0.654786 41.9511C-0.169434 43.3788 -0.169434 45.1808 0.654786 46.6085L23.3474 85.7645C24.1716 87.1918 25.6951 87.9215 27.3435 87.9215H72.7295C74.378 87.9215 75.901 87.2137 76.7249 85.786L99.4179 46.5664C100.243 45.1394 100.243 43.4656 99.4179 42.0382H99.4183ZM80.6272 61.0226C80.6272 61.6027 80.278 62.1398 79.7749 62.4305L50.8689 79.1074C50.6201 79.25 50.3382 79.3251 50.0514 79.3251C49.7645 79.3251 49.4827 79.25 49.2338 79.1074L20.3056 62.4305C19.8029 62.1398 19.4509 61.6031 19.4509 61.0222V27.6675C19.4509 27.0866 19.7978 26.5503 20.3009 26.2597L49.2053 9.58229C49.454 9.43946 49.7358 9.3643 50.0227 9.3643C50.3095 9.3643 50.5913 9.43946 50.84 9.58229L79.7698 26.2597C80.2733 26.5503 80.6272 27.0866 80.6272 27.6675V61.0222V61.0226Z" fill="#4B32C3"/>
</svg>
