<svg width="101" height="100" viewBox="0 0 101 100" fill="none" xmlns="http://www.w3.org/2000/svg">
<path d="M50.8652 0C23.2492 0 0.865234 22.384 0.865234 50C0.865234 77.616 23.2492 100 50.8652 100C78.4812 100 100.865 77.616 100.865 50C100.865 22.384 78.4812 0 50.8652 0ZM11.6092 50.52L50.3452 89.256C29.0732 88.98 11.8852 71.792 11.6092 50.52ZM59.6532 88.276L12.5892 41.212C16.5812 23.76 32.2012 10.736 50.8652 10.736C63.9092 10.736 75.4692 17.1 82.6092 26.892L77.1732 31.688C71.3812 23.384 61.7572 17.948 50.8652 17.948C36.9972 17.948 25.1852 26.756 20.7212 39.084L61.7812 80.14C71.7532 76.528 79.4212 68.112 81.9892 57.688H64.9732V50H90.1332C90.1292 68.664 77.1052 84.284 59.6532 88.276Z" fill="#744C9E"/>
</svg>
