<svg width="101" height="101" viewBox="0 0 101 101" fill="none" xmlns="http://www.w3.org/2000/svg">
<path d="M98.2181 45.7327L54.5571 2.07407C52.0442 -0.440381 47.9661 -0.440381 45.4501 2.07407L36.3837 11.1405L47.8849 22.6416C50.5575 21.7385 53.6224 22.3444 55.7528 24.4749C57.8935 26.619 58.495 29.71 57.57 32.3913L68.654 43.4756C71.3356 42.5518 74.4298 43.1495 76.5716 45.2948C79.5649 48.287 79.5649 53.1366 76.5716 56.1307C73.5774 59.1252 68.7278 59.1252 65.7321 56.1307C63.4806 53.8768 62.9243 50.5702 64.0642 47.7963L53.7274 37.4596L53.7263 64.6616C54.4756 65.0321 55.16 65.5215 55.7528 66.1108C58.7462 69.103 58.7462 73.953 55.7528 76.9495C52.7587 79.9424 47.9067 79.9424 44.9169 76.9495C41.9235 73.953 41.9235 69.1034 44.9169 66.1112C45.6342 65.3935 46.4867 64.8251 47.4251 64.4389V36.9834C46.4854 36.5998 45.6324 36.0311 44.9169 35.3112C42.6489 33.0463 42.1036 29.7186 43.2657 26.9338L31.9282 15.5952L1.99072 45.5307C-0.524902 48.0475 -0.524902 52.126 1.99072 54.6409L45.6524 98.3002C48.1661 100.815 52.2435 100.815 54.7603 98.3002L98.2177 54.8436C100.733 52.328 100.733 48.2471 98.2177 45.7327" fill="#DE4C36"/>
</svg>
