<svg width="101" height="98" viewBox="0 0 101 98" fill="none" xmlns="http://www.w3.org/2000/svg">
<path d="M50.5522 0.422363C22.9414 0.422363 0.552002 22.8078 0.552002 50.4226C0.552002 72.5143 14.8786 91.2564 34.7453 97.8679C37.244 98.3307 38.1617 96.7833 38.1617 95.4625C38.1617 94.2704 38.115 90.3313 38.0938 86.1534C24.1833 89.178 21.2481 80.2541 21.2481 80.2541C18.9737 74.4746 15.6966 72.9382 15.6966 72.9382C11.1603 69.8348 16.0385 69.8983 16.0385 69.8983C21.0595 70.2513 23.7033 75.0511 23.7033 75.0511C28.1628 82.6951 35.4002 80.485 38.2534 79.2078C38.702 75.9758 39.9981 73.7704 41.4278 72.5218C30.3223 71.2571 18.6474 66.9698 18.6474 47.8113C18.6474 42.3526 20.6007 37.892 23.7994 34.3906C23.2802 33.131 21.5689 28.0457 24.2837 21.1585C24.2837 21.1585 28.4824 19.8146 38.0373 26.2838C42.0254 25.1756 46.3029 24.6203 50.5522 24.6015C54.8015 24.6203 59.0821 25.1756 63.078 26.2838C72.6216 19.8146 76.8144 21.1585 76.8144 21.1585C79.5359 28.0457 77.8238 33.131 77.3046 34.3906C80.5104 37.892 82.4503 42.3523 82.4503 47.8113C82.4503 67.0153 70.7534 71.2442 59.6197 72.4818C61.413 74.0335 63.011 77.0765 63.011 81.7411C63.011 88.431 62.9529 93.8155 62.9529 95.4625C62.9529 96.7931 63.8529 98.3522 66.3877 97.8613C86.2435 91.2423 100.552 72.5069 100.552 50.4226C100.552 22.8078 78.1657 0.422363 50.5522 0.422363Z" fill="#161614"/>
<path d="M19.2786 71.6489C19.1688 71.8971 18.7775 71.9716 18.4218 71.8014C18.0591 71.6383 17.8552 71.2995 17.9728 71.0501C18.0806 70.7944 18.472 70.723 18.834 70.8948C19.1975 71.0575 19.4045 71.3995 19.2786 71.6489ZM21.7382 73.8433C21.4997 74.0645 21.0335 73.9618 20.717 73.6124C20.39 73.2637 20.3288 72.7979 20.5708 72.5732C20.8166 72.3524 21.2688 72.4555 21.5966 72.8045C21.9237 73.1571 21.9872 73.6202 21.7378 73.8437L21.7382 73.8433ZM23.4256 76.6511C23.1189 76.864 22.6177 76.6644 22.3083 76.2197C22.0021 75.7754 22.0021 75.2421 22.315 75.0284C22.6256 74.8147 23.1189 75.0068 23.4326 75.448C23.7385 75.9001 23.7385 76.4334 23.4252 76.6515L23.4256 76.6511ZM26.2788 79.9031C26.0047 80.2051 25.4212 80.1243 24.9937 79.7118C24.5569 79.3086 24.4349 78.7365 24.7098 78.4341C24.9871 78.1314 25.5741 78.2165 26.0047 78.6255C26.4388 79.0279 26.5713 79.6043 26.2792 79.9031H26.2788ZM29.9665 81.0011C29.8461 81.3925 29.2838 81.5705 28.7175 81.4042C28.1521 81.2329 27.7819 80.7741 27.896 80.3784C28.0136 79.9843 28.5783 79.7988 29.1489 79.9768C29.7136 80.1474 30.0846 80.6027 29.9669 81.0011H29.9665ZM34.164 81.4666C34.1781 81.8791 33.6978 82.2211 33.1033 82.2285C32.5053 82.2415 32.0217 81.9078 32.0155 81.5023C32.0155 81.0858 32.4849 80.747 33.0825 80.7372C33.677 80.7254 34.164 81.0568 34.164 81.4666ZM38.287 81.3086C38.3584 81.7109 37.9451 82.1242 37.3549 82.234C36.7745 82.3399 36.2373 82.0917 36.1632 81.6929C36.091 81.2803 36.5122 80.8674 37.0914 80.7603C37.6827 80.6576 38.2117 80.8996 38.287 81.3086Z" fill="#161614"/>
</svg>
