<svg width="101" height="98" viewBox="0 0 101 98" fill="none" xmlns="http://www.w3.org/2000/svg">
<path d="M50.8278 0.422363C23.217 0.422363 0.827637 22.8078 0.827637 50.4226C0.827637 72.5143 15.1542 91.2564 35.0209 97.8679C37.5197 98.3307 38.4373 96.7833 38.4373 95.4625C38.4373 94.2704 38.3906 90.3313 38.3694 86.1534C24.459 89.178 21.5238 80.2541 21.5238 80.2541C19.2493 74.4746 15.9722 72.9382 15.9722 72.9382C11.4359 69.8348 16.3141 69.8983 16.3141 69.8983C21.3351 70.2513 23.979 75.0511 23.979 75.0511C28.4384 82.6951 35.6758 80.485 38.529 79.2078C38.9777 75.9758 40.2737 73.7704 41.7034 72.5218C30.598 71.2571 18.9231 66.9698 18.9231 47.8113C18.9231 42.3526 20.8763 37.892 24.0751 34.3906C23.5559 33.131 21.8445 28.0457 24.5593 21.1585C24.5593 21.1585 28.758 19.8146 38.313 26.2838C42.3011 25.1756 46.5786 24.6203 50.8278 24.6015C55.0771 24.6203 59.3577 25.1756 63.3537 26.2838C72.8972 19.8146 77.09 21.1585 77.09 21.1585C79.8115 28.0457 78.0994 33.131 77.5802 34.3906C80.786 37.892 82.7259 42.3523 82.7259 47.8113C82.7259 67.0153 71.0291 71.2442 59.8954 72.4818C61.6886 74.0335 63.2866 77.0765 63.2866 81.7411C63.2866 88.431 63.2286 93.8155 63.2286 95.4625C63.2286 96.7931 64.1285 98.3522 66.6633 97.8613C86.5191 91.2423 100.828 72.5069 100.828 50.4226C100.828 22.8078 78.4414 0.422363 50.8278 0.422363Z" fill="white"/>
<path d="M19.5543 71.6489C19.4445 71.8971 19.0531 71.9716 18.6974 71.8014C18.3347 71.6383 18.1308 71.2995 18.2484 71.0501C18.3563 70.7944 18.7476 70.723 19.1096 70.8948C19.4731 71.0575 19.6802 71.3995 19.5543 71.6489ZM22.0138 73.8433C21.7754 74.0645 21.3091 73.9618 20.9927 73.6124C20.6656 73.2637 20.6044 72.7979 20.8464 72.5732C21.0923 72.3524 21.5444 72.4555 21.8722 72.8045C22.1993 73.1571 22.2628 73.6202 22.0134 73.8437L22.0138 73.8433ZM23.7012 76.6511C23.3945 76.864 22.8934 76.6644 22.584 76.2197C22.2777 75.7754 22.2777 75.2421 22.5906 75.0284C22.9012 74.8147 23.3945 75.0068 23.7083 75.448C24.0141 75.9001 24.0141 76.4334 23.7008 76.6515L23.7012 76.6511ZM26.5544 79.9031C26.2803 80.2051 25.6968 80.1243 25.2694 79.7118C24.8325 79.3086 24.7106 78.7365 24.9855 78.4341C25.2627 78.1314 25.8498 78.2165 26.2803 78.6255C26.7144 79.0279 26.847 79.6043 26.5548 79.9031H26.5544ZM30.2422 81.0011C30.1218 81.3925 29.5594 81.5705 28.9932 81.4042C28.4277 81.2329 28.0575 80.7741 28.1716 80.3784C28.2893 79.9843 28.854 79.7988 29.4245 79.9768C29.9892 80.1474 30.3602 80.6027 30.2425 81.0011H30.2422ZM34.4397 81.4666C34.4538 81.8791 33.9734 82.2211 33.3789 82.2285C32.7809 82.2415 32.2974 81.9078 32.2911 81.5023C32.2911 81.0858 32.7605 80.747 33.3581 80.7372C33.9526 80.7254 34.4397 81.0568 34.4397 81.4666ZM38.5627 81.3086C38.634 81.7109 38.2207 82.1242 37.6305 82.234C37.0502 82.3399 36.5129 82.0917 36.4388 81.6929C36.3667 81.2803 36.7878 80.8674 37.367 80.7603C37.9584 80.6576 38.4874 80.8996 38.5627 81.3086Z" fill="white"/>
</svg>
