<svg width="101" height="39" viewBox="0 0 101 39" fill="none" xmlns="http://www.w3.org/2000/svg">
<path d="M8.37434 12.1172C8.17959 12.1172 8.1309 12.0198 8.22828 11.8737L9.25074 10.5591C9.34811 10.4131 9.59155 10.3157 9.78631 10.3157H27.1681C27.3628 10.3157 27.4115 10.4618 27.3141 10.6078L26.4864 11.8737C26.3891 12.0198 26.1456 12.1659 25.9996 12.1659L8.37434 12.1172ZM1.02239 16.5965C0.827637 16.5965 0.778948 16.4991 0.876325 16.3531L1.89878 15.0385C1.99616 14.8924 2.2396 14.795 2.43436 14.795H24.6363C24.831 14.795 24.9284 14.9411 24.8797 15.0872L24.4902 16.2557C24.4415 16.4504 24.2468 16.5478 24.052 16.5478L1.02239 16.5965ZM12.805 21.0758C12.6102 21.0758 12.5615 20.9298 12.6589 20.7837L13.3406 19.5665C13.4379 19.4204 13.6327 19.2744 13.8274 19.2744H23.5651C23.7599 19.2744 23.8573 19.4204 23.8573 19.6152L23.7599 20.7837C23.7599 20.9785 23.5651 21.1245 23.4191 21.1245L12.805 21.0758ZM63.3436 11.2408C60.2762 12.0198 58.1826 12.6041 55.1639 13.3831C54.4336 13.5778 54.3849 13.6265 53.752 12.8962C53.0216 12.0685 52.4861 11.5329 51.4636 11.046C48.3962 9.53669 45.4262 9.97488 42.651 11.7764C39.3402 13.9186 37.6361 17.0834 37.6848 21.0272C37.7335 24.9222 40.4113 28.1357 44.2577 28.6712C47.5685 29.1094 50.3438 27.9409 52.5348 25.4578C52.9729 24.9222 53.3625 24.338 53.8493 23.6563H44.4525C43.43 23.6563 43.1866 23.0234 43.5274 22.1957C44.1603 20.6863 45.3289 18.1545 46.0105 16.8886C46.1566 16.5965 46.4974 16.1096 47.2277 16.1096H64.9503C64.8529 17.4242 64.8529 18.7388 64.6582 20.0534C64.1226 23.559 62.808 26.7724 60.6657 29.5963C57.1602 34.2217 52.5834 37.0943 46.7895 37.8733C42.0181 38.5063 37.5874 37.5812 33.6923 34.6599C30.0894 31.9334 28.0445 28.3304 27.5089 23.8511C26.8759 18.544 28.434 13.7726 31.6474 9.58538C35.1043 5.05735 39.681 2.18474 45.2802 1.16228C49.8569 0.334577 54.2388 0.87015 58.1826 3.54801C60.7631 5.25211 62.6133 7.58915 63.8305 10.4131C64.1226 10.8513 63.9278 11.0947 63.3436 11.2408Z" fill="#00ACD7"/>
<path d="M79.4594 38.1654C75.0288 38.0681 70.9877 36.8022 67.5795 33.8809C64.7069 31.3977 62.9054 28.233 62.3211 24.484C61.4447 18.9822 62.9541 14.1134 66.2649 9.78009C69.8191 5.106 74.1037 2.67158 79.8976 1.64912C84.8638 0.772732 89.5379 1.25962 93.7738 4.13223C97.6202 6.76141 100.006 10.3157 100.639 14.9897C101.467 21.5627 99.5677 26.9184 95.0397 31.4951C91.8263 34.7572 87.8825 36.8022 83.3545 37.7272C82.0399 37.9707 80.7253 38.0194 79.4594 38.1654ZM91.0473 18.4953C90.9986 17.8624 90.9986 17.3755 90.9012 16.8886C90.0248 12.0684 85.5942 9.34189 80.9688 10.413C76.4408 11.4355 73.5195 14.3081 72.4483 18.8848C71.5719 22.6825 73.4221 26.5289 76.9276 28.0869C79.6055 29.2555 82.2834 29.1094 84.8638 27.7948C88.7102 25.7986 90.8038 22.6825 91.0473 18.4953Z" fill="#00ACD7"/>
</svg>
