<svg width="92" height="101" viewBox="0 0 92 101" fill="none" xmlns="http://www.w3.org/2000/svg">
<path d="M91.0982 88.0806C91.1352 94.9463 85.5982 100.537 78.7366 100.574C78.2265 100.578 77.7123 100.549 77.2063 100.487C70.8383 99.5455 66.1734 94.0043 66.3297 87.5704V13.5977C66.1775 7.15568 70.8548 1.61452 77.2269 0.680704C84.0432 -0.117355 90.2178 4.7615 91.0159 11.5779C91.0735 12.0798 91.1023 12.5817 91.0982 13.0876V88.0806Z" fill="#F9AB00"/>
<path d="M13.152 75.8215C19.9931 75.8215 25.5383 81.3668 25.5383 88.2079C25.5383 95.049 19.9931 100.594 13.152 100.594C6.3109 100.594 0.765625 95.049 0.765625 88.2079C0.765625 81.3668 6.3109 75.8215 13.152 75.8215ZM45.7407 38.2839C38.8667 38.6624 33.5354 44.4257 33.6958 51.3079V84.5754C33.6958 93.605 37.6697 99.0845 43.4905 100.253C50.2082 101.614 56.7531 97.2745 58.1148 90.5568C58.2834 89.734 58.3657 88.899 58.3616 88.0598V50.732C58.3739 43.8662 52.8204 38.2921 45.9547 38.2798C45.8847 38.2798 45.8107 38.2798 45.7407 38.2839Z" fill="#E37400"/>
</svg>
