<svg width="90" height="101" viewBox="0 0 90 101" fill="none" xmlns="http://www.w3.org/2000/svg">
<path fill-rule="evenodd" clip-rule="evenodd" d="M53.1215 11.7465L73.6562 23.6029C74.249 22.9756 74.9294 22.4373 75.6761 22.0045C79.9347 19.5561 85.3668 21.0098 87.8405 25.2687C90.2889 29.5277 88.8352 34.9594 84.5763 37.4331C83.8351 37.86 83.0364 38.178 82.2046 38.3775V62.0991C83.0273 62.2989 83.8173 62.6148 84.5509 63.0372C88.8352 65.5109 90.2889 70.943 87.8152 75.2019C85.3668 79.4605 79.9094 80.9142 75.6504 78.4662C74.8254 77.9928 74.0821 77.3894 73.4493 76.6792L53.0395 88.4628C53.3384 89.3678 53.4902 90.3149 53.4891 91.268C53.4891 96.1644 49.5111 100.169 44.589 100.169C39.6669 100.169 35.6888 96.1898 35.6888 91.268C35.6888 90.3931 35.8145 89.5481 36.0489 88.7499L15.5197 76.8969C14.9333 77.5117 14.2626 78.0401 13.5275 78.4662C9.24324 80.9142 3.81115 79.4605 1.36278 75.2019C-1.08524 70.943 0.368438 65.5109 4.62704 63.0372C5.36067 62.6147 6.15069 62.2987 6.97333 62.0987V38.3775C6.1416 38.178 5.34289 37.86 4.60169 37.4331C0.342746 34.9851 -1.11093 29.5277 1.33744 25.2687C3.7858 21.0098 9.24289 19.5561 13.5018 22.0045C14.2445 22.435 14.9215 22.9699 15.5121 23.5929L36.0527 11.7333C35.8106 10.9114 35.688 10.059 35.6888 9.20228C35.6888 4.28089 39.6669 0.302124 44.589 0.302124C49.5111 0.302124 53.4891 4.28055 53.4891 9.20228C53.4891 10.0869 53.3607 10.9406 53.1215 11.7465ZM50.9821 15.3996L71.5658 27.2838C71.238 28.4295 71.144 29.6295 71.2894 30.8123C71.4347 31.9951 71.8165 33.1366 72.4119 34.1689C73.6649 36.3485 75.706 37.7935 77.9714 38.3567V62.1078C77.8558 62.1359 77.7409 62.1668 77.6266 62.1994L50.7429 15.6374C50.8241 15.5596 50.904 15.4805 50.9821 15.3999V15.3996ZM38.4406 15.6426L11.5572 62.2039C11.441 62.1703 11.3241 62.1391 11.2066 62.1102V38.3567C13.472 37.7935 15.5131 36.3485 16.7661 34.1689C17.3627 33.1346 17.7448 31.9907 17.8896 30.8055C18.0343 29.6203 17.9388 28.4181 17.6087 27.2706L38.1865 15.3899C38.2695 15.4756 38.3542 15.56 38.4406 15.6423V15.6426ZM47.0759 17.7518L73.953 64.3027C73.3374 64.8901 72.8097 65.5633 72.3862 66.3014C71.9638 67.0351 71.6479 67.8251 71.4481 68.6477H17.7306C17.5305 67.8251 17.2144 67.035 16.7918 66.3014C16.3668 65.5684 15.8401 64.8993 15.2274 64.3141L42.1097 17.7539C42.9157 17.9859 43.7503 18.1033 44.589 18.1024C45.4524 18.1024 46.2867 17.9802 47.0759 17.7518ZM51.171 85.2721L71.621 73.465C71.5597 73.2722 71.5049 73.0774 71.4568 72.881H17.7191C17.6907 72.9966 17.6598 73.1112 17.6268 73.2254L38.1768 85.0905C39.0066 84.2276 40.0025 83.5415 41.1045 83.0736C42.2065 82.6057 43.3918 82.3657 44.589 82.3679C45.828 82.3657 47.0538 82.623 48.1874 83.1232C49.321 83.6234 50.3373 84.3554 51.171 85.2721Z" fill="#E535AB"/>
</svg>
