<svg width="101" height="99" viewBox="0 0 101 99" fill="none" xmlns="http://www.w3.org/2000/svg">
<path d="M0.551758 0.635986H100.552V98.5527H0.551758V0.635986Z" fill="url(#paint0_linear_4_5284)"/>
<path d="M37.0313 50.4837H45.8952L41.4634 33.2959L37.0313 50.4837ZM8.11731 8.30298V90.9337H93.1129V8.30298H8.11731ZM50.7597 69.3291L47.5167 58.1589H35.5177L32.2747 69.3291H24.0592L35.6258 29.8368V25.5129H46.652L59.8399 69.3291H50.7597ZM72.5961 69.3291H63.7321V35.9987H72.5961V69.3291ZM68.2177 31.999C65.6804 31.999 63.6232 29.9662 63.6232 27.4589C63.6232 24.9514 65.68 22.9186 68.2177 22.9186C70.7555 22.9186 72.8121 24.9514 72.8121 27.4589C72.8121 29.9662 70.7553 31.999 68.2177 31.999Z" fill="url(#paint1_linear_4_5284)"/>
<defs>
<linearGradient id="paint0_linear_4_5284" x1="100.031" y1="0.114952" x2="2.02772" y2="98.1183" gradientUnits="userSpaceOnUse">
<stop stop-color="#FFAA2A"/>
<stop offset="1" stop-color="#FFC06C"/>
</linearGradient>
<linearGradient id="paint1_linear_4_5284" x1="50.6151" y1="8.16422" x2="50.6151" y2="90.5166" gradientUnits="userSpaceOnUse">
<stop stop-color="#251200"/>
<stop offset="1"/>
</linearGradient>
</defs>
</svg>
