<svg width="101" height="101" viewBox="0 0 101 101" fill="none" xmlns="http://www.w3.org/2000/svg">
<path d="M50.5884 97.646C76.7987 97.646 98.0462 76.3985 98.0462 50.1882C98.0462 23.9782 76.7987 2.73071 50.5884 2.73071C24.3784 2.73071 3.13086 23.9782 3.13086 50.1882C3.13086 76.3985 24.3784 97.646 50.5884 97.646Z" fill="white"/>
<path d="M50.5889 0.188232C22.9746 0.188232 0.588867 22.574 0.588867 50.1882C0.588867 77.8026 22.9746 100.188 50.5889 100.188C78.2032 100.188 100.589 77.8026 100.589 50.1882C100.589 22.574 78.2032 0.188232 50.5889 0.188232ZM50.5889 5.27298C75.3948 5.27298 95.5042 25.3822 95.5042 50.1882C95.5042 74.9942 75.3948 95.1035 50.5889 95.1035C25.7829 95.1035 5.67362 74.9942 5.67362 50.1882C5.67362 25.3822 25.7829 5.27298 50.5889 5.27298Z" fill="#4000BF"/>
<path fill-rule="evenodd" clip-rule="evenodd" d="M51.1536 14.5952C70.8114 14.5952 86.747 30.5307 86.747 50.1886C86.747 69.8461 70.8114 85.7817 51.1536 85.7817C31.4962 85.7817 15.5605 69.8461 15.5605 50.1886C15.5605 45.3842 16.5123 40.8023 18.2377 36.6211C20.7569 40.0517 24.8195 42.2789 29.4023 42.2789C37.047 42.2789 43.2442 36.0817 43.2442 28.437C43.2442 23.8542 41.017 19.7916 37.5861 17.2724C41.7677 15.547 46.3495 14.5952 51.1536 14.5952Z" fill="url(#paint0_linear_4_3133)"/>
<defs>
<linearGradient id="paint0_linear_4_3133" x1="51.1536" y1="85.7817" x2="51.1536" y2="14.5952" gradientUnits="userSpaceOnUse">
<stop stop-color="#7400E1"/>
<stop offset="1" stop-color="#4000BF"/>
</linearGradient>
</defs>
</svg>
