<svg width="101" height="101" viewBox="0 0 101 101" fill="none" xmlns="http://www.w3.org/2000/svg">
<path d="M100.104 0.594238H0.104004V100.594H100.104V0.594238Z" fill="#F7DF1E"/>
<path d="M67.2785 78.7197C69.2928 82.0086 71.9134 84.426 76.5484 84.426C80.442 84.426 82.9293 82.48 82.9293 79.7911C82.9293 76.5689 80.3738 75.4276 76.0881 73.553L73.7388 72.5451C66.9579 69.6562 62.4531 66.0371 62.4531 58.3863C62.4531 51.3387 67.823 45.9736 76.215 45.9736C82.1896 45.9736 86.4849 48.053 89.5801 53.4974L82.2626 58.1959C80.6515 55.307 78.9134 54.1689 76.215 54.1689C73.4627 54.1689 71.7182 55.9149 71.7182 58.1959C71.7182 61.0149 73.4642 62.1562 77.496 63.9022L79.8452 64.9086C87.8293 68.3324 92.3373 71.8228 92.3373 79.6705C92.3373 88.1308 85.6912 92.7657 76.7658 92.7657C68.0388 92.7657 62.4007 88.607 59.642 83.1562L67.2785 78.7197ZM34.0833 79.534C35.5595 82.153 36.9023 84.3673 40.1309 84.3673C43.2182 84.3673 45.1658 83.1593 45.1658 78.4625V46.5101H54.5627V78.5895C54.5627 88.3197 48.8579 92.7482 40.5309 92.7482C33.0071 92.7482 28.65 88.8546 26.4341 84.1649L34.0833 79.534Z" fill="black"/>
</svg>
