<svg width="75" height="101" viewBox="0 0 75 101" fill="none" xmlns="http://www.w3.org/2000/svg">
<path d="M24.0174 77.8209C24.0174 77.8209 20.1961 80.043 26.737 80.795C34.6613 81.6989 38.7111 81.5695 47.4438 79.9165C47.4438 79.9165 49.7398 81.3561 52.9458 82.6031C33.37 90.9929 8.64132 82.117 24.0174 77.8209ZM21.6253 66.8724C21.6253 66.8724 17.3393 70.0451 23.8851 70.7221C32.35 71.5953 39.0348 71.6668 50.6023 69.4394C50.6023 69.4394 52.2023 71.0614 54.7181 71.9485C31.0494 78.8696 4.68684 72.4943 21.6253 66.8724Z" fill="white"/>
<path d="M41.7914 48.3005C46.6151 53.8538 40.5241 58.8511 40.5241 58.8511C40.5241 58.8511 52.7717 52.5285 47.1469 44.6109C41.8936 37.2277 37.8647 33.5588 59.6745 20.9101C59.6745 20.9101 25.4405 29.4601 41.7914 48.3002" fill="#E76F00"/>
<path d="M67.6822 85.919C67.6822 85.919 70.51 88.2489 64.5676 90.0516C53.2682 93.4748 17.5378 94.5084 7.61196 90.188C4.04401 88.6361 10.7352 86.4819 12.8398 86.0297C15.0348 85.5537 16.2893 85.6425 16.2893 85.6425C12.3213 82.8471 -9.35858 91.1313 5.27714 93.5035C45.1905 99.9763 78.0351 90.589 67.6822 85.919ZM25.8547 55.5287C25.8547 55.5287 7.68029 59.8457 19.4189 61.413C24.3752 62.0766 34.2556 61.9266 43.459 61.1553C50.9806 60.5212 58.5331 59.172 58.5331 59.172C58.5331 59.172 55.881 60.3078 53.9622 61.618C35.5061 66.472 -0.147881 64.2139 10.1164 59.2487C18.797 55.0527 25.855 55.5287 25.855 55.5287H25.8547ZM58.4581 73.7527C77.22 64.0035 68.5453 54.6346 62.4905 55.897C61.0063 56.2057 60.3447 56.4732 60.3447 56.4732C60.3447 56.4732 60.8957 55.6104 61.9479 55.2369C73.926 51.0256 83.1381 67.6571 58.0812 74.2441C58.0812 74.2444 58.3716 73.9849 58.4581 73.7527Z" fill="white"/>
<path d="M47.1467 0.485397C47.1467 0.485397 57.5373 10.8797 37.2918 26.8624C21.0572 39.6836 33.5898 46.9938 37.2851 55.346C27.8086 46.796 20.854 39.2692 25.5198 32.2642C32.3676 21.9808 51.3389 16.9953 47.1467 0.485107" fill="#E76F00"/>
<path d="M27.6983 100.171C45.7071 101.324 73.3616 99.5311 74.0165 91.0099C74.0165 91.0099 72.7576 94.2405 59.1332 96.8058C43.7623 99.6982 24.8047 99.3606 13.5605 97.5067C13.5608 97.5067 15.8624 99.4119 27.6986 100.171" fill="white"/>
</svg>
