<svg width="75" height="101" viewBox="0 0 75 101" fill="none" xmlns="http://www.w3.org/2000/svg">
<path d="M24.7419 77.8209C24.7419 77.8209 20.9206 80.043 27.4615 80.795C35.3858 81.6989 39.4356 81.5695 48.1682 79.9165C48.1682 79.9165 50.4643 81.3561 53.6703 82.6031C34.0945 90.9929 9.36581 82.117 24.7419 77.8209ZM22.3498 66.8724C22.3498 66.8724 18.0638 70.0451 24.6096 70.7221C33.0744 71.5953 39.7593 71.6668 51.3268 69.4394C51.3268 69.4394 52.9268 71.0614 55.4425 71.9485C31.7739 78.8696 5.41133 72.4943 22.3498 66.8724Z" fill="#5382A1"/>
<path d="M42.516 48.3005C47.3396 53.8538 41.2487 58.8511 41.2487 58.8511C41.2487 58.8511 53.4963 52.5285 47.8715 44.6109C42.6182 37.2277 38.5893 33.5588 60.3991 20.9101C60.3991 20.9101 26.1651 29.4601 42.516 48.3002" fill="#E76F00"/>
<path d="M68.4067 85.919C68.4067 85.919 71.2346 88.2489 65.2922 90.0516C53.9928 93.4748 18.2624 94.5084 8.33651 90.188C4.76856 88.6361 11.4597 86.4819 13.5644 86.0297C15.7593 85.5537 17.0139 85.6425 17.0139 85.6425C13.0458 82.8471 -8.63403 91.1313 6.00169 93.5035C45.915 99.9763 78.7596 90.589 68.4067 85.919ZM26.5793 55.5287C26.5793 55.5287 8.40484 59.8457 20.1435 61.413C25.0997 62.0766 34.9801 61.9266 44.1836 61.1553C51.7051 60.5212 59.2577 59.172 59.2577 59.172C59.2577 59.172 56.6055 60.3078 54.6868 61.618C36.2306 66.472 0.576668 64.2139 10.841 59.2487C19.5215 55.0527 26.5796 55.5287 26.5796 55.5287H26.5793ZM59.1827 73.7527C77.9446 64.0035 69.2698 54.6346 63.215 55.897C61.7309 56.2057 61.0693 56.4732 61.0693 56.4732C61.0693 56.4732 61.6203 55.6104 62.6725 55.2369C74.6505 51.0256 83.8627 67.6571 58.8057 74.2441C58.8057 74.2444 59.0961 73.9849 59.1827 73.7527Z" fill="#5382A1"/>
<path d="M47.8714 0.485397C47.8714 0.485397 58.262 10.8797 38.0165 26.8624C21.7819 39.6836 34.3145 46.9938 38.0098 55.346C28.5333 46.796 21.5787 39.2692 26.2446 32.2642C33.0924 21.9808 52.0636 16.9953 47.8714 0.485107" fill="#E76F00"/>
<path d="M28.423 100.171C46.4319 101.324 74.0863 99.5311 74.7412 91.0099C74.7412 91.0099 73.4823 94.2405 59.8579 96.8058C44.487 99.6982 25.5294 99.3606 14.2853 97.5067C14.2856 97.5067 16.5871 99.4119 28.4233 100.171" fill="#5382A1"/>
</svg>
