<svg width="91" height="101" viewBox="0 0 91 101" fill="none" xmlns="http://www.w3.org/2000/svg">
<path d="M85.0891 50.0179C85.0891 44.8775 80.9217 40.7101 75.7812 40.7101C75.4503 40.7101 75.1243 40.7278 74.8026 40.7618L87.5871 3.05548H33.2577L46.0244 40.7288C45.836 40.717 45.6473 40.7108 45.4585 40.7104C40.3181 40.7104 36.1507 44.8772 36.1507 50.0183C36.1507 54.1734 38.8739 57.6913 42.6322 58.8882C40.6473 62.3265 38.1494 65.4236 35.3134 68.0994C31.457 71.7371 27.0437 74.4958 22.2703 76.1955C16.5871 73.2759 13.9035 66.7831 16.3249 61.0903C16.5984 60.4472 16.8776 59.7956 17.1444 59.1469C21.2616 58.186 24.33 54.4951 24.33 50.0849C24.33 44.9441 20.1625 40.777 15.0217 40.777C9.88096 40.777 5.71385 44.9441 5.71385 50.0849C5.71385 53.2372 7.28206 56.0218 9.67971 57.7055C7.37595 62.9508 3.9894 68.4406 2.93425 74.803C1.66969 82.4279 2.92999 90.5219 9.52488 95.0929C24.8838 105.738 41.5557 88.4938 59.1341 84.1588C65.5047 82.5881 72.4978 82.841 78.1105 79.5906C82.3255 77.1493 85.1044 73.1034 85.8927 68.5614C86.6722 64.0744 85.5363 59.6068 82.9243 55.9843C84.3256 54.3122 85.0922 52.1995 85.0891 50.0179Z" fill="#99425B"/>
<path d="M83.6532 68.1724C82.9686 72.1159 80.5331 75.5602 76.9715 77.6234C73.6512 79.5463 69.6726 80.1203 65.4597 80.7276C63.2031 81.0528 60.8696 81.3898 58.5899 81.9518C52.5623 83.4381 46.7239 86.3382 41.0782 89.1426C29.7791 94.755 20.0212 99.6013 10.8203 93.2243C4.08054 88.5534 4.39163 79.9109 5.17679 75.1751C5.90456 70.7873 7.87207 66.7463 9.77439 62.8385C10.0985 62.1744 10.42 61.509 10.7388 60.8423C11.6978 61.2257 12.704 61.4781 13.7303 61.5928C11.7936 67.9843 14.8393 74.9338 21.2316 78.2176L22.1067 78.6672L23.0329 78.3374C28.0865 76.5375 32.7433 73.6498 36.8735 69.7527C39.5433 67.2338 41.8389 64.4471 43.7257 61.4695C44.2993 61.556 44.8785 61.5995 45.4586 61.5995C51.3257 61.5995 56.1841 57.2134 56.936 51.5486C59.3375 51.4607 61.8882 51.46 64.3036 51.5479C65.0548 57.2134 69.9138 61.5998 75.781 61.5998C78.2342 61.5998 80.5097 60.831 82.3844 59.525C83.6858 62.1891 84.1715 65.1866 83.6532 68.1724ZM15.0222 43.0503C18.9012 43.0503 22.0568 46.2062 22.0568 50.0853C22.0568 51.4785 21.6479 52.7777 20.946 53.8719C19.7767 55.6955 17.789 56.9455 15.5055 57.1014C15.3457 57.1121 15.1844 57.1199 15.0222 57.1199C14.1576 57.1199 13.3296 56.9622 12.5639 56.6759C11.0219 56.0961 9.73056 54.9962 8.9127 53.5661C8.3054 52.5066 7.98631 51.3065 7.98723 50.0853C7.98723 46.2062 11.1431 43.0503 15.0222 43.0503ZM38.4244 50.0183C38.4244 46.4939 41.0297 43.5676 44.4148 43.0617C44.7556 43.0103 45.1043 42.9837 45.459 42.9837C47.7142 42.9837 49.7221 44.052 51.0097 45.7074C51.3322 46.1201 51.6077 46.5675 51.831 47.0414C52.2682 47.9728 52.4945 48.9893 52.4936 50.0183C52.4936 50.5806 52.4255 51.1273 52.3004 51.6517C51.6148 54.5217 49.1676 56.7156 46.1687 57.0175C45.9355 57.0409 45.6988 57.0529 45.459 57.0529C44.1059 57.054 42.7815 56.6625 41.6465 55.9258C39.7098 54.6712 38.4244 52.4925 38.4244 50.0183ZM67.7848 41.6529C66.2539 43.1141 65.1523 44.9664 64.5991 47.0091C61.9476 46.9114 59.2934 46.9114 56.6419 47.0091C56.0466 44.801 54.8129 42.853 53.1529 41.3734L60.4324 26.6544L67.7848 41.6529ZM36.4285 5.32952H84.416L73.0818 38.7575C72.5942 38.8742 72.1147 39.0228 71.6465 39.2021L60.4501 16.3619L49.2218 39.0657C48.7323 38.8977 48.2321 38.7629 47.7245 38.6621L36.4285 5.32952ZM82.8156 50.0187C82.8156 50.7238 82.7103 51.4048 82.5165 52.0478C82.0567 53.5619 81.1018 54.8776 79.8049 55.7841C78.6262 56.6113 77.221 57.0545 75.781 57.0533C72.533 57.0533 69.793 54.8399 68.9873 51.8423C68.8273 51.2477 68.7463 50.6345 68.7464 50.0187C68.7464 49.0571 68.9405 48.1401 69.2913 47.3046C69.4723 46.8771 69.6952 46.4686 69.9567 46.0851C71.2227 44.2164 73.3589 42.9841 75.781 42.9841C76.0031 42.9841 76.2221 42.9954 76.4393 43.016C80.0108 43.3487 82.8159 46.3614 82.8159 50.0187H82.8156ZM87.3625 50.0187C87.3625 44.3645 83.2886 39.6468 77.9228 38.6391L90.7583 0.782227H30.087L42.9423 38.7156C37.7629 39.8682 33.8778 44.4967 33.8778 50.0183C33.8778 54.1645 36.0689 57.8062 39.3527 59.8527C37.7731 62.2061 35.9002 64.4206 33.7538 66.4458C30.3495 69.657 26.5573 72.0926 22.4688 73.6951C18.3506 71.1083 16.6099 66.2297 18.4176 61.98L18.5593 61.647L18.825 61.022C23.3482 59.4442 26.6033 55.1392 26.6033 50.0853C26.6033 43.6991 21.408 38.5038 15.0222 38.5038C8.63633 38.5038 3.44029 43.6991 3.44029 50.0853C3.44029 53.3085 4.76543 56.2274 6.8977 58.3292C6.50002 59.1718 6.09632 60.0115 5.68665 60.8483C3.73685 64.8525 1.52734 69.3909 0.691506 74.431C-0.96811 84.4405 1.7091 92.442 8.23029 96.9613C12.1873 99.7037 16.2059 100.782 20.2497 100.782C27.864 100.782 35.5668 96.9567 43.1006 93.2144C48.5263 90.5198 54.1369 87.7331 59.6787 86.3662C61.7408 85.8577 63.8625 85.5516 66.1088 85.2278C70.5637 84.585 75.1698 83.9207 79.2501 81.5578C83.9798 78.8182 87.2172 74.2227 88.1328 68.9505C88.9187 64.4241 87.973 59.8906 85.6664 56.0456C86.7778 54.2318 87.3649 52.1455 87.3625 50.0183V50.0187Z" fill="white"/>
</svg>
