<svg width="101" height="101" viewBox="0 0 101 101" fill="none" xmlns="http://www.w3.org/2000/svg">
<path d="M96.5832 0.297119H48.4285C48.4285 6.06236 50.7187 11.5915 54.7953 15.6681C58.872 19.7447 64.4011 22.035 70.1663 22.035H79.037V30.5998C79.0448 42.5943 88.7661 52.3161 100.761 52.3239V4.47455C100.761 2.16807 98.8909 0.297119 96.5832 0.297119Z" fill="#2684FF"/>
<path d="M72.7563 24.2909H24.6018C24.6092 36.2854 34.3306 46.0072 46.3256 46.015H55.1963V54.6072C55.2115 66.6017 64.9396 76.3168 76.9341 76.3168V28.4691C76.9341 26.1618 75.0636 24.2913 72.7563 24.2913V24.2909Z" fill="url(#paint0_linear_4_5309)"/>
<path d="M48.9156 48.271H0.760742C0.760742 60.2765 10.4935 70.0089 22.4986 70.0089H31.3971V78.5733C31.4049 90.5569 41.1094 100.274 53.0934 100.297V52.4488C53.0934 50.1416 51.2228 48.271 48.9156 48.271Z" fill="url(#paint1_linear_4_5309)"/>
<defs>
<linearGradient id="paint0_linear_4_5309" x1="75.9037" y1="24.3747" x2="55.5439" y2="45.6193" gradientUnits="userSpaceOnUse">
<stop offset="0.18" stop-color="#0052CC"/>
<stop offset="1" stop-color="#2684FF"/>
</linearGradient>
<linearGradient id="paint1_linear_4_5309" x1="53.4414" y1="48.5077" x2="29.8902" y2="71.679" gradientUnits="userSpaceOnUse">
<stop offset="0.18" stop-color="#0052CC"/>
<stop offset="1" stop-color="#2684FF"/>
</linearGradient>
</defs>
</svg>
