<svg width="101" height="96" viewBox="0 0 101 96" fill="none" xmlns="http://www.w3.org/2000/svg">
<path d="M6.06592 66.1086C6.16176 66.3252 6.27009 66.5252 6.38676 66.7252C6.44093 66.8419 6.51593 66.9627 6.58259 67.0711C6.69093 67.2877 6.8076 67.4961 6.9201 67.7044L7.57427 68.8044C7.69511 69.0086 7.81177 69.2086 7.94928 69.4086C8.17844 69.8003 8.44928 70.1836 8.68678 70.5753C8.79512 70.7378 8.89512 70.9003 9.01595 71.0628C9.47429 71.7753 9.89096 72.3669 10.3368 72.942C10.6535 73.3711 10.9701 73.792 11.3118 74.2128C11.4243 74.3711 11.5493 74.5295 11.666 74.6878L12.5868 75.8045C12.6993 75.9336 12.8118 76.0836 12.9327 76.217C13.341 76.7087 13.7743 77.1837 14.2077 77.667C14.2077 77.6753 14.2202 77.6837 14.2285 77.6962C14.766 78.3712 15.3452 78.9712 15.9785 79.5045L15.9952 79.5212C16.3285 79.8629 16.6619 80.2004 17.016 80.5337L17.4369 80.9379C17.8994 81.3712 18.3619 81.8004 18.8494 82.217C18.8577 82.217 18.8619 82.2254 18.8702 82.2295L19.1077 82.4379C19.5327 82.8087 19.9619 83.1754 20.3994 83.517L20.9202 83.9546C21.2744 84.2379 21.6411 84.5046 22.0036 84.7837L22.5703 85.2171C22.9578 85.5087 23.3703 85.7921 23.7661 86.0754C23.9119 86.1796 24.0578 86.2837 24.2078 86.3796L24.3286 86.4754L25.4995 87.2421L25.9995 87.5754C26.612 87.9671 27.2203 88.3338 27.8287 88.7004C28.0037 88.7879 28.1787 88.8838 28.3412 88.9838C28.7912 89.2421 29.2578 89.5046 29.712 89.7421C29.962 89.8838 30.2203 90.0046 30.4787 90.1338C30.7912 90.3088 31.1162 90.4796 31.4495 90.6546C31.5412 90.6838 31.6162 90.7129 31.6912 90.7546L31.7079 90.7379C31.8454 90.8004 31.9745 90.8671 32.1079 90.9338C32.6079 91.1838 33.1287 91.4213 33.6704 91.6546C33.7704 91.6963 33.8787 91.738 33.9871 91.7963C34.5871 92.0588 35.1871 92.3088 35.8079 92.5505C35.9496 92.5921 36.0996 92.663 36.2454 92.7171C36.8079 92.9296 37.3871 93.1463 37.9621 93.3505L38.1704 93.4255C38.8079 93.6421 39.4371 93.8505 40.0871 94.0463C40.2371 94.088 40.3913 94.1421 40.5496 94.1838C41.2121 94.3838 41.8538 94.6213 42.5246 94.7463C85.3293 102.509 97.7669 69.1377 97.7669 69.1377C87.3168 82.6795 68.7708 86.2504 51.2081 82.2754C50.5581 82.1254 49.9081 81.917 49.2497 81.7254C48.3205 81.4624 47.3992 81.172 46.4872 80.8545L46.883 80.9754L46.6247 80.8754C46.058 80.6837 45.5122 80.4712 44.958 80.2587C44.8224 80.2012 44.6848 80.1483 44.5455 80.1004L44.4997 80.0879C43.8872 79.842 43.2913 79.592 42.6996 79.3295C42.5705 79.2878 42.4621 79.2295 42.333 79.1795C41.6322 78.8741 40.9376 78.5546 40.2496 78.2212L40.8246 78.4753C40.6746 78.409 40.5272 78.3367 40.383 78.2587C39.9913 78.0753 39.5996 77.867 39.2163 77.6712C38.9243 77.5328 38.6367 77.3855 38.3538 77.2295L38.4371 77.2712C37.9663 77.0212 37.4954 76.7503 37.0204 76.4962C36.8788 76.3962 36.7162 76.3128 36.5537 76.2212C35.8477 75.8108 35.1503 75.3857 34.4621 74.9461L34.7246 75.1045C34.5482 74.9955 34.3758 74.8802 34.2079 74.7586L34.2329 74.7753C33.7851 74.5002 33.3459 74.2112 32.9162 73.9086C32.7745 73.817 32.6454 73.717 32.4995 73.617C32.0506 73.3105 31.6088 72.9938 31.1745 72.667L31.2745 72.7378C31.0995 72.5961 30.912 72.4628 30.7245 72.3253C30.3578 72.0378 29.987 71.7628 29.6203 71.4628L29.1287 71.0711C28.6047 70.6542 28.0906 70.2249 27.587 69.7836L27.5828 69.7794L26.137 68.4669L25.7203 68.0752C25.3786 67.7294 25.0286 67.4002 24.6786 67.0586L24.2744 66.6419C23.8431 66.2147 23.4221 65.777 23.0119 65.3294L22.9869 65.3002L22.9161 65.2419C22.4749 64.7574 22.0402 64.267 21.6119 63.771C21.4994 63.6419 21.3953 63.5044 21.2786 63.3669L20.3327 62.221C19.9064 61.6855 19.4896 61.1423 19.0827 60.5918L18.9161 60.3585C9.17429 47.125 5.64925 28.8624 13.4452 13.8789L6.56176 22.5832C-2.2925 35.2458 -1.19666 51.7126 5.57425 65.1585C5.72842 65.4877 5.89925 65.7961 6.06592 66.1086Z" fill="white"/>
<path d="M35.8871 47.8667L35.8413 47.8L35.8037 47.75L35.8871 47.8667Z" fill="black"/>
<path d="M40.5453 53.3332L40.9203 53.7082C41.3953 54.1666 41.8828 54.6124 42.3787 55.0583L42.4412 55.1124C42.9412 55.5541 43.5037 56.0166 44.0829 56.4666L44.1704 56.5333C44.312 56.6291 44.4329 56.7416 44.5704 56.8374C45.1537 57.2875 45.7412 57.7166 46.3537 58.1458L46.4162 58.1833C46.6746 58.3708 46.9496 58.5416 47.2412 58.725C47.3579 58.8 47.4912 58.9 47.6162 58.975C48.0579 59.2583 48.4912 59.5208 48.9371 59.7916C49.0079 59.8208 49.0704 59.8583 49.1371 59.8875C49.5121 60.1166 49.9204 60.3375 50.3121 60.5375C50.4496 60.6208 50.5829 60.6833 50.7246 60.7625C51.0038 60.9 51.2788 61.0458 51.5454 61.1875L51.6788 61.2458C52.2413 61.5208 52.8163 61.7792 53.3788 62.0333C53.5205 62.0875 53.6413 62.1333 53.7621 62.1917C54.2246 62.3917 54.6955 62.5833 55.158 62.7583C55.3663 62.8292 55.5621 62.9125 55.758 62.975C56.183 63.1333 56.6288 63.2792 57.0497 63.425L57.633 63.6125C58.2413 63.8 58.858 64.0459 59.5039 64.1459C92.5583 69.5876 100.208 44.2665 100.208 44.2665C93.3208 54.1291 79.9916 58.8291 65.7872 55.1583C65.0782 54.9794 64.375 54.778 63.6789 54.5541L63.9164 54.6208C63.7164 54.5666 63.5414 54.5041 63.3497 54.4458C62.9164 54.2958 62.4705 54.1499 62.0497 53.9958L61.4497 53.7708C60.983 53.5832 60.508 53.4082 60.0539 53.2082C59.9122 53.1457 59.783 53.1041 59.6747 53.0416C59.0913 52.7791 58.5038 52.5207 57.933 52.2457L57.0747 51.7999L56.5788 51.5499C56.1955 51.3499 55.8413 51.1416 55.4746 50.9291C55.3811 50.8851 55.2907 50.835 55.2038 50.7791L55.2163 50.7832C54.7746 50.5082 54.3163 50.2415 53.8913 49.9624C53.7496 49.8832 53.6205 49.7874 53.4871 49.704L52.6205 49.1415C52.0204 48.7249 51.4329 48.279 50.8371 47.8457C50.7038 47.7249 50.5746 47.6249 50.4454 47.5165C44.1995 42.629 39.2745 35.9497 36.937 28.3872C34.4744 20.5246 35.0161 11.7078 39.2703 4.55359L34.0411 11.9203C27.6202 21.0913 27.9827 33.3497 32.9828 43.0498C33.8953 44.8415 34.8203 46.354 35.8411 47.7957C36.7911 49.154 37.8411 50.7457 39.1078 51.8374C39.5578 52.3499 40.0412 52.8374 40.5453 53.3332Z" fill="white"/>
<path d="M57.1499 3.94518C53.3623 9.4744 52.9998 16.3411 55.6082 22.437C58.3791 28.9121 64.0416 33.9955 70.6417 36.4038C70.9125 36.508 71.175 36.5955 71.4542 36.6955L71.8209 36.808C72.2042 36.9288 72.5917 37.0705 72.9876 37.158C91.2419 40.6622 96.1837 27.8329 97.5128 25.9454C93.167 32.1538 85.8794 33.6455 76.9376 31.483C76.1601 31.2934 75.3948 31.0568 74.6459 30.7746L74.7834 30.8204C73.8516 30.4979 72.9389 30.1223 72.0501 29.6954L72.2084 29.7663C70.5 28.9329 69.0334 28.0329 67.6708 26.9996C59.6791 20.9578 54.7374 9.45357 59.9541 0.0826416L57.1499 3.94518Z" fill="white"/>
</svg>
