<svg width="101" height="96" viewBox="0 0 101 96" fill="none" xmlns="http://www.w3.org/2000/svg">
<path d="M6.79004 66.1086C6.88588 66.3252 6.99421 66.5252 7.11088 66.7252C7.16505 66.8419 7.24005 66.9627 7.30671 67.0711C7.41505 67.2877 7.53172 67.4961 7.64422 67.7044L8.29839 68.8044C8.41923 69.0086 8.53589 69.2086 8.6734 69.4086C8.90257 69.8003 9.1734 70.1836 9.4109 70.5753C9.51924 70.7378 9.61924 70.9003 9.74007 71.0628C10.1984 71.7753 10.6151 72.3669 11.0609 72.942C11.3776 73.3711 11.6943 73.792 12.0359 74.2128C12.1484 74.3711 12.2734 74.5295 12.3901 74.6878L13.3109 75.8045C13.4234 75.9336 13.5359 76.0836 13.6568 76.217C14.0651 76.7087 14.4985 77.1837 14.9318 77.667C14.9318 77.6753 14.9443 77.6837 14.9526 77.6962C15.4901 78.3712 16.0693 78.9712 16.7026 79.5045L16.7193 79.5212C17.0527 79.8629 17.386 80.2004 17.7402 80.5337L18.161 80.9379C18.6235 81.3712 19.086 81.8004 19.5735 82.217C19.5818 82.217 19.586 82.2254 19.5943 82.2295L19.8318 82.4379C20.2569 82.8087 20.686 83.1754 21.1235 83.517L21.6444 83.9546C21.9985 84.2379 22.3652 84.5046 22.7277 84.7837L23.2944 85.2171C23.6819 85.5087 24.0944 85.7921 24.4902 86.0754C24.6361 86.1796 24.7819 86.2837 24.9319 86.3796L25.0527 86.4754L26.2236 87.2421L26.7236 87.5754C27.3361 87.9671 27.9444 88.3338 28.5528 88.7004C28.7278 88.7879 28.9028 88.8838 29.0653 88.9838C29.5153 89.2421 29.982 89.5046 30.4361 89.7421C30.6861 89.8838 30.9445 90.0046 31.2028 90.1338C31.5153 90.3088 31.8403 90.4796 32.1736 90.6546C32.2653 90.6838 32.3403 90.7129 32.4153 90.7546L32.432 90.7379C32.5695 90.8004 32.6987 90.8671 32.832 90.9338C33.332 91.1838 33.8528 91.4213 34.3945 91.6546C34.4945 91.6963 34.6028 91.738 34.7112 91.7963C35.3112 92.0588 35.9112 92.3088 36.532 92.5505C36.6737 92.5921 36.8237 92.663 36.9695 92.7171C37.532 92.9296 38.1112 93.1463 38.6862 93.3505L38.8946 93.4255C39.5321 93.6421 40.1612 93.8505 40.8112 94.0463C40.9612 94.088 41.1154 94.1421 41.2737 94.1838C41.9363 94.3838 42.5779 94.6213 43.2488 94.7463C86.0534 102.509 98.491 69.1377 98.491 69.1377C88.0409 82.6795 69.4949 86.2504 51.9322 82.2754C51.2822 82.1254 50.6322 81.917 49.9738 81.7254C49.0446 81.4624 48.1234 81.172 47.2113 80.8545L47.6071 80.9754L47.3488 80.8754C46.7821 80.6837 46.2363 80.4712 45.6821 80.2587C45.5465 80.2012 45.4089 80.1483 45.2696 80.1004L45.2238 80.0879C44.6113 79.842 44.0154 79.592 43.4238 79.3295C43.2946 79.2878 43.1863 79.2295 43.0571 79.1795C42.3563 78.8741 41.6617 78.5546 40.9737 78.2212L41.5488 78.4753C41.3987 78.409 41.2514 78.3367 41.1071 78.2587C40.7154 78.0753 40.3237 77.867 39.9404 77.6712C39.6484 77.5328 39.3608 77.3855 39.0779 77.2295L39.1612 77.2712C38.6904 77.0212 38.2195 76.7503 37.7445 76.4962C37.6029 76.3962 37.4404 76.3128 37.2779 76.2212C36.5718 75.8108 35.8744 75.3857 35.1862 74.9461L35.4487 75.1045C35.2723 74.9955 35.1 74.8802 34.932 74.7586L34.957 74.7753C34.5092 74.5002 34.0701 74.2112 33.6403 73.9086C33.4987 73.817 33.3695 73.717 33.2237 73.617C32.7747 73.3105 32.3329 72.9938 31.8986 72.667L31.9986 72.7378C31.8236 72.5961 31.6361 72.4628 31.4486 72.3253C31.082 72.0378 30.7111 71.7628 30.3445 71.4628L29.8528 71.0711C29.3288 70.6542 28.8147 70.2249 28.3111 69.7836L28.3069 69.7794L26.8611 68.4669L26.4444 68.0752C26.1027 67.7294 25.7527 67.4002 25.4027 67.0586L24.9986 66.6419C24.5672 66.2147 24.1462 65.777 23.7361 65.3294L23.7111 65.3002L23.6402 65.2419C23.199 64.7574 22.7643 64.267 22.336 63.771C22.2235 63.6419 22.1194 63.5044 22.0027 63.3669L21.0569 62.221C20.6305 61.6855 20.2138 61.1423 19.8068 60.5918L19.6402 60.3585C9.89841 47.125 6.37337 28.8624 14.1693 13.8789L7.28588 22.5832C-1.56838 35.2458 -0.472536 51.7126 6.29837 65.1585C6.45254 65.4877 6.62337 65.7961 6.79004 66.1086Z" fill="#1266A9"/>
<path d="M36.6113 47.8667L36.5654 47.8L36.5278 47.75L36.6113 47.8667Z" fill="black"/>
<path d="M41.2696 53.3332L41.6446 53.7082C42.1196 54.1666 42.6071 54.6124 43.1029 55.0583L43.1654 55.1124C43.6654 55.5541 44.2279 56.0166 44.8071 56.4666L44.8946 56.5333C45.0363 56.6291 45.1571 56.7416 45.2946 56.8374C45.878 57.2875 46.4655 57.7166 47.078 58.1458L47.1405 58.1833C47.3988 58.3708 47.6738 58.5416 47.9655 58.725C48.0821 58.8 48.2155 58.9 48.3405 58.975C48.7822 59.2583 49.2155 59.5208 49.6613 59.7916C49.7322 59.8208 49.7947 59.8583 49.8613 59.8875C50.2363 60.1166 50.6447 60.3375 51.0363 60.5375C51.1738 60.6208 51.3072 60.6833 51.4488 60.7625C51.728 60.9 52.003 61.0458 52.2697 61.1875L52.403 61.2458C52.9655 61.5208 53.5405 61.7792 54.103 62.0333C54.2447 62.0875 54.3655 62.1333 54.4864 62.1917C54.9489 62.3917 55.4197 62.5833 55.8822 62.7583C56.0906 62.8292 56.2864 62.9125 56.4822 62.975C56.9072 63.1333 57.3531 63.2792 57.7739 63.425L58.3572 63.6125C58.9656 63.8 59.5823 64.0459 60.2281 64.1459C93.2826 69.5876 100.933 44.2665 100.933 44.2665C94.0451 54.1291 80.7158 58.8291 66.5115 55.1583C65.8024 54.9794 65.0993 54.778 64.4031 54.5541L64.6406 54.6208C64.4406 54.5666 64.2656 54.5041 64.074 54.4458C63.6406 54.2958 63.1948 54.1499 62.774 53.9958L62.1739 53.7708C61.7073 53.5832 61.2323 53.4082 60.7781 53.2082C60.6364 53.1457 60.5073 53.1041 60.3989 53.0416C59.8156 52.7791 59.2281 52.5207 58.6572 52.2457L57.7989 51.7999L57.3031 51.5499C56.9197 51.3499 56.5656 51.1416 56.1989 50.9291C56.1054 50.8851 56.0149 50.835 55.9281 50.7791L55.9406 50.7832C55.4989 50.5082 55.0405 50.2415 54.6155 49.9624C54.4739 49.8832 54.3447 49.7874 54.2114 49.704L53.3447 49.1415C52.7447 48.7249 52.1572 48.279 51.5613 47.8457C51.428 47.7249 51.2988 47.6249 51.1697 47.5165C44.9238 42.629 39.9987 35.9497 37.6612 28.3872C35.1987 20.5246 35.7404 11.7078 39.9946 4.55359L34.7653 11.9203C28.3445 21.0913 28.707 33.3497 33.707 43.0498C34.6195 44.8415 35.5445 46.354 36.5654 47.7957C37.5154 49.154 38.5654 50.7457 39.8321 51.8374C40.2821 52.3499 40.7654 52.8374 41.2696 53.3332Z" fill="#1266A9"/>
<path d="M57.8739 3.94518C54.0863 9.4744 53.7238 16.3411 56.3322 22.437C59.1031 28.9121 64.7656 33.9955 71.3657 36.4038C71.6365 36.508 71.899 36.5955 72.1782 36.6955L72.5449 36.808C72.9282 36.9288 73.3157 37.0705 73.7116 37.158C91.9659 40.6622 96.9077 27.8329 98.2368 25.9454C93.891 32.1538 86.6034 33.6455 77.6616 31.483C76.8841 31.2934 76.1188 31.0568 75.3699 30.7746L75.5074 30.8204C74.5756 30.4979 73.6629 30.1223 72.7741 29.6954L72.9324 29.7663C71.224 28.9329 69.7574 28.0329 68.3948 26.9996C60.4031 20.9578 55.4614 9.45357 60.6781 0.0826416L57.8739 3.94518Z" fill="#1266A9"/>
</svg>
