<svg width="106" height="103" viewBox="0 0 106 103" fill="none" xmlns="http://www.w3.org/2000/svg">
<path d="M93.8037 24.3846C93.2319 22.5549 91.8596 21.0683 90.1443 20.1535L55.2662 3.45772C54.3514 3.0003 53.3222 2.88595 52.4074 2.88595C51.4925 2.88595 50.4633 2.88595 49.5485 3.11466L14.6704 19.9248C12.9551 20.7252 11.6972 22.2118 11.2398 24.1559L2.66318 61.7785C2.32012 63.7225 2.77753 65.6665 3.92108 67.2675L28.0499 97.114C29.4221 98.4862 31.3661 99.4011 33.3102 99.5154H71.7333C73.7916 99.7441 75.7357 98.8293 76.9936 97.114L101.122 67.2675C102.266 65.6665 102.723 63.7225 102.495 61.7785L93.8037 24.3846Z" fill="white" stroke="white" stroke-width="5" stroke-miterlimit="10"/>
<path d="M93.8037 24.3846C93.2319 22.5549 91.8596 21.0683 90.1443 20.1535L55.2662 3.45772C54.3514 3.0003 53.3222 2.88595 52.4074 2.88595C51.4925 2.88595 50.4633 2.88595 49.5485 3.11466L14.6704 19.9248C12.9551 20.7252 11.6972 22.2118 11.2398 24.1559L2.66318 61.7785C2.32012 63.7225 2.77753 65.6665 3.92108 67.2675L28.0499 97.114C29.4221 98.4862 31.3661 99.4011 33.3102 99.5154H71.7333C73.7916 99.7441 75.7357 98.8293 76.9936 97.114L101.122 67.2675C102.266 65.6665 102.723 63.7225 102.495 61.7785L93.8037 24.3846Z" fill="#326DE6"/>
<path d="M88.429 60.2919C88.3146 60.2919 88.2003 60.2919 88.2003 60.1775C88.2003 60.0632 87.9716 60.0632 87.7429 60.0632C87.2854 59.9488 86.828 59.9488 86.3706 59.9488C86.1419 59.9488 85.9132 59.9488 85.6845 59.8344H85.5701C84.3122 59.7201 82.94 59.4914 81.6821 59.1483C81.339 59.034 80.9959 58.6909 80.8816 58.3478L79.9668 58.1191C80.4242 54.8029 80.1955 51.3722 79.5093 48.0559C78.7089 44.7397 77.3366 41.5377 75.5069 38.6789L76.1931 37.9928V37.8784C76.1931 37.5353 76.3074 37.0779 76.5361 36.8492C77.5653 35.9344 78.5945 35.2483 79.738 34.5621C79.9668 34.4478 80.1955 34.3334 80.4242 34.2191C80.8816 33.9904 81.2246 33.7616 81.6821 33.5329C81.7964 33.4186 81.9108 33.4186 82.0251 33.3042C82.1395 33.1899 82.0251 33.1899 82.0251 33.0755C83.0543 32.275 83.283 30.9028 82.4826 29.8736C82.1395 29.4162 81.4534 29.0731 80.8816 29.0731C80.3098 29.0731 79.738 29.3018 79.2806 29.6449L79.1663 29.7592C79.0519 29.8736 78.9376 29.988 78.8232 29.988C78.4801 30.331 78.1371 30.6741 77.9084 31.0171C77.794 31.2459 77.5653 31.3602 77.451 31.4746C76.6505 32.3894 75.6213 33.3042 74.5921 33.9904C74.3634 34.1047 74.1347 34.2191 73.906 34.2191C73.7916 34.2191 73.5629 34.2191 73.4486 34.1047H73.3342L72.4194 34.6765C71.5045 33.7616 70.4753 32.8468 69.5605 31.932C65.3294 28.6157 60.0691 26.5573 54.6944 25.9855L54.5801 25.0707V25.1851C54.237 24.9564 54.1227 24.6133 54.0083 24.2702C54.0083 23.0123 54.0083 21.7544 54.237 20.3822V20.2678C54.237 20.0391 54.3514 19.8104 54.3514 19.5817C54.4657 19.1243 54.4657 18.6669 54.5801 18.2094V17.5233C54.6944 16.3798 53.7796 15.2362 52.636 15.1219C51.9499 15.0075 51.2638 15.3506 50.692 15.9224C50.2346 16.3798 50.0059 16.9515 50.0059 17.5233V18.0951C50.0059 18.5525 50.1203 19.0099 50.2346 19.4673C50.349 19.6961 50.349 19.9248 50.349 20.1535V20.2678C50.5777 21.5257 50.5777 22.7836 50.5777 24.1559C50.4633 24.4989 50.349 24.842 50.0059 25.0707V25.2994L49.8915 26.2143C48.6336 26.3286 47.3757 26.5573 46.0035 26.786C40.6288 27.9296 35.7116 30.7884 31.9379 34.7908L31.2518 34.3334H31.1374C31.0231 34.3334 30.9087 34.4478 30.68 34.4478C30.4513 34.4478 30.2226 34.3334 29.9939 34.2191C28.9647 33.4186 27.9355 32.5037 27.135 31.5889C27.0207 31.3602 26.792 31.2459 26.6776 31.1315C26.3345 30.7884 26.1058 30.4454 25.7628 30.1023C25.6484 29.988 25.5341 29.988 25.4197 29.8736C25.3053 29.7592 25.3053 29.7592 25.3053 29.7592C24.8479 29.4162 24.2762 29.1875 23.7044 29.1875C23.0183 29.1875 22.4465 29.4162 22.1034 29.988C21.4173 31.0171 21.646 32.3894 22.5608 33.1899C22.6752 33.1899 22.6752 33.3042 22.6752 33.3042C22.6752 33.3042 22.9039 33.5329 23.0183 33.5329C23.3613 33.7616 23.8187 33.9904 24.2762 34.2191C24.5049 34.3334 24.7336 34.4478 24.9623 34.5621C26.1058 35.2483 27.2494 35.9344 28.1642 36.8492C28.3929 37.0779 28.6216 37.5353 28.5073 37.8784V37.7641L29.1934 38.4502C29.079 38.6789 28.9647 38.7932 28.8503 39.0219C25.3053 44.6253 23.8187 51.2579 24.8479 57.7761L23.9331 58.0048C23.9331 58.1191 23.8187 58.1191 23.8187 58.1191C23.7044 58.4622 23.3613 58.6909 23.0183 58.9196C21.7604 59.2627 20.5025 59.4914 19.1302 59.6057C18.9015 59.6057 18.6728 59.6057 18.4441 59.7201C17.9867 59.7201 17.5292 59.8344 17.0718 59.8344C16.9575 59.8344 16.8431 59.9488 16.6144 59.9488C16.5001 59.9488 16.5001 59.9488 16.3857 60.0632C15.1278 60.2919 14.3273 61.4354 14.556 62.6933C14.7847 63.7225 15.8139 64.4086 16.8431 64.2943C17.0718 64.2943 17.1862 64.2943 17.4149 64.1799C17.5292 64.1799 17.5292 64.1799 17.5292 64.0656C17.5292 63.9512 17.8723 64.0656 17.9867 64.0656C18.4441 63.9512 18.9015 63.7225 19.2446 63.6081C19.4733 63.4938 19.702 63.3794 19.9307 63.3794H20.045C21.3029 62.922 22.4465 62.579 23.8187 62.3503H23.9331C24.2762 62.3503 24.6192 62.4646 24.8479 62.6933C24.9623 62.6933 24.9623 62.8077 24.9623 62.8077L25.9915 62.6933C27.7068 67.9536 30.9087 72.6421 35.3685 76.0728C36.3977 76.8733 37.3126 77.5594 38.4561 78.1312L37.8843 78.9316C37.8843 79.046 37.9987 79.046 37.9987 79.046C38.2274 79.3891 38.2274 79.8465 38.113 80.1895C37.6556 81.3331 36.9695 82.4766 36.2834 83.5058V83.6202C36.169 83.8489 36.0547 83.9632 35.826 84.1919C35.5972 84.4206 35.3685 84.8781 35.0255 85.3355C34.9111 85.4498 34.9111 85.5642 34.7968 85.6786C34.7968 85.6786 34.7968 85.7929 34.6824 85.7929C34.1106 86.9364 34.5681 88.3087 35.5972 88.8805C35.826 88.9948 36.169 89.1092 36.3977 89.1092C37.3126 89.1092 38.113 88.5374 38.5705 87.7369C38.5705 87.7369 38.5705 87.6226 38.6848 87.6226C38.6848 87.5082 38.7992 87.3939 38.9135 87.2795C39.0279 86.8221 39.2566 86.479 39.3709 86.0216L39.5996 85.3355C39.9427 84.0776 40.5145 82.934 41.0863 81.7905C41.315 81.4474 41.658 81.2187 42.0011 81.1044C42.1154 81.1044 42.1154 81.1044 42.1154 80.99L42.5729 80.0752C45.7748 81.3331 49.0911 81.9049 52.5217 81.9049C54.5801 81.9049 56.6385 81.6761 58.6968 81.1044C59.9547 80.8757 61.2126 80.4182 62.3562 80.0752L62.8136 80.8757C62.9279 80.8757 62.9279 80.8757 62.9279 80.99C63.271 81.1044 63.6141 81.3331 63.8428 81.6761C64.4146 82.8197 64.9863 83.9632 65.3294 85.2211V85.3355L65.5581 86.0216C65.6725 86.479 65.7868 86.9364 66.0155 87.2795C66.1299 87.3939 66.1299 87.5082 66.2442 87.6226C66.2442 87.6226 66.2442 87.7369 66.3586 87.7369C66.816 88.5374 67.6165 89.1092 68.5313 89.1092C68.8744 89.1092 69.1031 88.9948 69.4461 88.8805C69.9036 88.6518 70.361 88.1943 70.4753 87.6226C70.5897 87.0508 70.5897 86.479 70.361 85.9073C70.361 85.7929 70.2466 85.7929 70.2466 85.7929C70.2466 85.6786 70.1323 85.5642 70.0179 85.4498C69.7892 84.9924 69.5605 84.6494 69.2174 84.3063C69.1031 84.0776 68.9887 83.9632 68.76 83.7345V83.5058C67.9595 82.4766 67.3878 81.3331 66.9304 80.1895C66.816 79.8465 66.816 79.3891 67.0447 79.046C67.0447 78.9316 67.1591 78.9316 67.1591 78.9316L66.816 78.0168C72.6481 74.4718 77.1079 68.9828 79.1663 62.4646L80.0811 62.579C80.1955 62.579 80.1955 62.4646 80.1955 62.4646C80.4242 62.2359 80.7672 62.1215 81.1103 62.1215H81.2247C82.4826 62.3502 83.7404 62.6933 84.884 63.1507H84.9983C85.2271 63.2651 85.4558 63.3794 85.6845 63.3794C86.1419 63.6082 86.485 63.8369 86.9424 63.9512C87.0567 63.9512 87.1711 64.0656 87.3998 64.0656C87.5141 64.0656 87.5141 64.0656 87.6285 64.1799C87.8572 64.2943 87.9716 64.2943 88.2003 64.2943C89.2295 64.2943 90.1443 63.6081 90.4874 62.6933C90.373 61.4354 89.4582 60.5206 88.429 60.2919ZM55.3806 56.7469L52.293 58.2335L49.2054 56.7469L48.4049 53.4306L50.5777 50.6861H54.0083L56.181 53.4306L55.3806 56.7469ZM74.0203 49.3138C74.5921 51.7153 74.7065 54.1167 74.4777 56.5182L63.6141 53.4306C62.5849 53.2019 62.0131 52.1727 62.2418 51.1435C62.3562 50.8005 62.4705 50.5717 62.6992 50.343L71.2758 42.5669C72.5337 44.6253 73.4486 46.9124 74.0203 49.3138ZM67.8452 38.3358L58.4681 44.9684C57.6676 45.4258 56.5241 45.3114 55.9523 44.511C55.7236 44.2823 55.6093 44.0535 55.6093 43.7105L54.9231 32.1607C59.9547 32.7325 64.4146 34.9052 67.8452 38.3358ZM47.147 32.5037L49.4341 32.0463L48.8624 43.4818C48.8624 44.511 47.9475 45.3114 46.9183 45.3114C46.5753 45.3114 46.3466 45.1971 46.0035 45.0827L36.5121 38.3358C39.4853 35.477 43.1446 33.4186 47.147 32.5037ZM33.1958 42.5669L41.658 50.1143C42.4585 50.8005 42.5729 51.944 41.8867 52.7445C41.658 53.0875 41.4293 53.2019 40.9719 53.3162L29.8795 56.5182C29.5365 51.7153 30.68 46.798 33.1958 42.5669ZM31.2518 61.8928L42.5729 59.9488C43.4877 59.9488 44.4025 60.5206 44.5169 61.4354C44.6312 61.7785 44.6312 62.2359 44.4025 62.579L40.0571 73.0996C36.0547 70.4694 32.8527 66.467 31.2518 61.8928ZM57.2102 76.0728C55.6093 76.4158 54.0083 76.6446 52.293 76.6446C49.8915 76.6446 47.3757 76.1871 45.0887 75.501L50.692 65.3235C51.2638 64.6373 52.1786 64.4086 52.9791 64.866C53.3222 65.0948 53.5509 65.3235 53.894 65.6665L59.383 75.6154C58.6968 75.7297 58.0107 75.8441 57.2102 76.0728ZM71.1615 66.1239C69.4461 68.8685 67.0447 71.2699 64.3002 72.9852L59.8404 62.2359C59.6117 61.3211 60.0691 60.4062 60.8696 60.0632C61.2126 59.9488 61.5557 59.8344 61.8988 59.8344L73.3342 61.7785C72.7624 63.3794 72.0763 64.866 71.1615 66.1239Z" fill="white"/>
</svg>
