<svg width="46" height="101" viewBox="0 0 46 101" fill="none" xmlns="http://www.w3.org/2000/svg">
<path d="M22.6191 1.16418L25.2877 6.17631C25.8876 7.10124 26.5376 7.91993 27.3032 8.68237C29.5477 10.8989 31.6398 13.2645 33.5652 15.7631C38.0868 21.7002 41.1366 28.2934 43.3145 35.4241C44.6207 39.7801 45.33 44.2485 45.3831 48.7669C45.6019 62.2752 40.971 73.8744 31.6341 83.5143C30.1154 85.043 28.4747 86.4454 26.7282 87.7077C25.8033 87.7077 25.3658 86.9984 24.9846 86.3453C24.2904 85.1343 23.8283 83.8043 23.6222 82.4237C23.2941 80.7895 23.0785 79.1552 23.1847 77.4679V76.7054C23.1097 76.5429 22.2942 1.54853 22.6191 1.16418Z" fill="#599636"/>
<path d="M22.6191 0.998615C22.5098 0.779881 22.4004 0.945494 22.291 1.05174C22.3442 2.14541 21.9629 3.12033 21.3661 4.05151C20.7099 4.97645 19.8412 5.68577 18.9694 6.44821C14.126 10.6417 10.3138 15.7069 7.26088 21.3721C3.19867 28.9965 1.10508 37.1678 0.51137 45.7703C0.239515 48.8732 1.49255 59.8224 2.4706 62.9815C5.13916 71.3684 9.93256 78.396 16.1415 84.4956C17.6664 85.9642 19.2975 87.3266 20.9849 88.6359C21.4755 88.6359 21.5286 88.1984 21.6411 87.8735C21.8562 87.1781 22.0201 86.4679 22.1317 85.7486L23.2253 77.5805L22.6191 0.998615Z" fill="#6CAC48"/>
<path d="M25.2877 91.0263C25.397 89.7764 25.997 88.739 26.6501 87.7047C25.9939 87.4328 25.5064 86.8923 25.1252 86.2892C24.7965 85.7182 24.5244 85.1164 24.3127 84.4924C23.5503 82.2051 23.3878 79.8053 23.1691 77.468V76.0525C22.8972 76.2712 22.841 78.1211 22.841 78.3961C22.682 80.8664 22.3541 83.323 21.8598 85.7486C21.6973 86.7298 21.5879 87.7078 20.9849 88.5796C20.9849 88.689 20.9849 88.7984 21.038 88.9608C22.0192 91.8481 22.2879 94.7885 22.4535 97.7852V98.8788C22.4535 100.185 22.4004 99.91 23.4847 100.347C23.9222 100.51 24.4096 100.566 24.8471 100.891C25.1752 100.891 25.2283 100.619 25.2283 100.401L25.0658 98.6038V93.5917C25.0127 92.7168 25.1752 91.8481 25.2846 91.0294L25.2877 91.0263Z" fill="#C2BFBF"/>
</svg>
