<svg width="101" height="100" viewBox="0 0 101 100" fill="none" xmlns="http://www.w3.org/2000/svg">
<path d="M92.5953 77.1365C87.1544 76.9988 82.9376 77.5512 79.4009 79.0698C78.3806 79.4837 76.7481 79.4841 76.612 80.7959C77.1562 81.3483 77.2242 82.2459 77.7004 83.005C78.5174 84.3855 79.9447 86.2498 81.237 87.2168C82.6651 88.3211 84.0939 89.4255 85.5896 90.3921C88.2424 92.0492 91.2353 93.0155 93.8196 94.6726C95.3165 95.6384 96.8118 96.882 98.3082 97.9173C99.0564 98.4689 99.5322 99.3673 100.485 99.7121V99.5054C100.008 98.8836 99.8723 97.9864 99.3965 97.2959C98.7171 96.6055 98.0361 95.984 97.3559 95.2936C95.3837 92.6016 92.9354 90.254 90.283 88.3211C88.1067 86.8021 83.3453 84.7311 82.4614 82.1764C82.4614 82.1764 82.393 82.1078 82.3254 82.0387C83.8214 81.9007 85.5896 81.3483 87.0184 80.934C89.3307 80.3122 91.4389 80.4507 93.8196 79.8293C94.9076 79.5531 95.9959 79.2079 97.0838 78.8626V78.2416C95.8603 76.9988 94.976 75.3421 93.6836 74.1683C90.215 71.1299 86.4058 68.1617 82.4614 65.6765C80.3528 64.2955 77.632 63.3979 75.3877 62.2246C74.5722 61.8099 73.2114 61.6031 72.7357 60.9127C71.5109 59.3941 70.8307 57.3921 69.9468 55.597C67.975 51.7994 66.0701 47.5884 64.3696 43.5845C63.146 40.8918 62.3977 38.199 60.9013 35.7141C53.896 23.9775 46.2785 16.8666 34.5805 9.89333C32.0638 8.44376 29.0713 7.82235 25.8747 7.06324C24.175 6.9938 22.4741 6.8561 20.774 6.78666C19.6856 6.30334 18.5973 4.99186 17.645 4.37045C13.769 1.8848 3.77042 -3.49959 0.913952 3.61134C-0.922598 8.09853 3.63477 12.5167 5.19845 14.7956C6.35558 16.3832 7.85125 18.178 8.66749 19.9732C9.14364 21.1462 9.27929 22.3898 9.75543 23.6323C10.8441 26.6691 11.8637 30.0527 13.2925 32.8836C14.0407 34.3332 14.8566 35.8518 15.8089 37.1637C16.353 37.9228 17.3049 38.2684 17.5094 39.5108C16.5575 40.8918 16.4891 42.9631 15.9445 44.6889C13.4962 52.4903 14.4488 62.1555 17.9171 67.8855C19.005 69.6109 21.5898 73.4092 25.0585 71.9588C28.1194 70.7164 27.4392 66.7812 28.3227 63.3293C28.5275 62.5 28.3915 61.9484 28.7992 61.396V61.5345C29.7515 63.467 30.7034 65.3316 31.5876 67.2645C33.6963 70.647 37.3686 74.1683 40.4291 76.5159C42.062 77.7579 43.354 79.8983 45.3946 80.6578V80.4503H45.2582C44.85 79.8289 44.2379 79.5531 43.6941 79.0694C42.4701 77.8273 41.1093 76.3083 40.1574 74.9274C37.3013 71.0609 34.7842 66.7808 32.5399 62.3623C31.452 60.2226 30.4993 57.8751 29.6154 55.735C29.2069 54.9057 29.2069 53.6637 28.5271 53.2498C27.5068 54.7684 26.0107 56.0803 25.2625 57.9441C23.9709 60.9127 23.8345 64.5717 23.3583 68.3685C23.0863 68.4383 23.2219 68.3685 23.0859 68.5073C20.91 67.9542 20.1618 65.6765 19.3451 63.7432C17.3045 58.8417 16.9644 50.9713 18.7333 45.3103C19.2095 43.8603 21.2501 39.3041 20.4339 37.9232C20.0257 36.6113 18.6649 35.8518 17.9171 34.8165C17.0332 33.5046 16.0805 31.8483 15.4688 30.398C13.8363 26.5318 13.02 22.2514 11.2519 18.3852C10.4356 16.59 9.00799 14.7265 7.85125 13.0694C6.55925 11.2056 5.13083 9.89333 4.11052 7.68425C3.77081 6.92515 3.29428 5.68232 3.83844 4.85377C3.97448 4.3014 4.24617 4.09466 4.79072 3.95657C5.67499 3.19667 8.19174 4.16331 9.07523 4.57759C11.592 5.61248 13.7002 6.57992 15.8089 8.02948C16.7607 8.71994 17.7811 10.0318 19.005 10.377H20.4335C22.6101 10.86 25.0581 10.5151 27.0987 11.1362C30.7038 12.3095 33.968 14.0357 36.8928 15.8999C45.8027 21.6299 53.1474 29.7766 58.1129 39.5108C58.9291 41.0981 59.2688 42.5489 60.017 44.2052C61.4459 47.5884 63.214 51.0403 64.6416 54.3541C66.0701 57.5985 67.4301 60.9127 69.4707 63.6055C70.491 65.0547 74.5714 65.8146 76.408 66.5741C77.7684 67.1951 79.877 67.7478 81.101 68.5069C83.4133 69.9561 85.7256 71.614 87.9023 73.2013C88.9906 74.0298 92.3908 75.756 92.5953 77.1365Z" fill="#00546B"/>
<path d="M23.2215 17.142C22.0656 17.142 21.2497 17.2809 20.4335 17.4876V17.6257H20.5695C21.1141 18.7304 22.0656 19.4899 22.7454 20.4562C23.2899 21.5605 23.7657 22.6656 24.3102 23.7704C24.3779 23.7009 24.4459 23.6323 24.4459 23.6323C25.3986 22.9414 25.8743 21.8371 25.8743 20.18C25.4662 19.6971 25.3982 19.2137 25.0581 18.7304C24.6503 18.0396 23.7657 17.6947 23.2215 17.142Z" fill="#00546B"/>
</svg>
