<svg width="101" height="100" viewBox="0 0 101 100" fill="none" xmlns="http://www.w3.org/2000/svg">
<path d="M92.8712 77.1365C87.4303 76.9988 83.2134 77.5512 79.6768 79.0698C78.6565 79.4837 77.024 79.4841 76.8879 80.7959C77.4321 81.3483 77.5001 82.2459 77.9763 83.005C78.7933 84.3855 80.2205 86.2498 81.5129 87.2168C82.941 88.3211 84.3698 89.4255 85.8654 90.3921C88.5182 92.0492 91.5111 93.0155 94.0955 94.6726C95.5924 95.6384 97.0876 96.882 98.5841 97.9173C99.3323 98.4689 99.8081 99.3673 100.761 99.7121V99.5054C100.284 98.8836 100.148 97.9864 99.6724 97.2959C98.993 96.6055 98.312 95.984 97.6318 95.2936C95.6596 92.6016 93.2113 90.254 90.5589 88.3211C88.3826 86.8021 83.6212 84.7311 82.7373 82.1764C82.7373 82.1764 82.6689 82.1078 82.6012 82.0387C84.0973 81.9007 85.8654 81.3483 87.2943 80.934C89.6066 80.3122 91.7148 80.4507 94.0955 79.8293C95.1835 79.5531 96.2718 79.2079 97.3597 78.8626V78.2416C96.1361 76.9988 95.2519 75.3421 93.9595 74.1683C90.4908 71.1299 86.6817 68.1617 82.7373 65.6765C80.6287 64.2955 77.9078 63.3979 75.6636 62.2246C74.8481 61.8099 73.4873 61.6031 73.0115 60.9127C71.7868 59.3941 71.1066 57.3921 70.2227 55.597C68.2509 51.7994 66.3459 47.5884 64.6454 43.5845C63.4218 40.8918 62.6736 38.199 61.1772 35.7141C54.1719 23.9775 46.5543 16.8666 34.8564 9.89333C32.3397 8.44376 29.3471 7.82235 26.1506 7.06324C24.4508 6.9938 22.75 6.8561 21.0498 6.78666C19.9615 6.30334 18.8732 4.99186 17.9209 4.37045C14.0449 1.8848 4.0463 -3.49959 1.18983 3.61134C-0.646719 8.09853 3.91065 12.5167 5.47433 14.7956C6.63146 16.3832 8.12713 18.178 8.94337 19.9732C9.41952 21.1462 9.55517 22.3898 10.0313 23.6323C11.12 26.6691 12.1396 30.0527 13.5684 32.8836C14.3166 34.3332 15.1324 35.8518 16.0847 37.1637C16.6289 37.9228 17.5808 38.2684 17.7852 39.5108C16.8333 40.8918 16.7649 42.9631 16.2204 44.6889C13.772 52.4903 14.7247 62.1555 18.193 67.8855C19.2809 69.6109 21.8657 73.4092 25.3343 71.9588C28.3953 70.7164 27.715 66.7812 28.5985 63.3293C28.8034 62.5 28.6673 61.9484 29.0751 61.396V61.5345C30.0274 63.467 30.9792 65.3316 31.8635 67.2645C33.9721 70.647 37.6445 74.1683 40.705 76.5159C42.3379 77.7579 43.6299 79.8983 45.6705 80.6578V80.4503H45.534C45.1259 79.8289 44.5137 79.5531 43.97 79.0694C42.746 77.8273 41.3852 76.3083 40.4333 74.9274C37.5772 71.0609 35.0601 66.7808 32.8158 62.3623C31.7279 60.2226 30.7752 57.8751 29.8913 55.735C29.4828 54.9057 29.4828 53.6637 28.803 53.2498C27.7827 54.7684 26.2866 56.0803 25.5384 57.9441C24.2468 60.9127 24.1104 64.5717 23.6342 68.3685C23.3621 68.4383 23.4978 68.3685 23.3617 68.5073C21.1859 67.9542 20.4376 65.6765 19.621 63.7432C17.5804 58.8417 17.2403 50.9713 19.0092 45.3103C19.4854 43.8603 21.526 39.3041 20.7097 37.9232C20.3016 36.6113 18.9408 35.8518 18.193 34.8165C17.3091 33.5046 16.3564 31.8483 15.7446 30.398C14.1121 26.5318 13.2959 22.2514 11.5278 18.3852C10.7115 16.59 9.28387 14.7265 8.12713 13.0694C6.83513 11.2056 5.4067 9.89333 4.3864 7.68425C4.04669 6.92515 3.57015 5.68232 4.11432 4.85377C4.25036 4.3014 4.52205 4.09466 5.0666 3.95657C5.95087 3.19667 8.46762 4.16331 9.35111 4.57759C11.8679 5.61248 13.9761 6.57992 16.0847 8.02948C17.0366 8.71994 18.0569 10.0318 19.2809 10.377H20.7093C22.886 10.86 25.3339 10.5151 27.3746 11.1362C30.9796 12.3095 34.2438 14.0357 37.1687 15.8999C46.0786 21.6299 53.4232 29.7766 58.3887 39.5108C59.205 41.0981 59.5447 42.5489 60.2929 44.2052C61.7217 47.5884 63.4899 51.0403 64.9175 54.3541C66.3459 57.5985 67.706 60.9127 69.7466 63.6055C70.7669 65.0547 74.8473 65.8146 76.6839 66.5741C78.0443 67.1951 80.1529 67.7478 81.3769 68.5069C83.6892 69.9561 86.0015 71.614 88.1781 73.2013C89.2665 74.0298 92.6667 75.756 92.8712 77.1365Z" fill="white"/>
<path d="M23.4975 17.142C22.3416 17.142 21.5257 17.2809 20.7095 17.4876V17.6257H20.8455C21.3901 18.7304 22.3416 19.4899 23.0214 20.4562C23.5659 21.5605 24.0417 22.6656 24.5862 23.7704C24.6539 23.7009 24.7219 23.6323 24.7219 23.6323C25.6746 22.9414 26.1503 21.8371 26.1503 20.18C25.7422 19.6971 25.6742 19.2137 25.3341 18.7304C24.9263 18.0396 24.0417 17.6947 23.4975 17.142Z" fill="white"/>
</svg>
