<svg width="101" height="101" viewBox="0 0 101 101" fill="none" xmlns="http://www.w3.org/2000/svg">
<path fill-rule="evenodd" clip-rule="evenodd" d="M59.4329 0.414112C58.7098 0.414112 58.0384 0.569068 57.4185 0.775664C58.7356 1.65372 59.4587 2.81586 59.8203 4.13294C59.8462 4.31371 59.8978 4.44284 59.9236 4.62361C59.9495 4.77856 59.9752 4.93351 59.9752 5.08847C60.0786 7.36108 59.3813 7.64515 58.8906 8.98806C58.1416 10.7184 58.3482 12.5778 59.2521 14.0756C59.3296 14.2564 59.4329 14.463 59.562 14.6438C58.5807 8.11001 64.0298 7.12865 65.037 5.08847C65.1144 3.30653 63.6424 2.11857 62.4803 1.29217C61.3698 0.620714 60.3626 0.414112 59.4329 0.414112ZM67.6453 1.88615C67.542 2.48012 67.6194 2.32517 67.5937 2.63508C67.5678 2.84167 67.5678 3.09993 67.5421 3.30653C67.4905 3.51313 67.4387 3.71973 67.3613 3.92634C67.3097 4.13294 67.2322 4.33954 67.1547 4.54613C67.0514 4.75275 66.9739 4.93351 66.8706 5.14011C66.7932 5.24346 66.7415 5.34671 66.664 5.45002C66.6124 5.52749 66.5607 5.60497 66.5091 5.68245C66.38 5.86323 66.2508 6.044 66.1217 6.19895C65.9667 6.3539 65.8376 6.53467 65.6568 6.66381V6.68966C65.5019 6.81879 65.3469 6.97374 65.1662 7.10286C64.6238 7.51606 64.004 7.82596 63.4359 8.21335C63.2551 8.34247 63.0743 8.44578 62.9194 8.60072C62.7386 8.72985 62.5837 8.85897 62.4287 9.01392C62.2479 9.16887 62.1188 9.32383 61.9638 9.50461C61.8347 9.65956 61.6798 9.84033 61.5765 10.0211C61.4473 10.2019 61.3182 10.3827 61.2149 10.5634C61.1116 10.77 61.0341 10.9508 60.9308 11.1574C60.8534 11.364 60.7759 11.5448 60.7242 11.7514C60.6468 11.9838 60.5951 12.1904 60.5435 12.397C60.5176 12.5004 60.5176 12.6294 60.4919 12.7327C60.466 12.8361 60.466 12.9393 60.4403 13.0427C60.4403 13.2492 60.4144 13.4817 60.4144 13.6883C60.4144 13.8432 60.4144 13.9982 60.4403 14.1531C60.4403 14.3597 60.4661 14.5663 60.5177 14.7988C60.5436 15.0054 60.5952 15.212 60.6469 15.4186C60.7243 15.6252 60.776 15.8318 60.8535 16.0384C60.9051 16.1675 60.9826 16.2966 61.0342 16.3999L55.0944 14.1015C54.0873 13.8174 53.1059 13.5592 52.0987 13.3267C51.5564 13.1976 51.0141 13.0685 50.4717 12.9393C48.9222 12.6294 47.3469 12.397 45.7716 12.2421C45.72 12.2421 45.6941 12.2162 45.6424 12.2162C44.0929 12.0613 42.5693 11.9838 41.0197 11.9838C39.8834 11.9838 38.7471 12.0354 37.6366 12.1129C36.0613 12.2163 34.486 12.4228 32.9106 12.6811C32.5233 12.7327 32.1359 12.8102 31.7485 12.8877C30.9479 13.0426 30.1732 13.2234 29.4242 13.4042C29.0369 13.5075 28.6495 13.6108 28.2621 13.7141C27.8747 13.869 27.5132 14.0498 27.1516 14.2048C26.8675 14.3339 26.5835 14.463 26.2994 14.5921C26.2478 14.618 26.1961 14.618 26.1703 14.6437C25.912 14.7729 25.6796 14.8762 25.4472 15.0053C25.3697 15.0312 25.318 15.0569 25.2664 15.0828C24.9823 15.2119 24.6982 15.3668 24.4658 15.496C24.285 15.5734 24.1043 15.6767 23.9493 15.7542C23.8718 15.8058 23.7685 15.8576 23.7169 15.8833C23.4845 16.0125 23.252 16.1416 23.0454 16.2707C22.813 16.3998 22.6064 16.529 22.4256 16.6581C22.2448 16.7872 22.0641 16.8905 21.9091 17.0196C21.8832 17.0455 21.8575 17.0455 21.8316 17.0713C21.6767 17.1746 21.4959 17.3037 21.341 17.4328C21.341 17.4328 21.3151 17.4587 21.2894 17.4844C21.1602 17.5878 21.0311 17.691 20.902 17.7943C20.8504 17.8202 20.7986 17.8718 20.747 17.8977C20.6179 18.001 20.4888 18.1301 20.3597 18.2334C20.3338 18.285 20.2822 18.3109 20.2563 18.3367C20.1014 18.4917 19.9464 18.6208 19.7915 18.7758C19.7656 18.7758 19.7656 18.8016 19.7398 18.8274C19.5849 18.9565 19.4299 19.1114 19.275 19.2664C19.2491 19.2923 19.2491 19.318 19.2234 19.318C19.0943 19.4471 18.9651 19.5763 18.836 19.7312C18.7844 19.7828 18.7069 19.8346 18.6552 19.8862C18.5261 20.0411 18.3712 20.1961 18.2162 20.351C18.1903 20.4026 18.1387 20.4285 18.1129 20.4801C17.9063 20.6868 17.7255 20.8933 17.5189 21.0999C17.493 21.1258 17.4673 21.1516 17.4414 21.1774C17.0282 21.6164 16.5892 22.0555 16.1243 22.4429C15.6595 22.8561 15.1688 23.2434 14.6781 23.5792C14.1616 23.9407 13.6709 24.2506 13.1286 24.5605C12.6121 24.8446 12.0698 25.1028 11.5016 25.3353C10.9593 25.5677 10.3911 25.7743 9.82299 25.9551C8.73833 26.1875 7.62784 26.6265 6.67231 26.704C6.46572 26.704 6.23329 26.7556 6.02669 26.7815C5.79426 26.8331 5.58766 26.8848 5.38106 26.9364C5.17447 27.0139 4.96785 27.0914 4.76126 27.1688C4.55466 27.2463 4.34806 27.3496 4.14146 27.4529C3.96068 27.5821 3.75408 27.6854 3.5733 27.8145C3.39253 27.9436 3.21175 28.0986 3.05679 28.2535C2.87603 28.3826 2.69524 28.5634 2.54029 28.7184C2.38534 28.8991 2.23039 29.0541 2.10126 29.2349C1.97214 29.4415 1.81719 29.6222 1.71388 29.8288C1.58476 30.0096 1.45564 30.2162 1.35233 30.4228C1.24899 30.6553 1.14574 30.8618 1.06826 31.0943C0.990783 31.3009 0.913307 31.5333 0.835831 31.7657C0.784221 31.9723 0.732489 32.1789 0.706709 32.3855C0.706709 32.4114 0.680844 32.4371 0.680844 32.463C0.629233 32.6954 0.629233 33.0053 0.603367 33.1603C0.577502 33.3411 0.551758 33.496 0.551758 33.6768C0.551758 33.7801 0.551758 33.9092 0.577623 34.0125C0.603488 34.1933 0.629232 34.3483 0.680964 34.5032C0.732574 34.6581 0.784306 34.8131 0.861734 34.9681V34.9939C0.93921 35.1489 1.04252 35.3038 1.14581 35.4588C1.24915 35.6137 1.35242 35.7687 1.48154 35.9236C1.61066 36.0528 1.76562 36.2077 1.92057 36.3368C2.07552 36.4918 2.23047 36.6209 2.41124 36.75C3.03105 37.2924 3.186 37.4731 3.98658 37.8863C4.1157 37.9638 4.24484 38.0155 4.39979 38.0929C4.42566 38.0929 4.4514 38.1188 4.47727 38.1188C4.47727 38.1704 4.47727 38.1963 4.50313 38.2479C4.529 38.4545 4.58061 38.6611 4.63226 38.8677C4.68387 39.1002 4.76139 39.3068 4.83887 39.4875C4.91634 39.6425 4.96799 39.7974 5.04547 39.9524C5.07133 40.004 5.09708 40.0557 5.12294 40.0815C5.22629 40.2881 5.32954 40.4689 5.43284 40.6497C5.56197 40.8304 5.69109 41.0112 5.82021 41.192C5.94934 41.347 6.10429 41.5277 6.25924 41.6827C6.41419 41.8376 6.56915 41.9668 6.74993 42.1217C6.74993 42.1217 6.7758 42.1476 6.80154 42.1476C6.95649 42.2767 7.11144 42.4059 7.26639 42.5091C7.44716 42.6383 7.62795 42.7416 7.83454 42.8449C8.01533 42.9482 8.22192 43.0515 8.42852 43.129C8.58348 43.2064 8.76424 43.2581 8.94502 43.3097C8.97089 43.3356 8.99663 43.3356 9.04837 43.3614C9.15171 43.3872 9.28078 43.413 9.38409 43.4388C9.30661 44.8334 9.28075 46.1505 9.48743 46.6153C9.71985 47.1318 10.8562 45.5565 11.9925 43.7487C11.8375 45.5307 11.7342 47.6225 11.9925 48.2423C12.2765 48.8879 13.8261 46.8736 15.169 44.6526C33.479 40.4173 50.1879 53.0716 51.944 70.9426C51.6082 68.1535 48.1735 66.604 46.5982 66.9914C45.8234 68.9024 44.5063 71.3558 42.3887 72.8795C42.5695 71.175 42.492 69.4189 42.1304 67.7145C41.5623 70.0904 40.4518 72.3113 38.9281 74.2224C36.4747 74.4032 34.0213 73.2152 32.7301 71.4333C32.6267 71.3558 32.6009 71.2009 32.5235 71.0976C32.446 70.9168 32.3685 70.736 32.3169 70.5552C32.2394 70.3745 32.1877 70.1937 32.1619 70.0129C32.136 69.8321 32.136 69.6513 32.136 69.4448C32.136 69.3156 32.136 69.1865 32.136 69.0574C32.1619 68.8766 32.2135 68.6958 32.2652 68.515C32.3168 68.3343 32.3685 68.1535 32.4459 67.9727C32.5493 67.7919 32.6267 67.6112 32.7558 67.4304C33.1949 66.1908 33.1949 65.1836 32.3943 64.5896C32.2393 64.4863 32.0844 64.4088 31.9036 64.3314C31.8003 64.3055 31.6712 64.2539 31.5679 64.228C31.4904 64.2022 31.4388 64.1764 31.3613 64.1505C31.1805 64.0989 30.9997 64.0472 30.819 64.0214C30.6382 63.9698 30.4574 63.9439 30.2766 63.9439C30.0959 63.918 29.8892 63.8923 29.7085 63.8923C29.5794 63.8923 29.4502 63.9182 29.3211 63.9182C29.1145 63.9182 28.9337 63.9441 28.7529 63.9957C28.5722 64.0216 28.3914 64.0473 28.2106 64.099C28.0298 64.1506 27.8491 64.2023 27.6683 64.2798C27.4875 64.3573 27.3326 64.4347 27.1518 64.5122C26.9968 64.5897 26.8419 64.693 26.6611 64.7705C20.6438 68.6959 24.2335 77.8896 28.3397 80.5496C26.7902 80.8337 25.2149 81.1694 24.7759 81.5052C24.75 81.531 24.7243 81.5568 24.7243 81.5568C25.8347 82.2282 26.9969 82.7964 28.2106 83.287C29.8635 83.8294 31.6196 84.3201 32.3943 84.5267V84.5525C34.5378 84.9916 36.7071 85.1465 38.9023 85.0174C50.3428 84.2168 59.7174 75.5137 61.4218 64.0474C61.4734 64.2798 61.5252 64.4864 61.5768 64.7188C61.6542 65.1837 61.7575 65.6743 61.8092 66.165V66.1909C61.8608 66.4233 61.8867 66.6558 61.9125 66.8624V66.9657C61.9384 67.1981 61.9641 67.4306 61.9641 67.6371C61.99 67.9212 62.0157 68.2053 62.0157 68.4894V68.9026C62.0157 69.0317 62.0416 69.1867 62.0416 69.3158C62.0416 69.4707 62.0157 69.6257 62.0157 69.7806V70.1422C62.0157 70.323 61.9898 70.4779 61.9898 70.6587C61.9898 70.762 61.9898 70.8653 61.964 70.9944C61.964 71.1752 61.9381 71.356 61.9381 71.5626C61.9122 71.6401 61.9122 71.7175 61.9122 71.795C61.8864 72.0016 61.8606 72.1824 61.8348 72.389C61.8348 72.4665 61.8348 72.5439 61.8089 72.6214C61.783 72.8797 61.7314 73.1121 61.7056 73.3703V73.3962V73.4221C61.654 73.6545 61.6022 73.9128 61.5506 74.1452V74.2227C61.499 74.4551 61.4473 74.6875 61.3957 74.9199C61.3957 74.9458 61.3698 74.9974 61.3698 75.0233C61.3182 75.2557 61.2665 75.4881 61.189 75.7206V75.798C61.1116 76.0563 61.0341 76.2887 60.9824 76.5211C60.9566 76.547 60.9566 76.5728 60.9566 76.5728C60.8791 76.831 60.8016 77.0893 60.7242 77.3475C60.6208 77.6058 60.5434 77.8382 60.4401 78.0964C60.3367 78.3547 60.2593 78.6129 60.156 78.8454C60.0527 79.1036 59.9494 79.3361 59.8461 79.5943H59.8202C59.7168 79.8267 59.6136 80.085 59.4845 80.3174C59.4586 80.3949 59.4328 80.4465 59.407 80.4982C59.3811 80.5241 59.3811 80.5498 59.3554 80.5757C57.6767 83.9587 55.1975 86.9286 52.0985 89.2529C51.8919 89.382 51.6853 89.537 51.4787 89.6919C51.4271 89.7435 51.3496 89.7694 51.2979 89.821C51.1172 89.9502 50.9364 90.0793 50.7298 90.2084L50.8073 90.3634H50.8331C51.1947 90.3118 51.5562 90.2601 51.9178 90.2084H51.9436C52.6151 90.1051 53.2865 89.976 53.958 89.8469C54.1388 89.821 54.3454 89.7694 54.5261 89.7177C54.6553 89.6919 54.7586 89.6661 54.8877 89.6403C55.0685 89.6144 55.2492 89.5628 55.43 89.5369C55.585 89.4853 55.7399 89.4595 55.8949 89.4078C58.4774 88.788 60.9824 87.9358 63.3842 86.9286C59.278 92.5326 53.7772 97.0521 47.3468 100.022C50.3167 99.8153 53.2865 99.3247 56.1531 98.4983C66.5607 95.4251 75.3154 88.4264 80.5579 79.0003C79.4991 84.9659 77.1232 90.6474 73.6109 95.6058C76.116 93.953 78.4144 92.042 80.5062 89.8727C86.2911 83.8296 90.0874 76.1595 91.3786 67.9213C92.2567 72.0017 92.5149 76.2112 92.1276 80.369C110.773 54.3631 93.6771 27.4016 86.5235 20.2997C86.4976 20.2481 86.4719 20.2222 86.4719 20.1706C86.446 20.1964 86.446 20.1964 86.446 20.2222C86.446 20.1963 86.446 20.1963 86.4201 20.1706C86.4201 20.4805 86.3943 20.7904 86.3685 21.1003C86.2911 21.6943 86.2136 22.2624 86.1103 22.8306C85.9812 23.3987 85.8262 23.9669 85.6712 24.535C85.4905 25.0773 85.2839 25.6455 85.0515 26.1878C84.819 26.7043 84.5608 27.2467 84.2767 27.7632C83.9926 28.2539 83.6827 28.7704 83.347 29.2352C83.0113 29.7259 82.6497 30.1907 82.2882 30.6298C81.9008 31.0946 81.4876 31.5078 81.0744 31.921C80.8161 32.1535 80.5837 32.3601 80.3254 32.5666C80.1188 32.7474 79.9381 32.9024 79.7315 33.0831C79.2666 33.4447 78.8018 33.7804 78.2853 34.0903C77.7946 34.4002 77.2781 34.7101 76.7616 34.9684C76.2193 35.2266 75.6769 35.4591 75.1346 35.6915C74.5923 35.8981 74.0241 36.0789 73.4559 36.2338C72.8878 36.3888 72.2938 36.5179 71.7257 36.6212C71.1317 36.7245 70.5377 36.7761 69.9696 36.8278C69.5564 36.8537 69.1432 36.8794 68.73 36.8794C68.136 36.8794 67.542 36.8278 66.9739 36.7761C66.3799 36.7245 65.7859 36.6469 65.2177 36.5178C64.6238 36.4145 64.0556 36.2596 63.4874 36.0788H63.4616C64.0297 36.0272 64.5979 35.9754 65.1661 35.8722C65.76 35.7688 66.3282 35.6398 66.8963 35.4848C67.4645 35.3299 68.0326 35.1491 68.575 34.9425C69.1431 34.7359 69.6855 34.4776 70.202 34.2194C70.7443 33.9611 71.235 33.677 71.7515 33.3671C72.2421 33.0314 72.7328 32.6957 73.1977 32.3341C73.6625 31.9726 74.1015 31.5852 74.5148 31.172C74.9538 30.7846 75.3412 30.3456 75.7285 29.9066C76.1159 29.4417 76.4775 28.9769 76.8132 28.512C76.8648 28.4345 76.9165 28.3312 76.9682 28.2538C77.2264 27.8406 77.4846 27.4274 77.7171 27.0142C78.0011 26.4977 78.2594 25.9811 78.4918 25.4388C78.7243 24.8965 78.9309 24.3542 79.1116 23.786C79.2924 23.2437 79.4215 22.6755 79.5507 22.1074C79.654 21.5134 79.7573 20.9452 79.8089 20.3771C79.8605 19.7831 79.9123 19.1891 79.9123 18.621C79.9123 18.2078 79.8864 17.7946 79.8606 17.3814C79.809 16.7874 79.7315 16.2192 79.654 15.6511C79.5507 15.0571 79.4216 14.489 79.2667 13.9208C79.0859 13.3785 78.9051 12.8103 78.6985 12.268C78.4919 11.7257 78.2337 11.1833 77.9754 10.6668C77.6913 10.1503 77.4072 9.63383 77.0974 9.14316C76.7616 8.65249 76.4259 8.18763 76.0643 7.72277C75.677 7.28374 75.2896 6.84472 74.8764 6.40569C74.6698 6.19909 74.4374 5.96666 74.2049 5.76007C73.0428 4.85618 71.829 4.00395 70.6152 3.2292C70.4345 3.12586 70.2795 3.04842 70.0987 2.97094C69.2465 2.42862 68.4459 2.14439 67.6453 1.88615Z" fill="#E0234E"/>
</svg>
