<svg width="101" height="100" viewBox="0 0 101 100" fill="none" xmlns="http://www.w3.org/2000/svg">
<path d="M59.9061 64.7173L35.3811 59.5924C35.2784 59.791 35.1642 59.9834 35.039 60.1686L57.3656 92.7376L58.7124 91.3923L62.5108 67.7716C61.8688 67.5004 61.299 67.083 60.8468 66.5527C60.3946 66.0223 60.0725 65.3938 59.9061 64.717V64.7173ZM50.9594 32.6577C50.0407 34.067 48.4548 34.9998 46.6485 34.9998C46.3704 34.9998 46.1001 34.9717 45.8345 34.9295L34.6499 52.4296L64.5315 39.5705C64.5221 39.4502 64.4955 39.3377 64.4955 39.2142C64.4955 38.9627 64.5299 38.7189 64.5705 38.4783L50.9594 32.6581V32.6577ZM51.7719 29.4687L66.2502 35.6592C66.7115 35.2986 67.2392 35.0321 67.8033 34.8748L70.1829 20.0782L61.1171 11.0123L50.9125 26.98C51.4126 27.7198 51.709 28.5783 51.7719 29.4691V29.4687ZM82.1093 32.0046L73.0235 22.9172L71.0486 35.1858C71.5492 35.4375 71.999 35.7797 72.3751 36.1951L82.1093 32.0046ZM60.3405 61.4858C60.6961 60.8403 61.2069 60.2935 61.8267 59.895C62.4466 59.4964 63.156 59.2586 63.8908 59.203L66.5002 42.9735C66.2955 42.8376 66.1127 42.6751 65.933 42.5079L35.8796 55.4421C35.9561 55.7562 36.0093 56.0765 36.0343 56.4093L60.3405 61.4858ZM84.5843 34.4811L74.0719 39.0045L100.009 50.0938L100.103 50L84.5843 34.4811ZM65.7986 67.8204L62.6393 87.4623L80.9843 69.1173L67.7705 66.3579C67.2637 67.0211 66.5803 67.528 65.7986 67.8204ZM30.1406 62.7705C29.4765 62.7705 28.8406 62.6564 28.2453 62.4545L22.1517 71.9907L19.797 69.6376L25.5688 60.6065C25.426 60.4293 25.293 60.2446 25.1704 60.053L14.7143 64.5548L12.2358 62.0764L23.6809 57.1499L2.98946 52.8312L0.159423 50L1.05472 49.1047L24.9157 54.0859C25.1901 53.5653 25.5414 53.0891 25.9578 52.6734L14.3768 35.7811L16.7158 33.4421L28.8152 51.0922C29.2497 50.9913 29.6942 50.9394 30.1402 50.9375C30.6511 50.9375 31.1464 51.0094 31.6199 51.1312L42.942 33.4155C42.0202 32.4593 41.5054 31.1827 41.506 29.8546C41.506 29.4484 41.5576 29.0546 41.6467 28.6765L27.5219 22.6375L29.9996 20.1595L43.3822 25.8828C44.0608 25.3235 44.8719 24.9482 45.7375 24.7931C46.6031 24.6379 47.4941 24.7081 48.3247 24.9969L58.7636 8.65924L50.1047 0L0.104736 50L50.1047 100L55.025 95.0798L32.5312 62.2639C31.7784 62.5976 30.9641 62.7702 30.1406 62.7705ZM69.6829 43.6731L67.0283 60.1717C67.4922 60.5445 67.8764 61.0068 68.158 61.5311C68.4395 62.0554 68.6128 62.631 68.6673 63.2236L83.7343 66.3689L97.5309 52.5722L72.6282 41.9251C71.9157 42.8738 70.857 43.5022 69.6829 43.6735V43.6731Z" fill="#25C7B7"/>
</svg>
