<svg width="101" height="100" viewBox="0 0 101 100" fill="none" xmlns="http://www.w3.org/2000/svg">
<g clip-path="url(#clip0_4_5424)">
<path d="M50.5508 100C78.165 100 100.551 77.6142 100.551 50C100.551 22.3858 78.165 0 50.5508 0C22.9365 0 0.550781 22.3858 0.550781 50C0.550781 77.6142 22.9365 100 50.5508 100Z" fill="black"/>
<path d="M83.6108 87.5114L38.963 30H30.5508V69.9834H37.2805V38.5464L78.328 91.5806C80.1802 90.3409 81.9448 88.9808 83.6108 87.5114Z" fill="url(#paint0_linear_4_5424)"/>
<path d="M71.1066 30H64.4399V70H71.1066V30Z" fill="url(#paint1_linear_4_5424)"/>
</g>
<defs>
<linearGradient id="paint0_linear_4_5424" x1="61.1063" y1="64.7223" x2="80.8285" y2="89.1666" gradientUnits="userSpaceOnUse">
<stop stop-color="white"/>
<stop offset="1" stop-color="white" stop-opacity="0"/>
</linearGradient>
<linearGradient id="paint1_linear_4_5424" x1="67.7733" y1="30" x2="67.6617" y2="59.3751" gradientUnits="userSpaceOnUse">
<stop stop-color="white"/>
<stop offset="1" stop-color="white" stop-opacity="0"/>
</linearGradient>
<clipPath id="clip0_4_5424">
<rect width="100" height="100" fill="white" transform="translate(0.550781)"/>
</clipPath>
</defs>
</svg>
