<svg width="91" height="101" viewBox="0 0 91 101" fill="none" xmlns="http://www.w3.org/2000/svg">
<path d="M41.2861 1.36398C43.7656 -0.0552934 46.9952 -0.0617042 49.4726 1.36398C61.9362 8.40656 74.4037 15.4381 86.8652 22.485C89.209 23.8052 90.7768 26.4137 90.7529 29.1144V71.4853C90.7704 74.2978 89.0477 76.9686 86.5749 78.2589C74.1523 85.2627 61.736 92.275 49.3155 99.2788C46.7847 100.726 43.4903 100.614 41.0385 99.0487C37.3142 96.8897 33.5835 94.7414 29.8589 92.5845C29.0978 92.1308 28.2398 91.7696 27.7024 91.0317C28.1775 90.3913 29.0269 90.3115 29.7171 90.032C31.2717 89.5376 32.6996 88.7441 34.1277 87.9741C34.4889 87.7269 34.9298 87.8217 35.276 88.0428C38.4607 89.8688 41.6173 91.7479 44.8127 93.5564C45.4944 93.95 46.1846 93.4275 46.7673 93.1027C58.9577 86.2129 71.1631 79.3491 83.3514 72.4572C83.803 72.24 84.0526 71.7606 84.0159 71.2659C84.0245 57.2886 84.0181 43.3089 84.0202 29.3316C84.0719 28.7703 83.747 28.2543 83.2395 28.0246C70.86 21.0529 58.4869 14.0705 46.1095 7.09698C45.895 6.94955 45.641 6.87045 45.3807 6.87007C45.1205 6.86969 44.8662 6.94804 44.6514 7.09484C32.274 14.0705 19.903 21.0593 7.52556 28.0306C7.01982 28.2607 6.68041 28.7682 6.7406 29.3316C6.74274 43.3089 6.7406 57.2886 6.7406 71.268C6.71914 71.5094 6.77215 71.7515 6.8925 71.9619C7.01285 72.1722 7.19476 72.3406 7.41373 72.4444C10.7167 74.3174 14.0239 76.1772 17.329 78.0438C19.191 79.046 21.4772 79.6415 23.5286 78.8737C25.3389 78.2244 26.6079 76.377 26.5734 74.4549C26.5905 60.5592 26.5648 46.6614 26.5862 32.7678C26.541 32.151 27.1261 31.6413 27.7259 31.6994C29.3129 31.6887 30.9021 31.678 32.4891 31.7036C33.1515 31.6887 33.6074 32.3529 33.5255 32.9744C33.5191 46.958 33.5426 60.942 33.5148 74.9257C33.5191 78.6525 31.988 82.7077 28.5408 84.5312C24.294 86.7311 19.045 86.2646 14.8495 84.1551C11.2175 82.3422 7.75137 80.2028 4.18378 78.2607C1.70459 76.9775 -0.00957662 74.296 0.0078749 71.4856V29.1144C-0.0181243 26.3578 1.61199 23.7019 4.02885 22.4009C16.4493 15.3914 28.8677 8.37664 41.2861 1.36398Z" fill="#8CC84B"/>
<path d="M52.1217 30.7145C57.5388 30.3659 63.338 30.508 68.2127 33.1766C71.9868 35.2216 74.0792 39.5137 74.1458 43.7067C74.0404 44.2722 73.4492 44.5842 72.9093 44.5454C71.3376 44.5433 69.7655 44.5668 68.1938 44.5347C67.5271 44.5603 67.1396 43.9456 67.0559 43.3562C66.6043 41.35 65.5102 39.363 63.6219 38.3953C60.7231 36.944 57.3621 37.017 54.2012 37.0473C51.8937 37.1698 49.4124 37.3696 47.4575 38.7266C45.9567 39.7544 45.5008 41.8294 46.0364 43.5004C46.5415 44.7003 47.9265 45.0875 49.0598 45.4443C55.5881 47.1517 62.506 46.9818 68.9097 49.2288C71.5609 50.1448 74.1544 51.9256 75.0619 54.7015C76.2489 58.4218 75.7286 62.8688 73.0817 65.8555C70.9351 68.3133 67.8088 69.651 64.6907 70.3776C60.5426 71.3025 56.2377 71.326 52.0251 70.9154C48.064 70.4638 43.9419 69.4231 40.884 66.7241C38.2691 64.4537 36.9919 60.916 37.1187 57.5015C37.149 56.9249 37.7231 56.5228 38.2755 56.5702C39.8582 56.5574 41.441 56.5531 43.0237 56.5723C43.6559 56.5271 44.1246 57.0734 44.157 57.6693C44.4491 59.5808 45.1674 61.587 46.8342 62.7203C50.051 64.7956 54.0873 64.6535 57.7706 64.7115C60.8221 64.5762 64.2476 64.5352 66.7379 62.5183C68.0517 61.3679 68.441 59.4433 68.0859 57.7875C67.7012 56.3896 66.2389 55.7382 64.9831 55.3123C58.5385 53.2736 51.5433 54.0134 45.161 51.708C42.57 50.7923 40.0644 49.0611 39.069 46.3992C37.68 42.6318 38.3164 37.9719 41.2408 35.086C44.0922 32.2154 48.2083 31.1099 52.1217 30.7142V30.7145Z" fill="#8CC84B"/>
</svg>
