<svg width="91" height="101" viewBox="0 0 91 101" fill="none" xmlns="http://www.w3.org/2000/svg">
<path d="M71.6334 80.9699L61.6229 50.1567L87.8278 31.1184H55.4355L45.424 0.30583L45.4208 0.297468H77.818L87.832 31.1149L87.8327 31.1142L87.841 31.1097C93.6564 48.9877 87.6668 69.3222 71.6334 80.9696V80.9699ZM19.2118 80.9699L19.2038 80.9759L45.4156 100.019L71.6334 80.9706L45.424 61.9267L19.2121 80.9699H19.2118ZM3.01144 31.1104C-3.11051 49.9563 3.99576 69.9257 19.2069 80.9738L19.2093 80.964L29.2215 50.1525L3.02224 31.1177H35.4069L45.4187 0.305482L45.4208 0.297119H13.0219L3.01109 31.1104H3.01144Z" fill="#EB5424"/>
</svg>
