<svg width="101" height="52" viewBox="0 0 101 52" fill="none" xmlns="http://www.w3.org/2000/svg">
<path fill-rule="evenodd" clip-rule="evenodd" d="M50.6562 51.2298C78.2706 51.2298 100.656 39.8849 100.656 25.8911C100.656 11.8974 78.2706 0.55249 50.6562 0.55249C23.0425 0.55249 0.65625 11.8974 0.65625 25.8911C0.65625 39.8849 23.0425 51.2298 50.6562 51.2298Z" fill="#6E81B6"/>
<path fill-rule="evenodd" clip-rule="evenodd" d="M60.7895 34.0809L63.2696 21.3164C63.8295 18.4354 63.3639 16.2866 61.8869 14.9287C60.4558 13.6149 58.0264 12.9758 54.4605 12.9758H50.1653L51.3939 6.65157C51.4169 6.53386 51.4136 6.41252 51.3842 6.29625C51.3547 6.17998 51.2999 6.07166 51.2237 5.97907C51.1475 5.88648 51.0517 5.81192 50.9432 5.76073C50.8348 5.70953 50.7163 5.68298 50.5964 5.68298H44.6682C44.2788 5.68298 43.9445 5.95929 43.8701 6.3414L41.2358 19.8925C40.9964 18.3677 40.4063 17.0569 39.4619 15.9753C37.723 13.9849 34.9727 12.9758 31.2864 12.9758H19.7964C19.407 12.9758 19.0727 13.2521 18.9983 13.6336L13.6674 41.0636C13.6209 41.3024 13.6832 41.5479 13.8379 41.7353C13.9921 41.9233 14.2219 42.0315 14.4655 42.0315H20.4403C20.8296 42.0315 21.164 41.7552 21.2384 41.3725L22.528 34.7381H26.9755C29.3093 34.7381 31.2707 34.4854 32.8015 33.9872C34.3669 33.4781 35.8076 32.6147 37.0773 31.4261C38.1033 30.4835 38.951 29.4278 39.6034 28.2894L38.5387 33.7695C38.4921 34.0084 38.5544 34.255 38.7092 34.4413C38.8633 34.6293 39.0937 34.7375 39.3368 34.7375H45.2649C45.6543 34.7375 45.9887 34.4612 46.063 34.0797L48.9887 19.0231H53.0566C54.79 19.0231 55.2978 19.3683 55.4363 19.5165C55.5615 19.6519 55.8214 20.1289 55.5294 21.6326L53.1714 33.7689C53.1488 33.8866 53.1525 34.0078 53.1821 34.1239C53.2118 34.24 53.2666 34.3481 53.3429 34.4406C53.4191 34.533 53.5148 34.6075 53.6231 34.6588C53.7314 34.71 53.8497 34.7367 53.9695 34.7369H59.992C60.1805 34.7373 60.3632 34.672 60.5087 34.5523C60.6542 34.4326 60.7535 34.2659 60.7895 34.0809ZM33.3052 23.5341C32.9327 25.4477 32.2314 26.8123 31.2193 27.5904C30.1914 28.3831 28.5475 28.7845 26.3328 28.7845H23.6846L25.5994 18.9306H29.0233C31.5385 18.9306 32.5518 19.4681 32.9587 19.9185C33.5228 20.5437 33.6425 21.7946 33.3052 23.5341ZM85.7605 15.9753C84.0222 13.9849 81.2719 12.9758 77.5856 12.9758H66.0956C65.7056 12.9758 65.3718 13.2521 65.2975 13.6336L59.9672 41.0636C59.9201 41.3024 59.9824 41.5479 60.1371 41.7353C60.2919 41.9227 60.5223 42.0315 60.7641 42.0315H66.7395C67.1295 42.0315 67.4632 41.7552 67.5376 41.3725L68.8272 34.7381H73.2753C75.6097 34.7381 77.5693 34.4854 79.1007 33.9872C80.6667 33.4781 82.1074 32.6147 83.3765 31.4261C84.4358 30.4533 85.307 29.3595 85.9673 28.1787C86.6275 26.9979 87.1009 25.6811 87.3772 24.2639C88.0562 20.7686 87.5127 17.9801 85.7605 15.9753ZM79.9436 23.5341C79.5705 25.4477 78.8692 26.8123 77.8582 27.5904C76.8298 28.3831 75.1859 28.7845 72.9718 28.7845H70.323L72.2372 18.9306H75.6617C78.1769 18.9306 79.1902 19.4681 79.5977 19.9185C80.1606 20.5437 80.2809 21.7946 79.9436 23.5341Z" fill="white"/>
<path fill-rule="evenodd" clip-rule="evenodd" d="M28.8531 18.1175C31.1228 18.1175 32.6362 18.5365 33.3925 19.3745C34.1483 20.2125 34.3285 21.6515 33.9331 23.6896C33.5195 25.8124 32.7238 27.3275 31.5448 28.2357C30.3658 29.1438 28.5714 29.5972 26.1626 29.5972H22.5277L24.7587 18.1175H28.8531ZM14.2947 41.2184H20.2694L21.6873 33.9262H26.8053C29.0635 33.9262 30.9215 33.6886 32.3798 33.214C33.8381 32.7394 35.164 31.9443 36.3569 30.8276C37.3582 29.908 38.1684 28.8923 38.7887 27.7822C39.4084 26.6721 39.8486 25.4478 40.1092 24.1086C40.7416 20.857 40.2645 18.3243 38.6793 16.5105C37.0946 14.696 34.5727 13.7891 31.1162 13.7891H19.6261L14.2947 41.2184ZM44.4974 6.49634H50.4256L49.0084 13.7891H54.2903C57.612 13.7891 59.9053 14.3683 61.1666 15.5274C62.4278 16.6864 62.8057 18.5649 62.3014 21.1617L59.8213 33.9262H53.7988L56.1567 21.7893C56.4246 20.4084 56.3266 19.467 55.8605 18.9646C55.3943 18.4628 54.4022 18.2112 52.8858 18.2112H48.1481L45.0942 33.9262H39.166L44.4974 6.49634ZM75.4916 18.1175C77.7613 18.1175 79.2741 18.5365 80.031 19.3745C80.7868 20.2125 80.9664 21.6515 80.5709 23.6896C80.1586 25.8124 79.3629 27.3275 78.1833 28.2357C77.0049 29.1438 75.2099 29.5972 72.8023 29.5972H69.1674L71.3978 18.1175H75.4916ZM60.932 41.2184H66.9073L68.3245 33.9262H73.4426C75.7014 33.9262 77.5594 33.6886 79.0177 33.214C80.476 32.7394 81.8019 31.9443 82.9948 30.8276C83.9961 29.908 84.8062 28.8923 85.426 27.7822C86.0457 26.6721 86.4865 25.4478 86.7477 24.1086C87.3795 20.857 86.9024 18.3243 85.3177 16.5105C83.7318 14.696 81.2106 13.7891 77.7541 13.7891H66.264L60.932 41.2184Z" fill="black"/>
</svg>
