<svg width="101" height="101" viewBox="0 0 101 101" fill="none" xmlns="http://www.w3.org/2000/svg">
<path d="M89.8858 20.3309C83.8412 12.5036 75.6111 6.64461 66.2365 3.49497C56.8618 0.345337 46.7637 0.0465212 37.2192 2.63632C27.6747 5.22611 19.1126 10.5882 12.6157 18.0444C6.11887 25.5006 1.97908 34.716 0.719937 44.5251C-0.539206 54.3342 1.13886 64.2965 5.54189 73.1518C9.94493 82.0072 16.8752 89.3579 25.4561 94.2744C34.0371 99.1908 43.8833 101.452 53.7495 100.772C63.6157 100.093 73.0587 96.5022 80.8843 90.4553C102.728 73.5742 106.759 42.1823 89.8842 20.3309H89.8858Z" fill="#FF6C37"/>
<path d="M67.1765 32.7496L46.094 53.9994L40.1362 47.8744C60.8859 27.1246 62.9687 28.9996 67.178 32.7496H67.1765Z" fill="white"/>
<path d="M46.0938 54.5806C45.9071 54.576 45.7288 54.5019 45.5938 54.3728L39.5939 48.3728C39.4588 48.233 39.3833 48.0462 39.3833 47.8517C39.3833 47.6573 39.4588 47.4705 39.5939 47.3307C60.0515 26.873 62.8437 27.8308 67.6765 32.2058C67.7574 32.2705 67.8221 32.3533 67.8655 32.4474C67.9089 32.5415 67.9298 32.6444 67.9265 32.748C67.9577 32.9511 67.8796 33.1589 67.7186 33.2902L46.636 54.3743C46.4882 54.5099 46.2944 54.5842 46.0938 54.5822V54.5806ZM41.1767 47.8728L46.0938 52.79L66.0937 32.7902C65.4031 31.9248 64.4178 31.3443 63.3261 31.1598C62.2345 30.9753 61.1131 31.1998 60.1765 31.7902C56.5516 33.4152 50.7188 38.3729 41.1767 47.8728Z" fill="#FF6C37"/>
<path d="M52.1357 59.8741L46.3857 53.9992L67.4685 33.1652C73.1356 38.7073 64.7185 47.9571 52.1357 59.8726V59.8741Z" fill="white"/>
<path d="M52.1359 60.6243C51.9514 60.6096 51.7764 60.5369 51.6359 60.4165L45.7609 54.6665C45.6728 54.4529 45.6728 54.213 45.7609 53.9994C45.6984 53.824 45.6984 53.6325 45.7609 53.4572L66.8436 32.3746C66.9902 32.2369 67.1838 32.1602 67.385 32.1602C67.5861 32.1602 67.7798 32.2369 67.9264 32.3746C68.6091 33.003 69.1485 33.7711 69.5079 34.6266C69.8673 35.4821 70.0383 36.4049 70.0092 37.3324C70.0092 42.9573 63.592 50.04 52.6765 60.3743C52.5307 60.5186 52.3387 60.6071 52.1343 60.6243H52.1359ZM47.4687 53.9994L52.1765 58.7056C60.5092 50.8306 68.4685 42.7057 68.5092 37.2058C68.5545 36.0398 68.1691 34.898 67.4264 33.998L47.4687 53.9994Z" fill="#FF6C37"/>
<path d="M40.3019 47.9994L44.4691 52.1666C44.4957 52.19 44.517 52.2189 44.5316 52.2512C44.5461 52.2835 44.5537 52.3186 44.5537 52.3541C44.5537 52.3895 44.5461 52.4246 44.5316 52.4569C44.517 52.4893 44.4957 52.5181 44.4691 52.5416L35.677 54.4166C35.4995 54.4549 35.3143 54.4341 35.1497 54.3575C34.9852 54.2808 34.8501 54.1525 34.7652 53.992C34.6803 53.8316 34.6501 53.6477 34.6793 53.4685C34.7085 53.2893 34.7955 53.1246 34.927 52.9994L40.0519 47.9166C40.0519 47.9166 40.2191 47.9166 40.3019 47.9994Z" fill="white"/>
<path d="M35.4692 55.2494C35.1914 55.2459 34.9192 55.1713 34.6784 55.0326C34.4377 54.8939 34.2366 54.6958 34.0942 54.4572C33.934 54.155 33.8759 53.8091 33.9286 53.4712C33.9812 53.1332 34.1418 52.8214 34.3864 52.5822L39.4692 47.4573C39.6525 47.2935 39.8897 47.2029 40.1356 47.2029C40.3814 47.2029 40.6186 47.2935 40.802 47.4573L44.9691 51.6244C45.216 51.8588 45.3128 52.2135 45.2191 52.5416C45.1253 52.8697 44.8503 53.1307 44.5113 53.2088L35.7192 55.0838L35.4692 55.2494ZM40.1363 48.9167L35.4286 53.6244L43.2207 51.9572L40.1363 48.9167Z" fill="#FF6C37"/>
<path d="M78.3861 21.0403C75.3705 18.1309 70.6329 18.009 67.4704 20.7543C64.3079 23.4996 63.7672 28.2121 66.2298 31.6027C68.6923 34.9933 73.3345 35.9433 76.9283 33.7901L71.261 28.123L78.3861 21.0403Z" fill="white"/>
<path d="M72.761 35.7058C71.0284 35.6836 69.3407 35.1521 67.9081 34.1774C66.4756 33.2027 65.3615 31.828 64.7047 30.2246C64.0484 28.6224 63.8763 26.863 64.2095 25.164C64.5428 23.4649 65.3668 21.9009 66.5797 20.6653C68.2479 19.0278 70.4921 18.1104 72.8297 18.1104C75.1673 18.1104 77.4115 19.0278 79.0797 20.6653C79.2391 20.7997 79.3297 20.9981 79.3297 21.2075C79.3293 21.3105 79.3068 21.4122 79.2637 21.5058C79.2205 21.5993 79.1578 21.6825 79.0797 21.7497L72.3297 28.1246L77.4547 33.1668C77.5378 33.2461 77.6001 33.3445 77.6363 33.4535C77.6726 33.5624 77.6816 33.6786 77.6625 33.7918C77.6502 33.901 77.614 34.0062 77.5565 34.0999C77.499 34.1936 77.4215 34.2735 77.3297 34.334C75.9529 35.1946 74.3701 35.6694 72.7469 35.709L72.761 35.7058ZM72.761 19.5388C69.7922 19.5544 67.136 21.3403 66.0219 24.07C64.9079 26.7996 65.5141 29.9418 67.5954 32.0387C68.6306 33.0799 69.9561 33.7842 71.3983 34.0594C72.8406 34.3346 74.3323 34.1678 75.6782 33.5808L70.761 28.6637C70.6828 28.6012 70.6197 28.5219 70.5763 28.4317C70.533 28.3415 70.5104 28.2427 70.5104 28.1426C70.5104 28.0425 70.533 27.9437 70.5763 27.8535C70.6197 27.7633 70.6828 27.684 70.761 27.6215L77.261 21.0794C75.9689 20.0891 74.3889 19.5476 72.761 19.5372V19.5388Z" fill="#FF6C37"/>
<path d="M78.5106 21.1653L71.3857 28.248L77.0528 33.9151C77.6232 33.5877 78.1542 33.1961 78.6356 32.748C80.1209 31.178 80.9381 29.0924 80.9148 26.9313C80.8914 24.7703 80.0294 22.7028 78.5106 21.1653Z" fill="white"/>
<path d="M76.9265 34.5402C76.8329 34.5452 76.7393 34.5292 76.6528 34.4932C76.5662 34.4572 76.4889 34.4023 76.4265 34.3324L70.7593 28.6652C70.6811 28.6027 70.618 28.5234 70.5747 28.4332C70.5313 28.343 70.5088 28.2442 70.5088 28.1441C70.5088 28.044 70.5313 27.9452 70.5747 27.855C70.618 27.7648 70.6811 27.6855 70.7593 27.623L77.8421 20.6653C77.9105 20.5621 78.0034 20.4775 78.1124 20.419C78.2215 20.3605 78.3433 20.3298 78.4671 20.3298C78.5908 20.3298 78.7127 20.3605 78.8217 20.419C78.9308 20.4775 79.0236 20.5621 79.0921 20.6653C79.9235 21.4799 80.5841 22.4524 81.0351 23.5256C81.486 24.5987 81.7183 25.7511 81.7183 26.9152C81.7183 28.0793 81.486 29.2317 81.0351 30.3049C80.5841 31.3781 79.9235 32.3505 79.0921 33.1652C78.6016 33.6854 78.0404 34.1341 77.4249 34.498C77.2699 34.5761 77.0908 34.5912 76.9249 34.5402H76.9265ZM72.3437 28.1246L77.0515 32.8324C77.3753 32.6054 77.6819 32.3547 77.9686 32.0824C79.3526 30.7022 80.132 28.8291 80.1358 26.8746C80.139 25.1255 79.5014 23.4357 78.3436 22.1246L72.3437 28.1246Z" fill="#FF6C37"/>
<path d="M68.0517 33.6245C67.4874 33.0946 66.7423 32.7996 65.9681 32.7996C65.1939 32.7996 64.4489 33.0946 63.8845 33.6245L45.0112 52.4557L48.1362 55.6228L68.0939 38.1229C68.3982 37.8312 68.6397 37.4803 68.8033 37.0918C68.9669 36.7033 69.0493 36.2854 69.0453 35.8638C69.0414 35.4423 68.9512 35.026 68.7803 34.6406C68.6094 34.2552 68.3615 33.9089 68.0517 33.6229V33.6245Z" fill="white"/>
<path d="M47.9691 56.3743C47.7823 56.3697 47.604 56.2956 47.4691 56.1665L44.3019 52.9993C44.1668 52.8595 44.0913 52.6727 44.0913 52.4782C44.0913 52.2838 44.1668 52.097 44.3019 51.9572L63.1767 33.1651C63.7204 32.6221 64.4146 32.255 65.1695 32.1113C65.9243 31.9677 66.7049 32.0541 67.41 32.3594C68.1151 32.6647 68.7122 33.1748 69.1239 33.8236C69.5356 34.4724 69.7429 35.2299 69.7189 35.9979C69.6972 36.5192 69.5718 37.0309 69.3499 37.5031C69.128 37.9753 68.8142 38.3985 68.4267 38.7479L48.469 56.2477C48.3239 56.3505 48.1455 56.3951 47.9691 56.3727V56.3743ZM45.7613 52.4556L47.8441 54.5806L67.4267 37.5385C67.9111 37.1167 68.2001 36.5135 68.2189 35.8714C68.2376 35.2292 67.9845 34.6011 67.5111 34.1636C67.0739 33.7282 66.482 33.4837 65.865 33.4837C65.248 33.4837 64.6561 33.7282 64.2189 34.1636L45.7613 52.4556Z" fill="#FF6C37"/>
<path d="M30.3861 73.9148C30.3328 73.9873 30.304 74.0749 30.304 74.1648C30.304 74.2548 30.3328 74.3424 30.3861 74.4148L31.2189 78.0398C31.2522 78.2531 31.2206 78.4715 31.1281 78.6666C31.0355 78.8617 30.8864 79.0244 30.7001 79.1335C30.5145 79.2421 30.2992 79.289 30.0852 79.2673C29.8712 79.2457 29.6697 79.1567 29.5095 79.0132L23.8018 73.5133L41.5937 55.5806H47.7609L51.928 59.7477C45.4276 65.4311 38.1796 70.1978 30.3861 73.9148Z" fill="white"/>
<path d="M30.0115 80.0398C29.5396 80.0304 29.074 79.8367 28.7615 79.4976L23.3038 74.0398C23.2256 73.9773 23.1625 73.898 23.1191 73.8078C23.0757 73.7176 23.0532 73.6188 23.0532 73.5188C23.0532 73.4187 23.0757 73.3199 23.1191 73.2297C23.1625 73.1395 23.2256 73.0602 23.3038 72.9977L41.2192 55.04C41.3195 54.9334 41.4506 54.8607 41.5942 54.8322H47.802C47.9637 54.775 48.1402 54.775 48.302 54.8322L52.4691 58.9994C52.5484 59.0724 52.6087 59.1636 52.6449 59.2651C52.6811 59.3667 52.6921 59.4754 52.6769 59.5822C52.6799 59.6857 52.6588 59.7885 52.6155 59.8825C52.5721 59.9766 52.5076 60.0594 52.4269 60.1243L52.0941 60.4165C45.5675 65.8576 38.387 70.4624 30.7193 74.1242L31.5115 77.4992C31.5727 77.7595 31.5751 78.0303 31.5184 78.2917C31.4616 78.553 31.3473 78.7984 31.1836 79.01C31.02 79.2215 30.8112 79.3939 30.5725 79.5145C30.3337 79.6351 30.0711 79.7008 29.8037 79.707L30.0115 80.0398ZM24.9287 73.4977L29.8443 78.4554C29.8901 78.4963 29.9494 78.5189 30.0107 78.5189C30.0721 78.5189 30.1313 78.4963 30.1771 78.4554C30.2078 78.4129 30.2243 78.3618 30.2243 78.3093C30.2243 78.2569 30.2078 78.2058 30.1771 78.1632L29.3443 74.5383C29.2787 74.2781 29.3051 74.0033 29.419 73.7603C29.5329 73.5174 29.7273 73.3214 29.9693 73.2055C37.4309 69.5926 44.4262 65.0873 50.8019 59.7884L47.3848 56.3712H41.802L24.9287 73.4977Z" fill="#FF6C37"/>
<path d="M19.5113 77.7897L23.6784 73.6226L30.0955 80.0397L19.8878 79.3319C19.7126 79.3181 19.5461 79.2494 19.4122 79.1354C19.2784 79.0215 19.1839 78.8682 19.1423 78.6974C19.1007 78.5266 19.1142 78.347 19.1807 78.1843C19.2472 78.0215 19.3635 77.884 19.5128 77.7912L19.5113 77.7897Z" fill="white"/>
<path d="M30.2193 80.6647L20.0522 79.9569C19.4491 79.9007 18.9304 79.4882 18.7179 78.9366C18.5054 78.3851 18.635 77.7304 19.0522 77.2898L23.2194 73.1226C23.3592 72.9875 23.546 72.912 23.7405 72.912C23.9349 72.912 24.1217 72.9875 24.2615 73.1226L30.6365 79.4976C30.7247 79.6185 30.7723 79.7643 30.7723 79.914C30.7723 80.0636 30.7247 80.2095 30.6365 80.3304C30.5401 80.4862 30.3926 80.6038 30.2193 80.6632V80.6647ZM20.0522 78.3319L28.3849 78.8741L23.8022 74.5819L20.0522 78.3319Z" fill="#FF6C37"/>
<path d="M48.3438 56.0837L39.9268 57.3758L44.8017 52.5431L48.3438 56.0837Z" fill="white"/>
<path d="M39.9268 58.165C39.7869 58.1687 39.649 58.1311 39.5304 58.0569C39.4117 57.9827 39.3176 57.8752 39.2596 57.7479C39.1709 57.6271 39.123 57.4812 39.123 57.3314C39.123 57.1816 39.1709 57.0357 39.2596 56.915L44.0923 52.04C44.2389 51.9023 44.4325 51.8256 44.6337 51.8256C44.8349 51.8256 45.0285 51.9023 45.1751 52.04L48.7188 55.5807C48.7896 55.6929 48.8271 55.8229 48.8271 55.9557C48.8271 56.0884 48.7896 56.2184 48.7188 56.3307C48.684 56.4675 48.6106 56.5914 48.5072 56.6876C48.4039 56.7837 48.275 56.8481 48.136 56.8728L39.8033 58.165H39.9268ZM44.8017 53.6228L42.0939 56.3307L46.761 55.6228L44.8017 53.6228Z" fill="#FF6C37"/>
<path d="M48.3436 56.0807L42.4687 56.8307C42.3115 56.8663 42.147 56.8504 41.9995 56.7852C41.8521 56.7201 41.7295 56.6091 41.6501 56.4688C41.5707 56.3285 41.5385 56.1664 41.5585 56.0064C41.5785 55.8464 41.6495 55.6971 41.7609 55.5807L44.8031 52.5385L48.3436 56.0807Z" fill="white"/>
<path d="M42.3017 57.6244C42.0294 57.6218 41.7626 57.5472 41.5285 57.408C41.2944 57.2689 41.1013 57.0702 40.9689 56.8323C40.8098 56.547 40.7481 56.2177 40.7932 55.8942C40.8383 55.5708 40.9878 55.2709 41.2189 55.0401L44.261 51.9979C44.4076 51.8602 44.6013 51.7835 44.8024 51.7835C45.0036 51.7835 45.1972 51.8602 45.3438 51.9979L48.886 55.5401C48.9913 55.6399 49.0655 55.7681 49.0994 55.9092C49.1333 56.0503 49.1256 56.1982 49.0771 56.335C49.0286 56.4718 48.9415 56.5915 48.8264 56.6798C48.7112 56.7681 48.5729 56.821 48.4282 56.8323L42.5954 57.5823L42.3017 57.6244ZM42.3017 56.0823L46.7188 55.5401L44.761 53.5823L42.2611 56.0823H42.3017ZM78.5514 25.9575C78.4729 25.826 78.3488 25.7279 78.2028 25.6818C78.0568 25.6357 77.8989 25.6449 77.7592 25.7075C77.6902 25.7424 77.629 25.7908 77.579 25.8499C77.5291 25.9089 77.4915 25.9774 77.4686 26.0512C77.4222 26.2002 77.4368 26.3614 77.5092 26.4996C77.8014 27.1137 77.7201 27.8403 77.3014 28.3746C77.2494 28.4261 77.2086 28.4878 77.1817 28.5559C77.1548 28.6239 77.1424 28.6968 77.1451 28.7699C77.1466 28.9165 77.2023 29.0573 77.3014 29.1653C77.4083 29.2075 77.5273 29.2075 77.6342 29.1653C77.7312 29.1896 77.833 29.187 77.9286 29.1575C78.0242 29.128 78.1099 29.0729 78.1764 28.9981C78.5195 28.578 78.7367 28.0694 78.8031 27.5311C78.8694 26.9928 78.7822 26.4467 78.5514 25.9559V25.9575Z" fill="#FF6C37"/>
</svg>
