<svg width="98" height="101" viewBox="0 0 98 101" fill="none" xmlns="http://www.w3.org/2000/svg">
<path d="M96.8686 60.7933C96.2872 59.0276 94.7642 57.7978 92.7947 57.5027C91.866 57.3637 90.8025 57.423 89.5439 57.6831C87.3502 58.137 85.7227 58.3098 84.535 58.3432C89.0182 50.753 92.6637 42.0974 94.7623 33.9496C98.1559 20.7748 96.3425 14.7729 94.2234 12.0581C88.6152 4.87235 80.4331 1.01209 70.5621 0.893973C65.2964 0.829408 60.6737 1.87195 58.2622 2.62167C56.017 2.2244 53.6029 2.0026 51.0698 1.96158C46.3214 1.88562 42.126 2.92361 38.5411 5.05693C36.5565 4.38393 33.3712 3.43519 29.6928 2.8298C21.0414 1.40556 14.0686 2.51533 8.96836 6.12834C2.79247 10.5028 -0.0704994 18.1033 0.458992 28.7187C0.627157 32.089 2.50727 42.3435 5.46758 52.0686C7.16892 57.6584 8.98313 62.3003 10.8598 65.8666C13.5213 70.9236 16.3691 73.9016 19.5662 74.9711C21.358 75.5697 24.6137 75.989 28.038 73.1291C28.4721 73.6562 29.0512 74.18 29.8197 74.6665C30.7957 75.2837 31.9891 75.7881 33.1811 76.087C37.4765 77.1637 41.4999 76.8944 44.9325 75.3851C44.9537 75.9973 44.97 76.5822 44.9837 77.0873C45.0064 77.9066 45.0291 78.7098 45.059 79.4611C45.2624 84.5405 45.6071 88.49 46.6282 91.2534C46.6842 91.4053 46.7596 91.637 46.8392 91.8827C47.3486 93.4467 48.2004 96.065 50.3676 98.1156C52.6117 100.24 55.3262 100.891 57.8123 100.891C59.0591 100.891 60.2488 100.727 61.2922 100.503C65.0116 99.7035 69.2357 98.4859 72.2915 94.1227C75.1806 89.9982 76.585 83.7858 76.8391 73.9973C76.8721 73.7204 76.9024 73.4561 76.9316 73.2043L76.9922 72.687L77.6728 72.747L77.8481 72.7588C81.6364 72.932 86.2685 72.1264 89.1133 70.8013C91.3612 69.7554 98.5646 65.9418 96.8686 60.7933Z" fill="black"/>
<path d="M90.3913 61.7945C79.1273 64.1246 78.3527 60.3004 78.3527 60.3004C90.2455 42.6045 95.2173 20.1421 90.9272 14.6446C79.2223 -0.35174 58.9611 6.7406 58.6229 6.92442L58.5142 6.94417C56.2887 6.48082 53.7984 6.20508 50.999 6.15913C45.9026 6.07557 42.0363 7.49905 39.1025 9.72998C39.1025 9.72998 2.95838 -5.20138 4.63965 28.5087C4.99719 35.68 14.8901 82.7715 26.6897 68.5477C31.0025 63.3464 35.1699 58.9487 35.1699 58.9487C37.2394 60.3274 39.7172 61.0308 42.3147 60.7782L42.5165 60.6065C42.4537 61.2522 42.4825 61.8838 42.5972 62.6316C39.5574 66.0372 40.4508 66.635 34.3742 67.8895C28.2252 69.1603 31.8373 71.4224 34.1958 72.0141C37.055 72.7308 43.6695 73.7464 48.1387 67.4725L47.9607 68.1884C49.1515 69.1451 49.9878 74.4106 49.8476 79.1843C49.7075 83.9576 49.6139 87.2349 50.5521 89.7947C51.491 92.3545 52.4262 98.1142 60.4147 96.3979C67.0895 94.9634 70.5486 91.2463 71.03 85.0457C71.3712 80.6378 72.1443 81.2895 72.1927 77.3484L72.8128 75.4828C73.5275 69.5075 72.9264 67.5796 77.0385 68.4763L78.0384 68.5644C81.0646 68.7023 85.0263 68.076 87.3514 66.9924C92.3578 64.6628 95.3272 60.7725 90.3905 61.7945H90.3913Z" fill="#336791"/>
<path d="M41.2182 31.7157C40.2031 31.574 39.2839 31.7051 38.8188 32.0583C38.5575 32.2569 38.4764 32.4871 38.4544 32.6454C38.3961 33.0651 38.6893 33.5292 38.8696 33.7685C39.3794 34.446 40.124 34.9117 40.861 35.0142C40.9678 35.0294 41.0743 35.0362 41.1799 35.0362C42.409 35.0362 43.5267 34.0765 43.6251 33.3682C43.7482 32.481 42.4639 31.8896 41.2182 31.7161V31.7157ZM74.8451 31.7438C74.7482 31.0484 73.5142 30.8501 72.3431 31.0134C71.1735 31.1768 70.0395 31.7062 70.1342 32.4031C70.21 32.9451 71.186 33.8703 72.3412 33.8703C72.4389 33.8703 72.5374 33.8638 72.6366 33.8498C73.4078 33.7427 73.9736 33.2516 74.2425 32.9686C74.6516 32.5372 74.8887 32.0564 74.8451 31.7438Z" fill="white"/>
<path d="M94.1395 61.5298C93.71 60.2275 92.3276 59.8086 90.0308 60.2841C83.2114 61.6954 80.7692 60.7178 79.9674 60.1257C85.2681 52.0284 89.6286 42.2402 91.981 33.108C93.0953 28.7821 93.7108 24.7646 93.7611 21.49C93.8168 17.896 93.2063 15.2548 91.9473 13.6415C86.8713 7.13742 79.4213 3.6486 70.4032 3.55289C64.2035 3.48301 58.9653 5.07398 57.9499 5.52138C55.8115 4.98815 53.4803 4.66076 50.9423 4.61898C46.2882 4.5434 42.2651 5.66077 38.9344 7.93842C37.4875 7.39835 33.7485 6.11121 29.1759 5.3725C21.2706 4.09638 14.9886 5.06335 10.5057 8.24795C5.15665 12.0482 2.68719 18.8413 3.16556 28.438C3.32653 31.6667 5.16119 41.5991 8.05636 51.1112C11.8673 63.6308 16.0101 70.7183 20.3688 72.1763C20.879 72.3468 21.4672 72.4661 22.116 72.4661C23.7059 72.4661 25.6554 71.7475 27.6836 69.3024C30.1574 66.3265 32.7164 63.4229 35.3574 60.5951C37.0709 61.5173 38.9533 62.0323 40.8785 62.0839C40.8823 62.1344 40.8872 62.185 40.8918 62.2351C40.5604 62.6314 40.2358 63.0334 39.9184 63.4409C38.5844 65.139 38.3068 65.4926 34.0129 66.3791C32.7914 66.632 29.5474 67.3023 29.4997 69.5827C29.4482 72.0741 33.3345 73.1205 33.7773 73.2314C35.3203 73.6188 36.8069 73.8098 38.2246 73.8098C41.6724 73.8098 44.7065 72.6734 47.1313 70.4748C47.0567 79.3568 47.426 88.1088 48.4895 90.7754C49.3606 92.9585 51.4884 98.2935 58.2097 98.2931C59.196 98.2931 60.2815 98.178 61.4757 97.9213C68.4905 96.4135 71.5368 93.3045 72.7151 86.4502C73.3457 82.7871 74.4278 74.04 74.9369 69.3479C76.011 69.6841 77.3938 69.8379 78.8888 69.8375C82.0066 69.8375 85.6044 69.1732 87.8606 68.1231C90.3952 66.9427 94.969 64.0463 94.1395 61.5298ZM77.4343 29.8243C77.4112 31.2094 77.2211 32.4669 77.0196 33.7795C76.8026 35.1912 76.5784 36.6508 76.5219 38.4225C76.4663 40.1468 76.681 41.9394 76.8886 43.6732C77.3082 47.175 77.7389 50.78 76.072 54.3372C75.7951 53.8452 75.5485 53.3367 75.3334 52.8146C75.1263 52.311 74.6763 51.502 74.0532 50.3824C71.6296 46.0238 65.954 35.8171 68.8594 31.6522C69.7249 30.4126 71.9213 29.138 77.4343 29.8243ZM70.7517 6.3577C78.8319 6.53658 85.2237 9.56775 89.749 15.3665C93.2199 19.8143 89.3979 40.0526 78.3335 57.5123C78.2222 57.3704 78.1104 57.229 77.9979 57.0881L77.8578 56.9126C80.717 52.1777 80.1579 47.4928 79.6603 43.3394C79.4557 41.6348 79.2626 40.0249 79.3118 38.5125C79.3626 36.9098 79.5739 35.5349 79.7784 34.2056C80.0295 32.5676 80.2852 30.8725 80.2148 28.8744C80.2674 28.6647 80.2886 28.4171 80.261 28.1232C80.0811 26.2071 77.8995 20.4725 73.4529 15.2822C71.0206 12.4432 67.4736 9.26619 62.6305 7.12337C64.7136 6.6904 67.5622 6.28668 70.7517 6.3577ZM25.5372 67.5128C23.3026 70.207 21.7596 69.6905 21.252 69.5211C17.9455 68.4152 14.1088 61.4071 10.7262 50.2942C7.79919 40.6785 6.08875 31.0092 5.95316 28.2979C5.52593 19.7228 7.59883 13.7467 12.1147 10.5351C19.4639 5.30908 31.5468 8.43709 36.402 10.0235C36.3324 10.0926 36.2596 10.1572 36.1907 10.2275C28.2233 18.2959 28.4123 32.081 28.432 32.9238C28.4312 33.2489 28.4585 33.7092 28.4956 34.3423C28.6327 36.661 28.888 40.9763 28.2063 45.8631C27.573 50.4044 28.9691 54.8492 32.0358 58.0581C32.3505 58.3868 32.6813 58.6996 33.027 58.9954C31.662 60.4614 28.6952 63.7034 25.5372 67.5128ZM34.0511 56.1215C31.5794 53.5351 30.4568 49.9376 30.9708 46.2505C31.6904 41.0883 31.4249 36.5923 31.2821 34.1768C31.262 33.8387 31.2442 33.5425 31.234 33.3089C32.3979 32.274 37.7917 29.3761 41.6383 30.2599C43.3934 30.6629 44.463 31.8615 44.9076 33.923C47.2089 44.5965 45.2122 49.0451 43.6078 52.6201C43.2771 53.3565 42.9647 54.0527 42.698 54.7728L42.4912 55.3296C41.9678 56.7371 41.4807 58.0459 41.1788 59.2886C38.5511 59.281 35.9949 58.1553 34.0511 56.1211V56.1215ZM34.4545 70.5158C33.6872 70.3236 32.9971 69.9898 32.5922 69.7129C32.9304 69.5534 33.5323 69.3362 34.5761 69.1204C39.6275 68.0779 40.4077 67.3419 42.1113 65.1728C42.5018 64.6753 42.9446 64.1117 43.5578 63.425L43.5585 63.4242C44.4717 62.3988 44.8895 62.5727 45.647 62.888C46.2609 63.1424 46.859 63.9142 47.1014 64.7634C47.2161 65.1645 47.3449 65.9256 46.9234 66.5181C43.3646 71.5147 38.1788 71.4505 34.4545 70.5158ZM60.8909 95.1844C54.7112 96.5122 52.5232 93.3504 51.0813 89.7359C50.1507 87.4024 49.6932 76.8797 50.0177 65.259C50.0219 65.1045 49.9999 64.9552 49.9575 64.8147C49.9196 64.5372 49.8619 64.2628 49.7848 63.9935C49.3023 62.3027 48.1263 60.8883 46.7154 60.3019C46.1549 60.0691 45.1262 59.6418 43.8899 59.959C44.1535 58.8697 44.6107 57.6395 45.1065 56.3076L45.3144 55.7474C45.5485 55.1158 45.8424 54.4614 46.153 53.7686C47.832 50.0284 50.1314 44.9053 47.6358 33.3317C46.701 28.9967 43.5794 26.8797 38.8473 27.3715C36.0104 27.6659 33.4148 28.8136 32.1203 29.4718C31.8419 29.6131 31.5874 29.7498 31.3495 29.8828C31.7108 25.5151 33.0759 17.3525 38.1822 12.188C41.3974 8.93691 45.6792 7.33112 50.8961 7.41771C61.1754 7.58635 67.7671 12.8762 71.4872 17.2845C74.693 21.0828 76.4288 24.9093 77.1215 26.9731C71.9118 26.4418 68.3686 27.4729 66.5725 30.048C62.665 35.6492 68.7102 46.5206 71.6156 51.7454C72.1485 52.7029 72.6083 53.5305 72.753 53.8822C73.6991 56.1815 74.924 57.7166 75.8182 58.837C76.0924 59.1804 76.3583 59.5135 76.5606 59.8044C74.9827 60.2605 72.1485 61.3145 72.4068 66.5826C72.1985 69.226 70.7172 81.6021 69.9646 85.9747C68.9712 91.7515 66.8513 93.903 60.8909 95.1848V95.1844ZM86.6853 65.5845C85.0719 66.3354 82.3717 66.8986 79.8068 67.0198C76.9738 67.1527 75.5315 66.7015 75.1922 66.4239C75.0331 63.1409 76.2515 62.7979 77.5412 62.4349C77.7438 62.3779 77.9415 62.3221 78.1324 62.2552C78.2509 62.3521 78.3809 62.4482 78.5233 62.5423C80.8003 64.0494 84.8616 64.2119 90.5956 63.0251L90.6584 63.0125C89.885 63.7376 88.5617 64.7106 86.6853 65.5845Z" fill="white"/>
</svg>
