<svg width="101" height="100" viewBox="0 0 101 100" fill="none" xmlns="http://www.w3.org/2000/svg">
<path d="M74.1227 19.0476H78.8846C80.2179 19.0476 81.2655 20.0952 81.2655 21.4286C81.2655 22.7619 80.2179 23.8095 78.8846 23.8095H74.1227C72.7893 23.8095 71.7417 22.7619 71.7417 21.4286C71.7417 20.0952 72.7893 19.0476 74.1227 19.0476Z" fill="#56B3B4"/>
<path d="M2.69394 95.2382H26.5034C27.8368 95.2382 28.8844 96.2858 28.8844 97.6191C28.8844 98.9525 27.8368 100 26.5034 100H2.69394C1.36061 100 0.312988 98.9525 0.312988 97.6191C0.312988 96.2858 1.36061 95.2382 2.69394 95.2382Z" fill="#EA5E5E"/>
<path d="M59.837 57.1429H74.1226C75.4559 57.1429 76.5035 58.1905 76.5035 59.5238C76.5035 60.8571 75.4559 61.9046 74.1226 61.9046H59.837C58.5037 61.9046 57.4561 60.8571 57.4561 59.5238C57.4561 58.1905 58.5037 57.1429 59.837 57.1429Z" fill="#BF85BF"/>
<path d="M31.2652 57.1429H50.3129C51.6462 57.1429 52.6939 58.1905 52.6939 59.5238C52.6939 60.8571 51.6462 61.9046 50.3129 61.9046H31.2652C29.9319 61.9046 28.8843 60.8571 28.8843 59.5238C28.8843 58.1905 29.9319 57.1429 31.2652 57.1429Z" fill="#EA5E5E"/>
<path d="M2.69394 57.1429H21.7416C23.0749 57.1429 24.1225 58.1905 24.1225 59.5238C24.1225 60.8571 23.0749 61.9046 21.7416 61.9046H2.69394C1.36061 61.9046 0.312988 60.8571 0.312988 59.5238C0.312988 58.1905 1.36061 57.1429 2.69394 57.1429Z" fill="#56B3B4"/>
<path d="M2.69394 76.1904H26.5034C27.8368 76.1904 28.8844 77.2381 28.8844 78.5714C28.8844 79.9047 27.8368 80.9524 26.5034 80.9524H2.69394C1.36061 80.9524 0.312988 79.9047 0.312988 78.5714C0.312988 77.2381 1.36061 76.1904 2.69394 76.1904Z" fill="#BF85BF"/>
<path d="M2.69394 38.0952H26.5034C27.8368 38.0952 28.8844 39.1429 28.8844 40.4762C28.8844 41.8096 27.8368 42.8572 26.5034 42.8572H2.69394C1.36061 42.8572 0.312988 41.8096 0.312988 40.4762C0.312988 39.1429 1.36061 38.0952 2.69394 38.0952Z" fill="#BF85BF"/>
<path d="M26.5035 9.5238H74.1225C75.4558 9.5238 76.5034 10.5714 76.5034 11.9048C76.5034 13.2381 75.4558 14.2857 74.1225 14.2857H26.5035C25.1702 14.2857 24.1226 13.2381 24.1226 11.9048C24.1226 10.5714 25.1702 9.5238 26.5035 9.5238Z" fill="#F7BA3E"/>
<path d="M2.69394 9.5238H16.9797C18.313 9.5238 19.3606 10.5714 19.3606 11.9048C19.3606 13.2381 18.313 14.2857 16.9797 14.2857H2.69394C1.36061 14.2857 0.312988 13.2381 0.312988 11.9048C0.312988 10.5714 1.36061 9.5238 2.69394 9.5238Z" fill="#EA5E5E"/>
<path d="M21.7413 85.7142H26.5033C27.8366 85.7142 28.8842 86.7619 28.8842 88.0952C28.8842 89.4285 27.8366 90.4762 26.5033 90.4762H21.7413C20.408 90.4762 19.3604 89.4285 19.3604 88.0952C19.3604 86.7619 20.408 85.7142 21.7413 85.7142Z" fill="#F7BA3E"/>
<path d="M21.7413 28.5715H26.5033C27.8366 28.5715 28.8842 29.6191 28.8842 30.9524C28.8842 32.2857 27.8366 33.3333 26.5033 33.3333H21.7413C20.408 33.3333 19.3604 32.2857 19.3604 30.9524C19.3604 29.6191 20.408 28.5715 21.7413 28.5715Z" fill="#56B3B4"/>
<path d="M2.69394 85.7142H12.2178C13.5511 85.7142 14.5987 86.7619 14.5987 88.0952C14.5987 89.4285 13.5511 90.4762 12.2178 90.4762H2.69394C1.36061 90.4762 0.312988 89.4285 0.312988 88.0952C0.312988 86.7619 1.36061 85.7142 2.69394 85.7142Z" fill="#56B3B4"/>
<path d="M2.69394 28.5715H12.2178C13.5511 28.5715 14.5987 29.6191 14.5987 30.9524C14.5987 32.2857 13.5511 33.3333 12.2178 33.3333H2.69394C1.36061 33.3333 0.312988 32.2857 0.312988 30.9524C0.312988 29.6191 1.36061 28.5715 2.69394 28.5715Z" fill="#F7BA3E"/>
<path opacity="0.5" d="M64.5987 85.7142H69.3605C70.6938 85.7142 71.7414 86.7619 71.7414 88.0952C71.7414 89.4285 70.6938 90.4762 69.3605 90.4762H64.5987C63.2654 90.4762 62.2178 89.4285 62.2178 88.0952C62.2178 86.7619 63.2654 85.7142 64.5987 85.7142Z" fill="#D0D4D8"/>
<path opacity="0.5" d="M36.0274 85.7142H55.0752C56.4085 85.7142 57.4561 86.7619 57.4561 88.0952C57.4561 89.4285 56.4085 90.4762 55.0752 90.4762H36.0274C34.6941 90.4762 33.6465 89.4285 33.6465 88.0952C33.6465 86.7619 34.6941 85.7142 36.0274 85.7142Z" fill="#D0D4D8"/>
<path opacity="0.5" d="M78.8844 85.7142H97.932C99.2654 85.7142 100.313 86.7619 100.313 88.0952C100.313 89.4285 99.2654 90.4762 97.932 90.4762H78.8844C77.551 90.4762 76.5034 89.4285 76.5034 88.0952C76.5034 86.7619 77.551 85.7142 78.8844 85.7142Z" fill="#D0D4D8"/>
<path d="M40.7892 47.619H78.8843C80.2177 47.619 81.2653 48.6666 81.2653 49.9999C81.2653 51.3332 80.2177 52.3808 78.8843 52.3808H40.7892C39.4558 52.3808 38.4082 51.3332 38.4082 49.9999C38.4082 48.6666 39.4558 47.619 40.7892 47.619Z" fill="#56B3B4"/>
<path d="M16.9796 47.619H31.2653C32.5986 47.619 33.6463 48.6666 33.6463 49.9999C33.6463 51.3332 32.5986 52.3808 31.2653 52.3808H16.9796C15.6463 52.3808 14.5986 51.3332 14.5986 49.9999C14.5986 48.6666 15.6463 47.619 16.9796 47.619Z" fill="#F7BA3E"/>
<path d="M2.69394 47.619H7.45585C8.78919 47.619 9.83681 48.6666 9.83681 49.9999C9.83681 51.3332 8.78919 52.3808 7.45585 52.3808H2.69394C1.36061 52.3808 0.312988 51.3332 0.312988 49.9999C0.312988 48.6666 1.36061 47.619 2.69394 47.619Z" fill="#EA5E5E"/>
<path d="M45.5509 19.0476H64.5984C65.9318 19.0476 66.9794 20.0952 66.9794 21.4286C66.9794 22.7619 65.9318 23.8095 64.5984 23.8095H45.5509C44.2175 23.8095 43.1699 22.7619 43.1699 21.4286C43.1699 20.0952 44.2175 19.0476 45.5509 19.0476Z" fill="#BF85BF"/>
<path d="M2.69394 19.0476H36.0272C37.3606 19.0476 38.4082 20.0952 38.4082 21.4286C38.4082 22.7619 37.3606 23.8095 36.0272 23.8095H2.69394C1.36061 23.8095 0.312988 22.7619 0.312988 21.4286C0.312988 20.0952 1.36061 19.0476 2.69394 19.0476Z" fill="#56B3B4"/>
<path d="M16.9796 66.6666H59.8368C61.1702 66.6666 62.2178 67.7142 62.2178 69.0476C62.2178 70.3809 61.1702 71.4285 59.8368 71.4285H16.9796C15.6463 71.4285 14.5986 70.3809 14.5986 69.0476C14.5986 67.7142 15.6463 66.6666 16.9796 66.6666Z" fill="#F7BA3E"/>
<path d="M2.69394 66.6666H7.45585C8.78919 66.6666 9.83681 67.7142 9.83681 69.0476C9.83681 70.3809 8.78919 71.4285 7.45585 71.4285H2.69394C1.36061 71.4285 0.312988 70.3809 0.312988 69.0476C0.312988 67.7142 1.36061 66.6666 2.69394 66.6666Z" fill="#BF85BF"/>
<path d="M59.837 28.5715H83.6464C84.9798 28.5715 86.0274 29.6191 86.0274 30.9524C86.0274 32.2857 84.9798 33.3333 83.6464 33.3333H59.837C58.5037 33.3333 57.4561 32.2857 57.4561 30.9524C57.4561 29.6191 58.5037 28.5715 59.837 28.5715Z" fill="#EA5E5E"/>
<path d="M59.837 38.0952H83.6464C84.9798 38.0952 86.0274 39.1429 86.0274 40.4762C86.0274 41.8096 84.9798 42.8572 83.6464 42.8572H59.837C58.5037 42.8572 57.4561 41.8096 57.4561 40.4762C57.4561 39.1429 58.5037 38.0952 59.837 38.0952Z" fill="#F7BA3E"/>
<path d="M2.69394 0H59.8368C61.1701 0 62.2178 1.04762 62.2178 2.38095C62.2178 3.71429 61.1701 4.7619 59.8368 4.7619H2.69394C1.36061 4.7619 0.312988 3.71429 0.312988 2.38095C0.312988 1.04762 1.36061 0 2.69394 0Z" fill="#56B3B4"/>
<path opacity="0.5" d="M69.3604 0H97.9319C99.2652 0 100.313 1.04762 100.313 2.38095C100.313 3.71429 99.2652 4.7619 97.9319 4.7619H69.3604C68.0271 4.7619 66.9795 3.71429 66.9795 2.38095C66.9795 1.04762 68.0271 0 69.3604 0Z" fill="#D0D4D8"/>
<path opacity="0.5" d="M69.3604 66.6666H78.8842C80.2175 66.6666 81.2652 67.7142 81.2652 69.0476C81.2652 70.3809 80.2175 71.4285 78.8842 71.4285H69.3604C68.0271 71.4285 66.9795 70.3809 66.9795 69.0476C66.9795 67.7142 68.0271 66.6666 69.3604 66.6666Z" fill="#D0D4D8"/>
<path opacity="0.5" d="M88.4083 66.6666H97.9322C99.2655 66.6666 100.313 67.7142 100.313 69.0476C100.313 70.3809 99.2655 71.4285 97.9322 71.4285H88.4083C87.075 71.4285 86.0273 70.3809 86.0273 69.0476C86.0273 67.7142 87.075 66.6666 88.4083 66.6666Z" fill="#D0D4D8"/>
<path opacity="0.5" d="M83.6466 57.1429H97.9323C99.2657 57.1429 100.313 58.1905 100.313 59.5238C100.313 60.8571 99.2657 61.9046 97.9323 61.9046H83.6466C82.3132 61.9046 81.2656 60.8571 81.2656 59.5238C81.2656 58.1905 82.3132 57.1429 83.6466 57.1429Z" fill="#D0D4D8"/>
<path opacity="0.5" d="M83.6466 9.5238H97.9323C99.2657 9.5238 100.313 10.5714 100.313 11.9048C100.313 13.2381 99.2657 14.2857 97.9323 14.2857H83.6466C82.3132 14.2857 81.2656 13.2381 81.2656 11.9048C81.2656 10.5714 82.3132 9.5238 83.6466 9.5238Z" fill="#D0D4D8"/>
<path opacity="0.5" d="M88.4083 47.619H97.9322C99.2655 47.619 100.313 48.6666 100.313 49.9999C100.313 51.3332 99.2655 52.3808 97.9322 52.3808H88.4083C87.075 52.3808 86.0273 51.3332 86.0273 49.9999C86.0273 48.6666 87.075 47.619 88.4083 47.619Z" fill="#D0D4D8"/>
<path opacity="0.5" d="M88.4083 19.0476H97.9322C99.2655 19.0476 100.313 20.0952 100.313 21.4286C100.313 22.7619 99.2655 23.8095 97.9322 23.8095H88.4083C87.075 23.8095 86.0273 22.7619 86.0273 21.4286C86.0273 20.0952 87.075 19.0476 88.4083 19.0476Z" fill="#D0D4D8"/>
<path opacity="0.5" d="M93.17 28.5715H97.9319C99.2653 28.5715 100.313 29.6191 100.313 30.9524C100.313 32.2857 99.2653 33.3333 97.9319 33.3333H93.17C91.8367 33.3333 90.7891 32.2857 90.7891 30.9524C90.7891 29.6191 91.8367 28.5715 93.17 28.5715Z" fill="#D0D4D8"/>
<path opacity="0.5" d="M93.17 38.0952H97.9319C99.2653 38.0952 100.313 39.1429 100.313 40.4762C100.313 41.8096 99.2653 42.8572 97.9319 42.8572H93.17C91.8367 42.8572 90.7891 41.8096 90.7891 40.4762C90.7891 39.1429 91.8367 38.0952 93.17 38.0952Z" fill="#D0D4D8"/>
<path opacity="0.5" d="M55.0753 76.1904H97.9323C99.2656 76.1904 100.313 77.2381 100.313 78.5714C100.313 79.9047 99.2656 80.9524 97.9323 80.9524H55.0753C53.742 80.9524 52.6943 79.9047 52.6943 78.5714C52.6943 77.2381 53.742 76.1904 55.0753 76.1904Z" fill="#D0D4D8"/>
<path opacity="0.5" d="M36.0274 76.1904H45.5512C46.8846 76.1904 47.9322 77.2381 47.9322 78.5714C47.9322 79.9047 46.8846 80.9524 45.5512 80.9524H36.0274C34.6941 80.9524 33.6465 79.9047 33.6465 78.5714C33.6465 77.2381 34.6941 76.1904 36.0274 76.1904Z" fill="#D0D4D8"/>
<path opacity="0.5" d="M74.1227 95.2382H97.9323C99.2656 95.2382 100.313 96.2858 100.313 97.6191C100.313 98.9525 99.2656 100 97.9323 100H74.1227C72.7893 100 71.7417 98.9525 71.7417 97.6191C71.7417 96.2858 72.7893 95.2382 74.1227 95.2382Z" fill="#D0D4D8"/>
<path opacity="0.5" d="M36.0274 95.2382H64.5988C65.9321 95.2382 66.9798 96.2858 66.9798 97.6191C66.9798 98.9525 65.9321 100 64.5988 100H36.0274C34.6941 100 33.6465 98.9525 33.6465 97.6191C33.6465 96.2858 34.6941 95.2382 36.0274 95.2382Z" fill="#D0D4D8"/>
<path opacity="0.5" d="M36.0275 28.5715H50.3133C51.6466 28.5715 52.6942 29.6191 52.6942 30.9524C52.6942 32.2857 51.6466 33.3333 50.3133 33.3333H36.0275C34.6941 33.3333 33.6465 32.2857 33.6465 30.9524C33.6465 29.6191 34.6941 28.5715 36.0275 28.5715Z" fill="#D0D4D8"/>
<path opacity="0.5" d="M36.0275 38.0952H50.3133C51.6466 38.0952 52.6942 39.1429 52.6942 40.4762C52.6942 41.8096 51.6466 42.8572 50.3133 42.8572H36.0275C34.6941 42.8572 33.6465 41.8096 33.6465 40.4762C33.6465 39.1429 34.6941 38.0952 36.0275 38.0952Z" fill="#D0D4D8"/>
</svg>
