<svg width="82" height="100" viewBox="0 0 82 100" fill="none" xmlns="http://www.w3.org/2000/svg">
<path fill-rule="evenodd" clip-rule="evenodd" d="M1.04974 68.6394C0.0324008 67.0347 0.0170315 64.9908 1.01012 63.3706L38.4018 2.37723C40.4816 -1.0152 45.5034 -0.718578 47.1693 2.89506L81.3284 76.9942C82.5957 79.7436 81.1369 82.9784 78.2369 83.8485L25.0998 99.7896C22.9619 100.431 20.6583 99.5715 19.4633 97.6862L1.04974 68.6394ZM42.716 20.2112C43.0763 18.4169 45.5348 18.1582 46.2609 19.8381L69.8233 74.3604C70.2667 75.387 69.7148 76.5708 68.6432 76.8905L31.9297 87.85C30.5802 88.2528 29.2875 87.0737 29.5648 85.6928L42.716 20.2112Z" fill="#2D3748"/>
</svg>
