<svg width="101" height="39" viewBox="0 0 101 39" fill="none" xmlns="http://www.w3.org/2000/svg">
<path d="M73.6338 31.5667L76.5226 24.2614H84.8641L80.9052 13.1797L85.8561 0.659729L100.037 38.31H89.5789L87.1555 31.5667H73.6338Z" fill="white"/>
<path d="M64.7126 38.3104L79.8926 0.660278H69.8287L59.4441 24.9903L52.0601 0.660278H44.3243L36.3959 24.9903L30.804 13.9037L25.7441 29.4928L30.8817 38.3104H40.7859L47.9506 16.4913L54.7817 38.3104H64.7126Z" fill="#5A0FC8"/>
<path d="M9.58948 25.3856H15.7883C17.6663 25.3856 19.3385 25.1759 20.8046 24.7564L22.4082 19.8179L26.8883 6.01401C26.5472 5.47287 26.1573 4.9613 25.7192 4.47916C23.4185 1.93287 20.0528 0.659729 15.6215 0.659729H0.0366211V38.31H9.58948V25.3856ZM17.795 9.32173C18.6933 10.2259 19.1428 11.4363 19.1428 12.9524C19.1428 14.4803 18.7475 15.6917 17.9576 16.5873C17.0909 17.5826 15.496 18.0797 13.1718 18.0797H9.58948V7.96501H13.198C15.364 7.96501 16.8962 8.41701 17.795 9.32173Z" fill="white"/>
</svg>
