<svg width="101" height="39" viewBox="0 0 101 39" fill="none" xmlns="http://www.w3.org/2000/svg">
<path d="M74.358 31.5667L77.2469 24.2614H85.5883L81.6295 13.1797L86.5803 0.659729L100.761 38.31H90.3032L87.8797 31.5667H74.358Z" fill="#3D3D3D"/>
<path d="M65.4369 38.3104L80.6169 0.660278H70.553L60.1684 24.9903L52.7844 0.660278H45.0486L37.1202 24.9903L31.5283 13.9037L26.4684 29.4928L31.606 38.3104H41.5102L48.6749 16.4913L55.506 38.3104H65.4369Z" fill="#5A0FC8"/>
<path d="M10.3136 25.3856H16.5125C18.3905 25.3856 20.0626 25.1759 21.5287 24.7564L23.1323 19.8179L27.6125 6.01401C27.2713 5.47287 26.8815 4.9613 26.4433 4.47916C24.1426 1.93287 20.7769 0.659729 16.3456 0.659729H0.760742V38.31H10.3136V25.3856ZM18.5192 9.32173C19.4175 10.2259 19.8669 11.4363 19.8669 12.9524C19.8669 14.4803 19.4716 15.6917 18.6817 16.5873C17.815 17.5826 16.2202 18.0797 13.8959 18.0797H10.3136V7.96501H13.9222C16.0882 7.96501 17.6203 8.41701 18.5192 9.32173Z" fill="#3D3D3D"/>
</svg>
