<svg width="101" height="36" viewBox="0 0 101 36" fill="none" xmlns="http://www.w3.org/2000/svg">
<path d="M87.5949 30.5886V35.1604H95.8546C97.5469 35.1604 100.452 33.9227 100.553 30.4623V28.6941C100.553 25.7388 98.1279 23.996 95.8546 23.996H91.7374V21.8742H99.896V17.2771H92.0657C90.045 17.2771 87.3423 18.9442 87.3423 22.051V23.6424C87.3423 26.7492 90.0197 28.3405 92.0657 28.3405C97.749 28.3658 90.7017 28.3405 95.9556 28.3405V30.5633L87.5949 30.5886ZM43.3413 29.4772C43.3413 29.4772 47.7616 29.0983 47.7616 23.3898C47.7616 17.6813 42.4067 17.1508 42.4067 17.1508H32.7578V35.1604H37.6075V30.8159L41.8005 35.1604H48.974L43.3413 29.4772ZM41.4721 25.7894H37.6075V21.6722H41.4974C41.4974 21.6722 42.5835 22.0763 42.5835 23.7181C42.5835 25.36 41.4721 25.7894 41.4721 25.7894ZM59.7343 17.2771H54.8088C51.2978 17.2771 50.1107 20.4597 50.1107 21.9753V35.1604H55.0362V32.0031H59.6585V35.1604H64.4325V21.9753C64.4325 18.1359 60.9468 17.2771 59.7343 17.2771ZM59.6585 26.9008H55.0109V22.531C55.0109 22.531 55.0109 21.5459 56.5517 21.5459H58.244C59.608 21.5459 59.6333 22.531 59.6333 22.531V26.9008H59.6585ZM66.6805 17.2771H71.8081V35.1604H66.6805V17.2771ZM79.0069 30.538V17.2771H73.9046V35.1604H85.9025V30.538H79.0069Z" fill="#CC0000"/>
<path d="M2.3208 35.1604H22.2753C22.2753 35.1604 18.4612 17.757 31.0907 10.7098C33.8439 9.37107 42.6088 4.36981 56.9558 14.9786C57.4105 14.5997 57.8399 14.2966 57.8399 14.2966C57.8399 14.2966 44.7052 1.18719 30.0803 2.6522C22.73 3.30894 13.6873 10.0025 8.38294 18.8432C3.07857 27.6838 2.3208 35.1604 2.3208 35.1604Z" fill="#CC0000"/>
<path d="M2.3208 35.1604H22.2753C22.2753 35.1604 18.4612 17.757 31.0907 10.7098C33.8439 9.37107 42.6088 4.36981 56.9558 14.9786C57.4105 14.5997 57.8399 14.2966 57.8399 14.2966C57.8399 14.2966 44.7052 1.18719 30.0803 2.6522C22.73 3.30894 13.6873 10.0025 8.38294 18.8432C3.07857 27.6838 2.3208 35.1604 2.3208 35.1604Z" fill="#CC0000"/>
<path d="M2.3208 35.1604H22.2753C22.2753 35.1604 18.4612 17.757 31.0907 10.7098C33.8439 9.37107 42.6088 4.36981 56.9558 14.9786C57.4105 14.5997 57.8399 14.2966 57.8399 14.2966C57.8399 14.2966 44.7052 1.18719 30.0803 2.65221C22.7047 3.30894 13.6621 10.0025 8.35768 18.8432C3.05331 27.6838 2.3208 35.1604 2.3208 35.1604ZM43.897 4.0667L43.998 2.37436C43.7707 2.24806 43.1392 1.94496 41.5479 1.4903L41.4468 3.15738C42.2804 3.43523 43.0887 3.73834 43.897 4.0667Z" fill="#CC0000"/>
<path d="M41.4974 9.42157L41.3964 11.0129C42.2299 11.0381 43.0635 11.1392 43.897 11.316L43.9981 9.74994C43.1393 9.57312 42.3057 9.47209 41.4974 9.42157ZM32.1516 1.54079H32.4042L31.899 0C31.116 0 30.3077 0.0505178 29.4742 0.151553L29.9541 1.64183C30.6866 1.56605 31.4191 1.54079 32.1516 1.54079ZM33.3641 10.8361L33.945 12.5789C34.6775 12.2253 35.41 11.9222 36.1425 11.6949L35.5868 10.0278C34.728 10.2804 33.9955 10.5582 33.3641 10.8361ZM21.8965 4.19298L20.7599 2.45011C20.1284 2.77848 19.4717 3.1321 18.7897 3.53625L19.9516 5.30437C20.6083 4.90023 21.2398 4.52134 21.8965 4.19298ZM27.0746 15.5595L28.287 17.3781C28.7164 16.7467 29.2216 16.1657 29.7773 15.5847L28.6406 13.8671C28.0597 14.3976 27.5292 14.9785 27.0746 15.5595ZM23.412 23.6929L25.458 25.3094C25.5591 24.3243 25.7359 23.3392 25.9885 22.3541L24.1698 20.9144C23.8414 21.849 23.6141 22.7835 23.412 23.6929ZM12.3486 11.6949L10.5553 10.1288C9.89853 10.7603 9.26706 11.3918 8.6861 12.0232L10.631 13.6903C11.1615 13.0083 11.7424 12.3263 12.3486 11.6949ZM4.72045 22.9856L1.81568 21.9247C1.33576 23.0109 0.805323 24.2738 0.552734 24.9558L3.45751 26.0167C3.78587 25.1579 4.31631 23.9202 4.72045 22.9856ZM23.0332 30.1086C23.0837 31.4473 23.21 32.5335 23.3363 33.2912L26.3673 34.3774C26.14 33.3923 25.9127 32.2809 25.7611 31.0937L23.0332 30.1086Z" fill="#CC0000"/>
</svg>
