<svg width="101" height="101" viewBox="0 0 101 101" fill="none" xmlns="http://www.w3.org/2000/svg">
<path d="M50.6563 59.4105C55.5254 59.4105 59.4726 55.4634 59.4726 50.5943C59.4726 45.7252 55.5254 41.7781 50.6563 41.7781C45.7872 41.7781 41.8401 45.7252 41.8401 50.5943C41.8401 55.4634 45.7872 59.4105 50.6563 59.4105Z" fill="#61DAFB"/>
<path d="M50.6562 68.6568C76.783 68.6568 97.9628 60.5699 97.9628 50.5943C97.9628 40.6186 76.783 32.5317 50.6562 32.5317C24.5295 32.5317 3.34961 40.6186 3.34961 50.5943C3.34961 60.5699 24.5295 68.6568 50.6562 68.6568Z" stroke="#61DAFB" stroke-width="5"/>
<path d="M35.0136 59.6255C48.077 82.2519 65.6703 96.5508 74.3095 91.563C82.9487 86.5751 79.3622 64.1894 66.2988 41.563C53.2355 18.9366 35.6421 4.63767 27.0029 9.6255C18.3637 14.6133 21.9502 36.9991 35.0136 59.6255Z" stroke="#61DAFB" stroke-width="5"/>
<path d="M35.0136 41.5629C21.9503 64.1894 18.3637 86.5751 27.0029 91.5629C35.6421 96.5508 53.2355 82.2519 66.2988 59.6255C79.3622 36.9991 82.9487 14.6133 74.3095 9.62547C65.6704 4.63764 48.077 18.9365 35.0136 41.5629Z" stroke="#61DAFB" stroke-width="5"/>
</svg>
