<svg width="101" height="90" viewBox="0 0 101 90" fill="none" xmlns="http://www.w3.org/2000/svg">
<path fill-rule="evenodd" clip-rule="evenodd" d="M62.2628 55.659L60.3447 58.9898C59.7668 59.9931 58.6971 60.6115 57.5392 60.6115H42.845C41.6872 60.6115 40.6174 59.9931 40.0396 58.9898L38.1213 55.659H62.2628ZM67.6328 46.3347L64.2506 52.2074H36.1335L32.7515 46.3347H67.6328ZM64.3749 37.2167L67.6382 42.8833H32.7461L36.0094 37.2167H64.3749ZM57.5392 28.5971C58.6971 28.5971 59.7668 29.2155 60.3447 30.2189L62.3871 33.7651H37.9972L40.0396 30.2189C40.6174 29.2155 41.6872 28.5971 42.845 28.5971H57.5392Z" fill="#00435B"/>
<path d="M21.4591 27.0515C19.8314 19.1586 19.482 13.1048 20.5342 8.70886C21.16 6.09442 22.304 3.9616 24.0437 2.4228C25.8803 0.798237 28.2023 0.00106017 30.8114 0.00106017C35.1155 0.00106017 39.6403 1.96382 44.4758 5.69256C46.4481 7.21344 48.4951 9.04662 50.621 11.1931C50.7903 10.9753 50.9815 10.7698 51.1946 10.5799C57.2049 5.22393 62.265 1.89618 66.593 0.613096C69.1664 -0.149824 71.5826 -0.222508 73.7828 0.517932C76.1052 1.29951 77.9558 2.91516 79.2614 5.17816C81.4161 8.91293 81.9843 13.8204 81.181 19.88C80.8536 22.3499 80.2938 25.0403 79.5029 27.9555C79.8013 27.9915 80.1004 28.0577 80.3965 28.1558C88.0223 30.6829 93.4221 33.4004 96.6912 36.5061C98.6363 38.3539 99.9065 40.411 100.366 42.6882C100.85 45.0917 100.378 47.5025 99.0736 49.7638C96.9229 53.4932 92.9684 56.4345 87.3347 58.7642C85.0726 59.6997 82.5131 60.5469 79.6535 61.3089C79.784 61.6035 79.8852 61.9164 79.9529 62.2446C81.5806 70.1375 81.93 76.1914 80.8778 80.5873C80.252 83.2017 79.108 85.3345 77.3683 86.8733C75.5317 88.4979 73.2097 89.2951 70.6006 89.2951C66.2964 89.2951 61.7717 87.3323 56.9362 83.6036C54.9429 82.0665 52.8733 80.2105 50.723 78.0344C50.5018 78.3804 50.2302 78.7021 49.9089 78.9884C43.8986 84.3444 38.8385 87.6722 34.5105 88.9552C31.9371 89.7182 29.521 89.7908 27.3207 89.0504C24.9983 88.2688 23.1477 86.6532 21.8421 84.3902C19.6874 80.6554 19.1192 75.7479 19.9225 69.6884C20.2618 67.1292 20.8505 64.3332 21.6873 61.2958C21.3602 61.2627 21.0318 61.1935 20.707 61.0859C13.0813 58.5588 7.68145 55.8413 4.41227 52.7356C2.4672 50.8878 1.19704 48.8307 0.737882 46.5535C0.253244 44.15 0.725803 41.7392 2.02989 39.4779C4.18059 35.7485 8.1351 32.8072 13.7688 30.4775C16.0983 29.5141 18.7432 28.6444 21.7065 27.865C21.6009 27.6065 21.5175 27.3347 21.4591 27.0515Z" fill="#002B3B"/>
<path fill-rule="evenodd" clip-rule="evenodd" d="M41.0433 24.537C44.9963 24.2224 49.0706 24.0835 53.2664 24.1203C54.0611 24.1272 54.7109 23.4887 54.7178 22.6941C54.7208 22.3594 54.6069 22.0341 54.3959 21.7743C44.846 10.0159 36.9824 4.13669 30.8051 4.13669C24.4276 4.13669 22.6082 11.1666 25.3469 25.2263C25.497 25.9969 26.2372 26.505 27.0103 26.368C31.8861 25.5039 36.5638 24.8936 41.0433 24.537Z" fill="#FF4154"/>
<path fill-rule="evenodd" clip-rule="evenodd" d="M63.2335 26.4724C65.5163 29.7619 67.7073 33.2455 69.8064 36.9232C70.2003 37.6134 71.0792 37.8535 71.7693 37.4596C72.0587 37.2944 72.2818 37.0339 72.4005 36.7225C77.8026 22.5532 78.9379 12.7814 75.8065 7.40721C72.5751 1.86142 65.5342 3.77901 54.6839 13.16C54.0873 13.6758 54.0171 14.5756 54.5264 15.1777C57.7502 18.9885 60.6526 22.7534 63.2335 26.4724Z" fill="#FF4154"/>
<path fill-rule="evenodd" clip-rule="evenodd" d="M72.8149 46.2676C71.1063 49.8584 69.1859 53.4673 67.0537 57.0944C66.6509 57.7794 66.8798 58.6612 67.5649 59.0639C67.8549 59.2345 68.1955 59.2979 68.5275 59.2433C83.4147 56.7956 92.4044 52.8888 95.4967 47.523C98.6904 41.9812 93.5545 36.9019 80.089 32.285C79.3472 32.0306 78.5383 32.4171 78.2702 33.1541C76.571 37.824 74.7526 42.1952 72.8149 46.2676Z" fill="#FF4154"/>
<path fill-rule="evenodd" clip-rule="evenodd" d="M60.5997 64.8514C56.6468 65.1661 52.5724 65.305 48.3766 65.2682C47.582 65.2613 46.9322 65.8998 46.9252 66.6944C46.9223 67.0291 47.0361 67.3543 47.2471 67.6141C56.7971 79.3726 64.6607 85.2518 70.838 85.2518C77.2154 85.2518 79.0348 78.2219 76.2961 64.1622C76.146 63.3916 75.4058 62.8835 74.6327 63.0205C69.757 63.8846 65.0793 64.4949 60.5997 64.8514Z" fill="#FF4154"/>
<path fill-rule="evenodd" clip-rule="evenodd" d="M37.8699 63.0959C35.587 59.8064 33.396 56.3228 31.2969 52.6451C30.903 51.955 30.0242 51.7148 29.334 52.1088C29.0446 52.2739 28.8215 52.5344 28.7028 52.8458C23.3008 67.0152 22.1655 76.7869 25.2969 82.1611C28.5283 87.7069 35.5692 85.7893 46.4195 76.4084C47.0161 75.8926 47.0863 74.9927 46.5769 74.3906C43.3531 70.5798 40.4508 66.8149 37.8699 63.0959Z" fill="#FF4154"/>
<path fill-rule="evenodd" clip-rule="evenodd" d="M28.2887 42.7612C29.9972 39.1704 31.9176 35.5614 34.0499 31.9344C34.4526 31.2494 34.2237 30.3676 33.5387 29.9648C33.2487 29.7943 32.908 29.7309 32.576 29.7854C17.6889 32.2332 8.69917 36.1399 5.60687 41.5058C2.41316 47.0475 7.54906 52.1269 21.0146 56.7438C21.7564 56.9981 22.5652 56.6116 22.8334 55.8747C24.5325 51.2048 26.351 46.8336 28.2887 42.7612Z" fill="#FF4154"/>
<path fill-rule="evenodd" clip-rule="evenodd" d="M44.0262 28.777H56.3606C58.1644 28.777 59.8305 29.7418 60.7283 31.3063L66.9216 42.0976C67.8125 43.65 67.8125 45.5586 66.9216 47.111L60.7283 57.9024C59.8305 59.4669 58.1644 60.4317 56.3606 60.4317H44.0262C42.2224 60.4317 40.5563 59.4669 39.6584 57.9024L33.4652 47.111C32.5743 45.5586 32.5743 43.65 33.4652 42.0976L39.6584 31.3063C40.5563 29.7418 42.2224 28.777 44.0262 28.777ZM54.4807 32.0341C56.2855 32.0341 57.9523 32.9998 58.8498 34.5656L63.1685 42.0999C64.0576 43.6511 64.0576 45.5575 63.1685 47.1087L58.8498 54.643C57.9523 56.2088 56.2855 57.1746 54.4807 57.1746H45.9061C44.1013 57.1746 42.4345 56.2088 41.537 54.643L37.2183 47.1087C36.3292 45.5575 36.3292 43.6511 37.2183 42.0999L41.537 34.5656C42.4345 32.9998 44.1013 32.0341 45.9061 32.0341H54.4807ZM52.4545 35.5965H47.9323C46.1294 35.5965 44.464 36.5603 43.5658 38.1236L41.2836 42.0954C40.3911 43.6489 40.3911 45.5597 41.2836 47.1132L43.5658 51.0851C44.464 52.6483 46.1294 53.6122 47.9323 53.6122H52.4545C54.2574 53.6122 55.9228 52.6483 56.821 51.0851L59.1031 47.1132C59.9957 45.5597 59.9957 43.6489 59.1031 42.0954L56.821 38.1236C55.9228 36.5603 54.2574 35.5965 52.4545 35.5965ZM50.5035 39.0062C52.3051 39.0062 53.9694 39.9686 54.8681 41.53L55.1917 42.0922C56.0868 43.6473 56.0868 45.5613 55.1917 47.1165L54.8681 47.6786C53.9694 49.24 52.3051 50.2024 50.5035 50.2024H49.8833C48.0817 50.2024 46.4174 49.24 45.5187 47.6786L45.1951 47.1165C44.3 45.5613 44.3 43.6473 45.1951 42.0922L45.5187 41.53C46.4174 39.9686 48.0817 39.0062 49.8833 39.0062H50.5035ZM50.1942 42.3651C49.3924 42.3651 48.6529 42.7918 48.2525 43.4847C47.8522 44.1774 47.8522 45.0312 48.2525 45.7239C48.6529 46.4168 49.3924 46.8436 50.1926 46.8436C50.9944 46.8436 51.7339 46.4168 52.1343 45.7239C52.5345 45.0312 52.5345 44.1774 52.1343 43.4847C51.7339 42.7918 50.9944 42.3651 50.1942 42.3651ZM32.0266 44.6043H36.0582H32.0266Z" fill="#FFD94C"/>
</svg>
