<svg width="101" height="101" viewBox="0 0 101 101" fill="none" xmlns="http://www.w3.org/2000/svg">
<path d="M78.1677 66.4444L21.0742 100.347L95 95.3297L100.693 20.7872L78.1674 66.444L78.1677 66.4444Z" fill="url(#paint0_linear_4_5566)"/>
<path d="M95.1208 95.2787L88.7668 51.424L71.4595 74.2778L95.1208 95.2791V95.2787Z" fill="url(#paint1_linear_4_5566)"/>
<path d="M95.207 95.2788L48.6573 91.6249L21.3213 100.251L95.207 95.2788Z" fill="url(#paint2_linear_4_5566)"/>
<path d="M21.3869 100.261L33.0159 62.1643L7.42578 67.6355L21.3865 100.26L21.3869 100.261Z" fill="url(#paint3_linear_4_5566)"/>
<path d="M71.4552 74.4034L60.7549 32.4919L30.1338 61.1956L71.4552 74.4042V74.4034Z" fill="url(#paint4_linear_4_5566)"/>
<path d="M98.2658 33.082L69.32 9.4411L61.2598 35.4996L98.2658 33.082Z" fill="url(#paint5_linear_4_5566)"/>
<path d="M84.7292 1.01199L67.7051 10.4203L56.9644 0.886047L84.7292 1.01238V1.01199Z" fill="url(#paint6_linear_4_5566)"/>
<path d="M0.693359 80.4149L7.82495 67.4083L2.05596 51.9132L0.693359 80.4149Z" fill="url(#paint7_linear_4_5566)"/>
<path d="M1.67285 51.424L7.47715 67.8878L32.698 62.2295L61.492 35.469L69.6182 9.65804L56.8231 0.623596L35.0697 8.76468C28.2159 15.1394 14.9167 27.7524 14.4373 27.9894C13.9626 28.2319 5.65512 43.9338 1.67285 51.424Z" fill="white"/>
<path d="M22.053 21.8469C36.9071 7.11917 56.0561 -1.58218 63.4046 5.83229C70.7493 13.2468 62.9605 31.265 48.1065 45.9881C33.2524 60.7107 14.3408 69.8914 6.99693 62.477C-0.351626 55.0676 7.19899 36.5699 22.053 21.8469Z" fill="url(#paint8_linear_4_5566)"/>
<path d="M21.3872 100.245L32.9252 62.0278L71.2432 74.3379C57.3889 87.3295 41.9796 98.3123 21.3872 100.245Z" fill="url(#paint9_linear_4_5566)"/>
<path d="M61.5425 35.3937L71.3797 74.3583C82.9529 62.1894 93.3398 49.1072 98.4269 32.9258L61.5429 35.3937H61.5425Z" fill="url(#paint10_linear_4_5566)"/>
<path d="M98.3263 33.1224C102.263 21.2415 103.172 4.19704 84.6077 1.03241L69.375 9.44617L98.3263 33.1224Z" fill="url(#paint11_linear_4_5566)"/>
<path d="M0.693359 80.2434C1.23871 99.8522 15.3858 100.145 21.4121 100.316L7.49185 67.8069L0.693359 80.2434Z" fill="#9E1209"/>
<path d="M61.5972 35.4545C70.4904 40.9206 88.4137 51.8983 88.777 52.1C89.342 52.4178 96.5042 40.0221 98.1297 33.0165L61.5972 35.4545Z" fill="url(#paint12_radial_4_5566)"/>
<path d="M32.9097 62.0278L48.3338 91.7861C57.4542 86.8398 64.5963 80.8135 71.1371 74.3583L32.9097 62.0278Z" fill="url(#paint13_radial_4_5566)"/>
<path d="M7.43144 67.8474L5.24609 93.8706C9.3696 99.5034 15.0429 99.9931 20.9931 99.5541C16.6879 88.8388 8.08743 67.4134 7.43144 67.8474Z" fill="url(#paint14_linear_4_5566)"/>
<path d="M69.2847 9.51168L99.9265 13.8117C98.2909 6.88221 93.2689 2.4103 84.7088 1.01239L69.2847 9.51168Z" fill="url(#paint15_linear_4_5566)"/>
<defs>
<linearGradient id="paint0_linear_4_5566" x1="88.5514" y1="109.416" x2="67.4794" y2="72.1563" gradientUnits="userSpaceOnUse">
<stop stop-color="#FB7655"/>
<stop offset="0.41" stop-color="#E42B1E"/>
<stop offset="0.99" stop-color="#990000"/>
<stop offset="1" stop-color="#990000"/>
</linearGradient>
<linearGradient id="paint1_linear_4_5566" x1="99.0607" y1="78.1273" x2="69.439" y2="72.341" gradientUnits="userSpaceOnUse">
<stop stop-color="#871101"/>
<stop offset="0.99" stop-color="#911209"/>
<stop offset="1" stop-color="#911209"/>
</linearGradient>
<linearGradient id="paint2_linear_4_5566" x1="77.3075" y1="110.544" x2="76.9258" y2="91.7557" gradientUnits="userSpaceOnUse">
<stop stop-color="#871101"/>
<stop offset="0.99" stop-color="#911209"/>
<stop offset="1" stop-color="#911209"/>
</linearGradient>
<linearGradient id="paint3_linear_4_5566" x1="20.2239" y1="64.9202" x2="29.0312" y2="90.7457" gradientUnits="userSpaceOnUse">
<stop stop-color="white"/>
<stop offset="0.23" stop-color="#E57252"/>
<stop offset="0.46" stop-color="#DE3B20"/>
<stop offset="0.99" stop-color="#A60003"/>
<stop offset="1" stop-color="#A60003"/>
</linearGradient>
<linearGradient id="paint4_linear_4_5566" x1="49.2135" y1="39.3438" x2="50.811" y2="67.2963" gradientUnits="userSpaceOnUse">
<stop stop-color="white"/>
<stop offset="0.23" stop-color="#E4714E"/>
<stop offset="0.56" stop-color="#BE1A0D"/>
<stop offset="0.99" stop-color="#A80D00"/>
<stop offset="1" stop-color="#A80D00"/>
</linearGradient>
<linearGradient id="paint5_linear_4_5566" x1="74.939" y1="13.5047" x2="77.2749" y2="33.8057" gradientUnits="userSpaceOnUse">
<stop stop-color="white"/>
<stop offset="0.18" stop-color="#E46342"/>
<stop offset="0.4" stop-color="#C82410"/>
<stop offset="0.99" stop-color="#A80D00"/>
<stop offset="1" stop-color="#A80D00"/>
</linearGradient>
<linearGradient id="paint6_linear_4_5566" x1="60.7429" y1="6.44892" x2="64.0363" y2="-7.51604" gradientUnits="userSpaceOnUse">
<stop stop-color="white"/>
<stop offset="0.54" stop-color="#C81F11"/>
<stop offset="0.99" stop-color="#BF0905"/>
<stop offset="1" stop-color="#BF0905"/>
</linearGradient>
<linearGradient id="paint7_linear_4_5566" x1="2.66339" y1="57.937" x2="11.2761" y2="63.3357" gradientUnits="userSpaceOnUse">
<stop stop-color="white"/>
<stop offset="0.31" stop-color="#DE4024"/>
<stop offset="0.99" stop-color="#BF190B"/>
<stop offset="1" stop-color="#BF190B"/>
</linearGradient>
<linearGradient id="paint8_linear_4_5566" x1="-8.67234" y1="78.9081" x2="68.7248" y2="-0.904707" gradientUnits="userSpaceOnUse">
<stop stop-color="#BD0012"/>
<stop offset="0.07" stop-color="white"/>
<stop offset="0.17" stop-color="white"/>
<stop offset="0.27" stop-color="#C82F1C"/>
<stop offset="0.33" stop-color="#820C01"/>
<stop offset="0.46" stop-color="#A31601"/>
<stop offset="0.72" stop-color="#B31301"/>
<stop offset="0.99" stop-color="#E82609"/>
<stop offset="1" stop-color="#E82609"/>
</linearGradient>
<linearGradient id="paint9_linear_4_5566" x1="50.6985" y1="86.9475" x2="28.7957" y2="77.7481" gradientUnits="userSpaceOnUse">
<stop stop-color="#8C0C01"/>
<stop offset="0.54" stop-color="#990C00"/>
<stop offset="0.99" stop-color="#A80D0E"/>
<stop offset="1" stop-color="#A80D0E"/>
</linearGradient>
<linearGradient id="paint10_linear_4_5566" x1="90.7988" y1="58.9264" x2="68.2374" y2="42.9009" gradientUnits="userSpaceOnUse">
<stop stop-color="#7E110B"/>
<stop offset="0.99" stop-color="#9E0C00"/>
<stop offset="1" stop-color="#9E0C00"/>
</linearGradient>
<linearGradient id="paint11_linear_4_5566" x1="98.419" y1="24.8182" x2="87.8092" y2="14.0477" gradientUnits="userSpaceOnUse">
<stop stop-color="#79130D"/>
<stop offset="0.99" stop-color="#9E120B"/>
<stop offset="1" stop-color="#9E120B"/>
</linearGradient>
<radialGradient id="paint12_radial_4_5566" cx="0" cy="0" r="1" gradientUnits="userSpaceOnUse" gradientTransform="translate(73.2879 40.6924) scale(25.4167 13.2811)">
<stop stop-color="#A80D00"/>
<stop offset="0.99" stop-color="#7E0E08"/>
<stop offset="1" stop-color="#7E0E08"/>
</radialGradient>
<radialGradient id="paint13_radial_4_5566" cx="0" cy="0" r="1" gradientUnits="userSpaceOnUse" gradientTransform="translate(38.0891 74.187) scale(33.7877 26.3022)">
<stop stop-color="#A30C00"/>
<stop offset="0.99" stop-color="#800E08"/>
<stop offset="1" stop-color="#800E08"/>
</radialGradient>
<linearGradient id="paint14_linear_4_5566" x1="14.1542" y1="100.223" x2="-4.86847" y2="84.433" gradientUnits="userSpaceOnUse">
<stop stop-color="#8B2114"/>
<stop offset="0.43" stop-color="#9E100A"/>
<stop offset="0.99" stop-color="#B3100C"/>
<stop offset="1" stop-color="#B3100C"/>
</linearGradient>
<linearGradient id="paint15_linear_4_5566" x1="78.7438" y1="5.56883" x2="84.143" y2="19.2277" gradientUnits="userSpaceOnUse">
<stop stop-color="#B31000"/>
<stop offset="0.44" stop-color="#910F08"/>
<stop offset="0.99" stop-color="#791C12"/>
<stop offset="1" stop-color="#791C12"/>
</linearGradient>
</defs>
</svg>
