<svg width="101" height="101" viewBox="0 0 101 101" fill="none" xmlns="http://www.w3.org/2000/svg">
<path d="M99.4208 49.6647L95.2227 47.0659C95.1873 46.6579 95.1474 46.2503 95.1032 45.8432L98.711 42.478C98.8914 42.3104 99.0259 42.0993 99.1014 41.865C99.177 41.6306 99.1912 41.3808 99.1427 41.1393C99.0953 40.8977 98.9867 40.6724 98.8274 40.4847C98.668 40.297 98.4632 40.1534 98.2325 40.0675L93.6204 38.3428C93.5046 37.9446 93.3841 37.5477 93.2591 37.1522L96.136 33.1565C96.2801 32.9568 96.3708 32.7235 96.3993 32.4789C96.4279 32.2342 96.3934 31.9863 96.2992 31.7588C96.205 31.5312 96.0542 31.3315 95.8611 31.1786C95.6679 31.0258 95.4389 30.9248 95.1958 30.8854L90.3325 30.0944C90.1434 29.7257 89.9466 29.3624 89.7481 29.0022L91.7915 24.5167C91.8944 24.2928 91.938 24.0464 91.9184 23.8008C91.8987 23.5553 91.8162 23.3189 91.679 23.1143C91.5428 22.9091 91.3562 22.7423 91.1371 22.63C90.9179 22.5177 90.6735 22.4636 90.4274 22.4729L85.4915 22.6448C85.2366 22.3255 84.9766 22.0102 84.7118 21.6991L85.8462 16.8913C85.9029 16.6515 85.8973 16.4012 85.8299 16.1642C85.7625 15.9272 85.6355 15.7114 85.461 15.5374C85.287 15.3632 85.0713 15.2363 84.8345 15.1689C84.5977 15.1015 84.3476 15.0958 84.1079 15.1522L79.3013 16.2854C78.9892 16.0209 78.6733 15.7609 78.3536 15.5057L78.5263 10.5702C78.5355 10.3241 78.4815 10.0798 78.3693 9.86061C78.2571 9.64142 78.0906 9.45467 77.8856 9.31822C77.681 9.18121 77.4447 9.09887 77.1992 9.07904C76.9537 9.05921 76.7073 9.10255 76.4833 9.20494L71.9989 11.2495C71.6372 11.0498 71.2731 10.8545 70.9067 10.6635L70.1138 5.79947C70.0741 5.55659 69.973 5.32787 69.8202 5.13497C69.6673 4.94208 69.4678 4.79142 69.2404 4.69725C69.013 4.60308 68.7654 4.56854 68.5209 4.59688C68.2764 4.62523 68.0432 4.71554 67.8434 4.85924L63.845 7.73619C63.4517 7.61119 63.0559 7.49049 62.6567 7.37604L60.9321 2.76314C60.8463 2.53205 60.7027 2.32682 60.515 2.16706C60.3273 2.00731 60.1017 1.89836 59.8599 1.85064C59.6186 1.80316 59.3692 1.81791 59.1352 1.8935C58.9012 1.96908 58.6903 2.10302 58.5224 2.28267L55.1571 5.89322C54.7502 5.84761 54.3426 5.80777 53.9345 5.77369L51.3356 1.57447C51.2061 1.36522 51.0253 1.19253 50.8104 1.07276C50.5954 0.953 50.3534 0.890137 50.1073 0.890137C49.8612 0.890137 49.6192 0.953 49.4043 1.07276C49.1893 1.19253 49.0085 1.36522 48.879 1.57447L46.2802 5.77369C45.8717 5.80772 45.4637 5.84756 45.0563 5.89322L41.6903 2.28267C41.5226 2.10235 41.3115 1.96796 41.0771 1.89228C40.8427 1.8166 40.5929 1.80215 40.3513 1.8503C40.1098 1.89846 39.8846 2.00763 39.6972 2.16741C39.5098 2.32719 39.3663 2.53227 39.2806 2.76314L37.5563 7.37604C37.1567 7.49049 36.7614 7.61197 36.3669 7.73619L32.3692 4.85924C32.1695 4.71488 31.9361 4.62416 31.6914 4.59578C31.4466 4.5674 31.1986 4.60229 30.9712 4.69713C30.744 4.79151 30.5445 4.94226 30.3918 5.13514C30.239 5.32802 30.138 5.55667 30.0981 5.79947L29.3052 10.6635C28.938 10.8538 28.5751 11.0495 28.213 11.2495L23.7282 9.20455C23.5044 9.1021 23.258 9.05876 23.0126 9.07866C22.7672 9.09856 22.5311 9.18104 22.3267 9.31822C22.1215 9.45457 21.9549 9.64128 21.8426 9.86049C21.7303 10.0797 21.6761 10.3241 21.6853 10.5702L21.8571 15.5057C21.5378 15.7614 21.2219 16.0213 20.9095 16.2854L16.1028 15.1526C15.8631 15.0964 15.6129 15.1023 15.376 15.1696C15.1391 15.2369 14.9233 15.3635 14.7489 15.5374C14.5745 15.7114 14.4475 15.9272 14.3801 16.1642C14.3126 16.4012 14.307 16.6515 14.3638 16.8913L15.4962 21.6991C15.2333 22.0104 14.9735 22.3257 14.7185 22.6448L9.78252 22.4729C9.53671 22.4652 9.29295 22.5199 9.07406 22.632C8.85517 22.7441 8.66831 22.9099 8.53096 23.1139C8.39398 23.3186 8.31164 23.5549 8.29174 23.8003C8.27184 24.0458 8.31506 24.2922 8.41728 24.5163L10.4618 29.0022C10.263 29.3624 10.0665 29.7257 9.87588 30.0944L5.01299 30.8854C4.76998 30.925 4.54112 31.0261 4.34812 31.179C4.15512 31.3319 4.00438 31.5315 3.91019 31.759C3.81601 31.9865 3.78151 32.2343 3.80996 32.4789C3.83841 32.7235 3.92887 32.9567 4.07275 33.1565L6.94971 37.1526C6.82471 37.5471 6.70322 37.9432 6.58838 38.3428L1.97588 40.0675C1.74553 40.154 1.54107 40.2979 1.38185 40.4855C1.22264 40.6731 1.11393 40.8982 1.06602 41.1396C1.0181 41.381 1.03257 41.6306 1.10806 41.8648C1.18354 42.099 1.31753 42.31 1.49736 42.478L5.10557 45.8428C5.06064 46.2491 5.0208 46.6581 4.98643 47.0659L0.787598 49.6647C0.578384 49.7942 0.405757 49.9751 0.286113 50.1901C0.16647 50.4051 0.103782 50.6472 0.104004 50.8932C0.104004 51.3948 0.362989 51.8593 0.787989 52.121L4.98643 54.7198C5.0208 55.1288 5.06064 55.537 5.10557 55.9429L1.49697 59.3089C1.31682 59.4766 1.18254 59.6876 1.10688 59.9219C1.03122 60.1561 1.01669 60.4058 1.06467 60.6473C1.11266 60.8887 1.22156 61.1139 1.38103 61.3014C1.54051 61.4889 1.74528 61.6325 1.97588 61.7186L6.58838 63.4432C6.70322 63.8425 6.82471 64.239 6.94971 64.6335L4.07275 68.63C3.9286 68.8297 3.83794 69.063 3.80943 69.3077C3.78091 69.5524 3.81547 69.8003 3.90983 70.0279C4.00419 70.2554 4.1552 70.455 4.34849 70.6077C4.54179 70.7604 4.77095 70.8612 5.01416 70.9003L9.87627 71.6913C10.0665 72.06 10.2614 72.4233 10.4622 72.785L8.41728 77.2694C8.31488 77.4934 8.27156 77.7399 8.29146 77.9854C8.31135 78.2309 8.39381 78.4672 8.53096 78.6718C8.66732 78.8767 8.85399 79.0433 9.07311 79.1556C9.29224 79.2678 9.53649 79.3219 9.78252 79.3128L14.7161 79.1401C14.9735 79.4608 15.2325 79.7753 15.4962 80.0878L14.3638 84.8964C14.3071 85.1357 14.3127 85.3856 14.3801 85.6222C14.4476 85.8588 14.5745 86.0741 14.7489 86.2476C14.9228 86.4221 15.1386 86.5491 15.3757 86.6164C15.6128 86.6836 15.8632 86.6888 16.1028 86.6315L20.9095 85.4995C21.222 85.7651 21.5384 86.0229 21.8575 86.2768L21.6856 91.214C21.6768 91.46 21.731 91.7041 21.8431 91.9233C21.9553 92.1424 22.1216 92.3292 22.3263 92.466C22.531 92.6027 22.7673 92.6847 23.0127 92.7043C23.2581 92.724 23.5044 92.6805 23.7282 92.578L28.213 90.5347C28.5741 90.7353 28.9382 90.9305 29.3052 91.1202L30.0981 95.9815C30.1373 96.2247 30.2381 96.4538 30.3909 96.647C30.5438 96.8402 30.7435 96.991 30.9712 97.0851C31.1987 97.1793 31.4465 97.2139 31.6911 97.1857C31.9358 97.1575 32.1692 97.0673 32.3692 96.9237L36.3649 94.0448C36.7595 94.1698 37.156 94.2921 37.5552 94.4069L39.2798 99.0179C39.3656 99.2486 39.5093 99.4535 39.6969 99.613C39.8846 99.7724 40.11 99.881 40.3517 99.9284C40.593 99.9771 40.8428 99.9629 41.0771 99.8873C41.3114 99.8116 41.5223 99.677 41.6895 99.4964L45.0556 95.8878C45.4618 95.9347 45.8704 95.9737 46.2794 96.0101L48.8782 100.208C49.0079 100.417 49.1886 100.59 49.4035 100.709C49.6183 100.829 49.8601 100.892 50.1059 100.892C50.352 100.892 50.5939 100.829 50.8088 100.71C51.0238 100.59 51.2047 100.418 51.3345 100.208L53.9333 96.0101C54.3423 95.9737 54.7505 95.9347 55.1563 95.8878L58.5216 99.4964C58.6889 99.6769 58.8997 99.8114 59.1339 99.887C59.3681 99.9627 59.6178 99.9769 59.8591 99.9284C60.1006 99.8808 60.326 99.7721 60.5136 99.6127C60.7012 99.4534 60.8449 99.2486 60.9309 99.0179L62.6556 94.4069C63.0548 94.2921 63.4516 94.1698 63.8462 94.0448L67.8427 96.9237C68.0426 97.0675 68.2759 97.1577 68.5205 97.186C68.7651 97.2142 69.0129 97.1795 69.2403 97.0851C69.4677 96.9907 69.6673 96.8398 69.82 96.6467C69.9727 96.4535 70.0736 96.2246 70.113 95.9815L70.9059 91.1202C71.2727 90.93 71.6356 90.7323 71.9977 90.5343L76.4825 92.578C76.7063 92.6808 76.9528 92.7245 77.1983 92.7051C77.4438 92.6856 77.6803 92.6036 77.8851 92.4668C78.0899 92.33 78.2563 92.1431 78.3684 91.9238C78.4805 91.7045 78.5346 91.4601 78.5255 91.214L78.3536 86.2772C78.6732 86.023 78.9887 85.7637 79.3001 85.4995L84.1071 86.6315C84.5954 86.7464 85.1071 86.6042 85.4599 86.2476C85.6342 86.0741 85.7612 85.8588 85.8286 85.6222C85.8961 85.3856 85.9017 85.1357 85.845 84.8964L84.713 80.0878C84.9766 79.7753 85.2364 79.4608 85.4903 79.1401L90.4263 79.3128C90.6723 79.3221 90.9165 79.268 91.1357 79.1559C91.3548 79.0437 91.5415 78.8772 91.6778 78.6722C91.8152 78.4675 91.8977 78.231 91.9175 77.9853C91.9372 77.7397 91.8936 77.493 91.7907 77.269L89.747 72.7854C89.9466 72.4233 90.1427 72.0601 90.3317 71.6917L95.195 70.9003C95.4381 70.8612 95.6672 70.7604 95.8602 70.6075C96.0532 70.4546 96.2038 70.2546 96.2973 70.0268C96.3916 69.7995 96.4262 69.5518 96.3979 69.3073C96.3695 69.0629 96.2791 68.8297 96.1352 68.63L93.2583 64.6339C93.3825 64.2389 93.504 63.8425 93.6196 63.4432L98.2313 61.7186C98.4622 61.6328 98.6671 61.4891 98.8266 61.3013C98.986 61.1136 99.0946 60.8881 99.1419 60.6464C99.1905 60.4051 99.1763 60.1554 99.1006 59.9212C99.025 59.687 98.8904 59.4761 98.7098 59.3089L95.1024 55.9429C95.1462 55.5366 95.1864 55.128 95.2216 54.7202L99.42 52.121C99.6293 51.9917 99.802 51.811 99.9218 51.5961C100.041 51.3812 100.104 51.1392 100.104 50.8932C100.104 50.3929 99.8462 49.9276 99.4208 49.6647ZM71.3223 84.4913C69.7192 84.1456 68.6997 82.5655 69.0438 80.9573C69.3868 79.3511 70.9657 78.3288 72.5684 78.6745C74.1716 79.0179 75.1927 80.6007 74.8489 82.2058C74.5052 83.8112 72.9247 84.8347 71.3223 84.4913ZM69.8958 74.8433C69.5479 74.7686 69.1888 74.7634 68.8389 74.8277C68.4889 74.892 68.1551 75.0247 67.8566 75.2182C67.558 75.4116 67.3004 75.662 67.0987 75.9551C66.897 76.2481 66.755 76.5781 66.6809 76.9261L65.1903 83.8819C60.5907 85.9694 55.4833 87.1292 50.104 87.1292C44.6017 87.1292 39.3829 85.912 34.7017 83.7354L33.2118 76.78C32.8985 75.3163 31.4595 74.3839 29.9977 74.6979L23.8571 76.0167C22.7159 74.8421 21.6552 73.5918 20.6821 72.2745H50.561C50.8989 72.2745 51.1243 72.2132 51.1243 71.9054V61.3362C51.1243 61.0288 50.8989 60.9675 50.5606 60.9675H41.8228V54.2682H51.2739C52.1364 54.2682 55.8868 54.5143 57.0856 59.3081C57.4614 60.7823 58.2856 65.5776 58.8497 67.1128C59.4114 68.8347 61.6985 72.2741 64.136 72.2741H79.0247C79.1938 72.2741 79.3743 72.255 79.5645 72.2206C78.5315 73.6235 77.3999 74.9511 76.1782 76.1933L69.8962 74.8433H69.8958ZM28.5716 84.346C26.9681 84.6921 25.3895 83.6698 25.0446 82.0636C24.7017 80.4546 25.7212 78.8753 27.3243 78.5296C28.9278 78.1866 30.5071 79.2089 30.8509 80.8147C31.1938 82.4202 30.1735 84.0022 28.5712 84.346H28.5716ZM17.2368 38.385C17.902 39.8858 17.2251 41.6448 15.7263 42.3089C14.2274 42.9749 12.4731 42.2971 11.8083 40.7952C11.1431 39.2932 11.8196 37.5374 13.3188 36.8714C13.6754 36.7132 14.0597 36.6269 14.4497 36.6174C14.8396 36.6078 15.2276 36.6753 15.5915 36.8158C15.9554 36.9564 16.288 37.1673 16.5703 37.4365C16.8526 37.7056 17.0791 38.0279 17.2368 38.3846V38.385ZM13.7532 46.6428L20.1501 43.8003C20.8068 43.5081 21.3206 42.9673 21.5788 42.2965C21.8369 41.6257 21.8181 40.8799 21.5267 40.2229L20.2095 37.244H25.3907V60.5987H14.9372C14.0106 57.3367 13.5418 53.9617 13.5442 50.5706C13.5442 49.2432 13.6157 47.9315 13.7532 46.6425V46.6428ZM41.8243 44.3745V37.4905H54.1626C54.8001 37.4905 58.6626 38.2272 58.6626 41.1155C58.6626 43.5135 55.7001 44.3733 53.2638 44.3733H41.8243V44.3745ZM86.6649 50.5706C86.6649 51.4839 86.6313 52.3878 86.5645 53.2846H82.8134C82.438 53.2846 82.2868 53.5315 82.2868 53.8991V55.6218C82.2868 59.6764 80.0005 60.5585 77.997 60.7831C76.0891 60.9979 73.9735 59.9843 73.713 58.8167C72.5872 52.4862 70.7118 51.1343 67.7501 48.7979C71.4259 46.4639 75.2501 43.0206 75.2501 38.4112C75.2501 33.4346 71.8384 30.2999 69.5126 28.7628C66.2501 26.612 62.6376 26.1807 61.663 26.1807H22.8692C28.1298 20.3096 35.2595 16.1506 43.3231 14.6374L47.8958 19.4342C48.1411 19.6917 48.4348 19.8983 48.7601 20.0421C49.0854 20.1859 49.4358 20.2642 49.7913 20.2724C50.1469 20.2806 50.5006 20.2186 50.8321 20.0899C51.1637 19.9612 51.4666 19.7684 51.7235 19.5225L56.8399 14.6288C67.5606 16.6249 76.6376 23.2983 81.8684 32.4542L78.3657 40.3655C77.761 41.7346 78.3782 43.3358 79.7434 43.9425L86.4872 46.9378C86.6036 48.135 86.6649 49.3444 86.6649 50.5706ZM47.8977 10.5565C49.0825 9.42174 50.9618 9.46666 52.0962 10.653C53.2282 11.8428 53.1852 13.7241 51.9977 14.8581C50.813 15.9932 48.9337 15.9491 47.7993 14.7604C47.2558 14.1895 46.9609 13.4262 46.9793 12.6381C46.9978 11.85 47.3281 11.1014 47.8977 10.5565ZM82.6567 38.5292C82.8143 38.1724 83.0407 37.8502 83.323 37.5811C83.6053 37.3119 83.9378 37.1011 84.3017 36.9606C84.6655 36.8201 85.0535 36.7527 85.4434 36.7624C85.8333 36.772 86.2175 36.8584 86.5739 37.0167C88.0731 37.6815 88.7497 39.4397 88.0845 40.9405C87.9269 41.2974 87.7005 41.6198 87.4183 41.8891C87.136 42.1584 86.8034 42.3694 86.4394 42.51C86.0755 42.6506 85.6874 42.7181 85.2974 42.7085C84.9074 42.6989 84.5231 42.6125 84.1665 42.4542C82.6692 41.7889 81.9927 40.0323 82.6567 38.5292Z" fill="white"/>
</svg>
