<svg width="101" height="101" viewBox="0 0 101 101" fill="none" xmlns="http://www.w3.org/2000/svg">
<path d="M100.145 49.6647L95.9469 47.0659C95.9114 46.6579 95.8716 46.2503 95.8273 45.8432L99.4351 42.478C99.6156 42.3104 99.75 42.0993 99.8255 41.865C99.9011 41.6306 99.9153 41.3808 99.8668 41.1393C99.8194 40.8977 99.7108 40.6724 99.5515 40.4847C99.3921 40.297 99.1873 40.1534 98.9566 40.0675L94.3445 38.3428C94.2287 37.9446 94.1082 37.5477 93.9832 37.1522L96.8601 33.1565C97.0042 32.9568 97.0949 32.7235 97.1235 32.4789C97.152 32.2342 97.1176 31.9863 97.0233 31.7588C96.9291 31.5312 96.7783 31.3315 96.5852 31.1786C96.392 31.0258 96.163 30.9248 95.9199 30.8854L91.0566 30.0944C90.8676 29.7257 90.6707 29.3624 90.4723 29.0022L92.5156 24.5167C92.6185 24.2928 92.6622 24.0464 92.6425 23.8008C92.6228 23.5553 92.5404 23.3189 92.4031 23.1143C92.267 22.9091 92.0803 22.7423 91.8612 22.63C91.642 22.5177 91.3976 22.4636 91.1516 22.4729L86.2156 22.6448C85.9607 22.3255 85.7008 22.0102 85.4359 21.6991L86.5703 16.8913C86.627 16.6515 86.6214 16.4012 86.554 16.1642C86.4866 15.9272 86.3596 15.7114 86.1851 15.5374C86.0111 15.3632 85.7955 15.2363 85.5586 15.1689C85.3218 15.1015 85.0717 15.0958 84.832 15.1522L80.0254 16.2854C79.7134 16.0209 79.3974 15.7609 79.0777 15.5057L79.2504 10.5702C79.2596 10.3241 79.2056 10.0798 79.0934 9.86061C78.9813 9.64142 78.8147 9.45467 78.6098 9.31822C78.4051 9.18121 78.1688 9.09887 77.9233 9.07904C77.6779 9.05921 77.4314 9.10255 77.2074 9.20494L72.723 11.2495C72.3613 11.0498 71.9972 10.8545 71.6309 10.6635L70.8379 5.79947C70.7982 5.55659 70.6971 5.32787 70.5443 5.13497C70.3914 4.94208 70.1919 4.79142 69.9645 4.69725C69.7371 4.60308 69.4895 4.56854 69.245 4.59688C69.0005 4.62523 68.7674 4.71554 68.5676 4.85924L64.5691 7.73619C64.1758 7.61119 63.7801 7.49049 63.3808 7.37604L61.6562 2.76314C61.5705 2.53205 61.4268 2.32682 61.2391 2.16706C61.0514 2.00731 60.8258 1.89836 60.584 1.85064C60.3427 1.80316 60.0933 1.81791 59.8593 1.8935C59.6253 1.96908 59.4144 2.10302 59.2465 2.28267L55.8812 5.89322C55.4743 5.84761 55.0667 5.80777 54.6586 5.77369L52.0598 1.57447C51.9303 1.36522 51.7494 1.19253 51.5345 1.07276C51.3195 0.953 51.0775 0.890137 50.8314 0.890137C50.5854 0.890137 50.3434 0.953 50.1284 1.07276C49.9134 1.19253 49.7326 1.36522 49.6031 1.57447L47.0043 5.77369C46.5958 5.80772 46.1878 5.84756 45.7805 5.89322L42.4144 2.28267C42.2467 2.10235 42.0356 1.96796 41.8012 1.89228C41.5668 1.8166 41.317 1.80215 41.0755 1.8503C40.8339 1.89846 40.6087 2.00763 40.4213 2.16741C40.2339 2.32719 40.0905 2.53227 40.0047 2.76314L38.2805 7.37604C37.8809 7.49049 37.4855 7.61197 37.091 7.73619L33.0934 4.85924C32.8937 4.71488 32.6603 4.62416 32.4155 4.59578C32.1707 4.5674 31.9227 4.60229 31.6953 4.69713C31.4681 4.79151 31.2687 4.94226 31.1159 5.13514C30.9631 5.32802 30.8621 5.55667 30.8223 5.79947L30.0293 10.6635C29.6621 10.8538 29.2992 11.0495 28.9371 11.2495L24.4523 9.20455C24.2285 9.1021 23.9821 9.05876 23.7367 9.07866C23.4914 9.09856 23.2552 9.18104 23.0508 9.31822C22.8457 9.45457 22.679 9.64128 22.5667 9.86049C22.4544 10.0797 22.4002 10.3241 22.4094 10.5702L22.5812 15.5057C22.2619 15.7614 21.946 16.0213 21.6336 16.2854L16.827 15.1526C16.5872 15.0964 16.337 15.1023 16.1002 15.1696C15.8633 15.2369 15.6474 15.3635 15.473 15.5374C15.2986 15.7114 15.1716 15.9272 15.1042 16.1642C15.0368 16.4012 15.0311 16.6515 15.0879 16.8913L16.2203 21.6991C15.9574 22.0104 15.6977 22.3257 15.4426 22.6448L10.5066 22.4729C10.2608 22.4652 10.0171 22.5199 9.79818 22.632C9.57929 22.7441 9.39243 22.9099 9.25508 23.1139C9.1181 23.3186 9.03576 23.5549 9.01586 23.8003C8.99596 24.0458 9.03918 24.2922 9.14141 24.5163L11.1859 29.0022C10.9871 29.3624 10.7906 29.7257 10.6 30.0944L5.73711 30.8854C5.4941 30.925 5.26524 31.0261 5.07224 31.179C4.87924 31.3319 4.7285 31.5315 4.63432 31.759C4.54013 31.9865 4.50563 32.2343 4.53408 32.4789C4.56253 32.7235 4.65299 32.9567 4.79688 33.1565L7.67383 37.1526C7.54883 37.5471 7.42734 37.9432 7.3125 38.3428L2.7 40.0675C2.46965 40.154 2.26519 40.2979 2.10597 40.4855C1.94676 40.6731 1.83805 40.8982 1.79014 41.1396C1.74223 41.381 1.75669 41.6306 1.83218 41.8648C1.90766 42.099 2.04165 42.31 2.22148 42.478L5.82969 45.8428C5.78477 46.2491 5.74492 46.6581 5.71055 47.0659L1.51172 49.6647C1.30251 49.7942 1.12988 49.9751 1.01023 50.1901C0.890591 50.4051 0.827903 50.6472 0.828126 50.8932C0.828126 51.3948 1.08711 51.8593 1.51211 52.121L5.71055 54.7198C5.74492 55.1288 5.78477 55.537 5.82969 55.9429L2.22109 59.3089C2.04094 59.4766 1.90666 59.6876 1.831 59.9219C1.75534 60.1561 1.74081 60.4058 1.78879 60.6473C1.83678 60.8887 1.94568 61.1139 2.10516 61.3014C2.26463 61.4889 2.4694 61.6325 2.7 61.7186L7.3125 63.4432C7.42734 63.8425 7.54883 64.239 7.67383 64.6335L4.79688 68.63C4.65272 68.8297 4.56207 69.063 4.53355 69.3077C4.50503 69.5524 4.53959 69.8003 4.63395 70.0279C4.72831 70.2554 4.87932 70.455 5.07262 70.6077C5.26591 70.7604 5.49507 70.8612 5.73828 70.9003L10.6004 71.6913C10.7906 72.06 10.9855 72.4233 11.1863 72.785L9.14141 77.2694C9.039 77.4934 8.99568 77.7399 9.01558 77.9854C9.03548 78.2309 9.11793 78.4672 9.25508 78.6718C9.39144 78.8767 9.57811 79.0433 9.79723 79.1556C10.0164 79.2678 10.2606 79.3219 10.5066 79.3128L15.4402 79.1401C15.6977 79.4608 15.9566 79.7753 16.2203 80.0878L15.0879 84.8964C15.0312 85.1357 15.0368 85.3856 15.1043 85.6222C15.1717 85.8588 15.2987 86.0741 15.473 86.2476C15.6469 86.4221 15.8628 86.5491 16.0998 86.6164C16.3369 86.6836 16.5873 86.6888 16.827 86.6315L21.6336 85.4995C21.9461 85.7651 22.2625 86.0229 22.5816 86.2768L22.4098 91.214C22.4009 91.46 22.4551 91.7041 22.5672 91.9233C22.6794 92.1424 22.8457 92.3292 23.0504 92.466C23.2551 92.6027 23.4914 92.6847 23.7368 92.7043C23.9822 92.724 24.2285 92.6805 24.4523 92.578L28.9371 90.5347C29.2982 90.7353 29.6623 90.9305 30.0293 91.1202L30.8223 95.9815C30.8614 96.2247 30.9622 96.4538 31.1151 96.647C31.2679 96.8402 31.4677 96.991 31.6953 97.0851C31.9228 97.1793 32.1706 97.2139 32.4153 97.1857C32.6599 97.1575 32.8933 97.0673 33.0934 96.9237L37.0891 94.0448C37.4836 94.1698 37.8801 94.2921 38.2793 94.4069L40.0039 99.0179C40.0898 99.2486 40.2334 99.4535 40.4211 99.613C40.6087 99.7724 40.8341 99.881 41.0758 99.9284C41.3171 99.9771 41.5669 99.9629 41.8012 99.8873C42.0355 99.8116 42.2464 99.677 42.4137 99.4964L45.7797 95.8878C46.1859 95.9347 46.5945 95.9737 47.0035 96.0101L49.6023 100.208C49.732 100.417 49.9128 100.59 50.1276 100.709C50.3424 100.829 50.5842 100.892 50.8301 100.892C51.0761 100.892 51.318 100.829 51.533 100.71C51.7479 100.59 51.9288 100.418 52.0586 100.208L54.6574 96.0101C55.0664 95.9737 55.4746 95.9347 55.8805 95.8878L59.2457 99.4964C59.413 99.6769 59.6239 99.8114 59.858 99.887C60.0922 99.9627 60.3419 99.9769 60.5832 99.9284C60.8248 99.8808 61.0501 99.7721 61.2377 99.6127C61.4254 99.4534 61.569 99.2486 61.6551 99.0179L63.3797 94.4069C63.7789 94.2921 64.1758 94.1698 64.5703 94.0448L68.5668 96.9237C68.7667 97.0675 69 97.1577 69.2446 97.186C69.4892 97.2142 69.737 97.1795 69.9644 97.0851C70.1918 96.9907 70.3914 96.8398 70.5441 96.6467C70.6968 96.4535 70.7977 96.2246 70.8371 95.9815L71.6301 91.1202C71.9969 90.93 72.3598 90.7323 72.7219 90.5343L77.2066 92.578C77.4305 92.6808 77.6769 92.7245 77.9224 92.7051C78.1679 92.6856 78.4044 92.6036 78.6092 92.4668C78.8141 92.33 78.9805 92.1431 79.0926 91.9238C79.2047 91.7045 79.2587 91.4601 79.2496 91.214L79.0777 86.2772C79.3973 86.023 79.7129 85.7637 80.0242 85.4995L84.8312 86.6315C85.3195 86.7464 85.8312 86.6042 86.184 86.2476C86.3584 86.0741 86.4853 85.8588 86.5528 85.6222C86.6202 85.3856 86.6258 85.1357 86.5691 84.8964L85.4371 80.0878C85.7008 79.7753 85.9605 79.4608 86.2144 79.1401L91.1504 79.3128C91.3964 79.3221 91.6407 79.268 91.8598 79.1559C92.0789 79.0437 92.2656 78.8772 92.4019 78.6722C92.5393 78.4675 92.6218 78.231 92.6416 77.9853C92.6614 77.7397 92.6177 77.493 92.5148 77.269L90.4711 72.7854C90.6707 72.4233 90.8668 72.0601 91.0558 71.6917L95.9191 70.9003C96.1623 70.8612 96.3913 70.7604 96.5843 70.6075C96.7774 70.4546 96.9279 70.2546 97.0215 70.0268C97.1158 69.7995 97.1504 69.5518 97.122 69.3073C97.0936 69.0629 97.0032 68.8297 96.8594 68.63L93.9824 64.6339C94.1066 64.2389 94.2281 63.8425 94.3437 63.4432L98.9555 61.7186C99.1863 61.6328 99.3913 61.4891 99.5507 61.3013C99.7101 61.1136 99.8187 60.8881 99.866 60.6464C99.9146 60.4051 99.9004 60.1554 99.8248 59.9212C99.7491 59.687 99.6145 59.4761 99.434 59.3089L95.8265 55.9429C95.8703 55.5366 95.9105 55.128 95.9457 54.7202L100.144 52.121C100.353 51.9917 100.526 51.811 100.646 51.5961C100.766 51.3812 100.828 51.1392 100.828 50.8932C100.828 50.3929 100.57 49.9276 100.145 49.6647ZM72.0465 84.4913C70.4434 84.1456 69.4238 82.5655 69.768 80.9573C70.1109 79.3511 71.6898 78.3288 73.2926 78.6745C74.8957 79.0179 75.9168 80.6007 75.573 82.2058C75.2293 83.8112 73.6488 84.8347 72.0465 84.4913ZM70.6199 74.8433C70.272 74.7686 69.9129 74.7634 69.563 74.8277C69.2131 74.892 68.8793 75.0247 68.5807 75.2182C68.2821 75.4116 68.0246 75.662 67.8228 75.9551C67.6211 76.2481 67.4792 76.5781 67.4051 76.9261L65.9144 83.8819C61.3148 85.9694 56.2074 87.1292 50.8281 87.1292C45.3258 87.1292 40.107 85.912 35.4258 83.7354L33.9359 76.78C33.6227 75.3163 32.1836 74.3839 30.7219 74.6979L24.5812 76.0167C23.44 74.8421 22.3793 73.5918 21.4062 72.2745H51.2851C51.623 72.2745 51.8484 72.2132 51.8484 71.9054V61.3362C51.8484 61.0288 51.623 60.9675 51.2848 60.9675H42.5469V54.2682H51.998C52.8605 54.2682 56.6109 54.5143 57.8098 59.3081C58.1855 60.7823 59.0098 65.5776 59.5738 67.1128C60.1355 68.8347 62.4226 72.2741 64.8601 72.2741H79.7488C79.918 72.2741 80.0984 72.255 80.2887 72.2206C79.2556 73.6235 78.124 74.9511 76.9023 76.1933L70.6203 74.8433H70.6199ZM29.2957 84.346C27.6922 84.6921 26.1137 83.6698 25.7687 82.0636C25.4258 80.4546 26.4453 78.8753 28.0484 78.5296C29.6519 78.1866 31.2312 79.2089 31.575 80.8147C31.918 82.4202 30.8977 84.0022 29.2953 84.346H29.2957ZM17.9609 38.385C18.6262 39.8858 17.9492 41.6448 16.4504 42.3089C14.9516 42.9749 13.1973 42.2971 12.5324 40.7952C11.8672 39.2932 12.5437 37.5374 14.043 36.8714C14.3996 36.7132 14.7838 36.6269 15.1738 36.6174C15.5637 36.6078 15.9518 36.6753 16.3156 36.8158C16.6795 36.9564 17.0121 37.1673 17.2945 37.4365C17.5768 37.7056 17.8032 38.0279 17.9609 38.3846V38.385ZM14.4773 46.6428L20.8742 43.8003C21.5309 43.5081 22.0448 42.9673 22.3029 42.2965C22.561 41.6257 22.5423 40.8799 22.2508 40.2229L20.9336 37.244H26.1148V60.5987H15.6613C14.7347 57.3367 14.2659 53.9617 14.2684 50.5706C14.2684 49.2432 14.3398 47.9315 14.4773 46.6425V46.6428ZM42.5484 44.3745V37.4905H54.8867C55.5242 37.4905 59.3867 38.2272 59.3867 41.1155C59.3867 43.5135 56.4242 44.3733 53.9879 44.3733H42.5484V44.3745ZM87.389 50.5706C87.389 51.4839 87.3555 52.3878 87.2887 53.2846H83.5375C83.1621 53.2846 83.0109 53.5315 83.0109 53.8991V55.6218C83.0109 59.6764 80.7246 60.5585 78.7211 60.7831C76.8133 60.9979 74.6976 59.9843 74.4371 58.8167C73.3113 52.4862 71.4359 51.1343 68.4742 48.7979C72.15 46.4639 75.9742 43.0206 75.9742 38.4112C75.9742 33.4346 72.5625 30.2999 70.2367 28.7628C66.9742 26.612 63.3617 26.1807 62.3871 26.1807H23.5934C28.8539 20.3096 35.9836 16.1506 44.0473 14.6374L48.6199 19.4342C48.8652 19.6917 49.1589 19.8983 49.4842 20.0421C49.8095 20.1859 50.1599 20.2642 50.5155 20.2724C50.871 20.2806 51.2247 20.2186 51.5562 20.0899C51.8878 19.9612 52.1907 19.7684 52.4476 19.5225L57.5641 14.6288C68.2848 16.6249 77.3617 23.2983 82.5926 32.4542L79.0898 40.3655C78.4851 41.7346 79.1023 43.3358 80.4676 43.9425L87.2113 46.9378C87.3277 48.135 87.389 49.3444 87.389 50.5706ZM48.6219 10.5565C49.8066 9.42174 51.6859 9.46666 52.8203 10.653C53.9523 11.8428 53.9094 13.7241 52.7219 14.8581C51.5371 15.9932 49.6578 15.9491 48.5234 14.7604C47.9799 14.1895 47.685 13.4262 47.7034 12.6381C47.7219 11.85 48.0522 11.1014 48.6219 10.5565ZM83.3809 38.5292C83.5385 38.1724 83.7649 37.8502 84.0471 37.5811C84.3294 37.3119 84.6619 37.1011 85.0258 36.9606C85.3896 36.8201 85.7776 36.7527 86.1675 36.7624C86.5574 36.772 86.9416 36.8584 87.298 37.0167C88.7973 37.6815 89.4738 39.4397 88.8086 40.9405C88.651 41.2974 88.4247 41.6198 88.1424 41.8891C87.8601 42.1584 87.5275 42.3694 87.1636 42.51C86.7996 42.6506 86.4116 42.7181 86.0215 42.7085C85.6315 42.6989 85.2472 42.6125 84.8906 42.4542C83.3933 41.7889 82.7168 40.0323 83.3809 38.5292Z" fill="black"/>
</svg>
