<svg width="101" height="76" viewBox="0 0 101 76" fill="none" xmlns="http://www.w3.org/2000/svg">
<path d="M86.7641 43.9112C83.2754 43.9294 80.2433 44.7697 77.7044 46.0117C76.7729 44.1669 75.8414 42.523 75.677 41.3175C75.4943 39.9111 75.2751 39.0526 75.4943 37.3722C75.7135 35.6918 76.6998 33.299 76.6816 33.1163C76.6633 32.9337 76.4624 32.0752 74.4532 32.0569C72.444 32.0387 70.7088 32.4405 70.5079 32.9702C70.307 33.4999 69.9234 34.7054 69.6677 35.9475C69.3206 37.774 65.6493 44.2948 63.5488 47.7104C62.8729 46.377 62.2885 45.208 62.1606 44.2765C61.9779 42.8701 61.7588 42.0116 61.9779 40.3312C62.1971 38.6507 63.1835 36.258 63.1652 36.0753C63.1469 35.8927 62.946 35.0342 60.9368 35.0159C58.9276 34.9977 57.1924 35.3995 56.9915 35.9292C56.7906 36.4589 56.5714 37.701 56.1513 38.9065C55.7312 40.112 50.8543 50.9981 49.5757 53.811C48.9182 55.254 48.352 56.4047 47.9501 57.1901C47.9501 57.1901 47.9319 57.2449 47.8771 57.3362C47.53 58.0121 47.3291 58.3774 47.3291 58.3774C47.3291 58.3774 47.3291 58.3774 47.3291 58.3956C47.0551 58.8888 46.7629 59.3454 46.6168 59.3454C46.5072 59.3454 46.3062 58.0303 46.6533 56.2403C47.3839 52.4594 49.1191 46.5779 49.1008 46.377C49.1008 46.2674 49.4296 45.2446 47.9684 44.7149C46.5437 44.1852 46.0323 45.0619 45.9044 45.0619C45.7765 45.0619 45.6852 45.3724 45.6852 45.3724C45.6852 45.3724 47.2743 38.7603 42.6532 38.7603C39.7672 38.7603 35.7854 41.9203 33.8127 44.7697C32.5707 45.4455 29.9222 46.8884 27.0911 48.441C26.0134 49.0438 24.8992 49.6465 23.8581 50.2127C23.785 50.1397 23.712 50.0484 23.6389 49.9753C18.0497 44.0025 7.71148 39.7832 8.14985 31.7647C8.31424 28.8422 9.31883 21.1708 28.0043 11.8554C43.3838 4.27529 55.6216 6.37581 57.7404 11.0335C60.7724 17.6821 51.1831 30.0295 35.2922 31.8195C29.2281 32.4953 26.0499 30.1573 25.2463 29.2806C24.406 28.3673 24.2782 28.3125 23.9677 28.4952C23.4562 28.7692 23.785 29.5911 23.9677 30.066C24.4426 31.3081 26.397 33.4999 29.703 34.5776C32.6255 35.5274 39.7307 36.0571 48.3337 32.7328C57.9596 29.0066 65.4849 18.6502 63.2748 9.97409C61.0647 1.17017 46.4524 -1.73402 32.6255 3.17937C24.406 6.10183 15.4925 10.7047 9.08138 16.6958C1.46472 23.8193 0.259201 30.0112 0.752366 32.6049C2.52411 41.8107 15.2186 47.8017 20.2963 52.2402C20.0406 52.3863 19.8032 52.5142 19.6022 52.6238C17.0634 53.8841 7.3827 58.9436 4.97167 64.2954C2.23186 70.3595 5.41004 74.7066 7.51056 75.2911C14.0313 77.0994 20.7347 73.8482 24.333 68.4781C27.9313 63.1081 27.4929 56.1307 25.8307 52.9343C25.8125 52.8978 25.7942 52.8612 25.7577 52.8247C26.4152 52.4411 27.0911 52.0393 27.7486 51.6557C29.0455 50.8886 30.324 50.1762 31.4199 49.5917C30.7989 51.2904 30.3423 53.3179 30.1231 56.2403C29.8491 59.6742 31.2556 64.131 33.1004 65.8844C33.9223 66.6516 34.8904 66.6699 35.5114 66.6699C37.6667 66.6699 38.6348 64.8798 39.7124 62.7611C41.0275 60.1674 42.2148 57.1536 42.2148 57.1536C42.2148 57.1536 40.7353 65.2999 44.7537 65.2999C46.2149 65.2999 47.6944 63.4003 48.352 62.4323C48.352 62.4505 48.352 62.4505 48.352 62.4505C48.352 62.4505 48.3885 62.3958 48.4616 62.2679C48.6077 62.0304 48.699 61.8843 48.699 61.8843C48.699 61.8843 48.699 61.8661 48.699 61.8478C49.2835 60.8249 50.5986 58.5052 52.553 54.6512C55.0736 49.683 57.5029 43.4728 57.5029 43.4728C57.5029 43.4728 57.7221 44.9888 58.471 47.5095C58.9094 48.989 59.8226 50.6146 60.5532 52.1854C59.9688 53.0073 59.6034 53.464 59.6034 53.464C59.6034 53.464 59.6034 53.464 59.6217 53.4822C59.1468 54.1033 58.6354 54.7791 58.0691 55.4366C56.0782 57.8111 53.7037 60.5327 53.3749 61.3181C52.9914 62.2496 53.0827 62.9254 53.8133 63.4734C54.343 63.8753 55.2928 63.93 56.2609 63.8752C58.0509 63.7474 59.3112 63.309 59.9322 63.035C60.9003 62.688 62.0327 62.1583 63.0921 61.3729C65.0465 59.9299 66.2338 57.8659 66.1242 55.1444C66.0694 53.6466 65.5762 52.1489 64.9735 50.7424C65.1561 50.4867 65.3205 50.231 65.5032 49.9753C68.59 45.4637 70.9828 40.5138 70.9828 40.5138C70.9828 40.5138 71.202 42.0299 71.9508 44.5505C72.3162 45.829 73.065 47.2172 73.7226 48.5689C70.8184 50.9251 69.0284 53.6649 68.3891 55.4549C67.2384 58.7792 68.1334 60.277 69.8321 60.624C70.5992 60.7884 71.6951 60.4231 72.4988 60.076C73.5217 59.7473 74.7272 59.181 75.8779 58.3408C77.8323 56.8979 79.7136 54.8887 79.604 52.1671C79.5492 50.9251 79.2205 49.7013 78.7638 48.5141C81.2297 47.4912 84.4078 46.925 88.4628 47.3999C97.1571 48.4227 98.874 53.8475 98.5453 56.1307C98.2165 58.4139 96.3899 59.6559 95.7872 60.0395C95.1844 60.4231 94.9835 60.5509 95.0383 60.8249C95.1114 61.2268 95.4036 61.2085 95.915 61.1354C96.6274 61.0076 100.481 59.2906 100.646 55.0896C100.92 49.7196 95.8054 43.8564 86.7641 43.9112ZM19.6936 66.5237C16.8076 69.6654 12.7893 70.8526 11.054 69.848C9.19098 68.7704 9.92159 64.131 13.4651 60.8067C15.6204 58.7792 18.3967 56.8979 20.2415 55.7471C20.6616 55.4914 21.2827 55.1261 22.0315 54.6695C22.1594 54.5964 22.2325 54.5599 22.2325 54.5599C22.3786 54.4686 22.5247 54.3772 22.6708 54.2859C23.9677 59.0349 22.7256 63.2177 19.6936 66.5237ZM40.6988 52.2402C39.6942 54.6878 37.5937 60.9528 36.3151 60.6057C35.2192 60.3135 34.5433 55.5645 36.0959 50.8703C36.8813 48.5141 38.5434 45.7012 39.5115 44.6053C41.0823 42.8518 42.8176 42.2673 43.2377 42.9796C43.7674 43.9112 41.3198 50.7059 40.6988 52.2402ZM58.0326 60.5327C57.6125 60.7519 57.2107 60.898 57.028 60.7884C56.9002 60.7153 57.2107 60.4231 57.2107 60.4231C57.2107 60.4231 59.3843 58.0851 60.2427 57.0257C60.7359 56.4047 61.3204 55.6741 61.9414 54.8521C61.9414 54.9252 61.9414 55.0165 61.9414 55.0896C61.9414 57.8842 59.2381 59.7655 58.0326 60.5327ZM71.4029 57.4824C71.0924 57.2632 71.1472 56.5326 72.1883 54.2494C72.5901 53.3544 73.5399 51.8566 75.1656 50.4137C75.3482 50.9981 75.4761 51.5644 75.4578 52.0941C75.4395 55.6193 72.9189 56.9344 71.4029 57.4824Z" fill="#CD6799"/>
</svg>
