<svg width="84" height="101" viewBox="0 0 84 101" fill="none" xmlns="http://www.w3.org/2000/svg">
<path d="M78.1494 14.1219C68.8586 0.831747 50.5074 -3.10757 37.2406 5.34193L13.9419 20.1861C12.3745 21.171 10.9123 22.316 9.58195 23.603C8.24992 24.89 7.05645 26.3121 6.01987 27.8461C4.9833 29.3801 4.10864 31.0176 3.40924 32.7319C2.71155 34.4469 2.19355 36.2297 1.86356 38.0516C1.58814 39.5789 1.43791 41.128 1.41788 42.6803C1.39618 44.2343 1.50468 45.7867 1.74004 47.3207C1.9754 48.8564 2.33761 50.3703 2.82168 51.8459C3.30575 53.3215 3.91167 54.7537 4.63276 56.1291C4.1367 56.8829 3.67877 57.6612 3.26068 58.4609C2.84171 59.2605 2.46447 60.0817 2.12896 60.9197C1.79345 61.7576 1.50134 62.6123 1.25263 63.4802C1.00392 64.3482 0.80028 65.2279 0.640036 66.1159C-0.0258034 69.8502 0.0621649 73.6799 0.898763 77.3797C1.31606 79.2242 1.91531 81.0236 2.68982 82.7495C3.46432 84.4755 4.40742 86.1213 5.5091 87.6603C14.7999 100.95 33.1494 104.89 46.4162 96.4403L69.7149 81.6578C71.2823 80.6713 72.7412 79.5246 74.0715 78.236C75.4017 76.9484 76.5948 75.5264 77.6319 73.9929C78.6685 72.4605 79.5432 70.8231 80.2426 69.1088C80.9419 67.3962 81.4611 65.6135 81.7932 63.7924C82.0687 62.2651 82.2172 60.7177 82.2373 59.1654C82.2573 57.613 82.1488 56.0606 81.9118 54.5266C81.6764 52.9926 81.3142 51.4803 80.8284 50.0048C80.3427 48.5309 79.7368 47.0987 79.0157 45.7233C79.5114 44.9705 79.9705 44.1909 80.3894 43.3914C80.8067 42.5918 81.1857 41.7706 81.5212 40.9327C81.8567 40.0947 82.1505 39.2401 82.4008 38.3721C82.6495 37.5058 82.8565 36.6261 83.0184 35.7381C83.3489 33.8753 83.4925 31.9841 83.4491 30.0929C83.4057 28.2017 83.1737 26.3205 82.7564 24.4743C82.3391 22.6299 81.7398 20.8305 80.9653 19.1045C80.1918 17.3783 79.2485 15.7332 78.1494 14.1937" fill="#FF3E00"/>
<path d="M34.9638 88.9456C33.1404 89.4193 31.2553 89.6118 29.3737 89.5165C27.4925 89.4197 25.6363 89.0391 23.8703 88.3831C22.1043 87.7281 20.4483 86.8079 18.9595 85.6539C17.472 84.4993 16.169 83.1248 15.0953 81.5778C14.4327 80.6514 13.8651 79.6632 13.4011 78.6249C12.9357 77.5874 12.5751 76.5059 12.3245 75.3967C12.0758 74.2867 11.9356 73.155 11.9105 72.0182C11.8855 70.8815 11.9739 69.7448 12.1742 68.6247C12.206 68.4428 12.2427 68.2609 12.2827 68.0806C12.3211 67.8986 12.3645 67.7184 12.4113 67.5398C12.4563 67.3595 12.5064 67.1809 12.5598 67.0023C12.6116 66.8253 12.6683 66.6484 12.7268 66.4731L13.1658 65.1328L14.3626 66.0258C15.0486 66.5266 15.7564 66.9989 16.4825 67.4396C17.2086 67.882 17.953 68.2926 18.7142 68.6698C19.4737 69.0487 20.2515 69.3959 21.041 69.7081C21.8306 70.0219 22.6335 70.3006 23.448 70.546L24.341 70.8047L24.2609 71.6978C24.2179 72.3055 24.2811 72.9161 24.4479 73.5022C24.5297 73.7959 24.6382 74.0797 24.77 74.3534C24.9019 74.6272 25.0571 74.8893 25.2341 75.1363C25.5583 75.6023 25.9517 76.016 26.4008 76.3632C26.8482 76.7104 27.3473 76.9874 27.8797 77.1844C28.4122 77.3814 28.9697 77.4949 29.5373 77.5233C30.1031 77.5533 30.6706 77.4949 31.2198 77.3513C31.3467 77.318 31.4702 77.2796 31.5937 77.2362C31.7172 77.1928 31.8391 77.146 31.9576 77.0926C32.0778 77.0409 32.1946 76.9841 32.3115 76.9223C32.4266 76.8623 32.5385 76.7972 32.6486 76.7271L55.9123 61.8812C56.1975 61.7024 56.4632 61.4942 56.7051 61.2602C56.9472 61.0249 57.1625 60.7661 57.3511 60.4874C57.5397 60.2086 57.6966 59.9098 57.8235 59.5977C57.9487 59.2856 58.0422 58.9617 58.1023 58.6312C58.1607 58.2924 58.1857 57.9502 58.1774 57.6063C58.169 57.2642 58.1256 56.9236 58.0488 56.5881C57.9737 56.2543 57.8636 55.9288 57.7217 55.615C57.5815 55.3028 57.4079 55.0057 57.2076 54.727C56.8837 54.2613 56.4915 53.849 56.0425 53.5018C55.5935 53.1546 55.0944 52.8775 54.5636 52.6805C54.0316 52.4835 53.4726 52.3687 52.906 52.34C52.3385 52.3116 51.771 52.3701 51.2218 52.5119C51.0966 52.5453 50.9715 52.5837 50.8479 52.6271C50.7244 52.6705 50.6042 52.7172 50.484 52.769C50.3639 52.8224 50.247 52.8792 50.1318 52.9409C50.0167 53.001 49.9032 53.0678 49.793 53.1379L40.8594 58.8098C40.4956 59.0402 40.1217 59.2572 39.7411 59.4608C39.3588 59.6628 38.9716 59.8514 38.576 60.025C38.1804 60.1986 37.7781 60.3572 37.3708 60.4991C36.9635 60.6426 36.5512 60.7695 36.1339 60.8813C34.3128 61.352 32.4317 61.5423 30.5538 61.4455C28.676 61.3487 26.8248 60.9664 25.0621 60.3138C23.2995 59.6595 21.647 58.7397 20.1614 57.588C18.6758 56.4362 17.3738 55.0658 16.3005 53.5218C15.6412 52.5954 15.0753 51.6056 14.6129 50.5673C14.1489 49.5291 13.79 48.4474 13.5413 47.3391C13.2926 46.2291 13.1557 45.0973 13.1324 43.9606C13.1073 42.8256 13.1958 41.6888 13.3978 40.5705C13.7924 38.3685 14.6417 36.2731 15.8916 34.4178C17.1422 32.5625 18.7665 30.9888 20.6605 29.7974L43.9959 14.9532C44.3581 14.7229 44.7286 14.5059 45.1076 14.3022C45.4865 14.1003 45.8737 13.9116 46.266 13.738C46.6591 13.5644 47.0589 13.4062 47.4645 13.264C47.8684 13.1204 48.279 12.9919 48.6947 12.8801C50.5174 12.4077 52.4019 12.2141 54.2815 12.3092C56.1627 12.406 58.0171 12.7866 59.7831 13.4426C61.5492 14.0969 63.2033 15.0183 64.6923 16.1717C66.1793 17.327 67.4818 18.7021 68.5548 20.2496C69.2158 21.1743 69.785 22.1625 70.2507 23.2007C70.7164 24.239 71.0769 25.319 71.329 26.429C71.5794 27.539 71.7196 28.6707 71.7446 29.8074C71.7713 30.9442 71.6845 32.0809 71.4842 33.2009C71.4492 33.3846 71.4125 33.5682 71.3707 33.7501C71.3307 33.932 71.2873 34.114 71.2405 34.2943C71.1955 34.4762 71.1454 34.6565 71.0936 34.8351C71.0419 35.0154 70.9885 35.194 70.9301 35.3709L70.4844 36.7113L69.2959 35.8182C68.6082 35.3125 67.8988 34.8384 67.171 34.3927C66.4432 33.9487 65.6954 33.5348 64.9326 33.1525C63.4054 32.3907 61.8169 31.7586 60.1838 31.263L59.2891 31.0043L59.3709 30.1112C59.3959 29.8058 59.3942 29.4986 59.3658 29.1949C59.3391 28.8911 59.2841 28.5889 59.2039 28.2935C59.1221 27.9997 59.017 27.7109 58.8851 27.4355C58.7549 27.1584 58.5997 26.8947 58.4227 26.6443C58.0971 26.1868 57.7036 25.7816 57.256 25.4425C56.809 25.1019 56.3125 24.8317 55.7837 24.6413C54.7213 24.2558 53.5664 24.204 52.4737 24.4927C52.3469 24.5261 52.2217 24.5645 52.0998 24.6062C51.9763 24.6496 51.8545 24.698 51.7343 24.7498C51.6158 24.8015 51.4972 24.8599 51.3821 24.92C51.2669 24.9818 51.1534 25.0469 51.0432 25.117L27.7362 39.9362C27.4524 40.1148 27.187 40.3234 26.9467 40.5571C26.7063 40.7908 26.4893 41.0495 26.3007 41.3266C26.1136 41.6053 25.9554 41.9023 25.8283 42.213C25.7014 42.5251 25.608 42.8473 25.5479 43.1778C25.4895 43.5166 25.4644 43.8605 25.4728 44.2043C25.4928 44.8926 25.6476 45.5703 25.9285 46.199C26.0701 46.512 26.2417 46.8105 26.4409 47.0904C26.763 47.5511 27.1536 47.9617 27.5993 48.3055C28.0441 48.651 28.5388 48.9268 29.0665 49.1235C30.1277 49.518 31.2836 49.5814 32.3816 49.3054C32.5068 49.2703 32.632 49.232 32.7555 49.1886C32.8773 49.1452 32.9992 49.0967 33.1194 49.045C33.239 48.993 33.3565 48.9362 33.4716 48.8747C33.5867 48.8147 33.7002 48.7496 33.8104 48.6794L42.744 43.0175C43.1095 42.7838 43.4817 42.5635 43.864 42.3598C44.2446 42.1545 44.6335 41.9659 45.0308 41.7907C45.4267 41.617 45.8293 41.4588 46.2376 41.3166C46.6465 41.173 47.0605 41.0462 47.4795 40.936C49.3022 40.462 51.1851 40.2683 53.0663 40.3618C54.9475 40.457 56.802 40.8375 58.568 41.4919C60.3323 42.1462 61.9882 43.0659 63.4754 44.221C64.9643 45.3744 66.2663 46.7482 67.3396 48.2955C68.0006 49.2219 68.5681 50.2101 69.0338 51.2484C69.4995 52.286 69.8607 53.3674 70.1121 54.4766C70.3625 55.5849 70.5027 56.7167 70.5294 57.8534C70.5562 58.9918 70.4677 60.1285 70.2691 61.2469C70.0722 62.3449 69.7617 63.4196 69.3427 64.4534C68.9239 65.4875 68.398 66.475 67.7736 67.3996C67.151 68.3243 66.4332 69.1823 65.632 69.9584C64.8308 70.7346 63.9511 71.4257 63.0064 72.0199L39.6977 86.8641C39.3321 87.0961 38.9582 87.3148 38.5776 87.5184C38.1954 87.7221 37.8065 87.9107 37.4092 88.0843C37.0136 88.2596 36.6113 88.4181 36.2024 88.5617C35.7951 88.7052 35.3811 88.8338 34.9638 88.9456Z" fill="white"/>
</svg>
