<svg width="101" height="101" viewBox="0 0 101 101" fill="none" xmlns="http://www.w3.org/2000/svg">
<path d="M22.2546 0.594238H77.6236C80.3178 0.594238 82.934 1.02393 85.4721 1.92236C89.1425 3.25049 92.4615 5.59424 94.9605 8.64111C97.4986 11.688 99.1776 15.438 99.7634 19.3442C99.9976 20.7896 100.037 22.2349 100.037 23.6802V77.7036C100.037 79.4224 99.9586 81.1802 99.6072 82.8599C98.8262 86.7271 96.991 90.3599 94.3358 93.2896C91.7196 96.2192 88.2835 98.4067 84.574 99.5786C82.3092 100.282 79.9664 100.594 77.5845 100.594C76.5302 100.594 22.0984 100.594 21.2784 100.555C17.2956 100.36 13.3518 99.0708 10.0328 96.8442C6.79186 94.6567 4.13665 91.6099 2.41857 88.0942C0.934771 85.0864 0.192874 81.7271 0.192874 78.3677V22.8208C0.114779 19.5005 0.81763 16.2192 2.26238 13.2505C3.94141 9.73486 6.55758 6.64893 9.7985 4.46143C13.1175 2.1958 17.0222 0.867676 21.0051 0.672363C21.3955 0.594238 21.8251 0.594238 22.2546 0.594238Z" fill="url(#paint0_linear_4_5634)"/>
<path d="M84.3786 82.3911C84.0272 81.8442 83.6367 81.2974 83.2072 80.7896C82.231 79.6177 81.0986 78.6021 79.8491 77.7427C78.2872 76.688 76.452 76.0239 74.5777 75.9458C73.2501 75.8677 71.9225 76.1021 70.673 76.5708C69.4235 77.0005 68.213 77.6255 67.0416 78.2505C65.675 78.9536 64.3083 79.6567 62.8636 80.2427C61.1455 80.9458 59.3493 81.4927 57.5141 81.8833C55.2103 82.313 52.8675 82.4692 50.5637 82.4302C46.3856 82.3521 42.2076 81.7271 38.2248 80.5552C34.7105 79.5005 31.3525 78.0552 28.1897 76.2192C25.4173 74.6177 22.8402 72.7817 20.4193 70.7114C18.4279 68.9927 16.5926 67.1567 14.8746 65.2036C13.7031 63.8364 12.5708 62.3911 11.5165 60.9067C11.087 60.3208 10.6965 59.6958 10.3451 59.0708L0.0366211 47.938V22.7427C0.0366211 10.5161 9.91556 0.594238 22.1373 0.594238H41.8562L56.4598 15.438C89.4157 37.8599 78.7558 62.5864 78.7558 62.5864C78.7558 62.5864 88.1271 73.1333 84.3786 82.3911Z" fill="url(#paint1_linear_4_5634)"/>
<path d="M56.538 15.438C89.4938 37.8599 78.8339 62.5864 78.8339 62.5864C78.8339 62.5864 88.2052 73.1724 84.4176 82.4302C84.4176 82.4302 80.552 75.9458 74.0701 75.9458C67.8226 75.9458 64.1522 82.4302 51.579 82.4302C23.5822 82.4302 10.3452 59.0317 10.3452 59.0317C35.5697 75.6333 52.7895 63.8755 52.7895 63.8755C41.4267 57.2739 17.2566 25.7114 17.2566 25.7114C38.303 43.6411 47.4009 48.3677 47.4009 48.3677C41.9734 43.8755 26.745 21.9224 26.745 21.9224C38.9277 34.2661 63.1369 51.4927 63.1369 51.4927C70.0092 32.4302 56.538 15.438 56.538 15.438Z" fill="white"/>
<defs>
<linearGradient id="paint0_linear_4_5634" x1="59.5021" y1="-2.97412" x2="40.6018" y2="104.172" gradientUnits="userSpaceOnUse">
<stop stop-color="#FAAE42"/>
<stop offset="1" stop-color="#EF3E31"/>
</linearGradient>
<linearGradient id="paint1_linear_4_5634" x1="51.037" y1="2.20986" x2="37.2041" y2="80.6287" gradientUnits="userSpaceOnUse">
<stop stop-color="#E39F3A"/>
<stop offset="1" stop-color="#D33929"/>
</linearGradient>
</defs>
</svg>
