<svg width="101" height="61" viewBox="0 0 101 61" fill="none" xmlns="http://www.w3.org/2000/svg">
<path d="M50.3804 0.493286C37.0466 0.493286 28.7135 7.15827 25.3797 20.487C30.3804 13.822 36.2138 11.3236 42.8801 12.9892C46.684 13.9396 49.4025 16.6993 52.4124 19.753C57.3142 24.7273 62.9876 30.4845 75.381 30.4845C88.7135 30.4845 97.0479 23.8195 100.38 10.4895C95.381 17.1545 89.5476 19.6542 82.8801 17.9886C79.0774 17.0382 76.3589 14.2784 73.349 11.2248C68.4471 6.25044 62.7725 0.493286 50.3804 0.493286ZM25.3797 30.4845C12.0472 30.4845 3.71287 37.1495 0.380371 50.4794C5.37975 43.8145 11.2132 41.3148 17.8807 42.9816C21.6834 43.9333 24.4019 46.6918 27.4118 49.7442C32.3136 54.7185 37.9882 60.4769 50.3804 60.4769C63.7141 60.4769 72.0472 53.8119 75.381 40.482C70.3804 47.147 64.5469 49.6466 57.8807 47.9798C54.0768 47.0307 51.3582 44.2696 48.3484 41.2172C43.4465 36.2429 37.7731 30.4845 25.3797 30.4845Z" fill="#06B6D4"/>
</svg>
