<svg width="101" height="101" viewBox="0 0 101 101" fill="none" xmlns="http://www.w3.org/2000/svg">
<path d="M0.932129 0.485107H100.932V100.485H0.932129V0.485107Z" fill="#017ACB"/>
<path d="M48.9478 37.5164H53.7447V45.7976H40.7759V82.6413L40.4322 82.7351C39.9634 82.8601 33.7915 82.8601 32.4634 82.7195L31.4009 82.6257V45.7976H18.4321V37.5164L22.5415 37.4695C24.7915 37.4382 30.5728 37.4382 35.3853 37.4695C40.1978 37.5007 46.2915 37.5164 48.9478 37.5164ZM85.5572 78.7351C83.651 80.7507 81.6041 81.8757 78.1979 82.7976C76.7135 83.2038 76.4635 83.2195 73.1197 83.2039C69.776 83.1882 69.5103 83.1882 67.8853 82.7663C63.6822 81.6882 60.2916 79.5789 57.9791 76.5945C57.3228 75.7507 56.2447 74.0007 56.2447 73.782C56.2447 73.7195 56.4009 73.5789 56.6041 73.4851C56.8072 73.3914 57.2291 73.1257 57.5728 72.9226C57.9166 72.7195 58.5416 72.3445 58.9634 72.1257C59.3853 71.907 60.6041 71.1882 61.6666 70.5476C62.7291 69.907 63.6978 69.3914 63.8072 69.3914C63.9166 69.3914 64.1197 69.6101 64.276 69.8757C65.2135 71.4539 67.401 73.4695 68.9478 74.157C69.901 74.5632 72.0103 75.0164 73.026 75.0164C73.9635 75.0164 75.6822 74.6101 76.6041 74.1882C77.5885 73.7351 78.0885 73.282 78.6822 72.3757C79.0885 71.7351 79.1354 71.5632 79.1197 70.3445C79.1197 69.2195 79.0572 68.907 78.7447 68.3914C77.8697 66.9539 76.6822 66.2039 71.8697 64.0789C66.901 61.8757 64.6666 60.5632 62.8541 58.7976C61.5103 57.4851 61.2447 57.1257 60.401 55.4851C59.3072 53.3757 59.1666 52.6882 59.151 49.5476C59.1353 47.3445 59.1822 46.6257 59.4166 45.8757C59.7447 44.7507 60.8072 42.5789 61.2916 42.032C62.2916 40.8601 62.651 40.5007 63.3541 39.9226C65.4791 38.1726 68.7916 37.0164 71.9635 36.907C72.3228 36.907 73.5103 36.9695 74.6197 37.0476C77.8072 37.3132 79.9791 38.0945 82.0729 39.7664C83.651 41.0164 86.0416 43.9539 85.8072 44.3445C85.651 44.5789 79.4166 48.7351 79.0104 48.8601C78.7604 48.9382 78.5885 48.8445 78.2447 48.4382C76.1197 45.8914 75.2604 45.3445 73.1978 45.2195C71.7291 45.1257 70.9478 45.2976 69.9635 45.9539C68.9322 46.6414 68.4322 47.6882 68.4322 49.1414C68.4478 51.2664 69.2603 52.2664 72.2603 53.7507C74.1978 54.7039 75.8541 55.4851 75.9791 55.4851C76.1666 55.4851 80.1822 57.4851 81.2291 58.1101C86.1041 60.9695 88.0885 63.907 88.6041 68.9695C88.9791 72.782 87.901 76.2663 85.5572 78.7351Z" fill="white"/>
</svg>
