<svg width="99" height="101" viewBox="0 0 99 101" fill="none" xmlns="http://www.w3.org/2000/svg">
<path d="M98.3133 15.6921L52.1966 99.5858C51.2444 101.318 48.7981 101.328 47.8317 99.6045L0.80076 15.6999C-0.252298 13.8218 1.32652 11.5465 3.41883 11.9273L49.585 20.3218C49.8796 20.3753 50.1811 20.3748 50.4755 20.3202L95.6761 11.939C97.7615 11.5524 99.3476 13.8101 98.3133 15.6921Z" fill="url(#paint0_linear_4_5289)"/>
<path d="M71.5762 0.915734L37.4488 7.71891C37.1761 7.77326 36.9289 7.91826 36.7461 8.13111C36.5632 8.34396 36.4551 8.61259 36.4387 8.89478L34.3395 44.9651C34.3279 45.1629 34.3619 45.3608 34.4386 45.5429C34.5154 45.7251 34.6328 45.8865 34.7816 46.0145C34.9304 46.1424 35.1064 46.2333 35.2957 46.2799C35.4851 46.3265 35.6825 46.3276 35.8723 46.283L45.374 44.0522C46.2629 43.8435 47.0663 44.6401 46.8834 45.5495L44.0605 59.6128C43.8707 60.5592 44.7439 61.3684 45.6524 61.0875L51.5213 59.2737C52.4309 58.9928 53.3053 59.8043 53.1128 60.7516L48.6267 82.8414C48.346 84.2233 50.1526 84.9766 50.9058 83.7922L51.4093 83.001L79.2184 26.5406C79.6843 25.5953 78.8809 24.5174 77.8608 24.7179L68.0799 26.6381C67.1611 26.8184 66.3792 25.9476 66.6384 25.0331L73.022 2.52036C73.2816 1.60354 72.4966 0.73237 71.5766 0.915734H71.5762Z" fill="url(#paint1_linear_4_5289)"/>
<defs>
<linearGradient id="paint0_linear_4_5289" x1="-0.347539" y1="18.6959" x2="50.5029" y2="86.5786" gradientUnits="userSpaceOnUse">
<stop stop-color="#41D1FF"/>
<stop offset="1" stop-color="#BD34FE"/>
</linearGradient>
<linearGradient id="paint1_linear_4_5289" x1="53.8637" y1="2.76293" x2="64.4456" y2="74.1152" gradientUnits="userSpaceOnUse">
<stop stop-color="#FFEA83"/>
<stop offset="0.083" stop-color="#FFDD35"/>
<stop offset="1" stop-color="#FFA800"/>
</linearGradient>
</defs>
</svg>
