<svg width="101" height="100" viewBox="0 0 101 100" fill="none" xmlns="http://www.w3.org/2000/svg">
<path d="M1.15991 35.3304C1.15991 35.3304 -1.27571 33.5747 1.64704 31.2304L8.45664 25.1414C8.45664 25.1414 10.4051 23.0914 12.4653 24.8775L75.3044 72.4534V95.2671C75.3044 95.2671 75.274 98.8495 70.6767 98.4537L1.15991 35.3304Z" fill="#2489CA"/>
<path d="M17.3568 50.0358L1.15988 64.7611C1.15988 64.7611 -0.504471 65.9993 1.15988 68.2116L8.67988 75.0517C8.67988 75.0517 10.466 76.9697 13.1046 74.7878L30.2758 61.7674L17.3568 50.0358Z" fill="#1070B3"/>
<path d="M45.7929 50.1575L75.4974 27.4756L75.3046 4.78365C75.3046 4.78365 74.036 -0.168806 69.8041 2.40891L30.2759 38.3852L45.7929 50.1575Z" fill="#0877B9"/>
<path d="M70.677 98.4843C72.4022 100.25 74.4928 99.6716 74.4928 99.6716L97.6414 88.2648C100.605 86.2452 100.189 83.7386 100.189 83.7386V15.6221C100.189 12.6283 97.1238 11.5932 97.1238 11.5932L77.0603 1.92169C72.6762 -0.787945 69.8042 2.40882 69.8042 2.40882C69.8042 2.40882 73.4982 -0.250077 75.3047 4.78356V94.8511C75.3047 95.4702 75.1727 96.0791 74.9089 96.6271C74.3811 97.6927 73.2344 98.6872 70.4841 98.2711L70.677 98.4843Z" fill="#3C99D4"/>
</svg>
