<svg width="89" height="101" viewBox="0 0 89 101" fill="none" xmlns="http://www.w3.org/2000/svg">
<path d="M44.5517 0.297119L0.360069 25.2971V75.2971L44.5517 100.297L88.7434 75.2971V25.2971L44.5517 0.297119Z" fill="white"/>
<path d="M8.25183 73.5721L43.0935 93.2804V77.9304L21.3852 65.9887L8.25183 73.5721ZM5.8685 71.4137V30.1971L18.6185 37.5554V64.0471L5.8685 71.4137ZM80.9935 73.5721L46.1518 93.2804V77.9304L67.8602 65.9887L80.9935 73.5721ZM83.3768 71.4137V30.1971L70.6268 37.5554V64.0471L83.3768 71.4137ZM81.8852 27.5304L46.1518 7.31372V22.1554L69.0435 34.7471L69.2185 34.8471L81.8852 27.5304ZM7.36015 27.5304L43.0935 7.31372V22.1554L20.2018 34.7471L20.0268 34.8471L7.36015 27.5304Z" fill="#8ED6FB"/>
<path d="M46.1517 74.4388L67.5684 62.6638V39.3304L46.1517 51.6971V74.4388ZM43.0934 74.4388L21.6767 62.6638V39.3304L43.0934 51.6971V74.4388ZM66.1184 36.6304L44.6184 24.8054L23.1184 36.6304L44.6184 49.0471L66.1184 36.6304Z" fill="#1C78C0"/>
</svg>
