<svg width="101" height="101" viewBox="0 0 101 101" fill="none" xmlns="http://www.w3.org/2000/svg">
<path d="M7.86867 50.4839C7.86867 67.4627 17.7354 82.1343 32.0429 89.0881L11.5823 33.0276C9.12948 38.5201 7.86402 44.4686 7.86867 50.4839ZM79.718 48.3194C79.718 43.0183 77.8139 39.3472 76.1807 36.4898C74.0064 32.9566 71.9693 29.9645 71.9693 26.4313C71.9693 22.4883 74.9589 18.818 79.1712 18.818C79.3613 18.818 79.5417 18.8417 79.7278 18.8523C72.0958 11.8609 61.9287 7.59235 50.7618 7.59235C35.7769 7.59235 22.5932 15.2807 14.9237 26.9259C15.93 26.9561 16.8792 26.9765 17.684 26.9765C22.1705 26.9765 29.1153 26.4321 29.1153 26.4321C31.4275 26.2958 31.7001 29.6919 29.3911 29.9653C29.3911 29.9653 27.0667 30.2387 24.4811 30.3742L40.101 76.8348L49.4886 48.6826L42.805 30.3734C40.4952 30.2379 38.307 29.9645 38.307 29.9645C35.9956 29.829 36.2666 26.295 38.578 26.4313C38.578 26.4313 45.6616 26.9756 49.8763 26.9756C54.362 26.9756 61.3076 26.4313 61.3076 26.4313C63.6214 26.295 63.8932 29.691 61.5826 29.9645C61.5826 29.9645 59.2541 30.2379 56.6734 30.3734L72.1741 76.4823L76.4517 62.1854C78.3068 56.2526 79.718 51.9913 79.718 48.3194Z" fill="white"/>
<path d="M51.5142 54.2358L38.6448 91.6312C42.5793 92.7907 46.6599 93.3795 50.7617 93.3795C55.7567 93.3795 60.5468 92.5151 65.0056 90.9481C64.886 90.7609 64.7838 90.5631 64.7003 90.3572L51.5142 54.2358ZM88.3988 29.9049C88.5832 31.2712 88.6877 32.7387 88.6877 34.3155C88.6877 38.6682 87.8748 43.5611 85.4263 49.6791L72.3242 87.5601C85.0761 80.124 93.6533 66.3086 93.6533 50.4839C93.6647 43.2909 91.8572 36.2119 88.3988 29.9049Z" fill="white"/>
<path d="M50.7617 0.485107C23.1922 0.485107 0.76123 22.9144 0.76123 50.4839C0.76123 78.0566 23.1913 100.486 50.7617 100.486C78.3304 100.486 100.765 78.0574 100.765 50.4839C100.764 22.9144 78.3304 0.485107 50.7617 0.485107ZM50.7617 98.1932C24.4564 98.1932 3.05386 76.7907 3.05386 50.4839C3.05386 24.1794 24.4556 2.77855 50.7617 2.77855C77.0662 2.77855 98.4671 24.1794 98.4671 50.4839C98.4671 76.7907 77.0654 98.1932 50.7617 98.1932Z" fill="white"/>
</svg>
