<svg width="101" height="101" viewBox="0 0 101 101" fill="none" xmlns="http://www.w3.org/2000/svg">
<path d="M7.59254 50.4839C7.59254 67.4627 17.4593 82.1343 31.7668 89.0881L11.3061 33.0276C8.85336 38.5201 7.5879 44.4686 7.59254 50.4839ZM79.4419 48.3194C79.4419 43.0183 77.5378 39.3472 75.9046 36.4898C73.7303 32.9566 71.6931 29.9645 71.6931 26.4313C71.6931 22.4883 74.6828 18.818 78.8951 18.818C79.0852 18.818 79.2656 18.8417 79.4517 18.8523C71.8196 11.8609 61.6526 7.59235 50.4857 7.59235C35.5008 7.59235 22.3171 15.2807 14.6475 26.9259C15.6539 26.9561 16.6031 26.9765 17.4078 26.9765C21.8943 26.9765 28.8392 26.4321 28.8392 26.4321C31.1514 26.2958 31.424 29.6919 29.115 29.9653C29.115 29.9653 26.7906 30.2387 24.2049 30.3742L39.8248 76.8348L49.2125 48.6826L42.5288 30.3734C40.2191 30.2379 38.0309 29.9645 38.0309 29.9645C35.7195 29.829 35.9905 26.295 38.3019 26.4313C38.3019 26.4313 45.3854 26.9756 49.6001 26.9756C54.0858 26.9756 61.0315 26.4313 61.0315 26.4313C63.3453 26.295 63.6171 29.691 61.3065 29.9645C61.3065 29.9645 58.978 30.2379 56.3972 30.3734L71.898 76.4823L76.1756 62.1854C78.0307 56.2526 79.4419 51.9913 79.4419 48.3194Z" fill="#00749A"/>
<path d="M51.2382 54.2358L38.3688 91.6312C42.3033 92.7907 46.3839 93.3795 50.4857 93.3795C55.4807 93.3795 60.2708 92.5151 64.7296 90.9481C64.61 90.7609 64.5078 90.5631 64.4243 90.3572L51.2382 54.2358ZM88.1228 29.9049C88.3072 31.2712 88.4117 32.7387 88.4117 34.3155C88.4117 38.6682 87.5988 43.5611 85.1502 49.6791L72.0482 87.5601C84.8001 80.124 93.3773 66.3086 93.3773 50.4839C93.3887 43.2909 91.5812 36.2119 88.1228 29.9049Z" fill="#00749A"/>
<path d="M50.4857 0.485107C22.9162 0.485107 0.485229 22.9144 0.485229 50.4839C0.485229 78.0566 22.9153 100.486 50.4857 100.486C78.0544 100.486 100.489 78.0574 100.489 50.4839C100.488 22.9144 78.0544 0.485107 50.4857 0.485107ZM50.4857 98.1932C24.1804 98.1932 2.77786 76.7907 2.77786 50.4839C2.77786 24.1794 24.1796 2.77855 50.4857 2.77855C76.7902 2.77855 98.1911 24.1794 98.1911 50.4839C98.1911 76.7907 76.7894 98.1932 50.4857 98.1932Z" fill="#00749A"/>
</svg>
