<svg width="101" height="99" viewBox="0 0 101 99" fill="none" xmlns="http://www.w3.org/2000/svg">
<path d="M4.54712 5.01099H96.2137V94.1775H4.54712V5.01099Z" fill="#2E001E"/>
<path d="M0.380371 0.844238V98.3442H100.38V0.844238H0.380371ZM4.54704 5.0109H96.2137V94.1775H4.54704V5.0109Z" fill="#FF2BC2"/>
<path d="M73.0053 41.8025C72.3803 41.5109 71.5886 41.3859 70.5886 41.3859C65.3386 41.3859 61.8386 45.4275 61.8386 52.1358C61.8386 59.8025 65.422 62.8858 70.0886 62.8858C71.0886 62.8858 72.172 62.7608 72.9636 62.4275V41.8025H73.0053ZM54.3386 52.4692C54.3386 42.7609 60.5886 35.1775 70.8386 35.1775C71.7136 35.1775 72.172 35.1775 73.0053 35.2609V24.4276C73.0053 24.1776 73.2136 24.0109 73.422 24.0109H80.1303C80.4636 24.0109 80.547 24.1359 80.547 24.3442V62.4275C80.547 63.5525 80.547 64.9691 80.7553 66.5108C80.7553 66.8025 80.7553 66.8441 80.5053 66.9691C77.0053 68.6358 73.3386 69.3858 69.8386 69.3858C60.797 69.3858 54.3386 63.8025 54.3386 52.4692ZM40.1303 45.7192L51.797 68.3441C52.0053 68.6775 51.8803 69.0108 51.547 69.0108H44.297C43.8386 69.0108 43.6303 68.8858 43.422 68.4691C40.7553 62.9691 38.047 57.2608 35.2553 51.3442H35.172C32.672 56.9275 29.922 63.0108 27.2553 68.5108C27.047 68.8441 26.8386 68.9691 26.5053 68.9691H19.5886C19.172 68.9691 19.1303 68.6358 19.3386 68.3858L30.7553 46.4275L19.7137 24.5942C19.4637 24.2609 19.7136 23.9692 20.0053 23.9692H27.172C27.5886 23.9692 27.797 24.0526 27.922 24.4276C30.547 29.9692 33.2136 35.4275 35.7136 41.0109H35.797C38.2136 35.5109 40.8803 29.9692 43.422 24.5109C43.6303 24.1776 43.7553 23.9692 44.172 23.9692H50.8803C51.2136 23.9692 51.3386 24.2192 51.1303 24.5942L40.1303 45.7192Z" fill="#FF2BC2"/>
</svg>
