<svg width="26" height="25" viewBox="0 0 26 25" fill="none" xmlns="http://www.w3.org/2000/svg">
<path d="M13.2541 0.209961C6.31465 0.209961 0.6875 5.85287 0.6875 12.814C0.6875 18.3828 4.2882 23.1073 9.28133 24.7739C9.90934 24.8906 10.14 24.5005 10.14 24.1676C10.14 23.8671 10.1282 22.8741 10.1229 21.821C6.62678 22.5834 5.88908 20.3338 5.88908 20.3338C5.31744 18.877 4.4938 18.4897 4.4938 18.4897C3.35368 17.7074 4.57974 17.7234 4.57974 17.7234C5.84167 17.8124 6.50615 19.0223 6.50615 19.0223C7.62694 20.9492 9.44592 20.3921 10.163 20.0701C10.2758 19.2554 10.6015 18.6994 10.9609 18.3847C8.1697 18.0659 5.23544 16.9852 5.23544 12.1557C5.23544 10.7797 5.72636 9.65527 6.53029 8.77263C6.3998 8.45512 5.9697 7.17322 6.65201 5.4371C6.65201 5.4371 7.70727 5.09834 10.1087 6.72908C11.1111 6.44973 12.1861 6.30976 13.2541 6.30501C14.3221 6.30976 15.3979 6.44973 16.4022 6.72908C18.8008 5.09834 19.8546 5.4371 19.8546 5.4371C20.5386 7.17322 20.1083 8.45512 19.9778 8.77263C20.7835 9.65527 21.2711 10.7796 21.2711 12.1557C21.2711 16.9966 18.3313 18.0626 15.533 18.3746C15.9837 18.7658 16.3854 19.5329 16.3854 20.7087C16.3854 22.3951 16.3708 23.7524 16.3708 24.1676C16.3708 24.503 16.597 24.896 17.234 24.7723C22.2244 23.1037 25.8206 18.3809 25.8206 12.814C25.8206 5.85287 20.1942 0.209961 13.2541 0.209961Z" fill="black" fill-opacity="0.9"/>
</svg>
