<svg width="18" height="19" viewBox="0 0 18 19" fill="none" xmlns="http://www.w3.org/2000/svg">
<path fill-rule="evenodd" clip-rule="evenodd" d="M17.64 9.93447C17.64 9.30347 17.5827 8.69673 17.4764 8.11426H9V11.5565H13.8436C13.635 12.6688 13.0009 13.6113 12.0477 14.2423V16.4751H14.9564C16.6582 14.9259 17.64 12.6446 17.64 9.93447Z" fill="#4285F4"/>
<path fill-rule="evenodd" clip-rule="evenodd" d="M8.99976 18.6314C11.4298 18.6314 13.467 17.8345 14.9561 16.4755L12.0475 14.2427C11.2416 14.7766 10.2107 15.0921 8.99976 15.0921C6.65567 15.0921 4.67158 13.5267 3.96385 11.4233H0.957031V13.7289C2.43794 16.6372 5.48158 18.6314 8.99976 18.6314Z" fill="#34A853"/>
<path fill-rule="evenodd" clip-rule="evenodd" d="M3.96409 11.423C3.78409 10.8891 3.68182 10.3187 3.68182 9.73223C3.68182 9.14571 3.78409 8.57538 3.96409 8.04145V5.73584H0.957273C0.347727 6.93718 0 8.29628 0 9.73223C0 11.1682 0.347727 12.5273 0.957273 13.7286L3.96409 11.423Z" fill="#FBBC05"/>
<path fill-rule="evenodd" clip-rule="evenodd" d="M8.99976 4.37281C10.3211 4.37281 11.5075 4.82179 12.4402 5.70359L15.0216 3.15124C13.4629 1.71529 11.4257 0.833496 8.99976 0.833496C5.48158 0.833496 2.43794 2.82764 0.957031 5.73594L3.96385 8.04155C4.67158 5.93819 6.65567 4.37281 8.99976 4.37281Z" fill="#EA4335"/>
</svg>
